<svg width="26" height="20" viewBox="0 0 26 20" fill="none" xmlns="http://www.w3.org/2000/svg">
<path d="M25.9941 10.3125V9.6875C25.9941 9.34219 25.7103 9.0625 25.3599 9.0625H14.26V7.5H17.1143C17.8147 7.5 18.3828 6.94023 18.3828 6.25V1.25C18.3828 0.559766 17.8147 0 17.1143 0H9.50293C8.80245 0 8.23437 0.559766 8.23437 1.25V6.25C8.23437 6.94023 8.80245 7.5 9.50293 7.5H12.3572V9.0625H1.25732C0.906886 9.0625 0.623047 9.34219 0.623047 9.6875V10.3125C0.623047 10.6578 0.906886 10.9375 1.25732 10.9375H5.38013V12.5H3.16016C2.45968 12.5 1.8916 13.0598 1.8916 13.75V18.75C1.8916 19.4402 2.45968 20 3.16016 20H9.50293C10.2034 20 10.7715 19.4402 10.7715 18.75V13.75C10.7715 13.0598 10.2034 12.5 9.50293 12.5H7.28296V10.9375H19.3342V12.5H17.1143C16.4138 12.5 15.8457 13.0598 15.8457 13.75V18.75C15.8457 19.4402 16.4138 20 17.1143 20H23.457C24.1575 20 24.7256 19.4402 24.7256 18.75V13.75C24.7256 13.0598 24.1575 12.5 23.457 12.5H21.2371V10.9375H25.3599C25.7103 10.9375 25.9941 10.6578 25.9941 10.3125ZM10.7715 5V2.5H15.8457V5H10.7715ZM8.23437 17.5H4.42871V15H8.23437V17.5ZM22.1885 17.5H18.3828V15H22.1885V17.5Z" fill="#1170B2"/>
</svg>
