<svg width="132" height="132" viewBox="0 0 132 132" fill="none" xmlns="http://www.w3.org/2000/svg">
<circle opacity="0.25" cx="66" cy="66" r="66" fill="#C3DBEC"/>
<rect x="32" y="32" width="68" height="68" rx="30" fill="#4D94C5"/>
<g clip-path="url(#clip0_5170_12802)">
<path d="M81.0207 77.6677C80.9112 77.45 80.8044 77.233 80.6989 77.023C79.2494 74.1288 78.3716 72.3813 79.9578 65.4996C80.7791 61.9368 80.6005 58.817 79.4259 56.2372C78.5604 54.332 77.1691 52.7173 75.1713 51.3005C75.1465 51.2781 75.126 51.2516 75.1105 51.222C74.9294 48.3806 73.1674 46.0994 70.7172 45.5346C68.2671 44.9699 65.6852 46.2499 64.2792 48.7226C64.2525 48.7415 64.2229 48.7558 64.1915 48.7649C58.5522 49.6981 55.1114 53.1891 53.6712 59.4378C52.0843 66.3223 50.5321 67.5096 47.9607 69.4741C47.7739 69.6168 47.5838 69.7615 47.3892 69.9129C46.8885 70.295 46.5079 70.8126 46.2922 71.4043C46.0765 71.996 46.0349 72.6371 46.1722 73.2517C46.4621 74.5693 47.4935 75.5834 48.8647 75.8995L77.0833 82.4037C78.4481 82.7183 79.8109 82.2569 80.6489 81.2052C81.0426 80.7128 81.2868 80.1178 81.3528 79.4909C81.4187 78.8639 81.3034 78.2312 81.0207 77.6677Z" fill="white"/>
<path d="M61.2841 86.4638C62.6045 86.767 63.9823 86.7072 65.2714 86.2907C66.5605 85.8742 67.7129 85.1166 68.6063 84.0982C68.6486 84.0493 68.6775 83.9903 68.6903 83.9269C68.703 83.8634 68.6992 83.7978 68.679 83.7363C68.6589 83.6749 68.6233 83.6196 68.5755 83.576C68.5278 83.5324 68.4695 83.5019 68.4065 83.4874L56.1851 80.6705C56.122 80.6557 56.0562 80.6575 55.9941 80.6757C55.9319 80.6939 55.8756 80.7279 55.8305 80.7744C55.7854 80.8209 55.7531 80.8782 55.7367 80.9409C55.7204 81.0036 55.7205 81.0694 55.7371 81.132C56.0946 82.4385 56.7989 83.624 57.7755 84.5627C58.7521 85.5014 59.9645 86.1583 61.2841 86.4638Z" fill="#E88026"/>
</g>
<defs>
<clipPath id="clip0_5170_12802">
<rect width="48" height="48" fill="white" transform="translate(48.0039 37.2227) rotate(12.9796)"/>
</clipPath>
</defs>
</svg>
