<svg width="225" height="226" viewBox="0 0 225 226" fill="none" xmlns="http://www.w3.org/2000/svg">
<circle opacity="0.25" cx="112.5" cy="113.323" r="112.5" fill="#C3DBEC"/>
<path d="M112.293 181.41C150.011 181.41 180.587 150.834 180.587 113.117C180.587 75.3995 150.011 44.8235 112.293 44.8235C74.576 44.8235 44 75.3995 44 113.117C44 150.834 74.576 181.41 112.293 181.41Z" fill="#1170B2"/>
<path d="M131.215 108.76V95.6931C131.216 93.2071 130.728 90.7452 129.778 88.448C128.828 86.1508 127.435 84.0633 125.678 82.3048C123.92 80.5464 121.834 79.1514 119.537 78.1996C117.241 77.2479 114.779 76.7581 112.293 76.7581C109.807 76.7581 107.346 77.2479 105.049 78.1996C102.753 79.1514 100.666 80.5464 98.9091 82.3048C97.1519 84.0633 95.7585 86.1508 94.8085 88.448C93.8584 90.7452 93.3703 93.2071 93.3721 95.6931V108.76C90.8429 108.874 88.455 109.959 86.705 111.788C84.9551 113.618 83.9778 116.052 83.9766 118.583V149.463H140.61V118.583C140.609 116.052 139.632 113.618 137.882 111.788C136.132 109.959 133.744 108.874 131.215 108.76ZM112.293 83.4338C115.543 83.4376 118.659 84.7304 120.957 87.0287C123.256 89.3269 124.548 92.4429 124.552 95.6931V108.737H100.035V95.6931C100.038 92.4429 101.331 89.3269 103.629 87.0287C105.927 84.7304 109.043 83.4376 112.293 83.4338Z" fill="white"/>
<path d="M117.384 124.01C117.384 123.132 117.158 122.269 116.726 121.505C116.294 120.74 115.673 120.101 114.921 119.648C114.169 119.195 113.313 118.944 112.435 118.919C111.558 118.895 110.689 119.097 109.913 119.508C109.137 119.918 108.481 120.522 108.007 121.261C107.534 122 107.259 122.849 107.211 123.726C107.162 124.602 107.341 125.476 107.729 126.263C108.118 127.05 108.704 127.723 109.43 128.217V139.282H115.156V128.217C115.843 127.75 116.405 127.123 116.793 126.39C117.181 125.657 117.384 124.839 117.384 124.01Z" fill="#6C63FF"/>
<circle cx="150" cy="170.823" r="20" fill="#E88026"/>
<path d="M150.08 162.052C147.345 162.052 145.574 163.172 144.183 165.171C143.931 165.533 144.008 166.03 144.36 166.297L145.839 167.418C146.194 167.687 146.7 167.624 146.978 167.276C147.836 166.2 148.473 165.581 149.814 165.581C150.868 165.581 152.172 166.26 152.172 167.282C152.172 168.055 151.534 168.451 150.493 169.035C149.279 169.716 147.673 170.562 147.673 172.681V173.016C147.673 173.471 148.041 173.839 148.495 173.839H150.978C151.433 173.839 151.801 173.471 151.801 173.016V172.819C151.801 171.35 156.093 171.289 156.093 167.315C156.093 164.322 152.989 162.052 150.08 162.052ZM149.737 174.848C148.428 174.848 147.363 175.913 147.363 177.222C147.363 178.531 148.428 179.595 149.737 179.595C151.046 179.595 152.11 178.531 152.11 177.222C152.11 175.913 151.046 174.848 149.737 174.848Z" fill="white"/>
</svg>
