<svg width="41" height="40" viewBox="0 0 41 40" fill="none" xmlns="http://www.w3.org/2000/svg">
<path d="M8.83301 22.5H5.49967C4.57921 22.5 3.83301 23.2462 3.83301 24.1667V35C3.83301 35.9205 4.57921 36.6667 5.49967 36.6667H8.83301C9.75347 36.6667 10.4997 35.9205 10.4997 35V24.1667C10.4997 23.2462 9.75347 22.5 8.83301 22.5Z" stroke="#1D1C1D" stroke-width="1.5" stroke-linecap="round" stroke-linejoin="round"/>
<path d="M10.5 24.167H20.0833C21.234 24.167 22.1667 25.0997 22.1667 26.2503C22.1667 27.401 21.234 28.3337 20.0833 28.3337H16.3333" stroke="#1D1C1D" stroke-width="1.5" stroke-linecap="round" stroke-linejoin="round"/>
<path d="M18.8333 28.3327H24.9862C26.4028 28.3327 27.7828 27.8813 28.9257 27.0442L33.306 23.8355C34.2582 23.097 35.613 23.181 36.466 24.0317C37.4557 25.0183 37.388 26.6377 36.3197 27.539L28.9918 33.5033C27.8028 34.471 26.3167 34.9993 24.7835 34.9993H10.5" stroke="#1D1C1D" stroke-width="1.5" stroke-linecap="round" stroke-linejoin="round"/>
<path d="M32.1667 11.6663C32.1667 16.2686 28.4357 19.9997 23.8333 19.9997C19.231 19.9997 15.5 16.2686 15.5 11.6663C15.5 7.06396 19.231 3.33301 23.8333 3.33301C28.4357 3.33301 32.1667 7.06396 32.1667 11.6663Z" stroke="#1D1C1D" stroke-width="1.5" stroke-linecap="round" stroke-linejoin="round"/>
</svg>
