<svg width="132" height="132" viewBox="0 0 132 132" fill="none" xmlns="http://www.w3.org/2000/svg">
<circle opacity="0.25" cx="66" cy="66" r="66" fill="#C3DBEC"/>
<rect x="32" y="32" width="68" height="68" rx="30" fill="#4D94C5"/>
<path d="M45.6875 62.0939H49.5938V71.4689H47.25C46.6284 71.4689 46.0323 71.7158 45.5927 72.1553C45.1532 72.5949 44.9062 73.191 44.9062 73.8126C44.9062 74.4342 45.1532 75.0304 45.5927 75.4699C46.0323 75.9094 46.6284 76.1564 47.25 76.1564H84.75C85.3716 76.1564 85.9677 75.9094 86.4073 75.4699C86.8468 75.0304 87.0938 74.4342 87.0938 73.8126C87.0938 73.191 86.8468 72.5949 86.4073 72.1553C85.9677 71.7158 85.3716 71.4689 84.75 71.4689H82.4062V62.0939H86.3125C86.8228 62.0939 87.3192 61.9274 87.7263 61.6196C88.1334 61.3118 88.4288 60.8795 88.5678 60.3885C88.7068 59.8975 88.6818 59.3745 88.4964 58.899C88.3111 58.4235 87.9756 58.0215 87.541 57.754L67.2285 45.254C66.8591 45.0266 66.4338 44.9062 66 44.9062C65.5662 44.9062 65.1409 45.0266 64.7715 45.254L44.459 57.754C44.0244 58.0215 43.6889 58.4235 43.5036 58.899C43.3182 59.3745 43.2932 59.8975 43.4322 60.3885C43.5712 60.8795 43.8666 61.3118 44.2737 61.6196C44.6808 61.9274 45.1772 62.0939 45.6875 62.0939ZM54.2812 62.0939H58.9688V71.4689H54.2812V62.0939ZM68.3438 62.0939V71.4689H63.6562V62.0939H68.3438ZM77.7188 71.4689H73.0312V62.0939H77.7188V71.4689ZM66 50.0021L78.0312 57.4064H53.9688L66 50.0021ZM90.2188 81.6251C90.2188 82.2467 89.9718 82.8429 89.5323 83.2824C89.0927 83.7219 88.4966 83.9689 87.875 83.9689H44.125C43.5034 83.9689 42.9073 83.7219 42.4677 83.2824C42.0282 82.8429 41.7812 82.2467 41.7812 81.6251C41.7812 81.0035 42.0282 80.4074 42.4677 79.9678C42.9073 79.5283 43.5034 79.2814 44.125 79.2814H87.875C88.4966 79.2814 89.0927 79.5283 89.5323 79.9678C89.9718 80.4074 90.2188 81.0035 90.2188 81.6251Z" fill="white"/>
</svg>
