<svg width="276" height="312" viewBox="0 0 276 312" fill="none" xmlns="http://www.w3.org/2000/svg">
<path d="M303.326 221.662H129.734V408.583H303.326V221.662Z" fill="#447762"/>
<path d="M216.528 256.293C264.464 256.293 303.324 240.695 303.324 221.454C303.324 202.212 264.464 186.615 216.528 186.615C168.592 186.615 129.732 202.212 129.732 221.454C129.732 240.695 168.592 256.293 216.528 256.293Z" fill="#03272C"/>
<path d="M369.8 0.669312L308.182 107.065C308.182 107.065 306.854 112.606 299.244 107.873C291.634 103.141 247.682 62.7868 240.571 68.8496C231.997 76.1601 275.766 98.7041 268.698 102.44C261.631 106.176 207.409 76.4336 204.597 85.7158C201.647 95.4517 247.35 107.606 241.745 110.006C236.778 112.133 224.194 112.036 219.896 114.231C215.598 116.426 185.095 132.017 187.923 138.842C191.933 148.516 225.929 115.674 237.982 125.09C238.156 125.226 240.045 128.646 237.373 131.21C236.618 131.935 235.703 133.168 229.603 136.623C216.058 144.295 207.09 161.886 214.458 189.094C214.458 189.094 217.28 195.743 221.391 189.5C227.205 180.668 215.952 153.342 242.681 144.473C269.409 135.605 281.41 172.46 261.118 184.876C240.826 197.292 235.963 191.473 236.29 199.767C236.688 209.859 262.437 199.403 271.48 191.359C280.523 183.315 315.925 136.82 334.273 120.709C348.651 108.084 424.348 32.7059 456.442 0.669312H369.8Z" fill="#F0AE74"/>
<path d="M248.123 216.754H189.502V221.673H248.123V216.754Z" fill="white"/>
<path d="M227.062 280.085L223.943 285.332C223.839 285.508 223.762 285.695 223.723 285.883C223.378 287.571 222.689 295.868 239.297 305.519C240.356 306.134 242.177 306.989 243.336 307.431C245.822 308.379 249.184 309.715 256.437 308.122C256.824 308.037 257.203 307.756 257.461 307.372L261.946 301.421C262.406 300.734 262.353 299.911 261.83 299.59L228.867 279.346C228.324 279.012 227.498 279.351 227.062 280.085Z" fill="#FECA30"/>
<path d="M262.573 300.483C265.664 295.759 260.378 287.097 250.766 281.136C241.153 275.175 230.855 274.172 227.763 278.896C224.672 283.62 229.958 292.281 239.571 298.242C249.183 304.203 259.482 305.206 262.573 300.483Z" fill="#FEEB4A"/>
<path d="M259.912 298.816C262.535 294.808 258.049 287.459 249.893 282.401C241.737 277.343 232.999 276.492 230.376 280.5C227.753 284.508 232.239 291.857 240.395 296.915C248.551 301.973 257.289 302.824 259.912 298.816Z" fill="#EC9E26"/>
<path d="M258.213 298.184C260.69 294.401 256.46 287.465 248.766 282.692C241.072 277.919 232.827 277.117 230.35 280.9C227.874 284.683 232.103 291.619 239.797 296.392C247.491 301.165 255.736 301.967 258.213 298.184Z" fill="#FECA30"/>
<path d="M243.433 295.903C242.061 293.126 244.403 289.62 244.503 289.473L245.462 290.089C245.441 290.12 243.38 293.215 244.468 295.418L243.433 295.903Z" fill="#0E513C"/>
<path d="M244.546 289.97C244.546 289.97 247.153 286.67 253.199 290.323C253.199 290.323 252 293.317 244.546 289.97Z" fill="#657A44"/>
<path d="M239.188 280.604C239.188 280.604 248.537 287.347 245.01 290.248C245.01 290.248 237.42 285.486 239.188 280.604Z" fill="#657A44"/>
<path d="M208.659 225.963H206.744V246.662H208.659V225.963Z" fill="#FEEB4A"/>
<path d="M233.947 231.556H232.031V252.256H233.947V231.556Z" fill="#FEEB4A"/>
<path d="M233.915 225.216H231.999V229.132H233.915V225.216Z" fill="#FEEB4A"/>
<path d="M215.556 237.711H213.641V278.177H215.556V237.711Z" fill="#FEEB4A"/>
</svg>
