<svg width="225" height="213" viewBox="0 0 225 213" fill="none" xmlns="http://www.w3.org/2000/svg">
<path opacity="0.7" d="M199.187 42.2553C199.187 42.2553 156.83 25.3817 113.796 48.1041C70.7613 70.8265 47.6851 118.261 27.978 156.215C8.27094 194.169 17.307 233.864 48.7997 252.989C80.2923 272.114 103.152 246.522 148.319 246.923C193.487 247.323 205.379 254.235 243.773 230.128C282.168 206.02 291.197 146.101 263.332 100.454C235.468 54.8064 199.187 42.2553 199.187 42.2553Z" fill="white"/>
<path d="M199.513 47.6561C230.681 64.9768 266.843 108.141 251.041 166.725C235.239 225.309 202.626 264.679 146.616 257.636C90.6045 250.594 44.344 215.978 43.6905 142.371C43.037 68.7635 131.169 9.67323 199.513 47.6561Z" fill="#1648CE"/>
<path opacity="0.7" d="M199.513 47.6561C230.681 64.9768 266.843 108.141 251.041 166.725C235.239 225.309 202.626 264.679 146.616 257.636C90.6045 250.594 44.344 215.978 43.6905 142.371C43.037 68.7635 131.169 9.67323 199.513 47.6561Z" fill="white"/>
<path d="M164.282 27.4024L173.38 75.3665L92.9576 91.3086L82.5365 40.32L164.282 27.4024Z" stroke="#263238" stroke-linecap="round" stroke-linejoin="round"/>
<path d="M94.0049 38.5055L102.709 89.3771" stroke="#263238" stroke-linecap="round" stroke-linejoin="round"/>
<path d="M109.593 83.4259L105.351 59.1309" stroke="#263238" stroke-linecap="round" stroke-linejoin="round"/>
<path d="M113.655 79.8686L112.678 72.7726" stroke="#263238" stroke-linecap="round" stroke-linejoin="round"/>
<path d="M121.84 81.0284L115.399 44.7652" stroke="#263238" stroke-linecap="round" stroke-linejoin="round"/>
<path d="M126.937 33.3017L135.204 82.9349" stroke="#263238" stroke-linecap="round" stroke-linejoin="round" stroke-dasharray="1 2"/>
<path d="M95.6105 85.6531L89.5946 55.4945" stroke="#263238" stroke-linecap="round" stroke-linejoin="round"/>
<path d="M98.1586 84.7801L95.756 70.6072" stroke="#263238" stroke-linecap="round" stroke-linejoin="round"/>
<path d="M140.547 77.5357L135.868 52.6695" stroke="#263238" stroke-linecap="round" stroke-linejoin="round"/>
<path d="M146.076 75.6285L144.599 67.7067" stroke="#263238" stroke-linecap="round" stroke-linejoin="round"/>
<path d="M149.907 75.1989L143.288 38.9813" stroke="#263238" stroke-linecap="round" stroke-linejoin="round"/>
<path d="M168.563 72.0955L166.637 62.3151" stroke="#263238" stroke-linecap="round" stroke-linejoin="round"/>
<path d="M161.942 39.1614L160.387 30.7251" stroke="#263238" stroke-linecap="round" stroke-linejoin="round"/>
<path d="M155.716 33.745C156.313 33.9264 156.865 34.2333 157.333 34.6453C157.802 35.0572 158.177 35.5646 158.433 36.1334" stroke="#263238" stroke-linecap="round" stroke-linejoin="round"/>
<path d="M150.271 37.4365C150.405 36.3921 150.909 35.4304 151.692 34.726C152.475 34.0216 153.484 33.6213 154.537 33.5978" stroke="#263238" stroke-linecap="round" stroke-linejoin="round"/>
<path d="M151.243 40.7294C150.71 40.1247 150.368 39.3754 150.26 38.5762" stroke="#263238" stroke-linecap="round" stroke-linejoin="round"/>
<path d="M158.818 37.9324C158.785 38.6925 158.557 39.4312 158.154 40.0768C157.752 40.7223 157.189 41.2526 156.521 41.616C155.852 41.9794 155.101 42.1636 154.341 42.1505C153.58 42.1375 152.836 41.9277 152.18 41.5416" stroke="#263238" stroke-linecap="round" stroke-linejoin="round"/>
<path d="M157.625 46.5312C157.88 45.7482 158.171 44.9715 158.356 44.176" stroke="#263238" stroke-linecap="round" stroke-linejoin="round"/>
<path d="M156.993 53.2219C155.411 52.5393 156.894 48.8214 157.235 47.738" stroke="#263238" stroke-linecap="round" stroke-linejoin="round"/>
<path d="M161.271 46.8735L159.562 53.8373C159.096 53.7206 158.625 53.6275 158.159 53.5344" stroke="#263238" stroke-linecap="round" stroke-linejoin="round"/>
<path d="M159.663 43.4032C161.427 44.1643 162.02 43.8748 161.571 45.7248" stroke="#263238" stroke-linecap="round" stroke-linejoin="round"/>
<path d="M33.4948 127.361L30.5712 136.575L38.7274 129.785C42.8765 133.59 48.2424 135.798 53.8681 136.014" stroke="#263238" stroke-linecap="round" stroke-linejoin="round"/>
<path d="M30.0367 116.113C30.9951 119.22 32.4354 122.157 34.305 124.817" stroke="#263238" stroke-linecap="round" stroke-linejoin="round"/>
<path d="M47.5645 80.6183C34.4232 83.2139 26.2053 97.6268 29.2004 112.815" stroke="#263238" stroke-linecap="round" stroke-linejoin="round"/>
<path d="M62.3293 82.9696C61.2299 82.3772 60.0856 81.8724 58.9068 81.4602" stroke="#263238" stroke-linecap="round" stroke-linejoin="round"/>
<path d="M58.4192 135.615C71.5604 133.025 79.7784 118.607 76.7773 103.424C75.4926 96.5305 71.8616 90.294 66.5008 85.7736" stroke="#263238" stroke-linecap="round" stroke-linejoin="round"/>
<path d="M63.3812 119.582C68.1768 115.264 64.9393 109.286 60.1388 106.765C63.7212 102.713 64.6544 95.9724 58.6356 93.6347C48.4985 89.6864 42.1652 102.795 39.8625 108.867C39.596 109.555 39.372 110.12 39.208 110.591C39.5291 110.978 39.9381 111.431 40.4289 111.979C44.7343 116.839 55.2912 126.862 63.3812 119.582Z" stroke="#263238" stroke-linecap="round" stroke-linejoin="round"/>
<path d="M223.634 199.148C224.672 199.833 225.762 200.435 226.894 200.951" stroke="#263238" stroke-linecap="round" stroke-linejoin="round"/>
<path d="M232.592 147.147C219.263 148.465 209.695 162.021 211.217 177.425C211.835 184.409 214.85 190.965 219.749 195.98" stroke="#263238" stroke-linecap="round" stroke-linejoin="round"/>
<path d="M224.112 181.391C227.698 188.249 236.165 190.901 243.024 187.315C249.882 183.729 252.534 175.262 248.948 168.404C245.361 161.545 236.894 158.893 230.036 162.48C223.178 166.066 220.526 174.533 224.112 181.391Z" stroke="#263238" stroke-linecap="round" stroke-linejoin="round"/>
<path opacity="0.2" d="M102.895 191.126C102.895 191.126 77.4769 188.778 71.2768 191.759C65.0768 194.741 22.9004 195.857 17.6109 194.442C17.6109 194.442 15.0481 204.209 18.5183 208.116C21.9884 212.024 18.5532 217.949 21.8716 227.796C25.1899 237.643 101.013 231.295 101.013 231.295L128.569 231.862L143.145 215.815L102.895 191.126Z" fill="black" fill-opacity="0.7"/>
<path d="M90.5342 204.057C90.353 203.995 90.1869 203.894 90.0469 203.763C88.0889 201.654 85.9784 192.71 84.4698 185.03C83.2143 178.67 82.3754 173.199 82.3754 173.199C82.3754 173.199 117.356 169.332 121.029 169.367C124.702 169.403 184.23 163.198 184.23 163.198L184.776 179.455L185.501 201.023C185.501 201.023 183.911 201.138 181.134 201.33C163.44 202.582 97.4818 206.835 90.5342 204.057Z" fill="#1648CE"/>
<mask id="mask0_114_1396" style="mask-type:luminance" maskUnits="userSpaceOnUse" x="82" y="163" width="104" height="42">
<path d="M90.5342 204.057C90.353 203.995 90.1869 203.894 90.0469 203.763C88.0889 201.654 85.9784 192.71 84.4698 185.03C83.2143 178.67 82.3754 173.199 82.3754 173.199C82.3754 173.199 117.356 169.332 121.029 169.367C124.702 169.403 184.23 163.198 184.23 163.198L184.776 179.455L185.501 201.023C185.501 201.023 183.911 201.138 181.134 201.33C163.44 202.582 97.4818 206.835 90.5342 204.057Z" fill="white"/>
</mask>
<g mask="url(#mask0_114_1396)">
<path opacity="0.2" d="M90.5343 204.057L86.8378 185.053L85.4367 177.876C87.3627 175.952 87.4125 174.47 87.4125 174.47L92.7622 173.931L101.516 173.088L178.537 165.671C179.742 167.454 182.409 168.354 182.409 168.354L182.699 179.282L183.207 198.214L181.158 201.318C163.441 202.582 97.4819 206.835 90.5343 204.057Z" fill="black" fill-opacity="0.7"/>
<path d="M90.5343 204.057L86.8378 185.053L85.4367 177.876C87.3627 175.952 87.4125 174.47 87.4125 174.47L92.7622 173.931L101.516 173.088L178.537 165.671C179.742 167.454 182.409 168.354 182.409 168.354L182.699 179.282L183.207 198.214L181.158 201.318C163.441 202.582 97.4819 206.835 90.5343 204.057Z" stroke="#263238" stroke-linecap="round" stroke-linejoin="round"/>
<path d="M113.461 175.725L113.412 182.056L111.434 182.042L110.825 180.277L110.421 176.216L113.461 175.725Z" fill="#1648CE" stroke="#263238" stroke-linecap="round" stroke-linejoin="round"/>
<path d="M109.383 176.076L109.498 180.731L108.919 181.918L106.292 181.833L106.285 176.4L109.383 176.076Z" fill="#1648CE" stroke="#263238" stroke-linecap="round" stroke-linejoin="round"/>
<path d="M105.178 176.779L105.51 182.098L103.521 182.019L102.636 179.442L102.816 176.727L105.178 176.779Z" fill="#1648CE" stroke="#263238" stroke-linecap="round" stroke-linejoin="round"/>
<path d="M101.82 177.066L101.561 181.357L100.458 181.736L99.2539 181.098L99.043 177.258L100.921 176.614L101.82 177.066Z" fill="#1648CE" stroke="#263238" stroke-linecap="round" stroke-linejoin="round"/>
<path d="M97.9286 181.977L96.2045 182.551C96.0211 182.643 95.8181 182.691 95.6127 182.689C95.4072 182.687 95.2052 182.636 95.0235 182.54C94.8991 182.429 94.8052 182.287 94.7509 182.13C94.6966 181.972 94.6836 181.803 94.7133 181.639C94.7461 181.309 94.8614 180.985 94.8823 180.654C94.9333 179.657 94.1213 178.734 94.3197 177.755C95.3863 177.382 96.9546 176.428 97.4202 177.744C97.4947 177.987 97.5375 182.115 97.9286 181.977Z" fill="#1648CE" stroke="#263238" stroke-linecap="round" stroke-linejoin="round"/>
<path d="M93.0924 181.913C92.6829 182.002 92.268 182.065 91.8504 182.101C91.586 182.159 91.3113 182.148 91.0526 182.068C90.7939 181.989 90.5597 181.845 90.3725 181.65C90.2366 181.397 90.1643 181.115 90.1619 180.827L89.8878 177.411C90.5327 177.368 91.1796 177.364 91.8249 177.4C92.5906 177.609 92.527 177.466 92.833 178.196C93.312 179.352 92.5192 180.726 93.0924 181.913Z" fill="#1648CE" stroke="#263238" stroke-linecap="round" stroke-linejoin="round"/>
<path d="M176.744 170.307C176.744 170.307 164.29 171.474 161.827 171.509" stroke="#263238" stroke-linecap="round" stroke-linejoin="round"/>
<path d="M176.582 173.081L169.72 173.617" stroke="#263238" stroke-linecap="round" stroke-linejoin="round"/>
<path d="M179.081 182.725L171.037 183.427L170.92 184.518L178.99 184.242L179.081 182.725Z" fill="#1648CE" stroke="#263238" stroke-linecap="round" stroke-linejoin="round"/>
<path opacity="0.2" d="M90.5341 204.057C90.3529 203.995 90.1869 203.894 90.0468 203.763C88.0888 201.654 85.9783 192.71 84.4698 185.03L89.7842 185.082L92.75 173.955L93.1973 172.276L101.504 173.112L133.245 176.306L182.675 179.305L184.776 179.432L185.501 201.023C185.501 201.023 183.911 201.138 181.134 201.33C163.44 202.582 97.4817 206.835 90.5341 204.057Z" fill="black" fill-opacity="0.7"/>
</g>
<path d="M90.5342 204.057C90.353 203.995 90.1869 203.894 90.0469 203.763C88.0889 201.654 85.9784 192.71 84.4698 185.03C83.2143 178.67 82.3754 173.199 82.3754 173.199C82.3754 173.199 117.356 169.332 121.029 169.367C124.702 169.403 184.23 163.198 184.23 163.198L184.776 179.455L185.501 201.023C185.501 201.023 183.911 201.138 181.134 201.33C163.44 202.582 97.4818 206.835 90.5342 204.057Z" stroke="#263238" stroke-linecap="round" stroke-linejoin="round"/>
<path d="M11.1376 214.73C12.3822 214.878 30.2756 213.09 32.2186 213.073C37.534 213.03 44.5224 211.592 44.5224 211.592C49.9162 209.541 62.3147 208.025 70.3111 202.492C78.3075 196.959 87.6491 197.055 95.5885 196.199C103.528 195.342 102.841 195.566 109.877 195.87C115.163 196.092 120.458 195.908 125.715 195.32C130.397 194.899 138.631 194.045 142.45 195.482C146.269 196.918 147.125 200.588 143.248 204.56C139.371 208.533 123.619 210.017 121.676 209.998C119.733 209.979 113.663 209.92 111.311 211.303C111.311 211.303 115.297 219.285 116.419 219.296C117.541 219.306 127.457 219.166 127.978 220.34L143.14 215.815L146.201 224.703C144.69 226.356 142.945 227.78 141.023 228.929C139.431 229.913 137.743 230.734 135.985 231.378C126.035 235.02 119.062 240.959 116.198 242.171C113.334 243.384 90.6943 241.925 86.484 241.885C82.2738 241.844 62.8903 238.94 59.6241 238.98C57.2616 239.01 48.4596 240.519 41.7067 242.043C39.1028 242.608 20.2431 246.011 18.7438 246.546L11.1376 214.73Z" fill="white"/>
<path opacity="0.4" d="M128.951 222.859C127.682 222.788 117.547 224.208 117.547 224.208C115.015 225.235 106.473 219.412 106.473 219.412C105.788 218.165 101.471 217.592 101.471 217.592C102.37 213.715 111.402 204.903 111.402 204.903C111.402 204.903 107.745 203.816 98.6808 202.547C89.6162 201.279 67.9848 208.558 53.0676 211.603C38.1503 214.648 32.2364 213.073 32.2364 213.073C37.5518 213.03 44.5401 211.592 44.5401 211.592C49.9339 209.541 62.3325 208.025 70.3288 202.492C78.3252 196.959 87.6491 197.055 95.5885 196.199C103.528 195.342 102.841 195.566 109.877 195.87C115.163 196.092 120.458 195.908 125.715 195.32C130.397 194.899 138.631 194.045 142.45 195.482C146.269 196.918 147.125 200.588 143.248 204.56C139.371 208.533 123.619 210.017 121.676 209.998C119.733 209.979 113.663 209.92 111.311 211.303C111.311 211.303 115.297 219.285 116.419 219.296C117.541 219.306 127.457 219.166 127.978 220.34L143.14 215.815L146.201 224.703C144.69 226.356 142.945 227.78 141.023 228.929C135.323 226.01 129.742 222.926 128.951 222.859Z" fill="#1648CE"/>
<path d="M18.7734 246.534C24.165 244.72 56.405 239.037 59.6535 238.998C62.9019 238.958 82.309 241.862 86.5133 241.903C90.7177 241.943 113.369 243.402 116.227 242.189C119.085 240.977 126.064 235.038 136.015 231.396C139.905 230.021 143.409 227.732 146.231 224.721L143.169 215.833L128.007 220.358C127.487 219.172 117.57 219.324 116.448 219.314C115.326 219.303 111.34 211.321 111.34 211.321C113.716 209.939 119.762 209.997 121.705 210.016C123.648 210.035 139.406 208.551 143.277 204.578C147.149 200.606 146.304 196.93 142.479 195.5C138.655 194.069 130.426 194.917 125.745 195.338C120.481 195.927 115.18 196.11 109.889 195.888C102.852 195.584 103.551 195.354 95.6001 196.216C87.6489 197.079 78.3072 196.983 70.3109 202.51C62.3146 208.037 49.916 209.559 44.5222 211.609C44.5222 211.609 15.8033 215.3 11.1374 214.748" stroke="#263238" stroke-linecap="round" stroke-linejoin="round"/>
<path d="M111.34 211.304C111.34 211.304 104.79 212.64 101.488 215.762" stroke="#263238" stroke-linecap="round" stroke-linejoin="round"/>
<path d="M108.35 212.125C108.35 212.125 106.486 218.013 106.35 220.48" stroke="#263238" stroke-linecap="round" stroke-linejoin="round"/>
<path d="M68.6355 203.557C68.6355 203.557 60.7743 209.764 56.7882 211.592" stroke="#263238" stroke-linecap="round" stroke-linejoin="round"/>
<path d="M193.041 195.002L181.203 238.187C181.203 238.187 135.167 222.524 129.469 219.38L89.2587 213.831C89.2587 213.831 90.7422 186.183 94.7091 173.501C94.7091 173.501 136.557 181.948 142.145 182.434C147.733 182.919 193.041 195.002 193.041 195.002Z" fill="#1648CE"/>
<mask id="mask1_114_1396" style="mask-type:luminance" maskUnits="userSpaceOnUse" x="89" y="173" width="105" height="66">
<path d="M193.041 195.002L181.203 238.187C181.203 238.187 135.167 222.524 129.469 219.38L89.2587 213.831C89.2587 213.831 90.7422 186.183 94.7091 173.501C94.7091 173.501 136.557 181.948 142.145 182.434C147.733 182.919 193.041 195.002 193.041 195.002Z" fill="white"/>
</mask>
<g mask="url(#mask1_114_1396)">
<path opacity="0.2" d="M144.598 185.221L185.304 195.157C185.304 195.157 187.301 199.281 189.146 200.887L180.024 231.821C180.024 231.821 176.982 231.886 175.017 233.645L130.06 217.555L96.8453 213.437C96.8453 213.437 96.4925 208.385 92.7652 207.864C92.7652 207.864 92.0375 191.487 95.0369 180.538C95.0369 180.538 99.0825 179.284 101.653 177.33L144.598 185.221Z" fill="black" fill-opacity="0.7"/>
<path d="M144.598 185.221L185.304 195.157C185.304 195.157 187.301 199.281 189.146 200.887L180.024 231.821C180.024 231.821 176.982 231.886 175.017 233.645L130.06 217.555L96.8453 213.437C96.8453 213.437 96.4925 208.385 92.7652 207.864C92.7652 207.864 92.0375 191.487 95.0369 180.538C95.0369 180.538 99.0825 179.284 101.653 177.33L144.598 185.221Z" stroke="#263238" stroke-linecap="round" stroke-linejoin="round"/>
<path d="M142.402 193.143C142.402 193.143 153.004 196.062 151 205.964C148.997 215.866 135.954 210.136 135.954 210.136C135.954 210.136 125.384 210.093 126.92 202.058C128.251 195.091 132.119 191.408 142.402 193.143Z" fill="#1648CE" stroke="#263238" stroke-linecap="round" stroke-linejoin="round"/>
<path d="M181.388 198.893C181.388 198.893 169.27 195.776 166.939 194.98" stroke="#263238" stroke-linecap="round" stroke-linejoin="round"/>
<path d="M180.312 201.452L173.668 199.64" stroke="#263238" stroke-linecap="round" stroke-linejoin="round"/>
<path d="M179.395 211.376L171.59 209.31L171.114 210.298L178.803 212.77L179.395 211.376Z" fill="#1648CE" stroke="#263238" stroke-linecap="round" stroke-linejoin="round"/>
<path d="M127.093 185.932L125.446 192.046L123.537 191.531L123.39 189.67L124.025 185.637L127.093 185.932Z" fill="#1648CE" stroke="#263238" stroke-linecap="round" stroke-linejoin="round"/>
<path d="M123.055 185.243L121.995 189.774L121.135 190.782L118.615 190.037L119.976 184.777L123.055 185.243Z" fill="#1648CE" stroke="#263238" stroke-linecap="round" stroke-linejoin="round"/>
<path d="M118.806 184.866L117.787 190.1L115.885 189.515L115.675 186.802L116.533 184.218L118.806 184.866Z" fill="#1648CE" stroke="#263238" stroke-linecap="round" stroke-linejoin="round"/>
<path d="M115.487 184.296L114.154 188.382L112.99 188.471L111.983 187.552L112.752 183.786L114.731 183.633L115.487 184.296Z" fill="#1648CE" stroke="#263238" stroke-linecap="round" stroke-linejoin="round"/>
<path d="M110.484 188.069L108.67 188.211C108.472 188.257 108.266 188.256 108.068 188.208C107.87 188.16 107.687 188.066 107.533 187.934C107.442 187.794 107.388 187.633 107.376 187.467C107.364 187.301 107.395 187.134 107.465 186.983C107.58 186.671 107.772 186.395 107.869 186.071C108.174 185.123 107.624 184.02 108.051 183.12C109.174 183.025 110.928 182.504 111.05 183.887C111.06 184.1 110.07 188.1 110.484 188.069Z" fill="#1648CE" stroke="#263238" stroke-linecap="round" stroke-linejoin="round"/>
<path d="M105.819 186.789C105.39 186.777 104.962 186.733 104.539 186.659C104.008 186.565 103.402 186.359 103.224 185.849C103.155 185.569 103.158 185.277 103.232 184.999L103.855 181.627C104.488 181.747 105.114 181.905 105.728 182.1C106.416 182.496 106.393 182.342 106.504 183.123C106.675 184.365 105.56 185.488 105.819 186.789Z" fill="#1648CE" stroke="#263238" stroke-linecap="round" stroke-linejoin="round"/>
<path d="M99.8492 211.193C99.8492 211.193 115.507 212.749 117.084 212.765" stroke="#263238" stroke-linecap="round" stroke-linejoin="round"/>
<path d="M100.579 208.395C100.579 208.395 108.722 209.064 110.138 209.184" stroke="#263238" stroke-linecap="round" stroke-linejoin="round"/>
<path d="M106.572 197.498L97.3136 195.513L97.2953 197.408L106.559 198.873L106.572 197.498Z" fill="#1648CE" stroke="#263238" stroke-linecap="round" stroke-linejoin="round"/>
<path opacity="0.2" d="M129.698 219.483C130.594 215.393 131.887 211.75 133.726 209.063C133.726 209.063 128.074 210.969 118.405 217.827L89.259 213.807C89.259 213.807 90.2245 195.763 92.6887 182.145C104.458 186.452 126.765 194.285 131.208 193.424C137.308 192.261 144.452 196.647 144.452 196.647C146.777 210.317 156.965 223.65 165.599 232.816C151.974 228.06 133.729 221.571 129.698 219.483Z" fill="black" fill-opacity="0.7"/>
</g>
<path d="M193.041 195.002L181.203 238.187C181.203 238.187 135.167 222.524 129.469 219.38L89.2587 213.831C89.2587 213.831 90.7422 186.183 94.7091 173.501C94.7091 173.501 136.557 181.948 142.145 182.434C147.733 182.919 193.041 195.002 193.041 195.002Z" stroke="#263238" stroke-linecap="round" stroke-linejoin="round"/>
<path d="M100.875 218.118L56.7882 211.592C59.6889 210.262 64.6494 206.607 67.1303 204.717C68.0583 204.018 68.6356 203.551 68.6356 203.551L70.3112 202.486C78.3076 196.959 87.6492 197.049 95.6005 196.193C103.552 195.337 102.853 195.56 109.889 195.864C115.171 196.087 120.462 195.905 125.715 195.32C130.397 194.899 138.631 194.045 142.45 195.482C144.321 196.185 145.479 197.43 145.712 198.98C145.945 200.529 145.217 202.518 143.248 204.56C139.377 208.533 123.619 210.017 121.676 209.998C119.733 209.979 113.663 209.92 111.311 211.303C111.34 211.304 104.177 215.002 100.875 218.118Z" fill="white"/>
<path opacity="0.4" d="M73.4631 202.056C71.821 203.316 69.4624 204.161 67.1303 204.717C68.0583 204.018 68.6356 203.551 68.6356 203.551L70.3113 202.486C78.3076 196.959 87.6493 197.049 95.6005 196.193C103.552 195.337 102.853 195.56 109.889 195.864C115.171 196.087 120.462 195.905 125.715 195.32C130.397 194.899 138.631 194.045 142.45 195.482C144.321 196.185 145.479 197.43 145.712 198.98C144.845 201.924 141.81 204.848 136.657 205.826C128.007 207.514 135.058 199.592 127.76 197.673C120.461 195.754 118.463 198.421 116.61 199.508C114.757 200.594 110.708 199.144 105.267 197.455C99.8271 195.767 77.9788 198.598 73.4631 202.056Z" fill="#1648CE"/>
<path d="M100.875 218.118C104.177 214.996 111.34 211.304 111.34 211.304C113.716 209.921 119.763 209.979 121.705 209.998C123.648 210.017 139.407 208.533 143.278 204.561C147.149 200.588 146.304 196.913 142.48 195.482C138.655 194.051 130.426 194.899 125.745 195.321C120.481 195.909 115.181 196.093 109.889 195.87C102.853 195.566 103.552 195.337 95.6003 196.199C87.6491 197.061 78.3074 196.965 70.3111 202.492L68.6355 203.557C68.6355 203.557 60.7743 209.764 56.7882 211.592" stroke="#263238" stroke-linecap="round" stroke-linejoin="round"/>
<path d="M119.758 197.625C119.758 197.625 122.476 203.007 122.214 205.686" stroke="#263238" stroke-linecap="round" stroke-linejoin="round"/>
<path opacity="0.2" d="M196.273 116.566C196.273 116.566 211.32 103.164 212.244 102.24C213.168 101.316 229.083 100.767 236.111 98.2597C243.14 95.7527 284.274 94.9038 284.274 94.9038C284.274 94.9038 287.333 92.4825 285.764 85.5579C284.195 78.6333 287.301 71.8896 282.935 64.1407C278.569 56.3919 214.911 70.7242 214.911 70.7242L166.42 85.4273L196.273 116.566Z" fill="black" fill-opacity="0.7"/>
<path d="M196.071 125.871C196.071 125.871 157.351 119.427 152.275 113.047C149.358 109.363 148.055 103.652 148.281 98.5987C148.446 94.9389 149.399 91.6173 151.089 89.673C155.109 85.0405 157.274 78.5122 159.874 75.2775C162.474 72.0427 171.586 72.1189 179.318 70.0911C187.05 68.0634 187.31 65.0246 195.023 64.4022C202.735 63.7798 226.353 61.1968 232.951 56.1817C239.548 51.1667 244.681 51.0981 251.362 49.0602C258.043 47.0224 282.29 31.8785 282.29 31.8785L289.604 69.4374C289.604 69.4374 274.316 72.9749 261.836 76.7993C255.913 78.6142 250.616 80.4941 247.895 82.086C242.634 85.1422 237.141 87.7806 231.467 89.9766C226.985 94.1735 217.125 96.3992 208.503 97.0187L202.808 107.003C200.626 114.701 196.071 125.871 196.071 125.871Z" fill="white"/>
<path opacity="0.4" d="M196.071 125.871C196.071 125.871 157.352 119.427 152.275 113.047C149.358 109.363 148.055 103.652 148.281 98.5987C151.349 86.6401 158.065 83.4805 159.698 81.8722C161.875 79.7318 175.035 77.0183 182.661 78.651C190.287 80.2837 193.126 79.1891 196.87 77.9378C205.165 75.1655 209.533 83.9065 212.654 84.8343C215.775 85.7621 233.281 85.624 239.011 81.764C242.06 79.7147 257.725 74.5096 261.825 76.8051C255.902 78.6199 250.604 80.4999 247.884 82.0918C242.623 85.148 237.129 87.7863 231.455 89.9824C226.974 94.1793 217.113 96.405 208.491 97.0245L202.796 107.009C200.626 114.701 196.071 125.871 196.071 125.871Z" fill="#1648CE"/>
<path d="M199.241 80.1221C199.241 80.1221 196.775 77.9841 196.793 76.1181" stroke="#263238" stroke-linecap="round" stroke-linejoin="round"/>
<path d="M190.794 84.641C190.794 84.641 185.985 82.321 184.946 78.679" stroke="#263238" stroke-linecap="round" stroke-linejoin="round"/>
<path d="M162.524 80.3286C162.524 80.3286 164.695 85.4933 168.425 86.3443" stroke="#263238" stroke-linecap="round" stroke-linejoin="round"/>
<path d="M202.802 107.015C202.802 107.015 201.179 105.712 199.862 105.699" stroke="#263238" stroke-linecap="round" stroke-linejoin="round"/>
<path d="M289.604 69.4611C289.604 69.4611 256.358 77.1598 247.872 82.1094C242.61 85.1656 237.117 87.804 231.443 90C226.962 94.1969 217.095 96.4225 208.473 97.042L202.778 107.026C200.602 114.712 196.053 125.859 196.053 125.859C196.053 125.859 157.334 119.415 152.258 113.035C147.181 106.655 147.088 94.3529 151.101 89.6672C155.115 84.9815 157.286 78.5064 159.886 75.2717C162.486 72.0369 171.598 72.1131 179.33 70.0853C187.062 68.0576 187.322 65.0188 195.035 64.3964C202.747 63.774 226.365 61.191 232.962 56.1759C239.56 51.1609 244.693 51.0923 251.374 49.0545C258.055 47.0166 282.29 31.8785 282.29 31.8785" stroke="#263238" stroke-linecap="round" stroke-linejoin="round"/>
<path d="M198.449 140.097L103.617 77.1792L101.846 91.796L99.5688 136.237L184.409 141.609L198.449 140.097Z" fill="#263238" stroke="#263238" stroke-linecap="round" stroke-linejoin="round"/>
<path d="M198.455 140.097L101.226 133.43L103.617 77.1792L178.119 82.3394L201.253 83.9447L200.031 108.453L198.455 140.097Z" fill="#757575"/>
<mask id="mask2_114_1396" style="mask-type:luminance" maskUnits="userSpaceOnUse" x="101" y="77" width="101" height="64">
<path d="M198.455 140.097L101.226 133.43L103.617 77.1792L178.119 82.3394L201.253 83.9447L200.031 108.453L198.455 140.097Z" fill="white"/>
</mask>
<g mask="url(#mask2_114_1396)">
<path d="M112.509 125.118C112.472 128.901 115.51 131.997 119.293 132.034C123.076 132.07 126.172 129.033 126.209 125.25C126.245 121.467 123.208 118.37 119.425 118.334C115.642 118.297 112.545 121.335 112.509 125.118Z" fill="#BFBFBF" stroke="#263238" stroke-miterlimit="10"/>
<path d="M123.924 123.297L123.271 127.932" stroke="#263238" stroke-linecap="round" stroke-linejoin="round"/>
<path d="M122.808 122.04L122.062 129.007" stroke="#263238" stroke-linecap="round" stroke-linejoin="round"/>
<path d="M115.942 121.2L115.196 128.173" stroke="#263238" stroke-linecap="round" stroke-linejoin="round"/>
<path d="M121.233 124.304C121.184 124.495 121.21 124.698 121.306 124.871C121.402 125.043 121.561 125.172 121.75 125.23L121.692 125.75L116.766 125.176L116.856 124.404L120.614 124.842L120.685 124.252L121.233 124.304Z" fill="#263238"/>
<path d="M121.002 126.883C120.999 127.19 120.767 127.329 120.443 127.291L120.384 127.29L120.416 126.989L120.469 126.99C120.611 126.991 120.676 126.956 120.689 126.856C120.702 126.756 120.649 126.69 120.508 126.677C120.366 126.664 120.242 126.71 120.039 126.897C119.957 126.992 119.853 127.066 119.737 127.114C119.62 127.161 119.494 127.179 119.369 127.168C119.045 127.13 118.881 126.951 118.92 126.638C118.958 126.326 119.16 126.192 119.479 126.224L119.603 126.226L119.57 126.52L119.423 126.519C119.281 126.518 119.222 126.558 119.209 126.659C119.196 126.759 119.243 126.83 119.384 126.843C119.526 126.857 119.65 126.811 119.853 126.624C119.935 126.528 120.039 126.454 120.155 126.407C120.272 126.36 120.398 126.341 120.523 126.352C120.877 126.397 121.064 126.582 121.002 126.883Z" fill="#263238"/>
<path d="M120.914 127.437L120.804 128.416L120.515 128.378L120.554 128.048L118.831 127.848L118.864 127.535L120.592 127.735L120.631 127.405L120.914 127.437Z" fill="#263238"/>
<path d="M194.412 111.545L196.915 100.584C196.98 100.301 196.803 100.019 196.52 99.9542L189.686 98.3937C189.403 98.3291 189.121 98.5061 189.057 98.7891L186.553 109.751C186.489 110.034 186.666 110.315 186.949 110.38L193.783 111.94C194.065 112.005 194.347 111.828 194.412 111.545Z" fill="white" stroke="#263238" stroke-linecap="round" stroke-linejoin="round"/>
<path d="M190.144 102.446L190.185 102.405C190.185 102.405 190.256 102.406 190.286 102.376C190.313 102.348 190.345 102.327 190.381 102.312C190.393 102.31 190.405 102.31 190.416 102.313C190.416 102.313 190.416 102.342 190.457 102.36C190.466 102.375 190.478 102.387 190.492 102.397C190.506 102.406 190.523 102.412 190.54 102.414C190.549 102.412 190.559 102.412 190.569 102.414L190.569 102.45C190.681 102.451 190.764 102.381 190.854 102.311C191.068 102.142 191.174 102.107 191.316 102.144C191.457 102.181 191.498 102.24 191.479 102.341C191.461 102.441 191.389 102.481 191.248 102.451L191.165 102.45L191.097 102.744L191.162 102.745C191.266 102.786 191.382 102.785 191.486 102.744C191.589 102.702 191.673 102.622 191.72 102.52L191.861 102.557L191.922 102.304L191.775 102.273C191.777 102.042 191.631 101.893 191.366 101.832C191.247 101.808 191.125 101.815 191.01 101.852C190.895 101.889 190.791 101.955 190.708 102.044C190.5 102.213 190.382 102.247 190.246 102.211C190.111 102.174 190.064 102.108 190.089 102.008C190.113 101.908 190.179 101.862 190.314 101.892L190.473 101.929L190.541 101.635L190.405 101.633C190.352 101.608 190.294 101.595 190.235 101.592C190.176 101.59 190.117 101.6 190.062 101.621C190.006 101.642 189.956 101.674 189.913 101.714C189.87 101.755 189.836 101.804 189.813 101.858L189.671 101.857L189.609 102.11L189.757 102.141L189.755 102.294C189.771 102.341 189.797 102.384 189.831 102.419C189.867 102.456 189.908 102.486 189.954 102.509C190.108 102.445 190.126 102.446 190.144 102.446Z" fill="#263238"/>
<path d="M190.222 104.071C190.27 104.068 190.316 104.057 190.358 104.036C190.382 104.031 190.406 104.031 190.429 104.037C190.447 104.046 190.461 104.061 190.47 104.079C190.61 104.24 190.801 104.047 190.838 103.893C190.852 103.84 190.852 103.785 190.838 103.732C190.824 103.679 190.796 103.631 190.758 103.591L191.218 103.72L191.094 104.262L191.377 104.324L191.562 103.511C191.523 103.493 191.481 103.481 191.439 103.474C191.397 103.474 191.385 103.527 191.338 103.526C191.291 103.526 191.296 103.526 191.273 103.526C191.238 103.536 191.208 103.559 191.19 103.59C191.189 103.619 191.136 103.648 191.1 103.642C191.089 103.646 191.076 103.646 191.065 103.642C191.011 103.619 190.966 103.579 190.936 103.528C190.932 103.505 190.92 103.484 190.901 103.469L190.866 103.469C190.825 103.468 190.801 103.421 190.778 103.385C190.755 103.349 190.567 103.259 190.437 103.222L190.369 103.517L190.428 103.517C190.57 103.548 190.605 103.625 190.586 103.72C190.567 103.814 190.496 103.872 190.354 103.836L189.918 103.737C189.783 103.736 189.742 103.635 189.767 103.535C189.791 103.435 189.851 103.388 189.992 103.419L190.175 103.462L190.243 103.167L190.078 103.13C190.014 103.107 189.946 103.097 189.878 103.102C189.81 103.107 189.744 103.126 189.684 103.159C189.625 103.191 189.572 103.236 189.531 103.29C189.49 103.345 189.461 103.407 189.446 103.473C189.431 103.54 189.43 103.608 189.444 103.675C189.458 103.742 189.485 103.805 189.525 103.86C189.565 103.915 189.617 103.961 189.676 103.995C189.735 104.028 189.8 104.049 189.868 104.055C189.985 104.077 190.104 104.083 190.222 104.071Z" fill="#263238"/>
<path d="M189.358 107.919C189.405 107.914 189.451 107.902 189.495 107.884C189.518 107.879 189.542 107.879 189.565 107.885C189.583 107.894 189.597 107.909 189.606 107.927C189.747 108.082 189.937 107.889 189.974 107.741C189.988 107.688 189.988 107.633 189.974 107.58C189.96 107.527 189.933 107.479 189.895 107.439L190.354 107.568L190.231 108.11L190.513 108.172L190.698 107.359C190.66 107.338 190.618 107.326 190.575 107.322C190.533 107.322 190.521 107.369 190.474 107.374C190.427 107.38 190.433 107.374 190.409 107.374C190.374 107.384 190.345 107.407 190.326 107.438C190.325 107.467 190.272 107.496 190.237 107.49C190.201 107.484 190.237 107.49 190.201 107.49C190.145 107.466 190.1 107.424 190.072 107.37C190.067 107.349 190.054 107.331 190.037 107.317C190.037 107.317 190.037 107.317 190.002 107.316C189.967 107.316 189.937 107.275 189.914 107.239C189.891 107.203 189.703 107.113 189.573 107.076L189.505 107.371L189.564 107.371C189.706 107.402 189.741 107.479 189.722 107.574C189.703 107.668 189.632 107.72 189.491 107.69L189.055 107.591C188.919 107.59 188.878 107.489 188.903 107.389C188.928 107.288 188.987 107.242 189.128 107.273L189.311 107.316L189.379 107.021L189.214 106.984C189.152 106.966 189.087 106.96 189.023 106.968C188.959 106.976 188.897 106.996 188.841 107.029C188.785 107.062 188.737 107.105 188.698 107.157C188.66 107.209 188.633 107.269 188.619 107.332C188.604 107.395 188.603 107.46 188.615 107.524C188.627 107.587 188.651 107.648 188.688 107.701C188.724 107.755 188.77 107.8 188.825 107.835C188.879 107.87 188.94 107.893 189.004 107.903C189.121 107.928 189.24 107.933 189.358 107.919Z" fill="#263238"/>
<path d="M190.8 104.749C190.942 104.78 190.982 104.857 190.958 104.952C190.953 104.982 190.938 105.01 190.916 105.03C190.893 105.05 190.863 105.062 190.833 105.063L190.832 105.163C190.815 105.166 190.798 105.173 190.784 105.183C190.77 105.193 190.757 105.206 190.749 105.221C190.719 105.257 190.7 105.304 190.671 105.345C190.732 105.365 190.798 105.371 190.863 105.364C190.927 105.357 190.99 105.337 191.046 105.304C191.102 105.271 191.15 105.226 191.188 105.173C191.226 105.12 191.252 105.06 191.264 104.996C191.287 104.931 191.294 104.862 191.286 104.794C191.277 104.726 191.253 104.66 191.216 104.603C191.178 104.546 191.128 104.498 191.068 104.463C191.009 104.428 190.943 104.407 190.875 104.402C190.837 104.399 190.8 104.398 190.762 104.401C190.668 104.4 190.697 104.4 190.661 104.494C190.625 104.588 190.577 104.617 190.548 104.534L190.548 104.588C190.548 104.588 190.507 104.587 190.489 104.587C190.471 104.587 190.459 104.587 190.436 104.557C190.421 104.562 190.404 104.562 190.389 104.556C190.389 104.556 190.312 104.508 190.301 104.497C190.272 104.479 190.248 104.454 190.231 104.425C190.184 104.348 190.232 104.313 190.114 104.288C189.996 104.263 189.984 104.257 189.925 104.245C189.861 104.222 189.792 104.212 189.724 104.217C189.656 104.223 189.589 104.242 189.529 104.275C189.469 104.308 189.416 104.353 189.375 104.408C189.333 104.462 189.304 104.525 189.289 104.592C189.273 104.658 189.272 104.728 189.286 104.795C189.299 104.862 189.327 104.926 189.366 104.981C189.406 105.037 189.457 105.084 189.516 105.118C189.576 105.153 189.641 105.175 189.71 105.182L190.122 105.28L190.122 105.245C190.155 105.175 190.193 105.108 190.236 105.045L190.284 104.992L189.754 104.869C189.612 104.868 189.572 104.761 189.596 104.667C189.621 104.573 189.686 104.52 189.828 104.551L190.629 104.73C190.679 104.727 190.729 104.74 190.771 104.767L190.8 104.749Z" fill="#263238"/>
<path d="M189.812 106.193L189.812 106.222C189.841 106.222 189.871 106.223 189.912 106.223L189.911 106.353L190.365 106.458C190.429 106.481 190.498 106.49 190.566 106.485C190.634 106.48 190.701 106.46 190.761 106.428C190.821 106.395 190.874 106.35 190.915 106.295C190.957 106.241 190.986 106.178 191.001 106.111C191.017 106.044 191.018 105.975 191.004 105.908C190.991 105.841 190.963 105.777 190.924 105.721C190.884 105.666 190.833 105.619 190.774 105.584C190.714 105.55 190.649 105.528 190.581 105.521L190.498 105.52C190.462 105.561 190.403 105.584 190.373 105.625C190.343 105.666 190.372 105.732 190.272 105.713C190.171 105.694 190.189 105.677 190.159 105.712C190.13 105.747 190.159 105.753 190.118 105.759C190.108 105.766 190.097 105.769 190.085 105.769C190.073 105.769 190.062 105.765 190.053 105.758C190.053 105.758 190.053 105.717 190 105.71C189.947 105.704 189.911 105.709 189.9 105.674C189.888 105.638 189.972 105.562 189.967 105.497C189.96 105.474 189.947 105.453 189.93 105.436C189.912 105.419 189.891 105.407 189.867 105.402C189.767 105.371 189.664 105.348 189.561 105.334C189.498 105.312 189.432 105.304 189.366 105.31C189.3 105.317 189.237 105.338 189.18 105.371C189.123 105.405 189.075 105.451 189.038 105.506C189.001 105.561 188.977 105.623 188.967 105.688C188.948 105.755 188.944 105.826 188.956 105.894C188.968 105.963 188.994 106.028 189.034 106.085C189.078 106.137 189.132 106.182 189.192 106.216C189.222 106.243 189.261 106.258 189.301 106.258C189.341 106.259 189.38 106.245 189.41 106.218L189.411 106.189L189.553 106.149C189.553 106.149 189.553 106.149 189.588 106.19C189.623 106.232 189.7 106.192 189.741 106.251C189.782 106.31 189.801 106.181 189.812 106.193ZM189.413 105.941C189.272 105.91 189.231 105.833 189.256 105.733C189.28 105.632 189.346 105.586 189.487 105.617L190.548 105.863C190.689 105.894 190.73 105.965 190.705 106.065C190.681 106.166 190.615 106.212 190.474 106.181L189.413 105.941Z" fill="#263238"/>
<path d="M189.075 106.711L188.774 106.643L188.842 106.343L189.143 106.411L189.075 106.711Z" fill="#263238"/>
<path d="M189.576 109.184C189.576 109.22 189.712 109.221 189.759 109.233C189.823 109.257 189.892 109.266 189.96 109.261C190.029 109.256 190.095 109.236 190.155 109.203C190.216 109.171 190.268 109.125 190.309 109.071C190.351 109.016 190.38 108.954 190.396 108.887C190.411 108.82 190.412 108.751 190.399 108.684C190.385 108.616 190.358 108.553 190.318 108.497C190.278 108.441 190.227 108.395 190.168 108.36C190.109 108.325 190.043 108.304 189.975 108.297L189.58 108.204C189.508 108.28 189.397 108.202 189.314 108.237C189.231 108.272 189.314 108.237 189.279 108.237C189.243 108.236 189.226 108.148 189.179 108.147C189.179 108.147 189.109 108.099 189.073 108.069C189.046 108.05 189.013 108.04 188.979 108.039C188.915 108.016 188.846 108.006 188.778 108.011C188.71 108.017 188.643 108.036 188.583 108.069C188.523 108.102 188.47 108.147 188.429 108.202C188.387 108.256 188.358 108.319 188.343 108.386C188.327 108.452 188.326 108.522 188.34 108.589C188.353 108.656 188.381 108.72 188.42 108.775C188.46 108.831 188.511 108.878 188.57 108.912C188.63 108.947 188.695 108.969 188.764 108.976L189.088 109.05C189.17 109.051 189.388 109.159 189.454 109.053C189.52 108.948 189.454 109.006 189.496 108.995C189.509 108.988 189.525 108.984 189.54 108.984C189.555 108.984 189.571 108.988 189.584 108.996C189.643 109.067 189.542 109.119 189.576 109.184ZM189.06 108.819C189.025 108.819 189.014 108.76 188.967 108.73C188.908 108.706 188.847 108.692 188.784 108.687C188.643 108.656 188.608 108.579 188.627 108.484C188.645 108.39 188.717 108.332 188.858 108.368C188.899 108.369 189.017 108.423 189.052 108.412C189.088 108.4 189.053 108.353 189.124 108.33C189.186 108.313 189.251 108.313 189.313 108.332C189.327 108.335 189.341 108.335 189.354 108.332C189.354 108.332 189.408 108.303 189.431 108.333C189.431 108.333 189.508 108.333 189.561 108.334C189.488 108.522 189.778 108.519 189.896 108.55C190.013 108.58 190.078 108.658 190.053 108.752C190.029 108.846 189.963 108.899 189.828 108.868C189.708 108.827 189.583 108.802 189.456 108.794C189.452 108.818 189.44 108.841 189.422 108.858C189.403 108.875 189.38 108.885 189.355 108.887C189.324 108.881 189.292 108.881 189.26 108.886C189.26 108.886 189.207 108.886 189.184 108.885C189.16 108.885 189.184 108.85 189.184 108.826C189.178 108.81 189.168 108.795 189.154 108.784C189.141 108.772 189.125 108.764 189.108 108.761L189.06 108.819Z" fill="#263238"/>
<path d="M193.901 105.925L193.445 107.917" stroke="#263238" stroke-linecap="round" stroke-linejoin="round"/>
<path d="M194.937 101.4L194.123 104.935" stroke="#263238" stroke-linecap="round" stroke-linejoin="round"/>
<path d="M193.57 101.091L193.04 103.425" stroke="#263238" stroke-linecap="round" stroke-linejoin="round"/>
<path opacity="0.4" d="M104.455 79.768C105.236 82.8789 105.634 86.0738 105.638 89.2814C105.724 95.0461 104.596 98.7202 106.889 103.467C109.182 108.213 104.942 111.237 107.237 115.777C109.532 120.317 113.255 122.45 113.147 125.059C113.039 127.668 154.827 131.957 162.013 133.279C169.199 134.6 189.239 137.457 193.304 138.412L102.671 132.393L104.455 79.768Z" fill="white"/>
<path d="M122.297 80.1883L104.638 94.4214L105.73 79.2193L122.297 80.1883Z" fill="#1648CE" stroke="#263238" stroke-linecap="round" stroke-linejoin="round"/>
<path d="M156.573 118.746L149.908 118.451C148.978 118.41 148.066 118.186 147.222 117.792C146.379 117.399 145.621 116.843 144.993 116.156C144.364 115.469 143.877 114.666 143.56 113.791C143.242 112.916 143.1 111.987 143.141 111.057L143.449 104.21C143.49 103.277 143.715 102.362 144.111 101.516C144.506 100.671 145.065 99.9123 145.755 99.2835C146.445 98.6547 147.252 98.1684 148.13 97.8525C149.009 97.5366 149.941 97.3973 150.873 97.4426L159.55 97.8335C161.427 97.9178 163.194 98.7441 164.462 100.131C165.73 101.517 166.395 103.351 166.312 105.228L166.009 112.075C166.007 112.264 166.006 112.453 165.962 112.665C165.049 111.698 163.827 111.081 162.506 110.922C161.186 110.763 159.851 111.071 158.735 111.794C157.618 112.517 156.791 113.609 156.396 114.879C156.001 116.149 156.063 117.517 156.573 118.746Z" fill="#1648CE" stroke="#263238" stroke-linecap="round" stroke-linejoin="round"/>
<path d="M162.318 120.035C161.677 120.008 161.059 119.791 160.542 119.412C160.025 119.033 159.631 118.509 159.412 117.907C159.192 117.304 159.156 116.65 159.308 116.027C159.46 115.404 159.794 114.84 160.267 114.407C160.739 113.973 161.33 113.69 161.964 113.592C162.598 113.495 163.246 113.587 163.827 113.858C164.409 114.129 164.896 114.566 165.229 115.115C165.562 115.663 165.724 116.297 165.696 116.938C165.657 117.796 165.28 118.604 164.647 119.184C164.014 119.765 163.176 120.071 162.318 120.035Z" fill="#1648CE" stroke="#263238" stroke-linecap="round" stroke-linejoin="round"/>
<path opacity="0.4" d="M150.027 99.3833L158.539 109.534C158.539 109.534 163.164 108.303 164.61 109.593L164.656 104.757C164.672 103.592 164.241 102.466 163.454 101.608C162.667 100.749 161.581 100.224 160.42 100.139L150.027 99.3833Z" fill="white"/>
<path opacity="0.4" d="M162.185 115.422L164.527 117.6C164.527 117.6 165.443 116.268 164.547 115.445C163.652 114.621 162.185 115.422 162.185 115.422Z" fill="white"/>
<path d="M110.757 113.874L109.898 130.1" stroke="#263238" stroke-linecap="round" stroke-linejoin="round"/>
<path d="M109.176 108.237L107.796 130.08" stroke="#263238" stroke-linecap="round" stroke-linejoin="round"/>
<path d="M104.349 124.324L104.294 130.046" stroke="#263238" stroke-linecap="round" stroke-linejoin="round"/>
<path opacity="0.2" d="M164.164 105.006C160.218 96.5938 174.412 87.66 176.386 84.5018C176.888 83.7234 177.468 82.9988 178.119 82.3394L201.253 83.9447L200.03 108.447C196.583 108.254 192.774 108.27 190.576 109.017C185.783 110.624 168.104 113.412 164.164 105.006Z" fill="black" fill-opacity="0.7"/>
<path opacity="0.4" d="M163.534 95.616C163.534 95.616 160.564 102.284 162.259 105.336C163.954 108.388 167.218 111.691 174.529 112.228C174.529 112.228 164.187 116.115 161.176 108.048C158.165 99.9815 163.534 95.616 163.534 95.616Z" fill="white"/>
<path opacity="0.4" d="M159.438 92.9662C159.438 92.9662 155.657 106.512 162.203 112.387C162.203 112.387 158.543 111.572 157.547 105.291C156.551 99.0093 159.438 92.9662 159.438 92.9662Z" fill="white"/>
<path opacity="0.4" d="M182.817 115.037C184.664 114.021 168.147 115.131 168.147 115.131C168.147 115.131 179.03 117.102 182.817 115.037Z" fill="white"/>
</g>
<path d="M198.455 140.097L101.226 133.43L103.617 77.1792L178.119 82.3394L201.253 83.9447L200.031 108.453L198.455 140.097Z" stroke="#263238" stroke-linecap="round" stroke-linejoin="round"/>
<path opacity="0.4" d="M100.678 136.307L101.218 134.263L190.259 140.018L184.369 140.829L100.678 136.307Z" fill="white"/>
<path d="M164.164 105.006C163.76 104.228 163.547 103.365 163.542 102.488C163.537 101.611 163.741 100.745 164.136 99.9624C164.863 98.6081 166.003 97.5207 167.39 96.858C171.617 94.5661 181.256 88.3462 184.019 87.2094C186.782 86.0727 194.589 83.5733 197.88 81.0361C201.17 78.499 206.097 77.1411 206.097 77.1411L253.759 76.6682C246.854 78.0011 238.993 81.7815 238.993 81.7815C237.217 85.1148 234.616 87.9364 231.437 89.9763C230.79 90.5728 230.086 91.1058 229.337 91.5683C223.395 95.3259 212.749 97.0715 204.48 97.1925C195.13 97.3384 190.867 100.333 182.676 105.161C174.486 109.99 165.946 108.212 164.164 105.006Z" fill="white"/>
<path opacity="0.4" d="M164.164 105.006C163.77 104.225 163.562 103.363 163.557 102.487C163.553 101.612 163.751 100.748 164.136 99.9624C164.842 102.65 166.184 106.183 168.217 105.394C171.466 104.155 166.701 100.395 168.284 98.5438C169.866 96.6929 178.907 90.0006 182.816 94.3435C186.725 98.6864 193.364 97.3981 195.258 94.4636C197.153 91.5292 201.58 93.4912 208.569 94.4918C212.797 95.1231 222.406 93.1903 229.343 91.5919C223.401 95.3495 212.754 97.0952 204.485 97.2161C195.136 97.3621 190.872 100.356 182.682 105.185C174.492 110.013 165.834 108.211 164.164 105.006Z" fill="#1648CE"/>
<path d="M253.788 76.6685C246.884 78.0014 239.022 81.7818 239.022 81.7818C237.247 85.1151 234.645 87.9368 231.467 89.9766C226.282 94.8341 213.877 97.0529 204.533 97.193C195.189 97.3331 190.92 100.333 182.729 105.162C174.539 109.99 166.061 108.544 164.164 104.982C162.836 102.501 163.164 99.1322 167.39 96.8344C171.617 94.5366 181.256 88.3225 184.019 87.1858C186.782 86.0491 194.59 83.5497 197.88 81.0125C201.17 78.4754 206.097 77.1175 206.097 77.1175" stroke="#263238" stroke-linecap="round" stroke-linejoin="round"/>
<path d="M184.849 91.1742C184.849 91.1742 185.155 94.9921 186.567 96.7538" stroke="#263238" stroke-linecap="round" stroke-linejoin="round"/>
<path d="M205.171 75.7325C205.171 75.7325 203.407 74.9714 201.598 78.8516" stroke="#263238" stroke-linecap="round" stroke-linejoin="round"/>
</svg>
