<svg width="278" height="323" viewBox="0 0 278 323" fill="none" xmlns="http://www.w3.org/2000/svg">
<g clip-path="url(#clip0_120_4779)">
<path d="M457.792 225.342C455.947 216.534 453.27 207.922 449.797 199.62C431.837 157.355 396.636 123.474 356.727 101.672C325.039 84.3834 284.918 73.1768 248.724 82.7882C230.421 87.6501 212.607 98.5424 201.59 114.248C187.229 134.758 185.928 161.642 174.014 183.491C164.352 201.17 143.537 210.41 126.977 220.333C101.144 235.749 75.3741 254.414 64.2312 283.485C49.3749 322.236 48.3293 369.901 67.7252 407.367C82.2224 435.325 110.47 445.92 140.325 449.201C168.498 452.308 203.669 448.357 228.822 463.658C271.674 489.698 328.619 519.746 380.423 507.033C433.85 493.928 462.419 461.451 474.076 416.982C485.733 372.514 468.535 332.99 465.232 296.664C463.21 273.692 462.789 248.497 457.792 225.342Z" fill="#92E3A9"/>
<path opacity="0.8" d="M457.792 225.342C455.947 216.534 453.27 207.922 449.797 199.62C431.837 157.355 396.636 123.474 356.727 101.672C325.039 84.3834 284.918 73.1768 248.724 82.7882C230.421 87.6501 212.607 98.5424 201.59 114.248C187.229 134.758 185.928 161.642 174.014 183.491C164.352 201.17 143.537 210.41 126.977 220.333C101.144 235.749 75.3741 254.414 64.2312 283.485C49.3749 322.236 48.3293 369.901 67.7252 407.367C82.2224 435.325 110.47 445.92 140.325 449.201C168.498 452.308 203.669 448.357 228.822 463.658C271.674 489.698 328.619 519.746 380.423 507.033C433.85 493.928 462.419 461.451 474.076 416.982C485.733 372.514 468.535 332.99 465.232 296.664C463.21 273.692 462.789 248.497 457.792 225.342Z" fill="white"/>
<path d="M67.7829 326.16C67.789 323.259 67.9732 320.604 68.1598 318.252C68.2827 316.917 68.3936 315.712 68.4973 314.587C69.571 313.832 74.0398 310.779 75.3986 308.565C76.7575 306.35 77.8249 303.265 76.8338 300.723C76.6255 300.12 76.2934 299.566 75.8587 299.099C75.4241 298.631 74.8964 298.26 74.3097 298.008C73.7229 297.756 73.09 297.63 72.4516 297.637C71.8132 297.645 71.1834 297.785 70.6026 298.05C67.2028 299.746 66.3003 306.602 66.8612 309.998C66.9043 310.293 68.1874 314.79 68.2408 314.754L68.3151 314.711C68.1654 315.792 68.0083 316.952 67.8719 318.215C67.6555 320.565 67.4134 323.194 67.323 326.138C67.279 326.616 67.301 327.14 67.2959 327.632C67.6049 328.203 67.7719 328.569 67.7719 328.569C67.8064 327.759 67.782 326.934 67.7829 326.16Z" fill="#BABABA"/>
<path d="M58.1087 317.908C53.7219 318.217 52.791 322.219 56.5855 325.179C59.7993 327.685 65.6208 328.371 67.3236 328.528C67.3511 328.229 67.3786 327.931 67.3355 327.636C65.9326 324.986 61.7078 317.647 58.1087 317.908Z" fill="#BABABA"/>
<path d="M145.846 306.808C142.043 306.337 137.512 311.483 136.092 314.586C135.967 314.856 134.574 319.287 134.655 319.284L134.735 319.291C134.007 320.098 133.244 320.972 132.481 321.956C130.988 323.767 129.323 325.822 127.67 328.181L127.092 329.001C126.958 329.692 126.86 330.105 126.86 330.105L126.547 329.795C125.147 331.821 123.851 333.917 122.664 336.075C120.957 339.124 119.527 342.319 118.391 345.623C118.391 345.623 118.384 345.703 118.38 345.743C118.403 344.62 118.351 341.472 118.323 341.239C117.884 337.824 115.055 331.468 111.259 330.707C110.635 330.596 109.994 330.619 109.38 330.775C108.766 330.931 108.192 331.216 107.697 331.612C107.201 332.007 106.796 332.503 106.507 333.067C106.219 333.632 106.054 334.251 106.024 334.884C105.775 337.583 107.752 340.325 109.651 342.057C111.8 344.022 117.755 345.987 118.223 346.14C117.154 349.542 116.312 353.01 115.7 356.523C115.331 358.567 115.03 360.638 114.747 362.731C114.729 361.725 114.716 360.881 114.701 360.719C114.261 357.314 111.432 350.958 107.636 350.196C107.013 350.085 106.373 350.109 105.759 350.265C105.145 350.421 104.572 350.707 104.077 351.102C103.583 351.498 103.178 351.994 102.891 352.559C102.603 353.123 102.44 353.742 102.411 354.375C102.162 357.073 104.14 359.806 106.038 361.548C107.937 363.289 113.013 365.092 114.358 365.537C114.283 366.344 114.15 367.135 114.056 367.94C113.592 371.784 113.138 375.618 112.591 379.374C112.4 380.692 112.16 381.985 111.92 383.279C111.91 382.414 111.896 381.69 111.876 381.577C111.447 378.174 108.608 371.817 104.811 371.055C104.188 370.943 103.547 370.965 102.933 371.12C102.318 371.276 101.744 371.561 101.249 371.957C100.754 372.353 100.35 372.85 100.063 373.415C99.7759 373.98 99.6134 374.6 99.5862 375.234C99.3377 377.932 101.305 380.664 103.204 382.406C105.102 384.147 109.693 385.765 111.279 386.313C111.086 387.219 110.892 388.125 110.68 389.009C111.242 389.232 111.816 389.425 112.413 389.6C112.791 387.888 113.123 386.141 113.427 384.371C114.804 384.9 119.739 386.71 122.262 386.571C124.785 386.432 128 385.553 129.482 383.299C129.845 382.775 130.095 382.181 130.216 381.555C130.337 380.929 130.326 380.285 130.183 379.663C130.041 379.042 129.771 378.457 129.391 377.945C129.01 377.434 128.527 377.007 127.972 376.693C124.565 374.873 118.47 378.017 116.042 380.395C115.898 380.542 114.347 382.448 113.516 383.506C113.726 382.21 113.935 380.924 114.096 379.613C114.576 375.811 114.942 371.948 115.316 368.106C115.425 366.921 115.533 365.746 115.642 364.571C116.136 364.767 121.952 367.04 124.818 366.882C127.372 366.746 130.556 365.864 132.038 363.621C132.402 363.096 132.653 362.502 132.774 361.875C132.894 361.248 132.883 360.603 132.74 359.981C132.597 359.359 132.325 358.773 131.942 358.262C131.56 357.751 131.074 357.326 130.517 357.013C127.12 355.194 121.027 358.329 118.599 360.706C118.421 360.891 116.2 363.628 115.672 364.353C115.91 361.764 116.247 359.194 116.64 356.669C117.161 353.259 117.901 349.885 118.856 346.57C119.089 346.662 125.154 349.058 128.081 348.906C130.634 348.769 133.829 347.879 135.301 345.634C135.664 345.11 135.914 344.516 136.035 343.89C136.155 343.264 136.144 342.62 136.002 341.998C135.86 341.377 135.59 340.791 135.209 340.28C134.828 339.769 134.345 339.342 133.791 339.028C130.393 337.209 124.289 340.352 121.861 342.729C121.673 342.913 119.292 345.867 118.885 346.472C118.903 346.273 118.982 346.07 119.04 345.884C120.092 342.596 121.437 339.41 123.06 336.363C123.929 334.665 124.856 333.104 125.799 331.594C126.882 332.155 131.872 334.674 134.539 334.829C137.206 334.984 140.368 334.452 142.085 332.381C142.505 331.901 142.82 331.338 143.009 330.73C143.199 330.121 143.258 329.479 143.184 328.846C143.11 328.212 142.904 327.601 142.579 327.053C142.254 326.504 141.818 326.03 141.298 325.66C138.115 323.479 131.694 325.92 129.03 328.015C128.89 328.123 127.542 329.455 126.569 330.429C127.002 329.756 127.439 329.053 127.868 328.42C129.475 326.027 131.093 323.937 132.538 322.102C133.366 321.063 134.144 320.141 134.874 319.304C136.209 319.307 141.629 319.233 144.019 318.138C146.41 317.042 148.968 315.109 149.562 312.472C149.715 311.855 149.739 311.213 149.632 310.586C149.525 309.959 149.289 309.361 148.94 308.829C148.592 308.297 148.137 307.843 147.604 307.495C147.072 307.148 146.473 306.914 145.846 306.808Z" fill="#BABABA"/>
<path d="M85.9267 384.199C86.1388 384.73 86.3429 385.241 86.5423 385.802L88.2964 385.401C87.7675 384.057 87.2186 382.711 86.6579 381.384C88.0833 381.063 93.1557 379.853 95.1846 378.323C97.2135 376.793 99.363 374.279 99.3508 371.577C99.3667 370.937 99.25 370.302 99.0082 369.71C98.7663 369.118 98.4044 368.583 97.9454 368.138C97.4864 367.692 96.9401 367.347 96.3411 367.124C95.742 366.9 95.1031 366.803 94.4647 366.839C90.6564 367.191 87.3502 373.213 86.6609 376.554C86.6407 376.773 86.4142 379.233 86.2941 380.537C85.7414 379.341 85.2095 378.137 84.617 376.938C82.9281 373.469 81.097 370.016 79.2858 366.565L77.649 363.402C78.1607 363.299 84.2154 361.998 86.4935 360.27C88.5215 358.75 90.671 356.236 90.6588 353.534C90.6763 352.894 90.5606 352.258 90.3193 351.665C90.0779 351.072 89.7161 350.536 89.2568 350.091C88.7974 349.646 88.2505 349.3 87.6508 349.077C87.0511 348.854 86.4115 348.758 85.7728 348.795C81.9644 349.148 78.6582 355.17 77.9689 358.511C77.9451 358.77 77.6195 362.305 77.5361 363.211C76.3356 360.871 75.165 358.534 74.1058 356.187C72.6607 353.024 71.4172 349.774 70.3826 346.454C70.6181 346.406 76.949 345.051 79.2787 343.307C81.3067 341.786 83.4563 339.273 83.445 336.56C83.461 335.922 83.3443 335.286 83.1023 334.695C82.8602 334.103 82.4981 333.569 82.0388 333.124C81.5795 332.68 81.033 332.336 80.4339 332.113C79.8347 331.891 79.196 331.795 78.558 331.832C74.7496 332.185 71.4434 338.207 70.7541 341.548C70.7294 341.817 70.3791 345.62 70.3149 346.317C70.2626 346.122 70.1804 345.923 70.1272 345.738C69.1873 342.394 68.5412 338.974 68.1963 335.518C67.9804 333.61 67.8884 331.774 67.8326 329.981C69.0386 329.861 74.5413 329.213 76.8234 327.877C79.1056 326.54 81.4223 324.283 81.7061 321.638C81.7914 321.004 81.7443 320.359 81.5678 319.744C81.3914 319.129 81.0893 318.557 80.6808 318.065C80.2723 317.572 79.7662 317.17 79.1943 316.883C78.6225 316.596 77.9974 316.431 77.3584 316.397C73.5288 316.326 69.5776 321.937 68.5154 325.183C68.4989 325.363 68.0667 327.221 67.8007 328.582L67.3128 328.537C67.2984 330.765 67.3526 333.12 67.567 335.59C67.8289 339.109 68.405 342.596 69.2885 346.012C69.2954 346.052 69.3089 346.091 69.3282 346.126C68.7237 345.167 66.9568 342.544 66.8031 342.359C64.5645 339.732 58.7376 335.942 55.2104 337.385C54.6315 337.645 54.1142 338.025 53.6925 338.5C53.2709 338.974 52.9545 339.533 52.764 340.138C52.5736 340.744 52.5134 341.383 52.5875 342.014C52.6616 342.644 52.8682 343.252 53.1939 343.797C54.4993 346.197 57.6096 347.427 60.1332 347.83C62.9818 348.303 68.98 346.636 69.4518 346.529C70.4333 349.988 71.6443 353.377 73.0767 356.674C73.9028 358.608 74.7806 360.527 75.6991 362.439C75.1514 361.626 74.6561 360.897 74.5738 360.809C72.3461 358.174 66.5092 354.382 62.9821 355.825C62.4016 356.085 61.883 356.466 61.4603 356.941C61.0376 357.416 60.7205 357.976 60.5298 358.583C60.3392 359.189 60.2794 359.83 60.3543 360.461C60.4293 361.093 60.6373 361.702 60.9646 362.247C62.2601 364.646 65.3812 365.867 67.904 366.28C70.4267 366.694 75.6087 365.383 76.979 365.007C77.3439 365.734 77.688 366.469 78.0529 367.195C79.74 370.684 81.5276 374.173 83.1169 377.633C83.6768 378.86 84.1969 380.083 84.707 381.305C84.2216 380.577 83.8249 379.978 83.7426 379.89C81.504 377.264 75.6671 373.473 72.1499 374.916C71.5703 375.176 71.0521 375.555 70.6295 376.029C70.2069 376.503 69.8895 377.062 69.6981 377.667C69.5067 378.273 69.4456 378.912 69.5189 379.543C69.5922 380.174 69.7983 380.782 70.1234 381.327C71.4189 383.726 74.5391 384.958 77.0619 385.371C79.5846 385.784 84.2921 384.611 85.9267 384.199Z" fill="#BABABA"/>
<path d="M126.039 315.689C122.446 313.158 119.191 315.681 120.265 320.369C121.181 324.38 125.337 328.649 126.518 329.782L127.063 328.989C127.661 325.991 128.972 317.746 126.039 315.689Z" fill="#BABABA"/>
<path d="M115.864 257.912L111.938 264.45L117.745 270.307L124.242 266.497C126.43 268.046 128.803 269.317 131.305 270.28L131.843 277.741L139.962 279.212L143.064 272.468C145.773 272.476 148.472 272.144 151.098 271.48L155.773 277.203L163.261 273.755L161.92 266.502C164.143 264.932 166.164 263.095 167.937 261.031L175.035 263.02L179.195 255.901L173.96 250.699C174.86 248.156 175.441 245.511 175.69 242.825L182.704 240.378L182.024 232.161L174.649 230.899C173.929 228.324 172.899 225.845 171.583 223.517L176.003 217.396L170.732 211.056L163.853 214.329C160.341 211.436 156.26 209.315 151.873 208.104L150.677 200.483L142.462 199.726L139.88 207.04C137.291 207.293 134.741 207.854 132.285 208.711L126.878 203.091L119.722 207.182L121.822 214.696C119.846 216.375 118.076 218.282 116.549 220.377L108.885 218.868L105.366 226.326L111.369 231.258C110.899 233.033 110.578 234.844 110.409 236.672C110.337 237.449 110.297 238.219 110.287 238.981L103.198 242.124L104.596 250.287L112.222 250.899C112.899 252.771 113.74 254.579 114.737 256.302M137.926 219.755C138.85 219.523 139.788 219.354 140.734 219.25M145.83 219.317C150.825 220.011 155.391 222.515 158.661 226.354C161.931 230.194 163.677 235.1 163.566 240.142C163.456 245.184 161.497 250.01 158.062 253.702C154.627 257.395 149.956 259.697 144.935 260.171C139.914 260.645 134.894 259.258 130.829 256.274C126.764 253.29 123.936 248.916 122.884 243.984C121.832 239.052 122.628 233.906 125.121 229.522C127.614 225.138 131.631 221.824 136.408 220.207" stroke="black" stroke-miterlimit="10"/>
<path d="M223.105 245.494L215.443 239.486" stroke="#263238" stroke-width="3" stroke-linecap="round" stroke-linejoin="round"/>
<path d="M238.711 230.984L236.762 229.027" stroke="#263238" stroke-width="3" stroke-linecap="round" stroke-linejoin="round"/>
<path d="M210.662 275.158L194.192 269.384" stroke="#263238" stroke-width="3" stroke-linecap="round" stroke-linejoin="round"/>
<path d="M292.234 387.171C292.109 387.158 291.987 387.13 291.87 387.087C291.491 386.95 291.181 386.669 291.008 386.305C290.574 385.351 290.34 384.837 294.986 380.405C285.413 385.117 284.468 384.799 283.953 384.621C283.551 384.461 283.221 384.159 283.027 383.772C282.323 382.251 282.19 381.948 300.223 369.77C297.374 371.265 294.403 372.88 291.772 374.304C276.107 382.793 271.259 385.169 269.271 384.514C269.03 384.435 268.807 384.308 268.617 384.14C268.427 383.972 268.273 383.768 268.165 383.538C267.412 381.902 267.412 381.902 288.547 369.408L292.731 366.941C290.3 368.254 287.877 369.597 285.655 370.829C269.084 379.998 261.562 383.924 258.958 383.082C258.687 382.994 258.437 382.849 258.226 382.656C258.015 382.463 257.848 382.228 257.736 381.965C256.895 380.191 256.731 379.794 287.352 362.871L247.434 381.288C247.08 381.445 246.677 381.456 246.314 381.319C245.951 381.182 245.656 380.909 245.493 380.557C244.932 379.34 245.58 377.974 248.541 375.816C243.948 377.924 241.326 378.697 240.108 378.293C239.855 378.21 239.62 378.076 239.419 377.901C239.218 377.725 239.054 377.511 238.937 377.271C238.242 375.761 238.683 374.466 249.881 368.348C238.381 374.147 234.184 375.779 232.654 375.267C232.427 375.191 232.217 375.069 232.039 374.91C231.86 374.75 231.716 374.555 231.615 374.338C231.003 373.026 231.721 372.64 234.373 371.217L240.211 368.13L249.137 363.459C239.412 367.424 238.048 366.967 237.289 366.706C237.033 366.622 236.796 366.487 236.593 366.31C236.39 366.133 236.226 365.916 236.109 365.673C235.956 365.319 235.946 364.919 236.08 364.558C236.214 364.196 236.483 363.9 236.83 363.731C267.652 349.096 315.33 325.459 327.051 317.269C315.753 321.2 281.476 338.348 261.945 348.149C236.793 360.745 236.687 360.705 235.715 360.355C235.513 360.29 235.327 360.184 235.167 360.045C235.007 359.906 234.877 359.737 234.785 359.546C234.107 358.078 234.229 357.185 244.292 352.167C239.72 353.825 236.747 354.485 235.5 354.069C235.227 353.978 234.976 353.831 234.762 353.639C234.548 353.446 234.377 353.212 234.258 352.95C234.097 352.601 234.078 352.205 234.203 351.842C234.328 351.479 234.588 351.179 234.929 351.003C266.155 334.929 310.099 312.143 328.063 302.46C323.132 304.426 316.48 307.418 309.061 310.983C303.039 314.114 295.906 317.745 287.473 321.969C276.333 327.561 265.079 333.083 255.712 337.643C233.037 349.192 232.784 349.109 231.762 348.753C231.561 348.685 231.375 348.577 231.216 348.437C231.056 348.296 230.926 348.126 230.833 347.935C230.68 347.58 230.67 347.181 230.805 346.819C230.939 346.457 231.207 346.161 231.554 345.993C238.36 342.753 245.873 339.137 253.675 335.336L257.784 333.244C241.494 340.672 232.584 343.758 230.121 342.908C229.835 342.825 229.57 342.681 229.344 342.487C229.117 342.293 228.935 342.053 228.809 341.783C228.029 340.105 229.531 338.194 241.101 332.069C233.666 335.713 230.76 336.731 229.602 336.333C229.381 336.261 229.176 336.144 229.002 335.99C228.828 335.836 228.688 335.647 228.59 335.436C228.062 334.293 227.638 333.34 235.414 328.724C231.307 330.354 228.754 330.932 227.595 330.534C227.332 330.451 227.089 330.315 226.881 330.133C226.673 329.952 226.504 329.729 226.387 329.479C226.302 329.299 226.255 329.103 226.247 328.904C226.24 328.705 226.272 328.507 226.343 328.32C226.483 327.948 226.763 327.646 227.123 327.478C261.129 312.082 312.741 287.491 328.719 277.123C311.548 284.64 264.063 306.939 230.909 322.685C230.73 322.77 230.536 322.818 230.338 322.827C230.14 322.836 229.943 322.806 229.757 322.739C229.571 322.671 229.4 322.568 229.254 322.434C229.108 322.3 228.99 322.138 228.907 321.959C228.78 321.671 228.712 321.361 228.708 321.046C228.704 320.731 228.764 320.419 228.885 320.129C229.555 318.917 230.497 317.877 231.635 317.088C229.228 317.821 227.642 318.026 226.776 317.725C226.507 317.633 226.259 317.486 226.049 317.294C225.839 317.102 225.67 316.868 225.554 316.609C224.8 314.983 226.622 313.945 229.377 312.381C231.493 311.22 234.482 309.618 238.653 307.511C246.436 303.589 257.094 298.424 268.382 292.967C281.069 286.824 296.142 279.526 308.14 273.44C282.589 285.146 242.315 303.952 222.974 312.997C222.608 313.162 222.192 313.178 221.815 313.041C221.63 312.973 221.46 312.869 221.315 312.735C221.171 312.601 221.054 312.44 220.973 312.26C220.329 310.855 220.136 310.446 234.095 303.356C228.665 305.718 225.286 306.642 223.659 306.101C223.351 306.006 223.066 305.849 222.823 305.638C222.58 305.427 222.383 305.167 222.246 304.876C221.408 303.071 221.408 303.071 246.647 291.367C258.323 285.954 272.255 279.485 285.104 273.217C295.946 267.366 304.417 262.945 310.812 259.918C314.188 258.095 317.423 256.023 320.491 253.72C307.539 258.161 255.692 283.332 222.855 299.79C222.5 299.971 222.088 300.003 221.709 299.879C221.331 299.756 221.017 299.487 220.836 299.132C220.656 298.777 220.624 298.365 220.747 297.987C220.871 297.608 221.139 297.295 221.494 297.114L231.698 291.868C223.355 295.227 220.305 295.639 219.108 295.217C218.836 295.127 218.586 294.981 218.374 294.788C218.162 294.596 217.992 294.361 217.875 294.1C217.713 293.751 217.692 293.354 217.817 292.99C217.942 292.627 218.204 292.327 218.547 292.153L241.02 280.505C222.771 288.706 221.399 288.228 220.563 287.93C220.34 287.856 220.134 287.737 219.959 287.581C219.783 287.425 219.641 287.235 219.542 287.022C219.386 286.671 219.371 286.274 219.499 285.912C219.628 285.55 219.891 285.252 220.233 285.078C243.872 273.306 277.492 256.207 297.2 245.359C281.418 252.612 258.379 263.425 242.172 271.051L224.117 279.43C220.109 281.3 218.166 282.216 217.135 282.623L216.861 282.759C216.144 283.024 215.979 282.959 215.698 282.852C215.424 282.752 215.185 282.573 215.011 282.338C214.837 282.103 214.735 281.823 214.718 281.531C214.702 281.24 214.77 280.95 214.916 280.696C215.062 280.443 215.278 280.238 215.539 280.106C240.609 267.623 277.677 248.743 294.372 239.314C285.572 243.384 272.362 250.191 261.733 255.69C231.941 271.022 222.912 275.393 220.49 274.547C220.259 274.469 220.046 274.346 219.865 274.184C219.683 274.022 219.536 273.826 219.431 273.606C218.914 272.464 218.537 271.656 228.508 265.775C225.855 266.666 224.093 266.935 223.109 266.604C222.831 266.513 222.573 266.367 222.353 266.174C222.133 265.981 221.954 265.745 221.827 265.481C221.672 265.131 221.657 264.735 221.784 264.374C221.91 264.013 222.169 263.713 222.508 263.536C241.945 253.666 271.536 238.115 281.826 231.5C273.042 234.839 253.612 244.97 242.181 250.886C223.51 260.505 222.827 260.723 221.728 260.341C221.526 260.274 221.339 260.167 221.18 260.026C221.02 259.885 220.89 259.714 220.799 259.522C220.128 258.084 219.543 256.805 237.903 246.526C235.647 247.684 233.337 248.887 230.974 250.115C230.776 250.248 230.55 250.333 230.314 250.366C230.078 250.398 229.838 250.376 229.611 250.301C229.419 250.236 229.243 250.132 229.093 249.996C228.943 249.859 228.823 249.693 228.741 249.508C227.845 247.568 229.524 246.126 242.498 237.951C242.28 237.883 242.079 237.771 241.908 237.62C241.737 237.469 241.599 237.284 241.504 237.076C241.351 236.716 241.344 236.31 241.485 235.944C241.625 235.579 241.902 235.282 242.257 235.117C242.551 234.989 242.876 234.953 243.191 235.012C244.85 234.243 246.468 233.386 248.037 232.446C253.211 229.478 254.66 228.788 255.822 229.146C256.049 229.218 256.258 229.335 256.437 229.492C256.616 229.648 256.761 229.84 256.863 230.055C257.582 231.628 256.832 232.462 248.095 238.025C250.495 236.83 252.969 235.591 255.461 234.375C279.78 222.415 281.524 222.997 282.586 223.356C282.82 223.429 283.036 223.551 283.22 223.713C283.404 223.875 283.552 224.075 283.654 224.298C283.811 224.648 283.827 225.044 283.7 225.406C283.574 225.768 283.313 226.068 282.973 226.243C271.098 232.179 258.732 238.653 248.343 244.274C272.403 231.858 283.917 226.461 286.922 227.521C287.184 227.605 287.425 227.742 287.631 227.923C287.837 228.105 288.004 228.327 288.12 228.575C288.915 230.305 289.492 231.564 256.15 249.361L251.354 251.932C258.054 248.532 264.852 244.94 270.342 242.032C291.711 230.804 295.154 229.183 296.645 229.682C296.849 229.756 297.036 229.87 297.195 230.017C297.353 230.165 297.481 230.342 297.57 230.54C297.73 230.889 297.75 231.286 297.625 231.648C297.5 232.011 297.24 232.311 296.899 232.487C276.257 243.119 246.069 259.047 231.07 267.718C239.049 263.954 250.404 258.101 260.293 253.006C291.64 236.813 301.826 231.977 304.494 232.885C304.733 232.966 304.953 233.094 305.141 233.261C305.329 233.429 305.481 233.632 305.589 233.86C306.2 235.191 306.645 236.136 288.264 246.102C313.828 234.257 314.283 234.439 315.033 234.689C315.224 234.757 315.399 234.862 315.548 234.999C315.698 235.135 315.819 235.299 315.904 235.482C316.741 237.297 317.332 238.627 268.851 263.666C265.329 265.491 261.798 267.305 258.311 269.072C277.421 260.027 300.234 248.832 317.536 240.121C317.716 240.033 317.913 239.981 318.114 239.968C318.315 239.956 318.517 239.983 318.707 240.049C319.09 240.185 319.403 240.466 319.579 240.832C320.172 242.132 319.057 242.792 317.882 243.447C317.162 243.853 316.104 244.438 314.711 245.164C312.154 246.545 308.37 248.597 303.494 251.16C295.282 255.495 283.813 261.499 269.404 269.009C255.522 276.237 241.536 283.515 231.951 288.467C244.493 283.245 269.013 271.725 316.46 247.223C323.291 243.704 323.291 243.704 323.937 243.894C324.129 243.961 324.306 244.066 324.458 244.202C324.609 244.338 324.731 244.504 324.817 244.689C325.127 245.36 325.303 245.738 324.01 246.693C322.289 247.94 318.087 250.164 308.504 255.207C321.956 249.366 323.125 249.765 323.883 250.035C324.104 250.107 324.309 250.224 324.483 250.378C324.657 250.532 324.797 250.721 324.895 250.932C325.347 251.918 325.373 253.055 323.176 255.102C323.984 254.929 324.821 254.944 325.622 255.146C325.94 255.244 326.235 255.407 326.486 255.626C326.738 255.845 326.941 256.114 327.082 256.416C327.92 258.22 328.337 259.142 297.033 275.079C330.032 259.82 330.333 259.929 331.062 260.197C331.249 260.263 331.421 260.366 331.567 260.501C331.713 260.635 331.831 260.797 331.913 260.978C332.757 262.723 330.811 264.221 326.242 266.953C323.3 268.691 319.164 270.961 313.638 273.826C332.035 264.564 336.604 262.715 338.122 263.237C338.337 263.311 338.535 263.427 338.704 263.579C338.873 263.731 339.01 263.915 339.106 264.121C339.19 264.299 339.237 264.493 339.245 264.691C339.253 264.888 339.221 265.085 339.15 265.27C339.082 265.457 338.977 265.629 338.841 265.776C338.705 265.922 338.541 266.039 338.359 266.121C327.672 270.941 316.797 275.945 306.278 280.901L295.341 286.481C273.832 297.475 258.153 305.361 247.189 310.457C243.685 312.414 240.681 314.166 238.264 315.66C248.029 311.036 264.66 303.178 281.302 295.422C333.774 270.87 334.512 271.149 335.435 271.485C335.625 271.553 335.8 271.658 335.95 271.795C336.099 271.931 336.22 272.095 336.306 272.278C336.426 272.546 336.491 272.836 336.497 273.13C336.503 273.424 336.449 273.716 336.339 273.989C335.957 274.926 335.314 275.734 334.487 276.319C338.06 274.93 340.265 274.43 341.298 274.777C341.549 274.859 341.781 274.992 341.979 275.168C342.177 275.343 342.337 275.557 342.449 275.797C343.119 277.244 341.935 277.888 339.325 279.295C337.749 280.154 335.431 281.336 332.22 282.949L331.598 283.263C336.443 281.47 339.796 280.724 341.392 281.273C341.719 281.372 342.022 281.539 342.282 281.761C342.541 281.984 342.752 282.258 342.9 282.566C344.055 285.073 342.541 286.46 291.31 310.724C269.787 321.004 241.364 334.454 233.465 339.752C237.649 338.701 248.195 334.751 274.688 321.877C296.281 311.383 320.136 299.008 331.57 293.062C339.511 288.942 339.5 288.952 340.153 289.172C340.54 289.31 340.857 289.595 341.033 289.966C341.544 291.078 342.063 292.2 333.306 297.55C334.511 297.133 335.803 297.031 337.059 297.253C337.331 297.344 337.582 297.491 337.796 297.683C338.01 297.875 338.182 298.11 338.301 298.371C339.037 299.976 339.037 299.976 321.953 309.047C313.508 313.511 301.794 319.673 287.028 327.351C272.788 334.757 258.437 342.182 248.611 347.252C268.339 338.906 305.628 319.805 322.217 311.311C336.969 303.782 336.969 303.782 337.709 304.041C337.899 304.109 338.074 304.214 338.224 304.35C338.373 304.486 338.494 304.651 338.58 304.834C339.475 306.784 337.54 309.257 330.539 313.523C330.733 313.514 330.927 313.532 331.117 313.576C331.355 313.657 331.575 313.785 331.763 313.953C331.951 314.12 332.104 314.324 332.212 314.551C333.09 316.46 334.087 318.62 287.345 342.223C300.772 335.566 314.723 328.456 326.003 322.535C326.184 322.44 326.382 322.383 326.585 322.366C326.789 322.35 326.994 322.376 327.187 322.442C327.38 322.507 327.558 322.612 327.709 322.749C327.861 322.886 327.983 323.052 328.068 323.238C328.677 324.579 327.605 325.203 325.783 326.241C324.722 326.856 323.123 327.753 321.03 328.886C318.937 330.019 316.334 331.466 313.2 333.106C317.515 331.394 320.142 330.783 321.408 331.22C321.683 331.31 321.936 331.455 322.152 331.648C322.368 331.841 322.541 332.077 322.66 332.34C323.364 333.861 323.124 334.391 312.447 339.976C314.651 339.265 316.185 339.075 317.129 339.403C317.423 339.495 317.695 339.647 317.927 339.85C318.159 340.053 318.346 340.302 318.477 340.581C319.468 342.681 318.496 343.535 290.005 357.391C281.847 361.36 271.576 366.349 263.232 370.702L319.034 345.001C319.212 344.916 319.406 344.868 319.604 344.861C319.801 344.853 319.998 344.885 320.183 344.956C320.554 345.093 320.856 345.369 321.026 345.727C321.644 347.079 320.528 347.749 318.678 348.864C317.562 349.535 315.928 350.479 313.683 351.739C309.499 354.105 303.692 357.296 297.545 360.686C290.383 364.626 281.37 369.59 273.975 373.78C277.366 371.963 280.9 370.009 284.042 368.27C300.412 359.213 307.301 355.62 309.788 356.411C310.049 356.494 310.29 356.629 310.496 356.809C310.703 356.989 310.87 357.209 310.988 357.455C311.715 359.049 311.748 359.122 292.904 370.291C306.505 362.948 310.921 360.904 312.794 361.508C313.035 361.587 313.257 361.714 313.447 361.882C313.637 362.049 313.791 362.254 313.899 362.484C314.484 363.763 314.484 363.763 304.901 370.221C302.011 372.164 297.996 374.867 294.371 377.376C297.254 375.944 300.438 374.309 303.466 372.72C303.647 372.625 303.845 372.567 304.048 372.551C304.252 372.535 304.456 372.561 304.65 372.626C304.843 372.692 305.021 372.797 305.172 372.933C305.324 373.07 305.446 373.237 305.53 373.422C305.996 374.469 305.769 374.649 303.526 376.652C301.699 378.281 300.131 379.714 298.803 380.937C308.341 376.382 308.661 376.502 309.284 376.72C309.473 376.789 309.646 376.894 309.794 377.03C309.942 377.166 310.061 377.33 310.145 377.513C310.229 377.691 310.276 377.885 310.285 378.082C310.293 378.28 310.262 378.477 310.194 378.662C310.125 378.847 310.021 379.017 309.886 379.162C309.751 379.306 309.589 379.422 309.409 379.504C309.257 379.577 309.093 379.623 308.925 379.64C307.545 380.115 299.787 383.769 292.944 387.096C292.716 387.175 292.473 387.201 292.234 387.171ZM307.504 378.706C307.638 378.987 307.855 379.221 308.126 379.375C307.857 379.218 307.641 378.985 307.504 378.706ZM272.14 360.114C263.042 364.689 254.083 369.287 248.213 372.613C254.547 369.591 263.8 364.638 272.14 360.114ZM311.616 337.007C301.348 341.524 284.608 350.246 271.884 356.897C276.559 354.546 281.885 351.893 287.936 348.895C296.269 344.772 305.243 340.337 311.616 337.007ZM310.336 343.919C304.768 346.258 296.239 350.654 287.91 355.059L288.783 354.637C296.532 350.852 304.943 346.756 310.338 343.899L310.336 343.919ZM263.433 317.044C256.482 320.551 250.151 323.875 244.866 326.742C250.327 323.921 256.806 320.531 263.433 317.044ZM337.93 284.408C334.951 285.138 328.57 287.362 314.898 293.946C301.227 300.53 284.631 309.316 269.856 317.093C263.405 320.516 257.984 323.331 253.407 325.701C262.267 321.315 274.15 315.611 290.016 308.094C309.329 298.917 330.918 288.693 337.93 284.408ZM325.889 312.764L323.654 313.914C316.276 317.7 309.29 321.257 302.697 324.587C311.472 320.354 319.779 316.188 325.889 312.764ZM260.458 300.06C250.819 304.735 241.446 309.355 235.209 312.527C238.336 311.278 242.119 309.568 246.404 307.532C250.647 305.182 255.389 302.656 260.458 300.06ZM286.262 275.904C282.204 278.101 278.207 280.284 274.464 282.319C267.061 286.378 260.489 289.91 254.797 292.941L260.596 290.06C281.905 279.49 312.676 264.207 321.84 258.484C318.542 259.608 315.322 260.948 312.201 262.497C308.576 264.563 303.982 267.022 298.176 269.982C294.394 271.893 290.386 273.874 286.264 275.884L286.262 275.904Z" fill="#92E3A9"/>
<g opacity="0.4">
<path d="M292.234 387.171C292.109 387.158 291.987 387.13 291.87 387.087C291.491 386.95 291.181 386.669 291.008 386.305C290.574 385.351 290.34 384.837 294.986 380.405C285.413 385.117 284.468 384.799 283.953 384.621C283.551 384.461 283.221 384.159 283.027 383.772C282.323 382.251 282.19 381.948 300.223 369.77C297.374 371.265 294.403 372.88 291.772 374.304C276.107 382.793 271.259 385.169 269.271 384.514C269.03 384.435 268.807 384.308 268.617 384.14C268.427 383.972 268.273 383.768 268.165 383.538C267.412 381.902 267.412 381.902 288.547 369.408L292.731 366.941C290.3 368.254 287.877 369.597 285.655 370.829C269.084 379.998 261.562 383.924 258.958 383.082C258.687 382.994 258.437 382.849 258.226 382.656C258.015 382.463 257.848 382.228 257.736 381.965C256.895 380.191 256.731 379.794 287.352 362.871L247.434 381.288C247.08 381.445 246.677 381.456 246.314 381.319C245.951 381.182 245.656 380.909 245.493 380.557C244.932 379.34 245.58 377.974 248.541 375.816C243.948 377.924 241.326 378.697 240.108 378.293C239.855 378.21 239.62 378.076 239.419 377.901C239.218 377.725 239.054 377.511 238.937 377.271C238.242 375.761 238.683 374.466 249.881 368.348C238.381 374.147 234.184 375.779 232.654 375.267C232.427 375.191 232.217 375.069 232.039 374.91C231.86 374.75 231.716 374.555 231.615 374.338C231.003 373.026 231.721 372.64 234.373 371.217L240.211 368.13L249.137 363.459C239.412 367.424 238.048 366.967 237.289 366.706C237.033 366.622 236.796 366.487 236.593 366.31C236.39 366.133 236.226 365.916 236.109 365.673C235.956 365.319 235.946 364.919 236.08 364.558C236.214 364.196 236.483 363.9 236.83 363.731C267.652 349.096 315.33 325.459 327.051 317.269C315.753 321.2 281.476 338.348 261.945 348.149C236.793 360.745 236.687 360.705 235.715 360.355C235.513 360.29 235.327 360.184 235.167 360.045C235.007 359.906 234.877 359.737 234.785 359.546C234.107 358.078 234.229 357.185 244.292 352.167C239.72 353.825 236.747 354.485 235.5 354.069C235.227 353.978 234.976 353.831 234.762 353.639C234.548 353.446 234.377 353.212 234.258 352.95C234.097 352.601 234.078 352.205 234.203 351.842C234.328 351.479 234.588 351.179 234.929 351.003C266.155 334.929 310.099 312.143 328.063 302.46C323.132 304.426 316.48 307.418 309.061 310.983C303.039 314.114 295.906 317.745 287.473 321.969C276.333 327.561 265.079 333.083 255.712 337.643C233.037 349.192 232.784 349.109 231.762 348.753C231.561 348.685 231.375 348.577 231.216 348.437C231.056 348.296 230.926 348.126 230.833 347.935C230.68 347.58 230.67 347.181 230.805 346.819C230.939 346.457 231.207 346.161 231.554 345.993C238.36 342.753 245.873 339.137 253.675 335.336L257.784 333.244C241.494 340.672 232.584 343.758 230.121 342.908C229.835 342.825 229.57 342.681 229.344 342.487C229.117 342.293 228.935 342.053 228.809 341.783C228.029 340.105 229.531 338.194 241.101 332.069C233.666 335.713 230.76 336.731 229.602 336.333C229.381 336.261 229.176 336.144 229.002 335.99C228.828 335.836 228.688 335.647 228.59 335.436C228.062 334.293 227.638 333.34 235.414 328.724C231.307 330.354 228.754 330.932 227.595 330.534C227.332 330.451 227.089 330.315 226.881 330.133C226.673 329.952 226.504 329.729 226.387 329.479C226.302 329.299 226.255 329.103 226.247 328.904C226.24 328.705 226.272 328.507 226.343 328.32C226.483 327.948 226.763 327.646 227.123 327.478C261.129 312.082 312.741 287.491 328.719 277.123C311.548 284.64 264.063 306.939 230.909 322.685C230.73 322.77 230.536 322.818 230.338 322.827C230.14 322.836 229.943 322.806 229.757 322.739C229.571 322.671 229.4 322.568 229.254 322.434C229.108 322.3 228.99 322.138 228.907 321.959C228.78 321.671 228.712 321.361 228.708 321.046C228.704 320.731 228.764 320.419 228.885 320.129C229.555 318.917 230.497 317.877 231.635 317.088C229.228 317.821 227.642 318.026 226.776 317.725C226.507 317.633 226.259 317.486 226.049 317.294C225.839 317.102 225.67 316.868 225.554 316.609C224.8 314.983 226.622 313.945 229.377 312.381C231.493 311.22 234.482 309.618 238.653 307.511C246.436 303.589 257.094 298.424 268.382 292.967C281.069 286.824 296.142 279.526 308.14 273.44C282.589 285.146 242.315 303.952 222.974 312.997C222.608 313.162 222.192 313.178 221.815 313.041C221.63 312.973 221.46 312.869 221.315 312.735C221.171 312.601 221.054 312.44 220.973 312.26C220.329 310.855 220.136 310.446 234.095 303.356C228.665 305.718 225.286 306.642 223.659 306.101C223.351 306.006 223.066 305.849 222.823 305.638C222.58 305.427 222.383 305.167 222.246 304.876C221.408 303.071 221.408 303.071 246.647 291.367C258.323 285.954 272.255 279.485 285.104 273.217C295.946 267.366 304.417 262.945 310.812 259.918C314.188 258.095 317.423 256.023 320.491 253.72C307.539 258.161 255.692 283.332 222.855 299.79C222.5 299.971 222.088 300.003 221.709 299.879C221.331 299.756 221.017 299.487 220.836 299.132C220.656 298.777 220.624 298.365 220.747 297.987C220.871 297.608 221.139 297.295 221.494 297.114L231.698 291.868C223.355 295.227 220.305 295.639 219.108 295.217C218.836 295.127 218.586 294.981 218.374 294.788C218.162 294.596 217.992 294.361 217.875 294.1C217.713 293.751 217.692 293.354 217.817 292.99C217.942 292.627 218.204 292.327 218.547 292.153L241.02 280.505C222.771 288.706 221.399 288.228 220.563 287.93C220.34 287.856 220.134 287.737 219.959 287.581C219.783 287.425 219.641 287.235 219.542 287.022C219.386 286.671 219.371 286.274 219.499 285.912C219.628 285.55 219.891 285.252 220.233 285.078C243.872 273.306 277.492 256.207 297.2 245.359C281.418 252.612 258.379 263.425 242.172 271.051L224.117 279.43C220.109 281.3 218.166 282.216 217.135 282.623L216.861 282.759C216.144 283.024 215.979 282.959 215.698 282.852C215.424 282.752 215.185 282.573 215.011 282.338C214.837 282.103 214.735 281.823 214.718 281.531C214.702 281.24 214.77 280.95 214.916 280.696C215.062 280.443 215.278 280.238 215.539 280.106C240.609 267.623 277.677 248.743 294.372 239.314C285.572 243.384 272.362 250.191 261.733 255.69C231.941 271.022 222.912 275.393 220.49 274.547C220.259 274.469 220.046 274.346 219.865 274.184C219.683 274.022 219.536 273.826 219.431 273.606C218.914 272.464 218.537 271.656 228.508 265.775C225.855 266.666 224.093 266.935 223.109 266.604C222.831 266.513 222.573 266.367 222.353 266.174C222.133 265.981 221.954 265.745 221.827 265.481C221.672 265.131 221.657 264.735 221.784 264.374C221.91 264.013 222.169 263.713 222.508 263.536C241.945 253.666 271.536 238.115 281.826 231.5C273.042 234.839 253.612 244.97 242.181 250.886C223.51 260.505 222.827 260.723 221.728 260.341C221.526 260.274 221.339 260.167 221.18 260.026C221.02 259.885 220.89 259.714 220.799 259.522C220.128 258.084 219.543 256.805 237.903 246.526C235.647 247.684 233.337 248.887 230.974 250.115C230.776 250.248 230.55 250.333 230.314 250.366C230.078 250.398 229.838 250.376 229.611 250.301C229.419 250.236 229.243 250.132 229.093 249.996C228.943 249.859 228.823 249.693 228.741 249.508C227.845 247.568 229.524 246.126 242.498 237.951C242.28 237.883 242.079 237.771 241.908 237.62C241.737 237.469 241.599 237.284 241.504 237.076C241.351 236.716 241.344 236.31 241.485 235.944C241.625 235.579 241.902 235.282 242.257 235.117C242.551 234.989 242.876 234.953 243.191 235.012C244.85 234.243 246.468 233.386 248.037 232.446C253.211 229.478 254.66 228.788 255.822 229.146C256.049 229.218 256.258 229.335 256.437 229.492C256.616 229.648 256.761 229.84 256.863 230.055C257.582 231.628 256.832 232.462 248.095 238.025C250.495 236.83 252.969 235.591 255.461 234.375C279.78 222.415 281.524 222.997 282.586 223.356C282.82 223.429 283.036 223.551 283.22 223.713C283.404 223.875 283.552 224.075 283.654 224.298C283.811 224.648 283.827 225.044 283.7 225.406C283.574 225.768 283.313 226.068 282.973 226.243C271.098 232.179 258.732 238.653 248.343 244.274C272.403 231.858 283.917 226.461 286.922 227.521C287.184 227.605 287.425 227.742 287.631 227.923C287.837 228.105 288.004 228.327 288.12 228.575C288.915 230.305 289.492 231.564 256.15 249.361L251.354 251.932C258.054 248.532 264.852 244.94 270.342 242.032C291.711 230.804 295.154 229.183 296.645 229.682C296.849 229.756 297.036 229.87 297.195 230.017C297.353 230.165 297.481 230.342 297.57 230.54C297.73 230.889 297.75 231.286 297.625 231.648C297.5 232.011 297.24 232.311 296.899 232.487C276.257 243.119 246.069 259.047 231.07 267.718C239.049 263.954 250.404 258.101 260.293 253.006C291.64 236.813 301.826 231.977 304.494 232.885C304.733 232.966 304.953 233.094 305.141 233.261C305.329 233.429 305.481 233.632 305.589 233.86C306.2 235.191 306.645 236.136 288.264 246.102C313.828 234.257 314.283 234.439 315.033 234.689C315.224 234.757 315.399 234.862 315.548 234.999C315.698 235.135 315.819 235.299 315.904 235.482C316.741 237.297 317.332 238.627 268.851 263.666C265.329 265.491 261.798 267.305 258.311 269.072C277.421 260.027 300.234 248.832 317.536 240.121C317.716 240.033 317.913 239.981 318.114 239.968C318.315 239.956 318.517 239.983 318.707 240.049C319.09 240.185 319.403 240.466 319.579 240.832C320.172 242.132 319.057 242.792 317.882 243.447C317.162 243.853 316.104 244.438 314.711 245.164C312.154 246.545 308.37 248.597 303.494 251.16C295.282 255.495 283.813 261.499 269.404 269.009C255.522 276.237 241.536 283.515 231.951 288.467C244.493 283.245 269.013 271.725 316.46 247.223C323.291 243.704 323.291 243.704 323.937 243.894C324.129 243.961 324.306 244.066 324.458 244.202C324.609 244.338 324.731 244.504 324.817 244.689C325.127 245.36 325.303 245.738 324.01 246.693C322.289 247.94 318.087 250.164 308.504 255.207C321.956 249.366 323.125 249.765 323.883 250.035C324.104 250.107 324.309 250.224 324.483 250.378C324.657 250.532 324.797 250.721 324.895 250.932C325.347 251.918 325.373 253.055 323.176 255.102C323.984 254.929 324.821 254.944 325.622 255.146C325.94 255.244 326.235 255.407 326.486 255.626C326.738 255.845 326.941 256.114 327.082 256.416C327.92 258.22 328.337 259.142 297.033 275.079C330.032 259.82 330.333 259.929 331.062 260.197C331.249 260.263 331.421 260.366 331.567 260.501C331.713 260.635 331.831 260.797 331.913 260.978C332.757 262.723 330.811 264.221 326.242 266.953C323.3 268.691 319.164 270.961 313.638 273.826C332.035 264.564 336.604 262.715 338.122 263.237C338.337 263.311 338.535 263.427 338.704 263.579C338.873 263.731 339.01 263.915 339.106 264.121C339.19 264.299 339.237 264.493 339.245 264.691C339.253 264.888 339.221 265.085 339.15 265.27C339.082 265.457 338.977 265.629 338.841 265.776C338.705 265.922 338.541 266.039 338.359 266.121C327.672 270.941 316.797 275.945 306.278 280.901L295.341 286.481C273.832 297.475 258.153 305.361 247.189 310.457C243.685 312.414 240.681 314.166 238.264 315.66C248.029 311.036 264.66 303.178 281.302 295.422C333.774 270.87 334.512 271.149 335.435 271.485C335.625 271.553 335.8 271.658 335.95 271.795C336.099 271.931 336.22 272.095 336.306 272.278C336.426 272.546 336.491 272.836 336.497 273.13C336.503 273.424 336.449 273.716 336.339 273.989C335.957 274.926 335.314 275.734 334.487 276.319C338.06 274.93 340.265 274.43 341.298 274.777C341.549 274.859 341.781 274.992 341.979 275.168C342.177 275.343 342.337 275.557 342.449 275.797C343.119 277.244 341.935 277.888 339.325 279.295C337.749 280.154 335.431 281.336 332.22 282.949L331.598 283.263C336.443 281.47 339.796 280.724 341.392 281.273C341.719 281.372 342.022 281.539 342.282 281.761C342.541 281.984 342.752 282.258 342.9 282.566C344.055 285.073 342.541 286.46 291.31 310.724C269.787 321.004 241.364 334.454 233.465 339.752C237.649 338.701 248.195 334.751 274.688 321.877C296.281 311.383 320.136 299.008 331.57 293.062C339.511 288.942 339.5 288.952 340.153 289.172C340.54 289.31 340.857 289.595 341.033 289.966C341.544 291.078 342.063 292.2 333.306 297.55C334.511 297.133 335.803 297.031 337.059 297.253C337.331 297.344 337.582 297.491 337.796 297.683C338.01 297.875 338.182 298.11 338.301 298.371C339.037 299.976 339.037 299.976 321.953 309.047C313.508 313.511 301.794 319.673 287.028 327.351C272.788 334.757 258.437 342.182 248.611 347.252C268.339 338.906 305.628 319.805 322.217 311.311C336.969 303.782 336.969 303.782 337.709 304.041C337.899 304.109 338.074 304.214 338.224 304.35C338.373 304.486 338.494 304.651 338.58 304.834C339.475 306.784 337.54 309.257 330.539 313.523C330.733 313.514 330.927 313.532 331.117 313.576C331.355 313.657 331.575 313.785 331.763 313.953C331.951 314.12 332.104 314.324 332.212 314.551C333.09 316.46 334.087 318.62 287.345 342.223C300.772 335.566 314.723 328.456 326.003 322.535C326.184 322.44 326.382 322.383 326.585 322.366C326.789 322.35 326.994 322.376 327.187 322.442C327.38 322.507 327.558 322.612 327.709 322.749C327.861 322.886 327.983 323.052 328.068 323.238C328.677 324.579 327.605 325.203 325.783 326.241C324.722 326.856 323.123 327.753 321.03 328.886C318.937 330.019 316.334 331.466 313.2 333.106C317.515 331.394 320.142 330.783 321.408 331.22C321.683 331.31 321.936 331.455 322.152 331.648C322.368 331.841 322.541 332.077 322.66 332.34C323.364 333.861 323.124 334.391 312.447 339.976C314.651 339.265 316.185 339.075 317.129 339.403C317.423 339.495 317.695 339.647 317.927 339.85C318.159 340.053 318.346 340.302 318.477 340.581C319.468 342.681 318.496 343.535 290.005 357.391C281.847 361.36 271.576 366.349 263.232 370.702L319.034 345.001C319.212 344.916 319.406 344.868 319.604 344.861C319.801 344.853 319.998 344.885 320.183 344.956C320.554 345.093 320.856 345.369 321.026 345.727C321.644 347.079 320.528 347.749 318.678 348.864C317.562 349.535 315.928 350.479 313.683 351.739C309.499 354.105 303.692 357.296 297.545 360.686C290.383 364.626 281.37 369.59 273.975 373.78C277.366 371.963 280.9 370.009 284.042 368.27C300.412 359.213 307.301 355.62 309.788 356.411C310.049 356.494 310.29 356.629 310.496 356.809C310.703 356.989 310.87 357.209 310.988 357.455C311.715 359.049 311.748 359.122 292.904 370.291C306.505 362.948 310.921 360.904 312.794 361.508C313.035 361.587 313.257 361.714 313.447 361.882C313.637 362.049 313.791 362.254 313.899 362.484C314.484 363.763 314.484 363.763 304.901 370.221C302.011 372.164 297.996 374.867 294.371 377.376C297.254 375.944 300.438 374.309 303.466 372.72C303.647 372.625 303.845 372.567 304.048 372.551C304.252 372.535 304.456 372.561 304.65 372.626C304.843 372.692 305.021 372.797 305.172 372.933C305.324 373.07 305.446 373.237 305.53 373.422C305.996 374.469 305.769 374.649 303.526 376.652C301.699 378.281 300.131 379.714 298.803 380.937C308.341 376.382 308.661 376.502 309.284 376.72C309.473 376.789 309.646 376.894 309.794 377.03C309.942 377.166 310.061 377.33 310.145 377.513C310.229 377.691 310.276 377.885 310.285 378.082C310.293 378.28 310.262 378.477 310.194 378.662C310.125 378.847 310.021 379.017 309.886 379.162C309.751 379.306 309.589 379.422 309.409 379.504C309.257 379.577 309.093 379.623 308.925 379.64C307.545 380.115 299.787 383.769 292.944 387.096C292.716 387.175 292.473 387.201 292.234 387.171ZM307.504 378.706C307.638 378.987 307.855 379.221 308.126 379.375C307.857 379.218 307.641 378.985 307.504 378.706ZM272.14 360.114C263.042 364.689 254.083 369.287 248.213 372.613C254.547 369.591 263.8 364.638 272.14 360.114ZM311.616 337.007C301.348 341.524 284.608 350.246 271.884 356.897C276.559 354.546 281.885 351.893 287.936 348.895C296.269 344.772 305.243 340.337 311.616 337.007ZM310.336 343.919C304.768 346.258 296.239 350.654 287.91 355.059L288.783 354.637C296.532 350.852 304.943 346.756 310.338 343.899L310.336 343.919ZM263.433 317.044C256.482 320.551 250.151 323.875 244.866 326.742C250.327 323.921 256.806 320.531 263.433 317.044ZM337.93 284.408C334.951 285.138 328.57 287.362 314.898 293.946C301.227 300.53 284.631 309.316 269.856 317.093C263.405 320.516 257.984 323.331 253.407 325.701C262.267 321.315 274.15 315.611 290.016 308.094C309.329 298.917 330.918 288.693 337.93 284.408ZM325.889 312.764L323.654 313.914C316.276 317.7 309.29 321.257 302.697 324.587C311.472 320.354 319.779 316.188 325.889 312.764ZM260.458 300.06C250.819 304.735 241.446 309.355 235.209 312.527C238.336 311.278 242.119 309.568 246.404 307.532C250.647 305.182 255.389 302.656 260.458 300.06ZM286.262 275.904C282.204 278.101 278.207 280.284 274.464 282.319C267.061 286.378 260.489 289.91 254.797 292.941L260.596 290.06C281.905 279.49 312.676 264.207 321.84 258.484C318.542 259.608 315.322 260.948 312.201 262.497C308.576 264.563 303.982 267.022 298.176 269.982C294.394 271.893 290.386 273.874 286.264 275.884L286.262 275.904Z" fill="white"/>
</g>
<path d="M285.782 225.618L285.115 225.557C248.946 222.899 219.187 248.016 216.057 282.002C215.107 292.15 216.661 302.376 220.585 311.783C222.141 316.696 225.894 328.721 229.285 344.137C232.433 358.365 233.462 372.489 233.265 374.63C233.247 374.829 233.228 375.038 233.207 375.268C233.129 375.891 233.177 376.523 233.349 377.127C233.52 377.731 233.811 378.294 234.204 378.784C234.597 379.273 235.085 379.679 235.638 379.977C236.191 380.274 236.798 380.458 237.423 380.516L302.089 386.472C302.715 386.528 303.345 386.459 303.943 386.267C304.541 386.075 305.094 385.766 305.57 385.356C306.046 384.947 306.435 384.446 306.714 383.883C306.993 383.321 307.156 382.708 307.193 382.081C307.215 381.852 307.234 381.643 307.252 381.444C307.446 379.343 311.037 365.644 316.725 352.189C322.88 337.693 328.72 326.511 331.187 321.968C337.019 313.03 340.466 302.748 341.203 292.101C341.939 281.454 339.939 270.796 335.393 261.14C330.848 251.484 323.907 243.151 315.232 236.935C306.557 230.718 296.436 226.824 285.832 225.623L285.782 225.618Z" stroke="#263238" stroke-width="2" stroke-linecap="round" stroke-linejoin="round"/>
<path d="M268.224 354.873L271.17 322.888C271.17 322.888 275.063 307.541 266.968 306.795C258.872 306.05 258.743 314.212 267.281 323.785C275.819 333.359 290.903 326.594 293.406 319.915C295.909 313.236 291.206 309.67 287.574 314.979C283.942 320.289 281.205 384.137 281.205 384.137" stroke="#263238" stroke-width="3" stroke-linecap="round" stroke-linejoin="round"/>
<path d="M264.349 207.326L266.795 218.487" stroke="#263238" stroke-width="3" stroke-linecap="round" stroke-linejoin="round"/>
<path d="M228.005 190.974C228.005 190.974 237.335 192.606 243.107 195.136C248.879 197.666 254.734 198.216 254.127 192.918C253.769 189.721 249.87 187.344 249.87 187.344C249.87 187.344 254.791 191.814 260.323 189.642C265.856 187.47 256.991 177.957 256.991 177.957C256.991 177.957 267.412 182.351 267.804 178.642C268.196 174.932 263.589 170.973 262.018 168.518C260.446 166.064 244.764 158.825 242.875 155.89C240.986 152.954 243.602 142.982 248.511 139.839C253.42 136.696 247.905 129.189 232.128 137.918C216.351 146.648 206.108 158.75 206.201 167.666C206.293 176.582 228.005 190.974 228.005 190.974Z" fill="white" stroke="#263238" stroke-miterlimit="10" stroke-linecap="round"/>
<path d="M246.558 183.293L226.719 168.411C226.719 168.411 219.366 161.015 225.554 148.35" stroke="#263238" stroke-miterlimit="10" stroke-linecap="round"/>
<path d="M250.247 176.051L236.014 160.279C236.014 160.279 230.502 152.742 236.704 141.885" stroke="#263238" stroke-miterlimit="10" stroke-linecap="round"/>
<path d="M248.218 146.942L259.624 158.306L286.046 130.381C286.046 130.381 301.912 124.943 306.487 119.209C311.062 113.474 317.522 80.7287 317.522 80.7287L279.786 71.8707C279.786 71.8707 274.109 90.8702 271.498 93.2708C268.887 95.6715 229.548 109.121 224.649 112.265C219.75 115.409 214.248 132.737 214.248 132.737C211.547 139.74 208.237 146.491 204.356 152.915C194.018 169.758 195.696 168.547 199.32 173.138C202.944 177.73 211.922 187.213 219.298 190.102C226.675 192.99 235.374 201.685 234.144 191.921C232.877 181.913 211.987 175.821 215.38 164.605C216.928 159.465 229.839 146.304 231.486 144.558C231.486 144.558 242.364 141.05 248.235 146.974" fill="white"/>
<path d="M248.218 146.942L259.624 158.306L286.046 130.381C286.046 130.381 301.912 124.943 306.487 119.209C311.062 113.474 317.522 80.7287 317.522 80.7287L279.786 71.8707C279.786 71.8707 274.109 90.8702 271.498 93.2708C268.887 95.6715 229.548 109.121 224.649 112.265C219.75 115.409 214.248 132.737 214.248 132.737C211.547 139.74 208.237 146.491 204.356 152.915C194.018 169.758 195.696 168.546 199.32 173.138C202.944 177.73 211.922 187.213 219.298 190.102C226.675 192.99 235.374 201.685 234.144 191.921C232.877 181.913 211.987 175.821 215.38 164.605C216.928 159.465 229.839 146.304 231.486 144.558C231.486 144.558 242.364 141.05 248.235 146.974" stroke="#263238" stroke-miterlimit="10" stroke-linecap="round"/>
<path d="M234.226 225.49C233.97 225.448 233.737 225.314 233.571 225.115C233.405 224.915 233.317 224.662 233.322 224.402L233.438 221.501C233.432 221.352 233.457 221.204 233.51 221.065C233.564 220.926 233.646 220.8 233.751 220.694C233.856 220.588 233.982 220.505 234.121 220.451C234.259 220.396 234.408 220.37 234.556 220.376C234.705 220.381 234.851 220.417 234.986 220.482C235.12 220.546 235.239 220.638 235.336 220.751C235.434 220.864 235.506 220.996 235.55 221.138C235.594 221.281 235.607 221.431 235.59 221.579L235.484 224.481C235.474 224.765 235.353 225.033 235.147 225.228C234.942 225.424 234.667 225.53 234.383 225.525L234.226 225.49Z" fill="#263238" stroke="#263238" stroke-miterlimit="10" stroke-linecap="round"/>
<path d="M234.414 222.143C233.832 222.037 233.308 221.724 232.939 221.262C232.57 220.799 232.381 220.219 232.406 219.628L231.629 211.272L232.743 123.615C232.801 122.079 233.468 120.63 234.595 119.586C235.722 118.542 237.218 117.988 238.753 118.047C240.289 118.106 241.738 118.772 242.782 119.9C243.826 121.027 244.379 122.523 244.321 124.058L238.453 212.201L237.329 219.821C237.317 220.144 237.241 220.462 237.106 220.756C236.971 221.05 236.779 221.314 236.541 221.534C236.304 221.754 236.025 221.924 235.721 222.036C235.418 222.148 235.095 222.199 234.771 222.186C234.651 222.182 234.532 222.167 234.414 222.143Z" fill="#92E3A9" stroke="#263238" stroke-miterlimit="10" stroke-linecap="round"/>
<path d="M232.692 123.61L232.371 148.907C233.644 150.032 235.243 150.723 236.935 150.878C238.627 151.034 240.324 150.647 241.781 149.774C242.065 149.591 242.336 149.387 242.591 149.165L244.267 124.093C244.326 122.558 243.772 121.062 242.728 119.935C241.684 118.808 240.235 118.141 238.7 118.083C237.164 118.024 235.668 118.577 234.541 119.621C233.414 120.665 232.748 122.114 232.689 123.65L232.692 123.61Z" fill="#263238" stroke="#263238" stroke-miterlimit="10" stroke-linecap="round"/>
<path d="M306.441 119.164C302.184 129.628 286.402 143.098 283.412 148.084C276.696 159.389 269.137 170.17 260.799 180.336C257.977 183.822 255.25 184.104 253.494 185.287C250.921 187.059 249.508 188.988 245.134 191.778C237.781 196.484 232.463 190.983 237.173 181.063C241.882 171.143 250.107 157.51 250.107 157.51C250.107 157.51 252.505 150.45 246.021 143.546" fill="white"/>
<path d="M306.441 119.164C302.184 129.628 286.402 143.098 283.412 148.084C276.696 159.389 269.137 170.17 260.799 180.336C257.977 183.822 255.25 184.104 253.494 185.287C250.921 187.059 249.508 188.988 245.134 191.778C237.781 196.484 232.463 190.983 237.173 181.063C241.882 171.143 250.107 157.51 250.107 157.51C250.107 157.51 252.505 150.45 246.021 143.546" stroke="#263238" stroke-miterlimit="10" stroke-linecap="round"/>
<path d="M238.097 187.595L240.329 183.864C240.329 183.864 240.566 184.237 243.737 185.895C245.627 186.888 247.736 187.386 249.87 187.344C249.87 187.344 244.431 194.395 240.759 193.585C239.842 193.411 239.008 192.935 238.393 192.232C237.868 191.586 237.556 190.792 237.503 189.961C237.45 189.13 237.658 188.303 238.097 187.595Z" fill="white" stroke="#263238" stroke-miterlimit="10" stroke-linecap="round"/>
<path d="M279.433 40.3756L266.781 91.0589C266.781 91.0589 275.558 100.333 288.036 103.762C300.514 107.19 323.361 112.749 323.361 112.749L349.876 46.8429" fill="#263238"/>
<path d="M279.433 40.3756L266.781 91.0589C266.781 91.0589 275.558 100.333 288.036 103.762C300.514 107.19 323.361 112.749 323.361 112.749L349.876 46.8429" stroke="#263238" stroke-miterlimit="10" stroke-linecap="round"/>
<path d="M247.94 175.698L247.335 174.959" stroke="#263238" stroke-miterlimit="10" stroke-linecap="round"/>
<path d="M256.703 180.431C256.703 180.431 253.733 181.704 249.152 177.035" stroke="#263238" stroke-miterlimit="10" stroke-linecap="round"/>
<path d="M251.056 175.774C251.056 175.774 252.434 175.429 256.37 178.272" stroke="#263238" stroke-miterlimit="10" stroke-linecap="round"/>
<path d="M247.565 178.244C249.073 179.94 250.95 181.267 253.052 182.124" stroke="#263238" stroke-miterlimit="10" stroke-linecap="round"/>
<path d="M234.99 346.088C234.99 346.088 235.031 355.562 236.567 361.678C238.102 367.795 237.683 373.661 232.527 372.172C229.437 371.275 227.748 367.042 227.748 367.042C227.748 367.042 231.319 372.643 228.26 377.724C225.201 382.805 217.295 372.477 217.295 372.477C217.295 372.477 219.877 383.48 216.163 383.248C212.448 383.017 209.303 377.806 207.153 375.851C205.003 373.895 200.499 357.162 197.91 354.855C195.32 352.547 185.069 353.401 181.157 357.71C177.245 362.02 170.732 355.324 182.016 341.189C193.3 327.055 206.927 318.98 215.653 320.628C224.379 322.275 234.99 346.088 234.99 346.088Z" fill="white" stroke="#263238" stroke-miterlimit="10" stroke-linecap="round"/>
<path d="M188.194 358.609L197.466 371.775L165.508 393.074C165.508 393.074 148.514 399.643 142.096 403.25C135.678 406.857 102.342 408.014 102.342 408.014L99.6909 369.409C99.6909 369.409 119.35 366.831 122.123 364.636C124.896 362.441 154.079 333.867 157.961 329.554C161.843 325.242 179.899 322.738 179.899 322.738C179.899 322.738 188.043 320.887 197.599 313.843C207.155 306.8 218.278 310.445 222.196 314.793C226.113 319.141 236.753 331.197 238.361 338.917C239.97 346.637 240.354 354.897 234.872 352.273C225.764 347.91 222.731 327.737 211.089 329.185C205.766 329.85 190.618 340.355 188.627 341.698C188.627 341.698 183.335 351.835 188.194 358.609Z" fill="white" stroke="#263238" stroke-miterlimit="10" stroke-linecap="round"/>
</g>
<defs>
<clipPath id="clip0_120_4779">
<rect width="500" height="500" fill="white" transform="translate(45.98 0.127014) rotate(5.26175)"/>
</clipPath>
</defs>
</svg>
