<svg width="135" height="115" viewBox="0 0 135 115" fill="none" xmlns="http://www.w3.org/2000/svg">
<rect width="135" height="115" rx="8" fill="#C3DBEC"/>
<path d="M61.9134 41.9131H59.3047V45.3913H61.9134V41.9131Z" fill="#B7D6CA"/>
<path d="M76.6956 41.9131H74.0869V45.3913H76.6956V41.9131Z" fill="#96B5A5"/>
<path d="M76.6957 39.3047H68V41.9134H76.6957V39.3047Z" fill="#D5310E"/>
<path d="M68.0003 39.3047H59.3047V41.9134H68.0003V39.3047Z" fill="#F46A1A"/>
<path d="M55.8259 42.7832H52.3477V45.3919H55.8259V42.7832Z" fill="#B7D6CA"/>
<path d="M82.7829 42.7832H79.3047V45.3919H82.7829V42.7832Z" fill="#B7D6CA"/>
<path d="M83.6522 45.3916H68V52.3481H70.8985V58.1453H76.6957V63.9424H70.8985V69.7394H68V76.6959H83.6522C86.0435 76.6959 88 74.7394 88 72.3481V49.7394C88 47.3481 86.0435 45.3916 83.6522 45.3916Z" fill="#D5310E"/>
<path d="M65.1015 69.7394V63.9423H59.3043V58.1452H65.1015V52.3481H68V45.3916H52.3478C49.9565 45.3916 48 47.3481 48 49.7394V72.3481C48 74.7394 49.087 76.6959 51.4783 76.6959H68V69.7394H65.1015Z" fill="#F46A1A"/>
<path d="M70.8985 69.7399V63.9428H76.6957V58.1458H70.8985V52.3486H68V69.7399H70.8985Z" fill="#FFF6D6"/>
<path d="M65.1018 58.1458H59.3047V63.9428H65.1018V69.7399H68.0003V52.3486H65.1018V58.1458Z" fill="white"/>
</svg>
