<svg width="135" height="115" viewBox="0 0 135 115" fill="none" xmlns="http://www.w3.org/2000/svg">
<rect width="135" height="115" rx="8" fill="#F9DFC9"/>
<g clip-path="url(#clip0_12_5568)">
<path d="M87.3337 64H80.0003C79.2637 64 78.667 64.5967 78.667 65.3333V76C78.667 76.7367 79.2637 77.3333 80.0003 77.3333H87.3337V64Z" fill="#4A88DB"/>
<path d="M77.9004 70.3893C77.9004 65.066 73.4357 60.792 67.9277 60.792C62.4204 60.792 57.9551 65.0453 57.9551 70.3687C57.9551 70.4907 57.9691 70.6673 57.9737 70.6673H77.8811C77.8857 70.6667 77.9004 70.5107 77.9004 70.3893Z" fill="#B88B35"/>
<path d="M77.8811 71.333H57.9744C57.2891 71.333 57.2891 70.607 57.2891 70.3683C57.2891 64.7197 62.0617 60.125 67.9284 60.125C73.7944 60.125 78.5671 64.7297 78.5671 70.389C78.5671 71.015 78.3364 71.333 77.8811 71.333ZM58.6297 69.9997H77.2251C77.0117 65.255 72.9231 61.4583 67.9284 61.4583C62.9257 61.4583 58.8324 65.257 58.6297 69.9997Z" fill="black"/>
<path d="M78.667 66H74.667V76H78.667V66Z" fill="#F8F8FA"/>
<path d="M68.1185 70.6668H63.1452C62.2098 70.6668 61.4518 69.9195 61.4518 68.9848V68.9822C61.4518 68.2942 61.8678 67.6748 62.5045 67.4148L67.7245 65.2808C67.9805 65.1762 68.2632 65.1535 68.5325 65.2168L74.7852 66.6782L74.7405 75.7802L68.4245 77.2728C68.2232 77.3202 68.0138 77.3202 67.8125 77.2728L56.7852 74.6782L49.3792 69.7402C49.0085 69.4928 48.7852 69.0768 48.7852 68.6308V67.1408C48.7852 66.2462 49.6485 65.6055 50.5045 65.8648L61.4518 69.1722" fill="#F1998A"/>
<path d="M87.3333 63.333H80C78.8973 63.333 78 64.2303 78 65.333H74.6667C74.3627 65.333 74.1173 65.5397 74.0367 65.8177L68.6853 64.5663C68.2773 64.471 67.86 64.5043 67.4727 64.6623L62.2527 66.7963C61.5787 67.0723 61.0853 67.6303 60.8847 68.3037L50.6987 65.2263C50.084 65.0417 49.3807 65.1543 48.8673 65.5343C48.354 65.9157 48 66.501 48 67.1403V68.6303C48 69.3003 48.392 69.9223 48.95 70.2943L56.386 75.2317C56.4527 75.2757 56.5407 75.3077 56.618 75.3263L67.6527 77.921C67.8027 77.9563 67.9613 77.9737 68.1153 77.9737C68.2693 77.9737 68.4267 77.9563 68.5767 77.921L74.328 76.5617C74.4287 76.6223 74.5407 76.6663 74.6667 76.6663H78.1227C78.3987 77.4403 79.132 77.9997 80 77.9997H87.3333C87.702 77.9997 88 77.7017 88 77.333V63.9997C88 63.631 87.702 63.333 87.3333 63.333ZM75.45 66.6663H78V75.333H75.41L75.4527 66.6803C75.4527 66.6757 75.45 66.671 75.45 66.6663ZM68.272 76.623C68.172 76.6477 68.066 76.6463 67.966 76.623L57.0553 74.0563L49.69 69.185C49.5033 69.0617 49.3333 68.8537 49.3333 68.6303V67.1403C49.3333 66.9277 49.4913 66.7323 49.6627 66.605C49.8333 66.4777 50.0793 66.441 50.2827 66.5023L60.8827 69.7003C61.188 70.6463 62.096 71.333 63.146 71.333H68.1193C68.488 71.333 68.786 71.035 68.786 70.6663C68.786 70.2977 68.488 69.9997 68.1193 69.9997H63.146C62.5793 69.9997 62.1193 69.5437 62.1193 68.9817C62.1193 68.563 62.37 68.1897 62.758 68.031L67.9767 65.897C68.1053 65.845 68.244 65.833 68.3813 65.865L74 67.1783V75.269L68.272 76.623ZM86.6667 76.6663H80C79.632 76.6663 79.3333 76.3677 79.3333 75.9997V65.9997V65.333C79.3333 64.965 79.632 64.6663 80 64.6663H86.6667V76.6663Z" fill="black"/>
<path d="M84.1198 75.3333H82.1198C81.7511 75.3333 81.4531 75.0353 81.4531 74.6667C81.4531 74.298 81.7511 74 82.1198 74H84.1198C84.4885 74 84.7865 74.298 84.7865 74.6667C84.7865 75.0353 84.4878 75.3333 84.1198 75.3333Z" fill="black"/>
<path d="M76.0015 46.6803C75.973 42.2987 72.3681 38.7701 67.9498 38.7988C63.5314 38.8275 59.9727 42.4027 60.0012 46.7843C60.0296 51.1658 63.6345 54.6945 68.0529 54.6658C72.4713 54.6371 76.03 51.0618 76.0015 46.6803Z" fill="#F5BA46"/>
<path d="M70.6965 47.979C70.6898 46.8803 69.7938 45.9997 68.6965 45.9997C68.6918 45.9997 68.6878 45.9997 68.6832 45.9997H67.3505C67.3485 45.9997 67.3472 45.9997 67.3458 45.9997C66.9798 45.9997 66.6812 45.699 66.6792 45.333L66.6745 44.665C66.6718 44.297 66.9692 43.995 67.3365 43.993L67.9465 43.9883C67.9678 43.9897 67.9865 43.9997 68.0085 43.9997C68.0098 43.9997 68.0112 43.9997 68.0125 43.9997C68.0352 43.9997 68.0538 43.989 68.0752 43.9863L70.0038 43.9743C70.3725 43.9717 70.6692 43.6843 70.6665 43.3163C70.6638 42.949 70.3665 42.6663 69.9998 42.6663C69.9985 42.6663 69.9972 42.6663 69.9958 42.6663L68.6705 42.6623L68.6665 42.0017C68.6638 41.635 68.3665 41.333 67.9998 41.333C67.9985 41.333 67.9972 41.333 67.9952 41.333C67.6272 41.3357 67.3305 41.6397 67.3332 42.0083L67.3372 42.6663H67.3292C66.2265 42.6663 65.3352 43.5717 65.3418 44.675L65.3465 45.339C65.3532 46.4423 66.2272 47.3343 67.3598 47.3343L68.6918 47.333C68.6938 47.333 68.6952 47.333 68.6965 47.333C68.8732 47.333 69.0392 47.393 69.1652 47.5163C69.2912 47.6417 69.3618 47.8043 69.3632 47.9823L69.3672 48.6477C69.3685 48.8263 69.2998 48.9923 69.1752 49.119C69.0498 49.245 68.8832 49.315 68.7045 49.3163L66.0392 49.333C65.6705 49.3357 65.3738 49.6357 65.3765 50.0043C65.3792 50.371 65.6765 50.6663 66.0432 50.6663C66.0445 50.6663 66.0458 50.6663 66.0478 50.6663L67.3378 50.6583L67.3418 51.3377C67.3445 51.7043 67.6418 51.9997 68.0085 51.9997C68.0098 51.9997 68.0112 51.9997 68.0125 51.9997C68.3812 51.997 68.6778 51.705 68.6752 51.337L68.6705 50.6663H68.7125C69.2472 50.6663 69.7485 50.443 70.1238 50.063C70.4985 49.683 70.7038 49.1797 70.6998 48.6457L70.6965 47.979Z" fill="black"/>
<path d="M67.185 58.1478C66.2983 57.261 65.0518 57.0698 64.4009 57.7207C63.75 58.3715 63.9413 59.618 64.828 60.5048C65.7147 61.3915 66.9612 61.5827 67.6121 60.9319C68.263 60.281 68.0717 59.0345 67.185 58.1478Z" fill="#34B095"/>
<path d="M71.7378 57.7177C71.0869 57.0669 69.8404 57.2581 68.9537 58.1448C68.0669 59.0316 67.8757 60.2781 68.5266 60.9289C69.1774 61.5798 70.4239 61.3886 71.3107 60.5018C72.1974 59.6151 72.3886 58.3686 71.7378 57.7177Z" fill="#34B095"/>
<path d="M76.6665 46.6113C76.6359 41.888 72.7539 38 68.0005 38C67.9819 38 67.9625 38 67.9445 38C65.6305 38 63.4605 38.9893 61.8345 40.6227C60.2072 42.2573 59.3185 44.4567 59.3332 46.7553C59.3625 51.2567 62.8932 54.948 67.3399 55.2833C67.3392 55.2953 67.3332 55.3213 67.3332 55.3333V57.3973C66.2032 56.496 64.7732 56.4053 63.9305 57.248C63.0052 58.1733 63.1932 59.8107 64.3579 60.9753C65.0252 61.6433 65.8479 61.9893 66.6032 61.9893C66.8579 61.9893 67.1025 61.944 67.3332 61.8647V62.6667C67.3332 63.0353 67.6312 63.3333 67.9999 63.3333C68.3685 63.3333 68.6665 63.0353 68.6665 62.6667V61.808C68.9319 61.9207 69.2252 61.984 69.5365 61.984C69.6645 61.984 69.7965 61.9733 69.9292 61.9533C70.5945 61.8513 71.2512 61.504 71.7799 60.9753C72.9445 59.8107 73.1319 58.1733 72.2072 57.248C71.7465 56.786 71.0652 56.5853 70.3319 56.6973C69.7405 56.788 69.1612 57.0813 68.6672 57.5147V55.3333C68.6672 55.3213 68.6612 55.312 68.6605 55.3C70.7459 55.1447 72.6825 54.234 74.1659 52.744C75.7932 51.1093 76.6812 48.9093 76.6665 46.6113ZM67.1425 60.4593C66.8079 60.7927 65.9685 60.7007 65.3005 60.032C64.6319 59.3633 64.5385 58.5247 64.8732 58.19C64.9965 58.0667 65.1872 58.002 65.4132 58.002C65.8019 58.002 66.2919 58.1947 66.7152 58.6173C67.3832 59.2867 67.4765 60.1253 67.1425 60.4593ZM69.4232 58.618C69.7479 58.294 70.1525 58.074 70.5332 58.0153C70.5872 58.0073 70.6545 58 70.7292 58C70.9025 58 71.1119 58.0387 71.2645 58.1907C71.5992 58.5253 71.5059 59.364 70.8372 60.0327C70.5125 60.3567 70.1079 60.5767 69.7272 60.6353C69.5472 60.662 69.2132 60.6767 68.9959 60.4593C68.6612 60.1253 68.7545 59.2867 69.4232 58.618ZM68.0472 54C68.0312 54 68.0152 54 67.9992 54C63.9779 54 60.6925 50.7707 60.6665 46.78C60.6539 44.8407 61.4039 42.9447 62.7792 41.5633C64.1552 40.1807 65.9925 39.3333 67.9525 39.3333C67.9685 39.3333 67.9845 39.3333 68.0005 39.3333C72.0219 39.3333 75.3072 42.6293 75.3332 46.62C75.3465 48.5593 74.5959 50.422 73.2205 51.8033C71.8445 53.186 70.0072 53.9873 68.0472 54Z" fill="black"/>
<path d="M84.6667 42H83.3333V40.6667C83.3333 40.298 83.0353 40 82.6667 40C82.298 40 82 40.298 82 40.6667V42H80.6667C80.298 42 80 42.298 80 42.6667C80 43.0353 80.298 43.3333 80.6667 43.3333H82V44.6667C82 45.0353 82.298 45.3333 82.6667 45.3333C83.0353 45.3333 83.3333 45.0353 83.3333 44.6667V43.3333H84.6667C85.0353 43.3333 85.3333 43.0353 85.3333 42.6667C85.3333 42.298 85.0353 42 84.6667 42Z" fill="black"/>
<path d="M81.4525 57.3333H78.7858C78.4171 57.3333 78.1191 57.0353 78.1191 56.6667C78.1191 56.298 78.4171 56 78.7858 56H81.4525C81.8211 56 82.1191 56.298 82.1191 56.6667C82.1191 57.0353 81.8205 57.3333 81.4525 57.3333Z" fill="black"/>
<path d="M85.4531 57.3333H84.1198C83.7511 57.3333 83.4531 57.0353 83.4531 56.6667C83.4531 56.298 83.7511 56 84.1198 56H85.4531C85.8218 56 86.1198 56.298 86.1198 56.6667C86.1198 57.0353 85.8211 57.3333 85.4531 57.3333Z" fill="black"/>
<path d="M53.3337 54.2663C52.965 54.2663 52.667 53.9683 52.667 53.5997V51.9997C52.667 51.631 52.965 51.333 53.3337 51.333C53.7023 51.333 54.0003 51.631 54.0003 51.9997V53.5997C54.0003 53.9683 53.7023 54.2663 53.3337 54.2663Z" fill="black"/>
<path d="M53.3337 60.6667C52.965 60.6667 52.667 60.3687 52.667 60.0001V58.4001C52.667 58.0314 52.965 57.7334 53.3337 57.7334C53.7023 57.7334 54.0003 58.0314 54.0003 58.4001V60.0001C54.0003 60.3687 53.7023 60.6667 53.3337 60.6667Z" fill="black"/>
<path d="M57.3331 56.6663H55.7331C55.3644 56.6663 55.0664 56.3683 55.0664 55.9997C55.0664 55.631 55.3644 55.333 55.7331 55.333H57.3331C57.7017 55.333 57.9997 55.631 57.9997 55.9997C57.9997 56.3683 57.7017 56.6663 57.3331 56.6663Z" fill="black"/>
<path d="M50.9337 56.6663H49.3337C48.965 56.6663 48.667 56.3683 48.667 55.9997C48.667 55.631 48.965 55.333 49.3337 55.333H50.9337C51.3023 55.333 51.6003 55.631 51.6003 55.9997C51.6003 56.3683 51.3023 56.6663 50.9337 56.6663Z" fill="black"/>
<path d="M56.1618 59.4944C55.9911 59.4944 55.8204 59.4291 55.6904 59.2991L54.5598 58.1684C54.2991 57.9078 54.2991 57.4864 54.5598 57.2258C54.8204 56.9651 55.2418 56.9651 55.5024 57.2258L56.6331 58.3564C56.8938 58.6171 56.8938 59.0384 56.6331 59.2991C56.5031 59.4298 56.3324 59.4944 56.1618 59.4944Z" fill="black"/>
<path d="M51.6364 54.969C51.4657 54.969 51.295 54.9037 51.165 54.7737L50.0344 53.643C49.7737 53.3824 49.7737 52.961 50.0344 52.7004C50.295 52.4397 50.7164 52.4397 50.977 52.7004L52.1077 53.831C52.3684 54.0917 52.3684 54.513 52.1077 54.7737C51.9777 54.9037 51.807 54.969 51.6364 54.969Z" fill="black"/>
<path d="M50.5057 59.4944C50.335 59.4944 50.1644 59.4291 50.0344 59.2991C49.7737 59.0384 49.7737 58.6171 50.0344 58.3564L51.165 57.2258C51.4257 56.9651 51.847 56.9651 52.1077 57.2258C52.3684 57.4864 52.3684 57.9078 52.1077 58.1684L50.977 59.2991C50.847 59.4298 50.6764 59.4944 50.5057 59.4944Z" fill="black"/>
<path d="M55.0311 54.969C54.8604 54.969 54.6898 54.9037 54.5598 54.7737C54.2991 54.513 54.2991 54.0917 54.5598 53.831L55.6904 52.7004C55.9511 52.4397 56.3724 52.4397 56.6331 52.7004C56.8938 52.961 56.8938 53.3824 56.6331 53.643L55.5024 54.7737C55.3724 54.9037 55.2018 54.969 55.0311 54.969Z" fill="black"/>
<path d="M52.3333 44.6667C51.0467 44.6667 50 43.62 50 42.3333C50 41.0467 51.0467 40 52.3333 40C53.62 40 54.6667 41.0467 54.6667 42.3333C54.6667 43.62 53.62 44.6667 52.3333 44.6667ZM52.3333 41.3333C51.782 41.3333 51.3333 41.782 51.3333 42.3333C51.3333 42.8847 51.782 43.3333 52.3333 43.3333C52.8847 43.3333 53.3333 42.8847 53.3333 42.3333C53.3333 41.782 52.8847 41.3333 52.3333 41.3333Z" fill="black"/>
<path d="M63.3337 48.0003C63.7018 48.0003 64.0003 47.7018 64.0003 47.3337C64.0003 46.9655 63.7018 46.667 63.3337 46.667C62.9655 46.667 62.667 46.9655 62.667 47.3337C62.667 47.7018 62.9655 48.0003 63.3337 48.0003Z" fill="black"/>
<path d="M72.6667 48.0003C73.0349 48.0003 73.3333 47.7018 73.3333 47.3337C73.3333 46.9655 73.0349 46.667 72.6667 46.667C72.2985 46.667 72 46.9655 72 47.3337C72 47.7018 72.2985 48.0003 72.6667 48.0003Z" fill="black"/>
</g>
<defs>
<clipPath id="clip0_12_5568">
<rect width="40" height="40" fill="white" transform="translate(48 38)"/>
</clipPath>
</defs>
</svg>
