<svg width="135" height="115" viewBox="0 0 135 115" fill="none" xmlns="http://www.w3.org/2000/svg">
<rect width="135" height="115" rx="8" fill="#C3DBEC"/>
<path d="M52.6102 62.2617H83.5467C84.7665 62.2617 85.7565 63.0885 85.7565 64.1073V72.4126C85.7565 73.4323 84.7665 74.2582 83.5467 74.2582H52.6102C51.3904 74.2582 50.4004 73.4323 50.4004 72.4126V64.1073C50.4004 63.0886 51.3904 62.2617 52.6102 62.2617Z" fill="#0D7A7C"/>
<path d="M68.0785 40.3787C69.2228 40.3787 70.1846 41.1134 70.5476 42.1323H72.4626C72.4626 40.1954 70.5003 38.625 68.0785 38.625C65.6575 38.625 63.6943 40.1954 63.6943 42.1323H65.6093C65.9723 41.1134 66.9351 40.3787 68.0785 40.3787Z" fill="#332A23"/>
<path d="M60.0266 42.1328H76.1304C79.9401 42.1328 83.032 45.5213 83.032 49.6994V74.9211C83.032 76.3146 82.0014 77.4433 80.7315 77.4433H55.4255C54.1556 77.4433 53.125 76.3146 53.125 74.9211V49.6993C53.125 45.5213 56.2146 42.1328 60.0266 42.1328Z" fill="#065654"/>
<path d="M56.5757 42.1328H79.5811C82.122 42.1328 84.1822 44.6243 84.1822 47.6973V53.2619C84.1822 56.3349 82.122 58.8278 79.5811 58.8278H56.5757C54.0348 58.8278 51.9746 56.3349 51.9746 53.2619V47.6973C51.9747 44.6243 54.0348 42.1328 56.5757 42.1328Z" fill="#0D7A7C"/>
<path d="M58.876 66.2885C58.876 66.2885 59.7629 68.5891 60.6371 68.5891C61.4871 68.5891 62.3268 66.2885 62.3268 66.2885V42.1328H58.8761L58.876 66.2885ZM73.8295 42.1328V66.2885C73.8295 66.2885 74.7164 68.5891 75.5906 68.5891C76.4407 68.5891 77.2803 66.2885 77.2803 66.2885V42.1328H73.8295Z" fill="#F2A74E"/>
<path d="M59.451 63.988H61.7515C62.7044 63.988 63.4769 63.2155 63.4769 62.2626C63.4769 61.3097 62.7044 60.5372 61.7515 60.5372H59.451C58.4981 60.5372 57.7256 61.3097 57.7256 62.2626C57.7256 63.2155 58.4981 63.988 59.451 63.988ZM72.6791 62.2625C72.6791 63.2154 73.4516 63.9879 74.4045 63.9879H76.705C77.6579 63.9879 78.4304 63.2154 78.4304 62.2625C78.4304 61.3096 77.6579 60.5371 76.705 60.5371H74.4045C73.4516 60.5371 72.6791 61.3096 72.6791 62.2625Z" fill="#332A23"/>
<path d="M70.8771 49.547L69.0108 47.6815C68.4953 47.1661 67.6607 47.1661 67.1453 47.6815L65.2782 49.547C64.7627 50.0625 64.7627 50.8979 65.2782 51.4133L67.1453 53.278C67.6608 53.7935 68.4945 53.7935 69.0108 53.278L70.8771 51.4133C71.3925 50.8978 71.3925 50.0624 70.8771 49.547ZM67.2969 50.8954C67.2968 51.0012 67.2548 51.1027 67.1799 51.1775C67.1051 51.2523 67.0037 51.2944 66.8979 51.2944C66.7921 51.2942 66.6907 51.2522 66.6159 51.1774C66.5412 51.1026 66.4991 51.0012 66.4989 50.8954V50.0975C66.4991 49.9918 66.5412 49.8904 66.6159 49.8156C66.6907 49.7408 66.7921 49.6987 66.8979 49.6986C67.0037 49.6986 67.1051 49.7407 67.1799 49.8155C67.2548 49.8903 67.2968 49.9917 67.2969 50.0975V50.8954ZM69.6906 50.8954C69.6906 51.0012 69.6485 51.1027 69.5737 51.1775C69.4989 51.2523 69.3974 51.2944 69.2916 51.2944C69.1859 51.2942 69.0845 51.2522 69.0097 51.1774C68.9349 51.1026 68.8928 51.0012 68.8927 50.8954V50.0975C68.8928 49.9918 68.9349 49.8904 69.0097 49.8156C69.0845 49.7408 69.1859 49.6987 69.2916 49.6986C69.3974 49.6986 69.4989 49.7407 69.5737 49.8155C69.6485 49.8903 69.6906 49.9917 69.6906 50.0975V50.8954Z" fill="#D7F4F7"/>
</svg>
