<svg width="128" height="118" viewBox="0 0 128 118" fill="none" xmlns="http://www.w3.org/2000/svg">
<g clip-path="url(#clip0_12_8364)">
<rect width="128" height="118" rx="8" fill="#C3DBEC"/>
<path d="M110.74 77.4011L112.526 82.7989L73.0672 95.8503C72.2721 96.1133 71.4505 96.0837 70.7193 95.8203C70.5824 95.771 70.449 95.7137 70.3191 95.6484C69.4959 95.2347 68.8304 94.5064 68.5182 93.5625C67.894 91.6752 68.9183 89.6383 70.8059 89.0139L108.826 76.4383C109.62 76.1755 110.477 76.6066 110.74 77.4011Z" fill="#88B7D8"/>
<path d="M112.286 82.0721L112.527 82.7992L73.0682 95.8506C72.2732 96.1136 71.4515 96.0839 70.7203 95.8206C70.5834 95.7712 70.45 95.7139 70.3201 95.6486C69.7949 95.3847 69.3339 94.9927 68.9883 94.498C69.0138 94.5169 69.0394 94.5355 69.0653 94.5539C70.171 95.3387 71.5913 95.5325 72.8786 95.1067L112.286 82.0721Z" fill="#C3DBEC"/>
<path d="M116.787 82.9851L127.188 114.429C127.451 115.223 127.02 116.08 126.225 116.343L84.4535 130.16C82.5471 130.79 80.49 129.756 79.8594 127.849L68.5186 93.5625C68.8308 94.5064 69.4963 95.2347 70.3194 95.6484C71.1424 96.0625 72.1235 96.1626 73.0675 95.8504L114.873 82.0226C115.668 81.7598 116.525 82.1907 116.787 82.9851Z" fill="#1170B2"/>
<path d="M74.1636 95.4879L77.1697 86.9094L81.5306 74.4637C81.6921 74.0027 82.1966 73.7602 82.6575 73.9215L90.0237 76.5028L81.6748 93.0034L74.1636 95.4879Z" fill="#7BC97B"/>
<path d="M88.7854 78.2582L80.1252 92.5454L79.3893 93.7596L76.3889 94.752L76.5574 94.2707L79.3948 86.1734L82.089 78.4847C83.2838 78.9033 84.5917 78.2743 85.0106 77.0794C85.0256 77.0361 85.0396 76.9931 85.0516 76.9498L88.0355 77.9954L88.7854 78.2582Z" fill="#B3E08C"/>
<path d="M90.0231 76.5025L82.8596 90.6601L80.1251 92.5448L88.7853 78.2576L88.0354 77.9949L89.2733 76.2398L90.0231 76.5025Z" fill="#70BA70"/>
<path d="M88.7858 78.2576L80.1257 92.5448L77.4175 94.4114L76.1667 94.8251L76.5579 94.2701L76.8446 93.8638L76.9085 93.7731L88.036 77.9949L88.7858 78.2576Z" fill="#A0C979"/>
<path d="M100.713 77.9772L77.8889 93.708L79.1623 91.9021L92.3699 73.175C92.6511 72.776 93.2031 72.6805 93.6018 72.9619L100.048 77.508L100.713 77.9772Z" fill="#7BC97B"/>
<path d="M98.9015 79.2264L82.3115 90.6605L83.5852 88.8546L91.8079 77.1953C92.8422 77.9251 94.2723 77.678 95.0022 76.643C95.0284 76.606 95.0536 76.5681 95.0772 76.5297L98.2361 78.7572L98.9015 79.2264Z" fill="#B3E08C"/>
<path d="M109.654 83.7485L105.398 77.5721L104.581 76.3865C104.304 75.9844 103.753 75.8831 103.351 76.1601L97.5221 80.1772L76.363 94.76L109.654 83.7485Z" fill="#7BC97B"/>
<path d="M100.714 77.9775L98.901 79.2266L98.2357 78.7574L100.048 77.5083L100.714 77.9775Z" fill="#70BA70"/>
<path d="M98.9015 79.2262L82.3115 90.6603L83.5852 88.8543L96.3733 80.041L98.2362 78.757L98.9015 79.2262Z" fill="#A0C979"/>
<path d="M107.611 84.4242L104.73 80.244C104.695 80.2717 104.658 80.2985 104.62 80.3244C103.578 81.043 102.15 80.7801 101.432 79.7378L82.655 92.6787L107.611 84.4242Z" fill="#B3E08C"/>
<path d="M84.9056 91.1279L82.6551 92.679L76.3626 94.7603L78.6128 93.2094L84.9056 91.1279Z" fill="#70BA70"/>
<path d="M109.654 83.7488L107.611 84.4245L107.158 83.7676L109.201 83.0919L109.654 83.7488Z" fill="#70BA70"/>
<path d="M107.611 84.4247L82.6555 92.6792L84.906 91.1282L107.159 83.7678L107.611 84.4247Z" fill="#A0C979"/>
<path d="M78.6131 93.2098L76.3629 94.7607L76.1663 94.8257L76.7085 93.8397L78.6131 93.2098Z" fill="#A0C979"/>
<path d="M83.5848 88.8545L82.3111 90.6605L77.8893 93.7081L79.1627 91.9022L83.5848 88.8545Z" fill="#70BA70"/>
<path d="M76.7087 93.8393L76.3891 94.7516L74.1633 95.4878L74.4829 94.5755L76.7087 93.8393Z" fill="#70BA70"/>
<path d="M75.3125 99.0966L73.6535 99.6453C73.3298 99.7524 72.9806 99.5768 72.8735 99.2531C72.7665 98.9294 72.9421 98.5802 73.2658 98.4731L74.9248 97.9244C75.2485 97.8173 75.5977 97.9929 75.7048 98.3166C75.8119 98.6403 75.6363 98.9895 75.3125 99.0966Z" fill="white"/>
<path d="M122.303 115.358L120.861 115.835C120.537 115.942 120.188 115.766 120.081 115.443C119.974 115.119 120.149 114.77 120.473 114.663L121.915 114.186C122.239 114.078 122.588 114.254 122.695 114.578C122.802 114.901 122.627 115.251 122.303 115.358ZM118.553 116.598L117.11 117.075C116.786 117.183 116.437 117.007 116.33 116.683C116.223 116.359 116.399 116.01 116.722 115.903L118.165 115.426C118.489 115.319 118.838 115.495 118.945 115.818C119.052 116.142 118.876 116.491 118.553 116.598ZM114.802 117.839L113.359 118.316C113.036 118.423 112.686 118.247 112.579 117.924C112.472 117.6 112.648 117.251 112.972 117.144L114.414 116.667C114.738 116.56 115.087 116.735 115.194 117.059C115.301 117.383 115.126 117.732 114.802 117.839ZM111.051 119.079L109.609 119.557C109.285 119.664 108.936 119.488 108.829 119.164C108.722 118.841 108.897 118.491 109.221 118.384L110.664 117.907C110.987 117.8 111.336 117.976 111.444 118.299C111.551 118.623 111.375 118.972 111.051 119.079ZM107.301 120.32L105.858 120.797C105.534 120.904 105.185 120.729 105.078 120.405C104.971 120.081 105.147 119.732 105.47 119.625L106.913 119.148C107.237 119.041 107.586 119.216 107.693 119.54C107.8 119.864 107.624 120.213 107.301 120.32ZM103.55 121.561L102.108 122.038C101.784 122.145 101.435 121.969 101.328 121.645C101.221 121.322 101.396 120.973 101.72 120.865L103.162 120.388C103.486 120.281 103.835 120.457 103.942 120.781C104.049 121.104 103.874 121.453 103.55 121.561ZM99.7995 122.801L98.357 123.278C98.0333 123.385 97.6841 123.21 97.577 122.886C97.4699 122.562 97.6455 122.213 97.9693 122.106L99.4118 121.629C99.7355 121.522 100.085 121.697 100.192 122.021C100.299 122.345 100.123 122.694 99.7995 122.801ZM96.0489 124.042L94.6064 124.519C94.2826 124.626 93.9335 124.45 93.8264 124.127C93.7193 123.803 93.8949 123.454 94.2186 123.347L95.6612 122.869C95.9849 122.762 96.3341 122.938 96.4411 123.262C96.5482 123.585 96.3726 123.935 96.0489 124.042ZM92.2983 125.282L90.8557 125.759C90.532 125.866 90.1828 125.691 90.0758 125.367C89.9687 125.043 90.1443 124.694 90.468 124.587L91.9106 124.11C92.2343 124.003 92.5835 124.179 92.6905 124.502C92.7976 124.826 92.622 125.175 92.2983 125.282ZM88.5477 126.523L87.1051 127C86.7814 127.107 86.4322 126.931 86.3252 126.608C86.2181 126.284 86.3937 125.935 86.7174 125.828L88.16 125.351C88.4837 125.244 88.8329 125.419 88.9399 125.743C89.047 126.067 88.8714 126.416 88.5477 126.523ZM124.258 114.123C124.143 114.161 124.017 114.165 123.892 114.129C123.565 114.034 123.377 113.692 123.472 113.364C123.509 113.235 123.506 113.098 123.464 112.97L123.229 112.261C123.122 111.937 123.298 111.588 123.622 111.481C123.945 111.374 124.294 111.549 124.401 111.873L124.636 112.582C124.757 112.949 124.765 113.338 124.657 113.708C124.598 113.911 124.444 114.061 124.258 114.123ZM123.246 110.345C122.922 110.452 122.573 110.276 122.466 109.953L121.989 108.51C121.882 108.186 122.057 107.837 122.381 107.73C122.705 107.623 123.054 107.799 123.161 108.122L123.638 109.565C123.745 109.889 123.57 110.238 123.246 110.345ZM122.005 106.594C121.682 106.701 121.332 106.526 121.225 106.202L120.748 104.759C120.641 104.436 120.817 104.087 121.14 103.979C121.464 103.872 121.813 104.048 121.92 104.372L122.398 105.814C122.505 106.138 122.329 106.487 122.005 106.594ZM120.765 102.844C120.441 102.951 120.092 102.775 119.985 102.451L119.508 101.009C119.401 100.685 119.576 100.336 119.9 100.229C120.224 100.122 120.573 100.297 120.68 100.621L121.157 102.064C121.264 102.387 121.088 102.737 120.765 102.844ZM119.524 99.093C119.2 99.2001 118.851 99.0245 118.744 98.7008L118.267 97.2583C118.16 96.9345 118.336 96.5854 118.659 96.4783C118.983 96.3712 119.332 96.5468 119.439 96.8705L119.916 98.3131C120.023 98.6368 119.848 98.986 119.524 99.093ZM118.284 95.3424C117.96 95.4495 117.611 95.2739 117.504 94.9502L117.026 93.5076C116.919 93.1839 117.095 92.8347 117.419 92.7277C117.742 92.6206 118.092 92.7962 118.199 93.1199L118.676 94.5625C118.783 94.8862 118.607 95.2353 118.284 95.3424ZM117.043 91.5918C116.719 91.6989 116.37 91.5233 116.263 91.1996L115.786 89.757C115.679 89.4333 115.854 89.0842 116.178 88.9771C116.502 88.87 116.851 89.0456 116.958 89.3693L117.435 90.8119C117.542 91.1355 117.367 91.4848 117.043 91.5918ZM115.802 87.8412C115.479 87.9483 115.13 87.7727 115.023 87.449L114.789 86.7427C114.746 86.6133 114.666 86.5018 114.559 86.4201C114.287 86.2145 114.233 85.8273 114.439 85.5554C114.644 85.2834 115.031 85.2297 115.303 85.4354C115.612 85.6687 115.839 85.9867 115.961 86.3549L116.195 87.0612C116.302 87.385 116.126 87.7341 115.802 87.8412ZM112.818 86.6906L111.376 87.1678C111.052 87.2748 110.703 87.0992 110.596 86.7755C110.489 86.4518 110.664 86.1026 110.988 85.9956L112.431 85.5184C112.754 85.4114 113.103 85.587 113.211 85.9107C113.318 86.2344 113.142 86.5836 112.818 86.6906ZM109.068 87.9312L107.625 88.4083C107.301 88.5154 106.952 88.3398 106.845 88.0161C106.738 87.6924 106.914 87.3432 107.237 87.2361L108.68 86.759C109.004 86.6519 109.353 86.8275 109.46 87.1512C109.567 87.4749 109.391 87.8241 109.068 87.9312ZM105.317 89.1717L103.875 89.6489C103.551 89.756 103.202 89.5804 103.095 89.2566C102.988 88.9329 103.163 88.5838 103.487 88.4767L104.929 87.9995C105.253 87.8925 105.602 88.0681 105.709 88.3918C105.816 88.7155 105.641 89.0647 105.317 89.1717ZM101.566 90.4123L100.124 90.8895C99.8002 90.9965 99.451 90.8209 99.344 90.4972C99.2369 90.1735 99.4125 89.8243 99.7362 89.7173L101.179 89.2401C101.502 89.133 101.852 89.3086 101.959 89.6324C102.066 89.9561 101.89 90.3052 101.566 90.4123ZM97.8159 91.6529L96.3733 92.13C96.0496 92.2371 95.7004 92.0615 95.5933 91.7378C95.4863 91.4141 95.6619 91.0649 95.9856 90.9578L97.4282 90.4807C97.7519 90.3736 98.1011 90.5492 98.2081 90.8729C98.3152 91.1966 98.1396 91.5458 97.8159 91.6529ZM94.0653 92.8934L92.6227 93.3706C92.299 93.4777 91.9498 93.3021 91.8428 92.9783C91.7357 92.6546 91.9113 92.3054 92.235 92.1984L93.6775 91.7212C94.0013 91.6142 94.3504 91.7898 94.4575 92.1135C94.5646 92.4372 94.389 92.7864 94.0653 92.8934ZM90.3147 94.134L88.8721 94.6112C88.5484 94.7182 88.1992 94.5426 88.0921 94.2189C87.9851 93.8952 88.1607 93.546 88.4844 93.4389L89.927 92.9618C90.2507 92.8547 90.5999 93.0303 90.7069 93.354C90.814 93.6777 90.6384 94.0269 90.3147 94.134ZM86.5641 95.3746L85.1215 95.8517C84.7978 95.9588 84.4486 95.7832 84.3416 95.4595C84.2345 95.1358 84.4101 94.7866 84.7338 94.6795L86.1763 94.2024C86.5 94.0953 86.8492 94.2709 86.9563 94.5946C87.0634 94.9183 86.8878 95.2675 86.5641 95.3746ZM82.8135 96.6151L81.3709 97.0923C81.0472 97.1993 80.698 97.0237 80.5909 96.7C80.4839 96.3763 80.6595 96.0271 80.9832 95.9201L82.4258 95.4429C82.7495 95.3358 83.0986 95.5115 83.2057 95.8352C83.3128 96.1589 83.1372 96.5081 82.8135 96.6151ZM79.0629 97.8557L77.6203 98.3328C77.2966 98.4399 76.9474 98.2643 76.8403 97.9406C76.7333 97.6169 76.9089 97.2677 77.2326 97.1606L78.6751 96.6835C78.9988 96.5764 79.348 96.752 79.4551 97.0757C79.5622 97.3994 79.3866 97.7486 79.0629 97.8557Z" fill="white"/>
<path d="M119.348 104.027L123.389 102.69C124.124 102.447 124.523 101.654 124.28 100.919L122.508 95.564C122.265 94.829 121.472 94.4302 120.737 94.6733L116.696 96.0101C114.482 96.7423 113.281 99.1306 114.013 101.344C114.746 103.558 117.134 104.759 119.348 104.027Z" fill="#4D94C5"/>
<path d="M118.54 101.391C119.309 101.137 119.725 100.308 119.471 99.5393C119.217 98.7709 118.388 98.354 117.62 98.6082C116.851 98.8623 116.435 99.6913 116.689 100.46C116.943 101.228 117.772 101.645 118.54 101.391Z" fill="#FFBF31"/>
</g>
<defs>
<clipPath id="clip0_12_8364">
<rect width="128" height="118" rx="8" fill="white"/>
</clipPath>
</defs>
</svg>
