<svg width="14" height="12" viewBox="0 0 14 12" fill="none" xmlns="http://www.w3.org/2000/svg">
<path d="M12.3846 1.56522H10.5188L9.60144 0.232174C9.55229 0.160795 9.48573 0.102263 9.40766 0.0617645C9.32958 0.0212662 9.2424 5.15249e-05 9.15385 0H4.84615C4.7576 5.15249e-05 4.67042 0.0212662 4.59234 0.0617645C4.51427 0.102263 4.44771 0.160795 4.39856 0.232174L3.48048 1.56522H1.61538C1.18696 1.56522 0.776079 1.73012 0.473135 2.02366C0.170192 2.31719 0 2.71531 0 3.13043V10.4348C0 10.8499 0.170192 11.248 0.473135 11.5416C0.776079 11.8351 1.18696 12 1.61538 12H12.3846C12.813 12 13.2239 11.8351 13.5269 11.5416C13.8298 11.248 14 10.8499 14 10.4348V3.13043C14 2.71531 13.8298 2.31719 13.5269 2.02366C13.2239 1.73012 12.813 1.56522 12.3846 1.56522ZM12.9231 10.4348C12.9231 10.5732 12.8663 10.7059 12.7654 10.8037C12.6644 10.9016 12.5274 10.9565 12.3846 10.9565H1.61538C1.47258 10.9565 1.33562 10.9016 1.23463 10.8037C1.13365 10.7059 1.07692 10.5732 1.07692 10.4348V3.13043C1.07692 2.99206 1.13365 2.85935 1.23463 2.76151C1.33562 2.66366 1.47258 2.6087 1.61538 2.6087H3.76923C3.8579 2.60875 3.94522 2.58759 4.02342 2.54709C4.10162 2.50658 4.16829 2.44799 4.2175 2.37652L5.13423 1.04348H8.8651L9.7825 2.37652C9.83171 2.44799 9.89838 2.50658 9.97658 2.54709C10.0548 2.58759 10.1421 2.60875 10.2308 2.6087H12.3846C12.5274 2.6087 12.6644 2.66366 12.7654 2.76151C12.8663 2.85935 12.9231 2.99206 12.9231 3.13043V10.4348ZM7 3.65217C6.41426 3.65217 5.84168 3.82047 5.35466 4.13578C4.86764 4.45109 4.48805 4.89926 4.2639 5.4236C4.03974 5.94795 3.9811 6.52492 4.09537 7.08156C4.20964 7.6382 4.4917 8.14951 4.90588 8.55083C5.32005 8.95214 5.84775 9.22544 6.42223 9.33617C6.99672 9.44689 7.59218 9.39006 8.13333 9.17287C8.67448 8.95568 9.13701 8.58788 9.46243 8.11598C9.78785 7.64409 9.96154 7.08929 9.96154 6.52174C9.96065 5.76095 9.64834 5.03156 9.09314 4.4936C8.53794 3.95564 7.78518 3.65304 7 3.65217ZM7 8.34783C6.62726 8.34783 6.26289 8.24073 5.95296 8.04007C5.64304 7.83942 5.40148 7.55423 5.25884 7.22055C5.1162 6.88688 5.07888 6.51971 5.1516 6.16549C5.22432 5.81126 5.40381 5.48588 5.66738 5.2305C5.93094 4.97512 6.26675 4.8012 6.63233 4.73074C6.99791 4.66028 7.37684 4.69644 7.72121 4.83465C8.06558 4.97287 8.35992 5.20692 8.567 5.50722C8.77409 5.80752 8.88462 6.16057 8.88462 6.52174C8.88462 7.00605 8.68606 7.47052 8.33263 7.81298C7.97919 8.15544 7.49983 8.34783 7 8.34783Z" fill="white"/>
</svg>
