<svg width="19" height="19" viewBox="0 0 19 19" fill="none" xmlns="http://www.w3.org/2000/svg">
<path d="M9.5 0C7.62108 0 5.78435 0.557165 4.22209 1.60104C2.65982 2.64491 1.44218 4.12861 0.723149 5.86451C0.0041162 7.6004 -0.184015 9.51054 0.182544 11.3534C0.549104 13.1962 1.45389 14.8889 2.78249 16.2175C4.11109 17.5461 5.80383 18.4509 7.64665 18.8175C9.48946 19.184 11.3996 18.9959 13.1355 18.2769C14.8714 17.5578 16.3551 16.3402 17.399 14.7779C18.4428 13.2156 19 11.3789 19 9.5C18.9971 6.98133 17.9953 4.56666 16.2143 2.78569C14.4333 1.00472 12.0187 0.00290113 9.5 0ZM17.5385 9.5C17.5391 10.2413 17.4367 10.9792 17.2343 11.6923H13.7165C13.9406 10.2394 13.9406 8.76064 13.7165 7.30769H17.2343C17.4367 8.02084 17.5391 8.75867 17.5385 9.5ZM7.125 13.1538H11.875C11.407 14.6872 10.5947 16.0932 9.5 17.2644C8.40575 16.0929 7.59343 14.687 7.125 13.1538ZM6.76875 11.6923C6.51786 10.2415 6.51786 8.75846 6.76875 7.30769H12.2386C12.4894 8.75846 12.4894 10.2415 12.2386 11.6923H6.76875ZM1.46154 9.5C1.46091 8.75867 1.56328 8.02084 1.76573 7.30769H5.28346C5.05936 8.76064 5.05936 10.2394 5.28346 11.6923H1.76573C1.56328 10.9792 1.46091 10.2413 1.46154 9.5ZM11.875 5.84615H7.125C7.59296 4.31282 8.40533 2.9068 9.5 1.73558C10.5943 2.90711 11.4066 4.31303 11.875 5.84615ZM16.6551 5.84615H13.4014C12.9913 4.3416 12.3001 2.92826 11.3644 1.68077C12.495 1.95237 13.5535 2.46523 14.4673 3.18419C15.3812 3.90316 16.1287 4.81123 16.6588 5.84615H16.6551ZM7.63563 1.68077C6.69988 2.92826 6.00871 4.3416 5.59861 5.84615H2.34121C2.87126 4.81123 3.61883 3.90316 4.53268 3.18419C5.44652 2.46523 6.50503 1.95237 7.63563 1.68077ZM2.34121 13.1538H5.59861C6.00871 14.6584 6.69988 16.0717 7.63563 17.3192C6.50503 17.0476 5.44652 16.5348 4.53268 15.8158C3.61883 15.0968 2.87126 14.1888 2.34121 13.1538ZM11.3644 17.3192C12.3001 16.0717 12.9913 14.6584 13.4014 13.1538H16.6588C16.1287 14.1888 15.3812 15.0968 14.4673 15.8158C13.5535 16.5348 12.495 17.0476 11.3644 17.3192Z" fill="white"/>
</svg>
