<svg width="453" height="228" viewBox="0 0 453 228" fill="none" xmlns="http://www.w3.org/2000/svg">
<g clip-path="url(#clip0_12_6469)">
<rect width="453" height="228" rx="16" fill="#1170B2"/>
<path d="M491.744 228.853C496.196 221.776 498.612 214.2 498.612 206.323C498.612 167.234 439.206 135.547 365.926 135.547C292.645 135.547 233.239 167.234 233.239 206.323C233.239 214.2 235.655 221.776 240.107 228.853H491.744Z" fill="#F9AAD9"/>
<path d="M353.555 161.357L355.888 162.204C355.888 162.204 355.888 162.205 355.889 162.205C355.919 162.216 355.955 162.225 355.993 162.233C356.005 162.235 356.02 162.237 356.033 162.239C356.061 162.244 356.092 162.248 356.124 162.251C356.14 162.253 356.158 162.255 356.176 162.256C356.209 162.258 356.244 162.26 356.281 162.261C356.3 162.262 356.318 162.263 356.338 162.263C356.384 162.263 356.432 162.262 356.483 162.261C356.496 162.261 356.507 162.261 356.52 162.26C356.585 162.258 356.653 162.254 356.724 162.248C356.745 162.247 356.767 162.245 356.788 162.243C356.841 162.238 356.895 162.233 356.952 162.227C356.98 162.224 357.01 162.22 357.04 162.217C357.093 162.211 357.148 162.204 357.205 162.197C357.236 162.193 357.266 162.189 357.298 162.185C357.361 162.176 357.426 162.166 357.493 162.156C357.52 162.152 357.545 162.148 357.573 162.144C357.666 162.129 357.763 162.113 357.863 162.095C357.885 162.091 357.909 162.087 357.932 162.083C358.011 162.069 358.091 162.054 358.174 162.038C358.212 162.031 358.252 162.023 358.291 162.015C358.362 162.001 358.434 161.987 358.507 161.972C358.549 161.963 358.592 161.954 358.636 161.945C358.712 161.929 358.789 161.913 358.868 161.896C358.909 161.887 358.948 161.878 358.99 161.87C359.101 161.845 359.214 161.82 359.33 161.793C360.199 161.593 361.193 161.334 362.274 161.027C362.276 161.026 362.277 161.026 362.28 161.025C362.75 160.891 363.237 160.748 363.738 160.596C363.792 160.579 363.847 160.563 363.902 160.546C364.432 160.384 364.977 160.213 365.534 160.033C365.534 160.033 365.534 160.033 365.535 160.033C365.986 159.887 366.443 159.736 366.906 159.58C366.912 159.578 366.917 159.576 366.923 159.574C367.255 159.462 367.59 159.347 367.928 159.23C367.931 159.229 367.933 159.228 367.936 159.227C368.436 159.053 368.938 158.875 369.444 158.692C369.503 158.671 369.56 158.65 369.618 158.628C369.946 158.508 370.27 158.39 370.586 158.271C370.692 158.231 370.796 158.191 370.901 158.152C370.91 158.148 370.919 158.145 370.928 158.142C371.251 158.02 371.567 157.898 371.877 157.777C371.989 157.733 372.101 157.689 372.212 157.645C372.53 157.52 372.839 157.396 373.14 157.274C373.142 157.273 373.144 157.272 373.146 157.271C373.254 157.227 373.362 157.183 373.468 157.139H373.468C374.979 156.516 376.258 155.935 377.229 155.435C377.026 156.001 377.114 156.636 377.621 157.344C377.621 157.344 379.145 158.362 382.473 157.347C382.474 157.347 382.475 157.347 382.475 157.347C382.544 157.326 382.614 157.303 382.685 157.28C382.73 157.265 382.774 157.251 382.82 157.236C382.88 157.216 382.941 157.195 383.002 157.174C383.062 157.153 383.122 157.131 383.183 157.109C383.237 157.089 383.291 157.069 383.346 157.049C383.421 157.02 383.498 156.99 383.575 156.959C383.619 156.941 383.663 156.925 383.708 156.906C383.832 156.856 383.958 156.803 384.086 156.747C384.24 156.68 384.391 156.616 384.541 156.555C384.588 156.535 384.634 156.517 384.681 156.498C384.784 156.456 384.888 156.415 384.991 156.375C385.041 156.356 385.091 156.337 385.142 156.318C385.241 156.28 385.34 156.243 385.438 156.208C385.484 156.191 385.53 156.174 385.576 156.157C385.684 156.119 385.79 156.082 385.896 156.046C385.929 156.035 385.963 156.023 385.995 156.012C386.431 155.865 386.853 155.737 387.261 155.623L387.262 155.623C387.402 155.584 387.539 155.546 387.675 155.51C390.279 154.82 392.374 154.608 394.563 153.308C397.67 151.464 404.893 150.96 411.429 147.176C411.434 147.176 411.438 147.176 411.443 147.176C411.657 147.172 416.182 147.114 422.214 146.956C429.234 146.809 433.503 146.702 436.969 146.538C419.469 140.609 399.19 136.806 377.407 135.81C376.656 135.947 375.933 136.18 375.236 136.483C373.731 136.593 372.133 136.826 371.042 137.299C368.38 138.454 367.223 141.118 363.31 143.257C360.055 145.037 357.677 148.182 358.718 150.337C358.404 151.74 358.074 153.179 356.957 154.683H356.957C356.875 154.794 356.789 154.905 356.698 155.015C356.689 155.026 356.68 155.037 356.671 155.048C356.588 155.148 356.502 155.249 356.412 155.35C356.377 155.389 356.339 155.429 356.303 155.468C356.232 155.545 356.162 155.621 356.086 155.698C355.971 155.816 355.851 155.934 355.724 156.052C355.72 156.056 355.717 156.059 355.713 156.062C355.655 156.117 355.605 156.169 355.558 156.221C355.54 156.241 355.522 156.261 355.506 156.28C355.479 156.313 355.455 156.345 355.432 156.377C355.402 156.419 355.376 156.459 355.354 156.498C355.354 156.498 355.353 156.498 355.353 156.498C354.718 157.614 356.908 158.096 359.12 158.031C355.09 159.698 352.735 161.06 353.555 161.357ZM378.121 148.331C377.904 148.334 377.688 148.336 377.474 148.338C380.782 148.003 383.506 147.556 384.039 147.252C385.209 146.587 382.723 145.531 378.373 145.771C378.801 145.546 379.169 145.327 379.456 145.12C379.456 145.12 379.456 145.12 379.457 145.12C379.505 145.085 379.552 145.05 379.596 145.016C379.65 144.974 379.701 144.933 379.747 144.893C379.747 144.893 384.77 143.297 388.139 144.532C388.234 144.567 388.321 144.601 388.405 144.635C388.43 144.645 388.454 144.655 388.478 144.665C388.538 144.69 388.595 144.715 388.65 144.74C388.671 144.75 388.694 144.76 388.714 144.769C388.784 144.802 388.85 144.835 388.91 144.867C388.918 144.871 388.923 144.874 388.93 144.878C388.983 144.907 389.033 144.935 389.079 144.964C389.096 144.974 389.112 144.985 389.129 144.996C389.164 145.018 389.197 145.041 389.227 145.063C389.241 145.074 389.256 145.084 389.27 145.094C389.309 145.125 389.346 145.155 389.379 145.186C389.387 145.193 389.393 145.2 389.4 145.207C389.425 145.231 389.447 145.255 389.467 145.278C389.478 145.291 389.487 145.303 389.497 145.315C389.512 145.334 389.526 145.354 389.539 145.374C389.546 145.386 389.554 145.398 389.561 145.409C389.577 145.438 389.591 145.467 389.603 145.495C389.607 145.507 389.61 145.519 389.614 145.53C389.62 145.549 389.626 145.568 389.63 145.588C389.634 145.602 389.636 145.616 389.638 145.631C389.641 145.648 389.643 145.665 389.644 145.682C389.645 145.696 389.646 145.71 389.646 145.725C389.652 146.458 388.487 147.254 389.491 148.602C389.491 148.602 386.176 150.726 386.347 151.528C386.347 151.528 381.649 152.173 378.961 153.711L378.279 153.463C379.539 152.868 379.28 151.687 376.926 151.013C380.376 150.848 383.22 150.551 383.896 150.273C385.505 149.613 383.17 148.274 378.121 148.331ZM365.988 153.175C367.861 153.446 369.88 153.635 371.724 153.742C369.688 154.281 367.227 155.039 364.65 155.937C365.471 155.147 365.944 154.217 365.988 153.175Z" fill="#DD8CC0"/>
<path d="M365.925 139.876C437.823 139.876 496.362 170.38 498.545 208.448C498.584 207.742 498.611 207.034 498.611 206.323C498.611 167.234 439.205 135.547 365.925 135.547C292.644 135.547 233.238 167.234 233.238 206.323C233.238 207.034 233.265 207.742 233.304 208.448C235.487 170.38 294.026 139.876 365.925 139.876Z" fill="#CC7FB5"/>
<path d="M388.244 172.394C388.088 172.394 387.93 172.383 387.771 172.36C380.706 171.349 373.356 170.836 365.925 170.836C358.494 170.836 351.144 171.349 344.079 172.36C342.331 172.612 340.704 171.446 340.444 169.76C340.185 168.074 341.392 166.504 343.14 166.254C350.514 165.198 358.18 164.663 365.924 164.663C373.669 164.663 381.335 165.198 388.71 166.254C390.458 166.504 391.664 168.074 391.405 169.76C391.169 171.292 389.803 172.394 388.244 172.394Z" fill="#962F72"/>
<path d="M344.078 172.36C351.143 171.35 358.493 170.837 365.924 170.837C373.356 170.837 380.705 171.349 387.77 172.36C387.929 172.383 388.087 172.394 388.244 172.394C389.394 172.394 390.437 171.794 391 170.865C390.528 170.085 389.707 169.511 388.709 169.368C381.334 168.312 373.668 167.777 365.924 167.777C358.18 167.777 350.514 168.312 343.139 169.368C342.141 169.511 341.321 170.085 340.848 170.864C341.489 171.921 342.748 172.552 344.078 172.36Z" fill="#6D1953"/>
<path d="M368.269 115.124L369.439 121.354C369.439 121.354 373.677 120.806 378.666 119.897C383.656 118.988 386.549 122.172 385.234 124.159C383.92 126.145 370.467 130.267 364.864 127.967C364.578 127.85 364.3 127.711 364.028 127.562L368.269 115.124Z" fill="#CE804A"/>
<path d="M368.245 115.191L368.545 127.369C368.545 127.369 373.209 127.469 378.745 127.302C384.282 127.136 386.842 131.039 385.078 132.966C383.313 134.892 368.094 137.142 362.458 133.751C362.307 133.66 362.161 133.563 362.017 133.464L368.245 115.191Z" fill="#CE804A"/>
<path d="M380.123 92.5849C380.123 92.5849 373.9 91.7814 370.981 95.1465C368.062 98.5116 366.793 106.276 362.502 112.512C358.21 118.747 355.304 130.74 358.639 136.547C361.976 142.353 376.002 144.524 378.36 142.803C380.719 141.082 380.241 135.646 375.426 134.085C370.61 132.523 366.659 130.924 366.659 130.924L380.123 92.5849Z" fill="#E09155"/>
<path d="M377.291 140.694L379.85 143.164C381.022 144.296 376.267 150.714 369.229 157.501C362.191 164.287 355.535 168.871 354.362 167.74L351.804 165.27L377.291 140.694Z" fill="#F9B233"/>
<path d="M374.562 143.325L377.291 140.694L379.849 143.164C380.345 143.642 379.779 145.066 378.433 147.061L374.562 143.325Z" fill="#F39200"/>
<path d="M354.335 162.829L358.164 166.525C356.22 167.716 354.839 168.199 354.362 167.74L351.804 165.27L354.335 162.829Z" fill="#F39200"/>
<path d="M376.37 141.582L379.721 144.817C379.653 144.977 379.573 145.145 379.482 145.324L375.987 141.951L376.37 141.582Z" fill="#FFDF6C"/>
<path d="M374.915 142.984L378.707 146.645C378.613 146.791 378.514 146.941 378.409 147.095L374.532 143.354L374.915 142.984Z" fill="#FFDF6C"/>
<path d="M373.462 144.386L377.537 148.319C377.432 148.46 377.325 148.602 377.215 148.746L373.079 144.755L373.462 144.386Z" fill="#FFDF6C"/>
<path d="M372.008 145.787L376.287 149.917C376.176 150.054 376.065 150.191 375.949 150.329L371.625 146.156L372.008 145.787Z" fill="#FFDF6C"/>
<path d="M370.555 147.189L374.986 151.466C374.871 151.599 374.754 151.732 374.636 151.867L370.172 147.558L370.555 147.189Z" fill="#FFDF6C"/>
<path d="M369.1 148.592L373.642 152.975C373.523 153.105 373.404 153.236 373.283 153.367L368.718 148.961L369.1 148.592Z" fill="#FFDF6C"/>
<path d="M367.646 149.993L372.265 154.45C372.143 154.577 372.02 154.705 371.897 154.833L367.264 150.362L367.646 149.993Z" fill="#FFDF6C"/>
<path d="M366.192 151.395L370.856 155.896C370.731 156.021 370.607 156.146 370.481 156.272L365.81 151.764L366.192 151.395Z" fill="#FFDF6C"/>
<path d="M364.738 152.797L369.42 157.315C369.356 157.377 369.293 157.438 369.229 157.5C369.165 157.562 369.101 157.623 369.037 157.684L364.355 153.166L364.738 152.797Z" fill="#FFDF6C"/>
<path d="M363.285 154.199L367.956 158.708C367.826 158.83 367.696 158.949 367.566 159.069L362.902 154.568L363.285 154.199Z" fill="#FFDF6C"/>
<path d="M361.83 155.601L366.463 160.072C366.33 160.191 366.198 160.31 366.066 160.427L361.447 155.969L361.83 155.601Z" fill="#FFDF6C"/>
<path d="M360.377 157.003L364.942 161.409C364.806 161.525 364.67 161.641 364.536 161.755L359.994 157.372L360.377 157.003Z" fill="#FFDF6C"/>
<path d="M358.923 158.404L363.387 162.713C363.247 162.827 363.109 162.939 362.972 163.05L358.54 158.773L358.923 158.404Z" fill="#FFDF6C"/>
<path d="M357.469 159.807L361.794 163.98C361.65 164.091 361.508 164.199 361.366 164.306L357.087 160.176L357.469 159.807Z" fill="#FFDF6C"/>
<path d="M356.015 161.208L360.151 165.199C360.001 165.306 359.854 165.409 359.708 165.51L355.633 161.577L356.015 161.208Z" fill="#FFDF6C"/>
<path d="M354.561 162.61L358.438 166.352C358.279 166.453 358.123 166.548 357.971 166.64L354.179 162.98L354.561 162.61Z" fill="#FFDF6C"/>
<path d="M353.107 164.012L356.602 167.385C356.417 167.472 356.242 167.549 356.076 167.615L352.725 164.381L353.107 164.012Z" fill="#FFDF6C"/>
<path d="M351.804 165.27C352.976 166.401 359.632 161.817 366.67 155.031C373.709 148.245 378.463 141.826 377.291 140.694C376.119 139.562 369.462 144.146 362.424 150.933C355.386 157.719 350.631 164.138 351.804 165.27Z" fill="#FFDF6C"/>
<path d="M354.762 162.417C355.663 163.286 360.774 159.766 366.178 154.555C371.582 149.344 375.234 144.416 374.333 143.547C373.433 142.678 368.322 146.198 362.918 151.409C357.513 156.62 353.862 161.548 354.762 162.417Z" fill="#F9B233"/>
<path d="M374.412 144.312C372.578 144.751 368.287 147.914 363.789 152.251C359.292 156.587 356.011 160.726 355.555 162.494C355.185 162.583 354.913 162.563 354.762 162.417C353.862 161.549 357.513 156.62 362.918 151.409C368.322 146.198 373.433 142.678 374.333 143.547C374.484 143.692 374.504 143.955 374.412 144.312Z" fill="#F39200"/>
<path d="M371.584 147.226L369.814 148.787C369.935 148.946 370.02 149.139 370.07 149.367C370.12 149.595 370.124 149.83 370.084 150.071L368.943 151.23C369.013 150.91 369.026 150.621 368.981 150.364C368.936 150.107 368.848 149.909 368.718 149.77L365.087 152.983C365.073 153.269 365.016 153.562 364.914 153.862C364.813 154.163 364.643 154.487 364.405 154.836C364.167 155.185 363.835 155.576 363.407 156.01C362.83 156.596 362.303 157.042 361.826 157.349C361.349 157.656 360.925 157.846 360.553 157.919C360.182 157.992 359.874 157.964 359.628 157.835L358.233 159.063L357.922 158.778L359.317 157.536C359.217 157.387 359.155 157.21 359.129 157.003C359.103 156.797 359.118 156.566 359.175 156.311L360.329 155.439C360.281 155.654 360.258 155.863 360.261 156.067C360.263 156.271 360.313 156.437 360.411 156.564L363.959 153.42C363.979 153.102 364.036 152.793 364.132 152.492C364.228 152.191 364.387 151.876 364.609 151.546C364.832 151.217 365.144 150.847 365.546 150.438C366.133 149.842 366.676 149.384 367.175 149.064C367.673 148.743 368.118 148.542 368.507 148.462C368.897 148.382 369.224 148.401 369.489 148.519L371.275 146.943L371.584 147.226ZM363.921 154.018L360.728 156.854C360.876 156.923 361.062 156.93 361.285 156.875C361.508 156.819 361.762 156.695 362.048 156.5C362.333 156.306 362.647 156.034 362.99 155.686C363.184 155.489 363.349 155.294 363.484 155.101C363.62 154.908 363.723 154.722 363.795 154.543C363.867 154.364 363.908 154.189 363.921 154.018ZM368.366 149.521C368.214 149.458 368.022 149.457 367.789 149.518C367.556 149.578 367.291 149.705 366.995 149.899C366.699 150.094 366.384 150.36 366.051 150.698C365.853 150.9 365.688 151.093 365.558 151.277C365.429 151.461 365.329 151.643 365.259 151.824C365.189 152.005 365.145 152.192 365.126 152.386L368.366 149.521Z" fill="#F39200"/>
<path d="M371.25 146.918L369.48 148.479C369.6 148.637 369.685 148.831 369.735 149.058C369.785 149.286 369.789 149.521 369.749 149.762L368.608 150.921C368.679 150.601 368.691 150.313 368.646 150.055C368.601 149.798 368.513 149.6 368.383 149.462L364.752 152.674C364.739 152.96 364.681 153.253 364.58 153.553C364.478 153.854 364.308 154.179 364.07 154.527C363.832 154.876 363.5 155.267 363.072 155.701C362.496 156.287 361.969 156.733 361.491 157.04C361.014 157.347 360.59 157.537 360.219 157.61C359.847 157.683 359.539 157.655 359.294 157.526L357.898 158.754L357.587 158.469L358.982 157.227C358.882 157.078 358.82 156.9 358.794 156.694C358.768 156.488 358.783 156.257 358.84 156.002L359.995 155.13C359.946 155.344 359.923 155.554 359.926 155.758C359.929 155.962 359.979 156.128 360.076 156.256L363.625 153.111C363.645 152.794 363.702 152.484 363.798 152.183C363.894 151.882 364.053 151.567 364.275 151.237C364.498 150.908 364.81 150.539 365.212 150.13C365.799 149.534 366.342 149.076 366.84 148.755C367.339 148.434 367.783 148.233 368.172 148.153C368.562 148.073 368.889 148.092 369.155 148.211L370.941 146.635L371.25 146.918ZM363.586 153.709L360.393 156.545C360.542 156.615 360.728 156.622 360.951 156.566C361.174 156.511 361.428 156.386 361.713 156.192C361.999 155.997 362.313 155.726 362.656 155.377C362.85 155.18 363.015 154.986 363.15 154.793C363.285 154.6 363.389 154.414 363.461 154.235C363.532 154.056 363.574 153.88 363.586 153.709ZM368.032 149.212C367.88 149.15 367.688 149.149 367.455 149.209C367.222 149.269 366.957 149.397 366.661 149.591C366.365 149.785 366.05 150.051 365.717 150.39C365.518 150.592 365.354 150.784 365.224 150.968C365.095 151.152 364.994 151.334 364.925 151.515C364.855 151.695 364.81 151.883 364.792 152.077L368.032 149.212Z" fill="#FFDF6C"/>
<path d="M356.958 156.634C356.958 156.634 355.837 160.427 357.347 160.427C358.857 160.427 364.306 155.305 365.288 148.271C365.288 148.271 357.498 155.741 356.958 156.634Z" fill="#FCD69F"/>
<path d="M366.511 111.267C369.873 103.714 374.036 90.6949 379.454 90.3977C384.871 90.1005 404.362 91.2083 416.971 91.8064C427.562 92.309 454.617 86.3709 464.915 84L455.256 119.568C445.888 117.281 441.889 116.521 415.272 123.935C408.104 134.963 400.184 136.431 396.775 141.808C393.368 147.184 390.17 146.169 385.286 151.832C380.402 157.494 378.196 153.571 378.196 153.571C374.894 141.313 387.764 136.622 387.764 136.622C387.577 134.284 391.212 128.095 391.212 128.095C389.526 122.069 393.425 119.829 389.73 116.229C386.035 112.629 380.526 117.282 380.526 117.282C378.497 122.078 369.342 129.876 369.342 129.876C368.889 134.67 365.445 140.73 365.445 140.73C365.489 146.377 363.93 150.95 361.331 153.954C358.732 156.958 351.686 155.967 354.171 149.834C356.655 143.701 357.057 137.969 357.527 132.421C357.998 126.872 363.148 118.82 366.511 111.267Z" fill="#F0AE74"/>
<path d="M355.539 145.809C355.539 145.809 357.436 146.477 358.911 146.61C359.388 146.653 359.716 147.087 359.609 147.539C359.164 149.411 357.897 153.348 355.313 152.08C354.64 151.75 354.146 151.422 353.776 151.106C353.861 150.709 353.987 150.287 354.171 149.834C354.722 148.475 355.165 147.136 355.535 145.814L355.539 145.809Z" fill="#F7BC94"/>
<path d="M389.222 148.224L389.223 148.225C388.025 149.07 386.73 150.158 385.286 151.831C384.272 153.008 383.374 153.766 382.586 154.236C379.371 150.936 383.013 147.004 385.067 145.222C385.619 144.743 386.476 144.861 386.87 145.469C387.755 146.834 389.222 148.224 389.222 148.224Z" fill="#F7BC94"/>
<path d="M410.601 129.849C410.412 130.045 410.224 130.235 410.036 130.422C410.196 130.231 410.382 130.04 410.601 129.849Z" fill="#E09155"/>
<path d="M415.282 123.934C416.343 121.841 416.961 119.926 418.742 117.919C422.042 114.201 457.436 113.172 457.436 113.172L455.256 119.568C443.008 116.521 415.73 123.91 415.282 123.934Z" fill="#E09155"/>
<path d="M393.04 114.161C392.298 115.144 391.721 117.903 391.379 119.947C391.427 118.719 391.104 117.568 389.73 116.229C386.035 112.629 380.526 117.282 380.526 117.282C383.22 112.224 394.275 112.525 393.04 114.161Z" fill="#E09155"/>
<path d="M380.526 117.281C380.436 117.496 380.326 117.719 380.208 117.944C380.303 117.728 380.406 117.508 380.526 117.281Z" fill="#E09155"/>
</g>
<defs>
<clipPath id="clip0_12_6469">
<rect width="453" height="228" rx="16" fill="white"/>
</clipPath>
</defs>
</svg>
