<svg width="414" height="228" viewBox="0 0 414 228" fill="none" xmlns="http://www.w3.org/2000/svg">
<g clip-path="url(#clip0_12_6559)">
<rect width="414" height="228" rx="16" fill="#E88026"/>
<path d="M308.283 261.067C351.257 253.841 384.635 239.758 382.834 229.61C381.034 219.462 344.736 217.093 301.762 224.319C258.788 231.544 225.41 245.628 227.21 255.775C229.011 265.923 265.308 268.292 308.283 261.067Z" fill="#A3A29D"/>
<path d="M382.966 130.854H291.962V228.846H382.966V130.854Z" fill="#447762"/>
<path d="M337.465 247.001C362.596 247.001 382.968 238.824 382.968 228.737C382.968 218.65 362.596 210.473 337.465 210.473C312.335 210.473 291.963 218.65 291.963 228.737C291.963 238.824 312.335 247.001 337.465 247.001Z" fill="#03272C"/>
<path d="M337.463 149.009C362.594 149.009 382.966 140.832 382.966 130.745C382.966 120.658 362.594 112.48 337.463 112.48C312.333 112.48 291.961 120.658 291.961 130.745C291.961 140.832 312.333 149.009 337.463 149.009Z" fill="#03272C"/>
<path d="M417.816 15L385.513 70.7775C385.513 70.7775 384.817 73.6819 380.827 71.2011C376.838 68.7203 353.796 47.5647 350.068 50.7431C345.573 54.5756 368.519 66.3941 364.814 68.3526C361.109 70.311 332.683 54.7189 331.209 59.5851C329.663 64.6891 353.622 71.0611 350.684 72.3191C348.08 73.434 341.483 73.3832 339.23 74.5341C336.976 75.6849 320.985 83.8584 322.468 87.4361C324.57 92.5077 342.392 75.2906 348.711 80.2267C348.802 80.2979 349.792 82.091 348.392 83.4353C347.996 83.8152 347.516 84.4615 344.318 86.2728C337.217 90.2949 332.516 99.5169 336.379 113.781C336.379 113.781 337.858 117.266 340.013 113.993C343.061 109.363 337.162 95.0376 351.174 90.3884C365.186 85.7392 371.478 105.06 360.84 111.569C350.202 118.078 347.652 115.028 347.824 119.376C348.033 124.666 361.531 119.185 366.272 114.968C371.013 110.751 389.572 86.3763 399.191 77.9298C406.728 71.3114 446.412 31.795 463.237 15H417.816Z" fill="#F0AE74"/>
<path d="M354.027 128.281H323.295V130.86H354.027V128.281Z" fill="white"/>
<path d="M348.105 212.104C353.321 207.026 353.321 198.794 348.105 193.716C342.889 188.639 334.432 188.639 329.215 193.716C323.999 198.794 323.999 207.026 329.215 212.104C334.432 217.182 342.889 217.182 348.105 212.104Z" fill="#FEEB4A"/>
<path d="M346.695 210.691C351.121 206.382 351.121 199.397 346.695 195.089C342.269 190.78 335.093 190.78 330.667 195.089C326.241 199.397 326.241 206.382 330.667 210.691C335.093 214.999 342.269 214.999 346.695 210.691Z" fill="#EC9E26"/>
<path d="M349.941 203.508C350.086 197.757 345.417 192.982 339.514 192.841C333.61 192.7 328.707 197.247 328.562 202.998C328.417 208.748 333.086 213.523 338.989 213.664C344.893 213.805 349.796 209.258 349.941 203.508Z" fill="#FECA30"/>
<path d="M338.563 210.464L338.045 210.165C339.254 208.182 338.471 203.217 338.463 203.167L339.058 203.076C339.092 203.289 339.882 208.3 338.563 210.464Z" fill="#0E513C"/>
<path d="M339.005 203.589C339.005 203.589 337.962 198.364 333.39 198.92C333.39 198.92 333.589 202.977 339.005 203.589Z" fill="#657A44"/>
<path d="M344.222 196.229C344.222 196.229 336.945 198.313 338.655 203.629C338.655 203.629 344.428 202.734 344.222 196.229Z" fill="#657A44"/>
<path d="M311.16 232.931C316.539 232.899 320.891 231.298 320.878 229.355C320.866 227.412 316.495 225.862 311.116 225.894C305.736 225.926 301.385 227.527 301.397 229.471C301.409 231.414 305.78 232.963 311.16 232.931Z" fill="#FEEB4A"/>
<path d="M311.139 232.394C315.703 232.367 319.395 231.009 319.385 229.36C319.374 227.711 315.666 226.396 311.101 226.424C306.537 226.451 302.845 227.809 302.856 229.458C302.866 231.107 306.575 232.421 311.139 232.394Z" fill="#EC9E26"/>
<path d="M310.788 232.338C315.095 232.313 318.578 231.03 318.568 229.474C318.558 227.917 315.059 226.676 310.753 226.702C306.446 226.727 302.963 228.01 302.973 229.566C302.982 231.123 306.482 232.364 310.788 232.338Z" fill="#FECA30"/>
<path d="M306.378 227.863C306.378 227.863 311.86 228.102 311.232 229.595C311.232 229.595 306.969 229.609 306.378 227.863Z" fill="#657A44"/>
<path d="M348.042 220.951L348.197 223.052C348.202 223.122 348.221 223.191 348.255 223.252C348.565 223.807 350.486 226.347 359.609 226.094C360.191 226.078 361.137 225.991 361.713 225.906C362.947 225.724 364.631 225.493 367.079 223.693C367.21 223.598 367.286 223.446 367.286 223.287L367.486 220.73C367.486 220.446 367.248 220.216 366.956 220.219L348.561 220.404C348.258 220.407 348.021 220.657 348.042 220.951Z" fill="#FECA30"/>
<path d="M357.76 223.938C363.14 223.906 367.491 222.305 367.479 220.362C367.467 218.419 363.096 216.869 357.716 216.901C352.337 216.933 347.985 218.534 347.998 220.477C348.01 222.421 352.381 223.97 357.76 223.938Z" fill="#FEEB4A"/>
<path d="M357.739 223.401C362.303 223.374 365.995 222.015 365.984 220.367C365.974 218.718 362.266 217.403 357.701 217.43C353.137 217.458 349.445 218.816 349.455 220.465C349.466 222.114 353.174 223.428 357.739 223.401Z" fill="#EC9E26"/>
<path d="M357.388 223.341C361.694 223.316 365.177 222.033 365.168 220.477C365.158 218.92 361.659 217.679 357.352 217.705C353.046 217.73 349.563 219.013 349.572 220.569C349.582 222.126 353.081 223.367 357.388 223.341Z" fill="#FECA30"/>
<path d="M358.721 222.637C357.395 222.061 357.395 220.532 357.396 220.467L357.998 220.472C357.998 220.521 358.005 221.684 358.966 222.102L358.721 222.637Z" fill="#0E513C"/>
<path d="M357.574 220.605C357.574 220.605 357.733 219.165 361.091 219.113C361.091 219.113 361.409 220.205 357.574 220.605Z" fill="#657A44"/>
<path d="M352.978 218.868C352.978 218.868 358.459 219.107 357.831 220.6C357.831 220.6 353.569 220.613 352.978 218.868Z" fill="#657A44"/>
<path d="M299.033 225.84L299.187 227.94C299.192 228.01 299.211 228.079 299.245 228.141C299.555 228.696 301.477 231.235 310.6 230.982C311.182 230.966 312.128 230.879 312.704 230.794C313.938 230.612 315.621 230.381 318.069 228.582C318.2 228.486 318.276 228.334 318.276 228.175L318.476 225.619C318.476 225.334 318.238 225.105 317.946 225.107L299.551 225.292C299.248 225.295 299.011 225.546 299.033 225.84Z" fill="#FECA30"/>
<path d="M308.75 228.825C314.129 228.793 318.48 227.192 318.468 225.249C318.456 223.305 314.085 221.756 308.705 221.788C303.326 221.82 298.975 223.421 298.987 225.364C298.999 227.307 303.37 228.857 308.75 228.825Z" fill="#FEEB4A"/>
<path d="M308.729 228.288C313.293 228.261 316.985 226.902 316.975 225.253C316.964 223.605 313.256 222.29 308.691 222.317C304.127 222.344 300.435 223.703 300.445 225.352C300.456 227 304.164 228.315 308.729 228.288Z" fill="#EC9E26"/>
<path d="M308.378 228.232C312.684 228.206 316.168 226.924 316.158 225.367C316.148 223.811 312.649 222.57 308.343 222.595C304.036 222.621 300.553 223.903 300.563 225.46C300.572 227.016 304.071 228.257 308.378 228.232Z" fill="#FECA30"/>
<path d="M309.712 227.527C308.386 226.951 308.386 225.421 308.387 225.356L308.989 225.361C308.989 225.411 308.996 226.573 309.957 226.991L309.712 227.527Z" fill="#0E513C"/>
<path d="M308.564 225.494C308.564 225.494 308.723 224.054 312.081 224.003C312.081 224.003 312.399 225.094 308.564 225.494Z" fill="#657A44"/>
<path d="M303.968 223.758C303.968 223.758 309.45 223.996 308.822 225.49C308.822 225.49 304.559 225.503 303.968 223.758Z" fill="#657A44"/>
<path d="M322.454 220.17L322.3 222.271C322.295 222.341 322.276 222.41 322.241 222.471C321.931 223.026 320.01 225.566 310.887 225.313C310.305 225.297 309.359 225.21 308.783 225.125C307.549 224.943 305.865 224.712 303.417 222.913C303.287 222.817 303.211 222.666 303.211 222.506L303.01 219.95C303.01 219.665 303.248 219.436 303.54 219.439L321.935 219.623C322.238 219.626 322.476 219.876 322.454 220.17Z" fill="#FECA30"/>
<path d="M322.495 219.685C322.507 217.742 318.155 216.14 312.776 216.107C307.396 216.075 303.026 217.623 303.014 219.566C303.002 221.51 307.353 223.112 312.733 223.144C318.112 223.177 322.483 221.629 322.495 219.685Z" fill="#FEEB4A"/>
<path d="M320.939 220.118C320.247 221.744 316.028 222.841 311.516 222.567C307.005 222.294 303.908 220.754 304.601 219.128C305.293 217.502 309.511 216.405 314.023 216.678C318.535 216.952 321.631 218.492 320.939 220.118Z" fill="#EC9E26"/>
<path d="M320.937 219.784C320.947 218.228 317.463 216.946 313.157 216.921C308.85 216.896 305.351 218.137 305.342 219.693C305.332 221.25 308.815 222.532 313.122 222.557C317.428 222.582 320.927 221.341 320.937 219.784Z" fill="#FECA30"/>
<path d="M311.776 221.857L311.53 221.321C312.499 220.9 312.499 219.704 312.498 219.692L313.101 219.687C313.101 219.751 313.101 221.281 311.776 221.857Z" fill="#0E513C"/>
<path d="M312.923 219.824C312.923 219.824 312.764 218.384 309.406 218.333C309.406 218.333 309.088 219.424 312.923 219.824Z" fill="#657A44"/>
<path d="M317.519 218.088C317.519 218.088 312.037 218.326 312.665 219.82C312.665 219.82 316.928 219.833 317.519 218.088Z" fill="#657A44"/>
<path d="M373.881 225.429L373.467 227.76C373.454 227.838 373.425 227.913 373.381 227.978C372.985 228.565 370.635 231.198 360.935 229.938C360.316 229.858 359.318 229.659 358.714 229.503C357.419 229.167 355.651 228.729 353.253 226.455C353.125 226.334 353.063 226.156 353.081 225.978L353.17 223.099C353.204 222.781 353.485 222.55 353.796 222.584L373.393 224.761C373.715 224.797 373.938 225.102 373.881 225.429Z" fill="#FECA30"/>
<path d="M373.969 224.894C374.214 222.723 369.765 220.467 364.032 219.854C358.299 219.242 353.453 220.505 353.208 222.675C352.963 224.846 357.412 227.102 363.145 227.715C368.879 228.327 373.725 227.064 373.969 224.894Z" fill="#FEEB4A"/>
<path d="M372.416 224.722C372.623 222.881 368.848 220.966 363.984 220.447C359.119 219.927 355.007 220.998 354.8 222.84C354.592 224.682 358.367 226.596 363.232 227.116C368.096 227.636 372.208 226.564 372.416 224.722Z" fill="#EC9E26"/>
<path d="M372.293 224.844C372.489 223.105 368.927 221.299 364.338 220.809C359.748 220.319 355.869 221.331 355.673 223.07C355.477 224.808 359.039 226.615 363.629 227.105C368.218 227.595 372.098 226.582 372.293 224.844Z" fill="#FECA30"/>
<path d="M362.292 226.134L362.095 225.58C363.196 225.207 363.34 223.843 363.342 223.829L363.941 223.884C363.935 223.955 363.756 225.639 362.292 226.134Z" fill="#0E513C"/>
<path d="M363.757 224.021C363.757 224.021 363.758 222.395 360.183 221.978C360.183 221.978 359.714 223.164 363.757 224.021Z" fill="#657A44"/>
<path d="M368.864 222.572C368.864 222.572 362.99 222.252 363.482 223.988C363.482 223.988 368.027 224.46 368.864 222.572Z" fill="#657A44"/>
<path d="M342.985 161.482L341.35 164.233C341.296 164.325 341.255 164.424 341.235 164.522C341.054 165.407 340.692 169.757 349.399 174.816C349.954 175.139 350.909 175.587 351.517 175.819C352.82 176.315 354.582 177.016 358.385 176.181C358.587 176.136 358.786 175.989 358.921 175.787L361.273 172.668C361.514 172.308 361.486 171.876 361.212 171.708L343.931 161.095C343.647 160.92 343.213 161.098 342.985 161.482Z" fill="#FECA30"/>
<path d="M361.602 172.176C363.223 169.699 360.451 165.158 355.412 162.033C350.373 158.908 344.974 158.383 343.353 160.859C341.733 163.335 344.504 167.876 349.543 171.001C354.582 174.126 359.981 174.652 361.602 172.176Z" fill="#FEEB4A"/>
<path d="M360.207 171.302C361.582 169.201 359.231 165.348 354.955 162.696C350.679 160.045 346.098 159.599 344.723 161.7C343.348 163.801 345.7 167.653 349.975 170.305C354.251 172.957 358.832 173.403 360.207 171.302Z" fill="#EC9E26"/>
<path d="M359.316 170.97C360.614 168.987 358.397 165.351 354.364 162.849C350.33 160.346 346.008 159.926 344.709 161.909C343.411 163.892 345.628 167.528 349.662 170.031C353.695 172.533 358.018 172.953 359.316 170.97Z" fill="#FECA30"/>
<path d="M351.567 169.775C350.848 168.319 352.076 166.482 352.128 166.404L352.631 166.727C352.62 166.744 351.54 168.366 352.11 169.521L351.567 169.775Z" fill="#0E513C"/>
<path d="M352.151 166.665C352.151 166.665 353.518 164.935 356.688 166.85C356.688 166.85 356.059 168.42 352.151 166.665Z" fill="#657A44"/>
<path d="M349.342 161.755C349.342 161.755 354.243 165.289 352.395 166.811C352.395 166.811 348.415 164.314 349.342 161.755Z" fill="#657A44"/>
<path d="M333.338 133.108H332.334V143.96H333.338V133.108Z" fill="#FEEB4A"/>
<path d="M346.595 136.041H345.591V146.893H346.595V136.041Z" fill="#FEEB4A"/>
<path d="M346.578 132.717H345.574V134.77H346.578V132.717Z" fill="#FEEB4A"/>
<path d="M336.954 139.268H335.95V160.482H336.954V139.268Z" fill="#FEEB4A"/>
</g>
<defs>
<clipPath id="clip0_12_6559">
<rect width="414" height="228" rx="16" fill="white"/>
</clipPath>
</defs>
</svg>
