<svg width="19" height="15" viewBox="0 0 19 15" fill="none" xmlns="http://www.w3.org/2000/svg">
<path d="M13.7857 5.39062C13.3889 5.39062 13.0516 5.25391 12.7738 4.98047C12.496 4.70703 12.3571 4.375 12.3571 3.98438C12.3571 3.59375 12.496 3.26172 12.7738 2.98828C13.0516 2.71484 13.3889 2.57812 13.7857 2.57812C14.1825 2.57812 14.5198 2.71484 14.7976 2.98828C15.0754 3.26172 15.2143 3.59375 15.2143 3.98438C15.2143 4.375 15.0754 4.70703 14.7976 4.98047C14.5198 5.25391 14.1825 5.39062 13.7857 5.39062ZM5.21429 5.39062C4.81746 5.39062 4.48016 5.25391 4.20238 4.98047C3.9246 4.70703 3.78571 4.375 3.78571 3.98438C3.78571 3.59375 3.9246 3.26172 4.20238 2.98828C4.48016 2.71484 4.81746 2.57812 5.21429 2.57812C5.61111 2.57812 5.94841 2.71484 6.22619 2.98828C6.50397 3.26172 6.64286 3.59375 6.64286 3.98438C6.64286 4.375 6.50397 4.70703 6.22619 4.98047C5.94841 5.25391 5.61111 5.39062 5.21429 5.39062ZM9.5 7.96875C9.10318 7.96875 8.76587 7.83203 8.4881 7.55859C8.21032 7.28516 8.07143 6.95312 8.07143 6.5625C8.07143 6.17188 8.21032 5.83984 8.4881 5.56641C8.76587 5.29297 9.10318 5.15625 9.5 5.15625C9.89683 5.15625 10.2341 5.29297 10.5119 5.56641C10.7897 5.83984 10.9286 6.17188 10.9286 6.5625C10.9286 6.95312 10.7897 7.28516 10.5119 7.55859C10.2341 7.83203 9.89683 7.96875 9.5 7.96875ZM9.5 2.8125C9.10318 2.8125 8.76587 2.67578 8.4881 2.40234C8.21032 2.12891 8.07143 1.79688 8.07143 1.40625C8.07143 1.01562 8.21032 0.683594 8.4881 0.410156C8.76587 0.136719 9.10318 0 9.5 0C9.89683 0 10.2341 0.136719 10.5119 0.410156C10.7897 0.683594 10.9286 1.01562 10.9286 1.40625C10.9286 1.79688 10.7897 2.12891 10.5119 2.40234C10.2341 2.67578 9.89683 2.8125 9.5 2.8125ZM9.5 15C9.18254 15 8.86111 14.9766 8.53571 14.9297C8.21032 14.8828 7.89683 14.8203 7.59524 14.7422V11.3906C7.59524 10.8438 7.78175 10.3711 8.15476 9.97266C8.52778 9.57422 8.97619 9.375 9.5 9.375C10.0238 9.375 10.4722 9.57422 10.8452 9.97266C11.2183 10.3711 11.4048 10.8438 11.4048 11.3906V14.7422C11.1032 14.8203 10.7897 14.8828 10.4643 14.9297C10.1389 14.9766 9.81746 15 9.5 15ZM6.16667 14.25C5.84921 14.125 5.54365 13.9844 5.25 13.8281C4.95635 13.6719 4.6746 13.5 4.40476 13.3125C3.96032 13 3.60714 12.5938 3.34524 12.0938C3.08333 11.5938 2.95238 11.0625 2.95238 10.5C2.95238 10.0938 2.90873 9.71484 2.82143 9.36328C2.73413 9.01172 2.57937 8.67969 2.35714 8.36719C2.19841 8.16406 1.90079 7.85547 1.46429 7.44141C1.02778 7.02734 0.626984 6.64062 0.261905 6.28125C0.0873016 6.10938 0 5.89062 0 5.625C0 5.35938 0.0873016 5.14062 0.261905 4.96875C0.436508 4.79688 0.65873 4.71094 0.928571 4.71094C1.19841 4.71094 1.42063 4.79688 1.59524 4.96875L5.2381 8.36719C5.55556 8.64844 5.78968 8.98047 5.94048 9.36328C6.09127 9.74609 6.16667 10.1406 6.16667 10.5469V14.25ZM12.8333 14.25V10.5469C12.8333 10.1406 12.9127 9.74219 13.0714 9.35156C13.2302 8.96094 13.4603 8.63281 13.7619 8.36719L17.4048 4.96875C17.5952 4.79688 17.8214 4.71094 18.0833 4.71094C18.3452 4.71094 18.5635 4.79688 18.7381 4.96875C18.9127 5.14062 19 5.35938 19 5.625C19 5.89062 18.9127 6.10938 18.7381 6.28125C18.373 6.64062 17.9722 7.02344 17.5357 7.42969C17.0992 7.83594 16.8016 8.14844 16.6429 8.36719C16.4206 8.67969 16.2659 9.01172 16.1786 9.36328C16.0913 9.71484 16.0476 10.0938 16.0476 10.5C16.0476 11.0625 15.9167 11.5977 15.6548 12.1055C15.3929 12.6133 15.0317 13.0234 14.5714 13.3359C14.3175 13.5078 14.0437 13.6719 13.75 13.8281C13.4563 13.9844 13.1508 14.125 12.8333 14.25Z" fill="white"/>
</svg>
