<svg width="16" height="16" viewBox="0 0 16 16" fill="none" xmlns="http://www.w3.org/2000/svg">
<path d="M0 16V11.1515L10.4857 0.684492C10.7143 0.456328 10.9714 0.285205 11.2571 0.171123C11.5429 0.057041 11.8286 0 12.1143 0C12.419 0 12.7095 0.057041 12.9857 0.171123C13.2619 0.285205 13.5143 0.456328 13.7429 0.684492L15.3429 2.31016C15.5524 2.53832 15.7143 2.79026 15.8286 3.06595C15.9429 3.34165 16 3.6221 16 3.90731C16 4.19251 15.9476 4.47296 15.8429 4.74866C15.7381 5.02436 15.5714 5.27629 15.3429 5.50446L4.85714 16H0ZM2.28571 13.7184H3.88572L10.5143 7.1016L9.71429 6.30303L8.88572 5.50446L2.28571 12.0927V13.7184Z" fill="#616061"/>
</svg>
