<svg width="18" height="16" viewBox="0 0 18 16" fill="none" xmlns="http://www.w3.org/2000/svg">
<path fill-rule="evenodd" clip-rule="evenodd" d="M4.99968 4.673C4.99968 3.632 5.35168 2.849 5.87368 2.328C6.39768 1.805 7.13868 1.5 7.99968 1.5C8.85968 1.5 9.60168 1.805 10.1257 2.328C10.6477 2.849 10.9997 3.632 10.9997 4.673C10.9962 5.65591 10.6211 6.60113 9.94968 7.319C9.32068 7.997 8.56968 8.333 7.99968 8.333C7.42968 8.333 6.67868 7.997 6.04968 7.319C5.37827 6.60113 5.00319 5.65591 4.99968 4.673ZM7.99968 0C6.77768 0 5.64368 0.438 4.81368 1.267C3.97968 2.1 3.49968 3.277 3.49968 4.673C3.50147 5.4639 3.67717 6.24474 4.01433 6.96018C4.35148 7.67562 4.84185 8.30817 5.45068 8.813C4.80586 8.96896 4.17836 9.18941 3.57768 9.471C2.11368 10.164 0.766678 11.299 0.129678 13.028C-0.170322 13.839 0.0626781 14.618 0.552678 15.16C1.02768 15.686 1.74568 16 2.49968 16H11.2497C11.4486 16 11.6394 15.921 11.78 15.7803C11.9207 15.6397 11.9997 15.4489 11.9997 15.25C11.9997 15.0511 11.9207 14.8603 11.78 14.7197C11.6394 14.579 11.4486 14.5 11.2497 14.5H2.49968C2.14968 14.5 1.84268 14.35 1.66568 14.154C1.50268 13.974 1.45368 13.772 1.53668 13.547C1.99968 12.291 2.99568 11.407 4.21968 10.827C5.44868 10.246 6.85268 10 7.99968 10C8.90668 10 9.98068 10.154 11.0037 10.51C11.1903 10.5709 11.3933 10.5563 11.5693 10.4692C11.7452 10.382 11.8799 10.2294 11.9446 10.0441C12.0093 9.85874 11.9987 9.65543 11.9151 9.4778C11.8316 9.30016 11.6817 9.16237 11.4977 9.094C11.1827 8.984 10.8657 8.891 10.5477 8.814C11.1565 8.30917 11.6469 7.67662 11.984 6.96118C12.3212 6.24574 12.4969 5.4649 12.4987 4.674C12.4997 3.277 12.0187 2.099 11.1857 1.267C10.3557 0.438 9.22268 0 7.99968 0ZM14.4997 9C14.6986 9 14.8894 9.07902 15.03 9.21967C15.1707 9.36032 15.2497 9.55109 15.2497 9.75V11.75H17.2497C17.4486 11.75 17.6394 11.829 17.78 11.9697C17.9207 12.1103 17.9997 12.3011 17.9997 12.5C17.9997 12.6989 17.9207 12.8897 17.78 13.0303C17.6394 13.171 17.4486 13.25 17.2497 13.25H15.2497V15.25C15.2497 15.4489 15.1707 15.6397 15.03 15.7803C14.8894 15.921 14.6986 16 14.4997 16C14.3008 16 14.11 15.921 13.9693 15.7803C13.8287 15.6397 13.7497 15.4489 13.7497 15.25V13.25H11.7497C11.5508 13.25 11.36 13.171 11.2193 13.0303C11.0787 12.8897 10.9997 12.6989 10.9997 12.5C10.9997 12.3011 11.0787 12.1103 11.2193 11.9697C11.36 11.829 11.5508 11.75 11.7497 11.75H13.7497V9.75C13.7497 9.55109 13.8287 9.36032 13.9693 9.21967C14.11 9.07902 14.3008 9 14.4997 9Z" fill="black"/>
</svg>
