<svg width="23" height="20" viewBox="0 0 23 20" fill="none" xmlns="http://www.w3.org/2000/svg">
<path fill-rule="evenodd" clip-rule="evenodd" d="M12.0943 0.327839C12.2704 0.252926 12.4646 0.23147 12.6527 0.266145C12.8409 0.300819 13.0147 0.390091 13.1525 0.52284L22.2525 9.29784C22.3469 9.38879 22.4219 9.49783 22.4732 9.61845C22.5244 9.73907 22.5509 9.86878 22.5509 9.99984C22.5509 10.1309 22.5244 10.2606 22.4732 10.3812C22.4219 10.5018 22.3469 10.6109 22.2525 10.7018L13.1525 19.4768C13.0148 19.6098 12.841 19.6993 12.6527 19.7342C12.4645 19.7691 12.2701 19.7477 12.0939 19.6729C11.9177 19.598 11.7675 19.4729 11.6619 19.3132C11.5563 19.1535 11.5001 18.9663 11.5002 18.7748V14.5498H6.3002C4.5426 14.5498 3.6352 15.0555 3.1412 15.6314C2.6212 16.2359 2.4002 17.1043 2.4002 18.1248C2.4002 18.3834 2.29747 18.6314 2.11462 18.8143C1.93178 18.9971 1.68378 19.0998 1.4252 19.0998C1.16661 19.0998 0.918614 18.9971 0.735766 18.8143C0.552918 18.6314 0.450195 18.3834 0.450195 18.1248V15.1998C0.450195 11.8276 1.2068 9.29784 3.0502 7.64814C4.8676 6.02314 7.5274 5.44984 10.8502 5.44984H11.5002V1.22484C11.5002 0.834839 11.7342 0.479939 12.0943 0.327839ZM2.4678 13.6268C3.4103 12.9612 4.6791 12.5998 6.3002 12.5998H12.4752C12.7338 12.5998 12.9818 12.7026 13.1646 12.8854C13.3475 13.0683 13.4502 13.3163 13.4502 13.5748V16.4803L20.1712 9.99984L13.4502 3.51934V6.42484C13.4502 6.68343 13.3475 6.93142 13.1646 7.11427C12.9818 7.29712 12.7338 7.39984 12.4752 7.39984H10.8502C7.673 7.39984 5.6203 7.96404 4.3502 9.10154C3.331 10.0141 2.6732 11.4259 2.4678 13.6268Z" fill="#1D1C1D" fill-opacity="0.7"/>
</svg>
