<svg width="23" height="21" viewBox="0 0 23 21" fill="none" xmlns="http://www.w3.org/2000/svg">
<path d="M21.5 19.5V17.5C21.5 15.6362 20.2252 14.0701 18.5 13.626M15 1.79076C16.4659 2.38415 17.5 3.82131 17.5 5.5C17.5 7.17869 16.4659 8.61585 15 9.20924M16.5 19.5C16.5 17.6362 16.5 16.7044 16.1955 15.9693C15.7895 14.9892 15.0108 14.2105 14.0307 13.8045C13.2956 13.5 12.3638 13.5 10.5 13.5H7.5C5.63623 13.5 4.70435 13.5 3.96927 13.8045C2.98915 14.2105 2.21046 14.9892 1.80448 15.9693C1.5 16.7044 1.5 17.6362 1.5 19.5M13 5.5C13 7.70914 11.2091 9.5 9 9.5C6.79086 9.5 5 7.70914 5 5.5C5 3.29086 6.79086 1.5 9 1.5C11.2091 1.5 13 3.29086 13 5.5Z" stroke="white" stroke-width="2" stroke-linecap="round" stroke-linejoin="round"/>
</svg>
