<svg width="22" height="20" viewBox="0 0 22 20" fill="none" xmlns="http://www.w3.org/2000/svg">
<path d="M16.7463 13.8369C18.1383 14.5683 19.3317 15.742 20.2028 17.2096C20.3753 17.5003 20.4616 17.6456 20.4914 17.8468C20.552 18.2558 20.2846 18.7585 19.9205 18.9204C19.7413 19 19.5397 19 19.1365 19M14.834 9.53224C16.2507 8.79589 17.2243 7.26686 17.2243 5.5C17.2243 3.73314 16.2507 2.20411 14.834 1.46776M12.9218 5.5C12.9218 7.98528 10.9955 10 8.61932 10C6.24311 10 4.31682 7.98528 4.31682 5.5C4.31682 3.01472 6.24311 1 8.61932 1C10.9955 1 12.9218 3.01472 12.9218 5.5ZM1.98318 16.9383C3.50751 14.5446 5.91293 13 8.61932 13C11.3257 13 13.7311 14.5446 15.2555 16.9383C15.5894 17.4628 15.7564 17.725 15.7371 18.0599C15.7222 18.3207 15.5587 18.64 15.3595 18.7976C15.1036 19 14.7516 19 14.0478 19H3.19086C2.48699 19 2.13505 19 1.87916 18.7976C1.67992 18.64 1.51646 18.3207 1.50149 18.0599C1.48227 17.725 1.64924 17.4628 1.98318 16.9383Z" stroke="white" stroke-width="2" stroke-linecap="round" stroke-linejoin="round"/>
</svg>
