<svg width="24" height="24" viewBox="0 0 24 24" fill="none" xmlns="http://www.w3.org/2000/svg">
<g clip-path="url(#clip0_4064_10205)">
<path d="M11.75 2.25C9.82164 2.25 7.93657 2.82183 6.33319 3.89317C4.72982 4.96452 3.48013 6.48726 2.74218 8.26884C2.00422 10.0504 1.81114 12.0108 2.18735 13.9021C2.56355 15.7934 3.49215 17.5307 4.85571 18.8943C6.21928 20.2579 7.95656 21.1865 9.84787 21.5627C11.7392 21.9389 13.6996 21.7458 15.4812 21.0078C17.2627 20.2699 18.7855 19.0202 19.8568 17.4168C20.9282 15.8134 21.5 13.9284 21.5 12C21.497 9.41505 20.4688 6.93683 18.641 5.109C16.8132 3.28116 14.335 2.25298 11.75 2.25ZM19.0963 8.25H15.7541C15.3332 6.70585 14.6238 5.25532 13.6634 3.975C14.8238 4.25375 15.9102 4.7801 16.848 5.51799C17.7859 6.25588 18.5532 7.18784 19.0972 8.25H19.0963ZM20 12C20.0007 12.7608 19.8956 13.5181 19.6878 14.25H16.0775C16.3075 12.7588 16.3075 11.2412 16.0775 9.75H19.6878C19.8956 10.4819 20.0007 11.2392 20 12ZM11.75 4.03125C12.8731 5.23361 13.7067 6.67653 14.1875 8.25H9.3125C9.79277 6.67632 10.6265 5.2333 11.75 4.03125ZM9.3125 15.75H14.1875C13.7072 17.3237 12.8735 18.7667 11.75 19.9688C10.627 18.7664 9.79326 17.3235 9.3125 15.75ZM8.94688 14.25C8.68939 12.7611 8.68939 11.2389 8.94688 9.75H14.5606C14.8181 11.2389 14.8181 12.7611 14.5606 14.25H8.94688ZM13.6672 20.025C14.6276 18.7447 15.3369 17.2941 15.7578 15.75H19.1009C18.5565 16.8126 17.7887 17.7448 16.8501 18.4827C15.9116 19.2206 14.8245 19.7467 13.6634 20.025H13.6672Z" fill="#4D94C5"/>
</g>
<defs>
<clipPath id="clip0_4064_10205">
<rect width="24" height="24" fill="white"/>
</clipPath>
</defs>
</svg>
