<svg width="196" height="171" viewBox="0 0 196 171" fill="none" xmlns="http://www.w3.org/2000/svg">
<path d="M82.8145 133.3C82.0368 132.732 81.4958 131.68 81.3958 130.617C81.2795 129.381 81.8848 128.583 82.2658 127.51C82.7928 126.026 82.8733 124.273 81.8767 123.088C81.4745 122.61 80.5964 122.775 80.4946 123.517C80.4032 124.183 80.4399 124.729 80.4096 125.397C80.3675 126.326 80.0508 126.935 79.7174 127.754C79.317 128.739 79.1474 129.699 79.2614 130.785C79.4858 132.915 80.5792 134.223 82.2038 135.001C83.0602 135.412 83.5479 133.835 82.8145 133.3Z" fill="#EAAE35"/>
<path d="M110.664 91.893C109.623 91.6348 109.199 93.0119 109.37 94.0304C109.535 95.0197 110.249 95.7247 110.601 96.6131C111.171 98.0529 110.743 99.1533 110.593 100.603C110.517 101.332 111.437 101.727 111.828 101.204C112.656 100.095 112.717 98.4987 112.427 97.1003C112.097 95.5149 110.088 93.819 110.795 92.2697C110.857 92.1321 110.807 91.9286 110.664 91.893Z" fill="#EAAE35"/>
<path d="M116.887 165.742C116.572 164.345 120.094 161.874 120.813 160.736C121.657 159.398 122.057 157.941 122.057 156.282C122.058 154.492 119.685 154.744 119.936 156.619C120.299 159.33 118.126 161.076 116.604 162.58C115.622 163.551 115.023 164.706 115.392 166.227C115.665 167.352 117.143 166.879 116.887 165.742Z" fill="#EAAE35"/>
<path d="M173.335 112.994C172.549 114.641 172.773 116.281 173.699 117.803C174.186 118.603 174.83 119.246 175.328 120.033C176.194 121.4 176.093 122.487 176.151 124.099C176.206 125.589 177.886 125.798 178.306 124.441C178.82 122.781 178.399 120.832 177.605 119.371C176.826 117.937 174.038 115.961 174.813 114.009C175.271 112.856 173.883 111.848 173.335 112.994Z" fill="#EAAE35"/>
<path d="M176.261 80.758C176.288 79.8925 177.815 78.8974 178.293 78.2624C178.814 77.5707 179.234 76.7796 179.549 75.9353C180.218 74.1469 180.5 71.9845 179.817 70.16C179.508 69.3349 178.42 69.7881 178.425 70.6026C178.442 73.0259 178.575 75.0884 177.197 77.1334C176.371 78.3581 174.951 79.0217 174.951 80.7575C174.953 81.7505 176.231 81.7452 176.261 80.758Z" fill="#EAAE35"/>
<path d="M13.7932 114.237C13.448 112.158 16.4375 112.022 17.4775 111.581C18.1978 111.276 18.8682 110.833 19.4758 110.288C20.8724 109.037 21.802 107.346 22.2924 105.377C22.6231 104.05 20.8194 103.468 20.5312 104.807C20.2177 106.263 19.6183 107.549 18.6637 108.561C17.5744 109.716 16.3655 109.964 15.0197 110.472C13.3761 111.092 12.0148 112.491 12.4414 114.674C12.645 115.713 13.9642 115.267 13.7932 114.237Z" fill="#EAAE35"/>
<path d="M38.0167 23.5329C37.0694 25.86 37.6001 28.032 38.6085 30.2093C40.4506 34.1867 40.7714 36.8411 38.7627 40.8434C38.0204 42.3231 39.8318 44.0828 40.8374 42.7232C42.3322 40.7026 42.9031 37.8686 42.6176 35.2286C42.4521 33.701 42.0055 32.3669 41.3278 31.0578C40.2964 29.0654 38.2891 27.0363 39.2767 24.3973C39.6467 23.4064 38.4262 22.5266 38.0167 23.5329Z" fill="#EAAE35"/>
<path d="M130.821 21.7096C130.242 21.1698 129.675 20.6108 129.223 19.918C128.255 18.4346 128.684 17.1223 129.356 15.5868C130.088 13.9142 130.548 12.4027 130.136 10.5319C129.46 10.9936 128.785 11.4553 128.109 11.9176C128.236 12.0717 128.364 12.2257 128.492 12.3798C129.262 13.3091 130.451 12.3362 130.249 11.1791C130.211 10.9633 130.173 10.7476 130.136 10.5319C129.824 8.74886 127.416 9.498 127.797 11.2896C128.366 13.9674 125.711 16.1664 126.265 19.0552C126.667 21.1501 128.164 22.4885 129.714 23.3949C130.579 23.8991 131.682 22.5129 130.821 21.7096Z" fill="#EAAE35"/>
<path d="M123.276 120.636C123.044 122.53 123.615 123.947 124.615 125.428C125.275 126.406 125.95 127.255 126.263 128.48C126.537 129.555 126.39 130.442 126.836 131.446C127.198 132.258 128.18 132.156 128.562 131.446C129.355 129.976 128.8 127.994 128.147 126.545C127.291 124.646 124.929 123.225 125.092 120.924C125.178 119.72 123.425 119.421 123.276 120.636Z" fill="#BC8FF1"/>
<path d="M90.0315 162.694C89.5226 157.861 94.5885 156.464 96.9578 153.766C98.5525 151.95 99.7681 148.982 98.5258 146.537C97.9983 145.498 96.5162 145.905 96.5456 147.166C96.6542 151.775 93.876 153.006 91.1666 155.573C89.186 157.45 87.9523 159.928 88.3839 162.955C88.5386 164.038 90.1478 163.798 90.0315 162.694Z" fill="#BC8FF1"/>
<path d="M68.8327 0.878855C68.7436 3.13372 69.7321 4.67611 70.8052 6.43049C71.5286 7.61318 72.0629 8.586 71.796 10.0859C71.6526 10.8929 71.4775 11.2792 71.8218 12.0953C72.0059 12.5325 72.4687 12.8104 72.8727 12.803C72.9338 12.8019 72.9948 12.8009 73.0555 12.7998C73.53 12.7913 74.0706 12.3886 74.1674 11.8057C74.1769 11.7489 74.186 11.692 74.1955 11.6357C74.4104 10.3393 73.2061 9.52163 72.3524 10.3754C72.3149 10.4132 72.2773 10.4504 72.2398 10.4881C72.7057 10.4174 73.1713 10.3468 73.6372 10.2761C73.587 10.2304 73.5368 10.1852 73.4866 10.1395C73.6323 10.7915 73.7775 11.4434 73.9232 12.0953C74.5692 10.4663 74.6909 8.93985 74.0028 7.23648C73.1057 5.01561 70.5234 3.43285 70.3831 0.878855C70.3193 -0.286834 68.8793 -0.299054 68.8327 0.878855Z" fill="#BC8FF1"/>
<path d="M166.923 26.0667C167.038 22.737 169.595 22.5749 171.183 20.5644C172.243 19.2229 172.986 17.0456 172.197 15.3523C171.735 14.3604 170.606 14.7248 170.307 15.6424C169.914 16.8511 170.107 18.0678 169.218 19.0454C168.551 19.7792 167.599 20.1059 166.887 20.7876C165.523 22.0925 164.891 24.0307 164.913 26.0672C164.929 27.5905 166.871 27.5825 166.923 26.0667Z" fill="#BC8FF1"/>
<path d="M193.552 76.4596C191.42 78.7554 194.305 81.9071 192.431 84.2114C191.422 85.4509 188.639 86.7367 189.984 88.9576C190.364 89.584 191.032 89.7258 191.536 89.1924C192.152 88.5394 192.511 87.7329 193.181 87.0959C193.86 86.4503 194.426 85.8372 194.817 84.8979C195.175 84.0377 195.339 83.0946 195.28 82.1372C195.208 80.9524 193.855 78.7708 194.681 77.7847C195.406 76.9208 194.308 75.6462 193.552 76.4596Z" fill="#BC8FF1"/>
<path d="M3.42362 83.7826C4.00586 85.9269 6.03805 86.8232 6.56012 88.9256C7.20931 91.5412 4.42072 93.1256 5.33683 95.6759C5.70101 96.6891 7.28034 97.1162 7.47442 95.6759C7.83317 93.0161 9.49936 91.4387 8.809 88.5223C8.18061 85.8663 5.78923 85.3318 4.9455 83.0286C4.57272 82.0106 3.13997 82.7364 3.42362 83.7826Z" fill="#BC8FF1"/>
<path d="M3.06948 128.975C3.1301 127.381 5.04737 126.551 5.85626 125.467C6.61901 124.445 7.31842 123.013 7.13067 121.631C7.05286 121.057 6.25392 120.939 6.04944 121.465C5.74135 122.255 5.70652 123.133 5.32334 123.892C4.87953 124.771 4.20998 125.311 3.54404 125.933C2.66729 126.753 1.94571 127.592 1.90952 128.975C1.88645 129.854 3.03645 129.849 3.06948 128.975Z" fill="#BC8FF1"/>
<path d="M61.2227 38.2337C61.5172 37.1663 62.607 36.4984 63.2114 35.6765C63.69 35.0256 64.0931 34.3206 64.3623 33.5162C64.9056 31.8946 65.0902 29.5192 64.2424 28.0081C63.6258 26.9094 62.2111 27.6027 62.4473 28.897C62.8264 30.9728 63.3756 32.6879 62.2302 34.6707C61.5479 35.8518 60.4491 36.4251 60.093 37.8676C59.8817 38.723 60.991 39.0721 61.2227 38.2337Z" fill="#BC8FF1"/>
<path d="M91.745 97.0147C91.1302 98.5677 91.332 99.982 92.2042 101.362C92.6788 102.113 93.318 102.696 93.8831 103.346C94.9209 104.539 94.9109 105.251 94.6019 106.792C94.4789 107.408 94.6725 108.253 95.2086 108.544C95.2932 108.589 95.3783 108.635 95.4629 108.681C96.0799 109.015 96.9155 108.788 97.0911 107.903C97.434 106.176 97.4964 104.676 96.5749 103.171C95.5683 101.528 92.3449 100.136 93.0882 97.6804C93.3651 96.7676 92.0975 96.1248 91.745 97.0147Z" fill="#459C90"/>
<path d="M129.951 42.2441C129.483 39.8824 132.506 39.1221 133.779 38.3018C134.964 37.5383 135.84 36.4571 136.227 34.9237C136.667 33.1847 134.214 32.4446 133.946 34.1852C133.596 36.4565 131.061 36.9012 129.741 38.2088C128.603 39.3362 127.953 41.0167 128.444 42.7323C128.764 43.847 130.18 43.4018 129.951 42.2441Z" fill="#459C90"/>
<path d="M14.9734 12.8442C14.7445 14.3839 15.2765 15.6352 16.3216 16.5756C16.8405 17.0426 17.5259 17.4018 17.8023 18.1397C18.1018 18.9399 17.8647 19.7156 18.3063 20.4913C18.7609 21.2899 19.7811 21.3733 20.2204 20.4913C20.8668 19.1933 20.4312 17.2673 19.6806 16.1197C19.3169 15.5634 18.8451 15.1628 18.3429 14.7925C17.8367 14.419 16.8893 14.0078 16.9364 13.1556C17.0079 11.8533 15.1684 11.5335 14.9734 12.8442Z" fill="#459C90"/>
<path d="M112.77 130.114C112.77 131.432 111.861 132.501 110.738 132.501C109.616 132.501 108.706 131.433 108.706 130.114C108.706 128.796 109.616 127.728 110.738 127.728C111.861 127.728 112.77 128.796 112.77 130.114Z" fill="#459C90"/>
<path d="M80.2846 109.086C80.2846 109.931 79.7015 110.616 78.9821 110.616C78.2628 110.616 77.6797 109.931 77.6797 109.086C77.6797 108.242 78.2628 107.557 78.9821 107.557C79.7015 107.557 80.2846 108.242 80.2846 109.086Z" fill="#459C90"/>
<path d="M165.372 85.868C166.105 85.868 166.7 85.1693 166.7 84.3075C166.7 83.4457 166.105 82.7471 165.372 82.7471C164.638 82.7471 164.043 83.4457 164.043 84.3075C164.043 85.1693 164.638 85.868 165.372 85.868Z" fill="#459C90"/>
<path d="M1.6629 105.494C2.16061 105.494 2.56408 105.02 2.56408 104.435C2.56408 103.851 2.16061 103.377 1.6629 103.377C1.16519 103.377 0.761719 103.851 0.761719 104.435C0.761719 105.02 1.16519 105.494 1.6629 105.494Z" fill="#459C90"/>
<path d="M32.8449 128.511C32.8449 129.805 31.9523 130.853 30.8512 130.853C29.75 130.853 28.8574 129.805 28.8574 128.511C28.8574 127.218 29.75 126.17 30.8512 126.17C31.9523 126.17 32.8449 127.218 32.8449 128.511Z" fill="#459C90"/>
<path d="M28.4956 48.779C29.9747 48.779 31.1738 47.3707 31.1738 45.6336C31.1738 43.8965 29.9747 42.4883 28.4956 42.4883C27.0165 42.4883 25.8174 43.8965 25.8174 45.6336C25.8174 47.3707 27.0165 48.779 28.4956 48.779Z" fill="#459C90"/>
<path d="M116.758 16.4958C116.758 18.1758 115.599 19.5376 114.168 19.5376C112.738 19.5376 111.578 18.1758 111.578 16.4958C111.578 14.8158 112.738 13.4541 114.168 13.4541C115.599 13.4541 116.758 14.8158 116.758 16.4958Z" fill="#459C90"/>
<path d="M75.8702 148.499C75.8702 149.293 75.3219 149.937 74.6455 149.937C73.9692 149.937 73.4209 149.293 73.4209 148.499C73.4209 147.704 73.9692 147.061 74.6455 147.061C75.3219 147.061 75.8702 147.704 75.8702 148.499Z" fill="#9FE0E2"/>
<path d="M104.91 170.039C105.955 170.039 106.802 169.045 106.802 167.818C106.802 166.591 105.955 165.597 104.91 165.597C103.865 165.597 103.019 166.591 103.019 167.818C103.019 169.045 103.865 170.039 104.91 170.039Z" fill="#9FE0E2"/>
<path d="M128.729 142.454C128.729 143.426 128.058 144.215 127.23 144.215C126.402 144.215 125.73 143.426 125.73 142.454C125.73 141.482 126.402 140.693 127.23 140.693C128.058 140.693 128.729 141.482 128.729 142.454Z" fill="#9FE0E2"/>
<path d="M183.613 106.418C183.613 108.04 182.493 109.355 181.113 109.355C179.732 109.355 178.612 108.04 178.612 106.418C178.612 104.796 179.732 103.481 181.113 103.481C182.493 103.481 183.613 104.796 183.613 106.418Z" fill="#9FE0E2"/>
<path d="M188.807 63.8422C189.336 63.8422 189.764 63.3389 189.764 62.718C189.764 62.0971 189.336 61.5938 188.807 61.5938C188.278 61.5938 187.85 62.0971 187.85 62.718C187.85 63.3389 188.278 63.8422 188.807 63.8422Z" fill="#9FE0E2"/>
<path d="M151.207 41.7732C152.198 41.7732 153.002 40.8291 153.002 39.6644C153.002 38.4998 152.198 37.5557 151.207 37.5557C150.215 37.5557 149.411 38.4998 149.411 39.6644C149.411 40.8291 150.215 41.7732 151.207 41.7732Z" fill="#9FE0E2"/>
<path d="M131.401 56.547C131.401 57.6733 130.624 58.5861 129.665 58.5861C128.706 58.5861 127.929 57.6733 127.929 56.547C127.929 55.4206 128.706 54.5078 129.665 54.5078C130.624 54.5078 131.401 55.4211 131.401 56.547Z" fill="#9FE0E2"/>
<path d="M49.8966 51.2986C49.8966 52.2124 49.2655 52.9536 48.4874 52.9536C47.7092 52.9536 47.0781 52.2124 47.0781 51.2986C47.0781 50.3842 47.7092 49.6436 48.4874 49.6436C49.2659 49.643 49.8966 50.3842 49.8966 51.2986Z" fill="#9FE0E2"/>
<path d="M53.524 15.2045C53.524 16.3362 52.7427 17.2538 51.7791 17.2538C50.8155 17.2538 50.0342 16.3362 50.0342 15.2045C50.0342 14.0728 50.8155 13.1553 51.7791 13.1553C52.7427 13.1553 53.524 14.0728 53.524 15.2045Z" fill="#9FE0E2"/>
<path d="M15.8108 33.7234C15.8108 34.5411 15.2467 35.2036 14.5504 35.2036C13.8542 35.2036 13.29 34.5411 13.29 33.7234C13.29 32.9057 13.8542 32.2432 14.5504 32.2432C15.2467 32.2432 15.8108 32.9057 15.8108 33.7234Z" fill="#9FE0E2"/>
<path d="M34.6658 64.9812C34.6658 65.6586 34.198 66.208 33.6212 66.208C33.0444 66.208 32.5762 65.6586 32.5762 64.9812C32.5762 64.3038 33.044 63.7539 33.6212 63.7539C34.198 63.7544 34.6658 64.3038 34.6658 64.9812Z" fill="#EAAE35"/>
<g opacity="0.2">
<path d="M94.3862 144.879C110.109 144.879 122.855 142.01 122.855 138.47C122.855 134.931 110.109 132.062 94.3862 132.062C78.6631 132.062 65.917 134.931 65.917 138.47C65.917 142.01 78.6631 144.879 94.3862 144.879Z" fill="#030072"/>
</g>
<path d="M122.632 76.4849V118.54C122.162 134.614 114.183 141.675 94.3863 141.563C74.5893 141.675 66.6132 134.614 66.1406 118.54V76.4849C66.5533 69.1761 68.9827 63.8241 73.917 60.9006C76.2732 58.9256 76.1401 55.6633 73.917 55.5773C67.991 55.5773 67.991 45.8714 73.917 45.8714C80.7416 45.2096 87.5639 44.8474 94.3863 44.7822C101.209 44.8474 108.033 45.2096 114.856 45.8714C120.782 45.8714 120.782 55.5773 114.856 55.5773C112.632 55.6633 112.499 58.9256 114.856 60.9006C119.79 63.8241 122.219 69.1761 122.632 76.4849Z" fill="#E2FBFF"/>
<path d="M94.3852 49.1953C103.681 49.1953 111.218 48.5185 111.218 47.6836C111.218 46.8487 103.681 46.1719 94.3852 46.1719C85.0889 46.1719 77.5527 46.8487 77.5527 47.6836C77.5527 48.5185 85.0889 49.1953 94.3852 49.1953Z" fill="#A9E0FC"/>
<path d="M119.525 76.6095V118.474C119.452 120.897 119.195 123.039 118.74 124.926C118.74 124.926 118.74 124.926 118.74 124.928C117.888 128.477 116.348 131.127 114.047 133.071C110.187 136.33 103.906 137.917 94.8471 137.917L94.3723 137.915L93.9264 137.917C84.8654 137.917 78.5844 136.33 74.724 133.071C72.4254 131.13 70.8857 128.48 70.0337 124.928C70.0337 124.926 70.0337 124.926 70.0337 124.926C69.5789 123.039 69.3215 120.897 69.2461 118.474V76.6095C69.621 70.3456 71.5513 66.3876 75.3163 64.1572L75.5271 64.0321L75.7223 63.868C78.1163 61.8616 79.2433 58.6411 78.5267 55.8583C78.2294 54.7118 77.6659 53.766 76.9071 53.0885C76.1217 52.385 75.1278 51.9733 74.0184 51.9316L73.9674 51.929H73.9163C73.0289 51.929 72.5785 51.5226 72.5785 50.7252C72.5785 49.9253 73.0289 49.5188 73.9163 49.5188H74.045L74.1715 49.5058C80.8718 48.857 87.672 48.4948 94.3857 48.4297C101.104 48.4948 107.904 48.857 114.6 49.5058L114.728 49.5188H114.855C115.745 49.5188 116.195 49.9253 116.195 50.7252C116.195 51.5225 115.745 51.929 114.855 51.929H114.804L114.753 51.9316C113.666 51.9733 112.692 52.3693 111.911 53.0468H111.909C111.128 53.7269 110.546 54.6884 110.245 55.8583C109.528 58.6411 110.655 61.8616 113.051 63.868L113.244 64.0321L113.457 64.1572C117.22 66.3876 119.15 70.3455 119.525 76.6095Z" fill="#C0F4F9"/>
<path d="M113.457 64.1573C99.9922 60.9315 87.3193 61.1113 75.3164 64.1573L75.5272 64.0322L75.7224 63.8681C78.1164 61.8617 79.2434 58.6412 78.5268 55.8584H110.245C109.528 58.6412 110.655 61.8617 113.051 63.8681L113.244 64.0322L113.457 64.1573Z" fill="#A9E0FC"/>
<path d="M94.8357 142.345C94.6849 142.345 94.535 142.345 94.3828 142.344C84.3477 142.403 77.2255 140.574 72.6322 136.759C68.0645 132.965 65.7235 127.014 65.4751 118.566C65.4748 118.557 65.4746 118.548 65.4746 118.539V76.4843C65.4746 76.4671 65.4751 76.4499 65.4762 76.4326C65.9169 68.6264 68.6396 63.1757 73.5695 60.2303C74.7224 59.2423 75.1212 57.9324 74.9172 57.1396C74.7592 56.5255 74.2817 56.3753 73.9048 56.3584C70.5578 56.3515 68.8067 53.5204 68.8067 50.7238C68.8067 49.2502 69.2668 47.8735 70.1022 46.8471C71.033 45.7039 72.3417 45.0965 73.8887 45.0891C80.6789 44.4314 87.5729 44.065 94.3806 44C101.201 44.065 108.096 44.4314 114.884 45.0891C118.22 45.105 119.965 47.9315 119.965 50.7238C119.965 53.5204 118.214 56.3514 114.867 56.3584C114.49 56.3753 114.013 56.5255 113.855 57.1396C113.651 57.9324 114.05 59.2423 115.203 60.2303C120.132 63.1757 122.855 68.6264 123.296 76.4326C123.297 76.4499 123.297 76.4671 123.297 76.4843V118.539C123.297 118.548 123.297 118.557 123.297 118.566C123.05 127.014 120.709 132.965 116.141 136.759C111.616 140.516 104.643 142.345 94.8357 142.345ZM94.3828 140.781C94.5393 140.782 94.6983 140.782 94.8532 140.782C113.638 140.782 121.499 134.31 121.966 118.526V76.5104C121.547 69.1823 119.123 64.3044 114.555 61.598C114.525 61.58 114.496 61.5594 114.469 61.5363C112.926 60.2431 112.167 58.2945 112.581 56.6873C112.874 55.5459 113.716 54.8388 114.833 54.7956C114.841 54.7953 114.848 54.7952 114.855 54.7952C117.452 54.7952 118.634 52.6847 118.634 50.7238C118.634 48.763 117.452 46.6525 114.855 46.6525C114.837 46.6525 114.819 46.6516 114.801 46.6499C108.037 45.9937 101.167 45.6282 94.3806 45.5634C87.6078 45.6281 80.7374 45.9937 73.9715 46.6499C73.9534 46.6516 73.935 46.6525 73.9167 46.6525C71.3203 46.6525 70.1377 48.763 70.1377 50.7238C70.1377 52.6847 71.3203 54.7952 73.9167 54.7952C73.9241 54.7952 73.9313 54.7952 73.9386 54.7956C75.0556 54.8388 75.8978 55.546 76.1915 56.6873C76.605 58.2945 75.8462 60.2431 74.3034 61.5363C74.2758 61.5594 74.2467 61.58 74.2166 61.598C69.6487 64.3044 67.2246 69.1823 66.8059 76.5104V118.526C67.2745 134.309 75.1383 140.782 93.9128 140.782C94.0689 140.782 94.2253 140.782 94.3828 140.781Z" fill="#030072"/>
<path d="M84.6345 46.7498C83.7432 46.8649 82.3932 47.0268 81.5091 47.1601C80.4724 47.3095 79.433 47.4731 78.4291 47.7118C78.0296 47.8167 77.6153 47.9007 77.2626 48.1148C77.2427 48.1263 77.2507 48.1283 77.2434 48.131C77.2573 48.1192 77.2606 48.123 77.3021 48.0485C77.3576 47.9365 77.3597 47.7275 77.2834 47.6115C77.2762 47.5943 77.2541 47.572 77.2562 47.5713C77.2337 47.5482 77.2662 47.5752 77.3022 47.5907C78.6125 48.0571 80.0243 48.0969 81.4045 48.2399C89.7461 48.804 98.155 48.8163 106.498 48.3613C107.539 48.2881 108.58 48.1996 109.606 48.0666C110.27 47.9595 110.943 47.9038 111.543 47.6164C111.546 47.6135 111.55 47.6111 111.554 47.6093C111.558 47.6073 111.55 47.6119 111.551 47.6146C111.553 47.6151 111.532 47.6355 111.528 47.6489C111.45 47.7675 111.466 47.991 111.558 48.0847C111.536 48.0603 111.511 48.0483 111.48 48.0285C110.926 47.7486 110.302 47.6399 109.684 47.5042C108.139 47.2031 106.58 47.0009 105.018 46.8072C104.776 46.7736 104.805 46.36 105.041 46.3613C106.623 46.394 108.208 46.4573 109.785 46.6583C110.497 46.7734 111.263 46.827 111.949 47.1964C112.072 47.2732 112.189 47.3773 112.262 47.5267C112.442 47.8772 112.284 48.2959 112.001 48.4869C111.3 48.9323 110.486 49.028 109.739 49.1949C104.508 50.071 99.2176 50.1792 93.9439 50.2192C88.6724 50.1622 83.3627 50.1111 78.1347 49.0679C77.6049 48.9116 77.0532 48.8396 76.594 48.3985C76.4937 48.3024 76.3392 47.9779 76.3898 47.7666C76.398 47.6808 76.4259 47.5809 76.4612 47.5133C76.5668 47.3151 76.6567 47.2403 76.7949 47.1491C77.2642 46.8735 77.7805 46.8014 78.278 46.7019C79.8728 46.4456 81.4403 46.373 83.0344 46.3223C83.5614 46.3107 84.0881 46.306 84.6146 46.3037C84.8561 46.3043 84.8672 46.7231 84.6345 46.7498Z" fill="#030072"/>
<path d="M73.9393 54.796L81.0888 55.6923C81.3634 55.7299 81.3426 56.212 81.0634 56.2126L73.8934 56.3585C72.949 56.3512 72.9932 54.7277 73.9393 54.796Z" fill="#030072"/>
<path d="M114.878 56.3585L107.708 56.2127C107.584 56.2136 107.482 56.0938 107.484 55.9472C107.486 55.8141 107.573 55.706 107.683 55.6924L114.832 54.7961C115.775 54.7265 115.826 56.3495 114.878 56.3585Z" fill="#030072"/>
<path d="M118.739 124.926C118.739 124.926 118.739 124.926 118.739 124.928C117.887 128.477 116.348 131.127 114.047 133.071C110.186 136.331 103.905 137.917 94.8466 137.917L94.3718 137.915L93.9259 137.917C84.8649 137.917 78.5839 136.331 74.7234 133.071C72.4249 131.13 70.8852 128.48 70.0332 124.928C70.0332 124.926 70.0332 124.926 70.0332 124.926C70.9961 118.122 81.5325 118.074 94.3851 118.074C107.24 118.074 117.776 118.122 118.739 124.926Z" fill="#A9E0FC"/>
<path d="M86.3888 54.7313C78.3529 54.5862 70.996 54.2074 71.4979 50.4229C78.6067 51.0655 84.3405 52.0998 94.3852 52.0998C105.095 52.0998 110.166 51.0655 117.275 50.4229C117.777 54.2076 110.419 54.5862 102.382 54.7313C97.0512 54.8275 91.7195 54.8275 86.3888 54.7313Z" fill="#A9E0FC"/>
<g opacity="0.44">
<path d="M81.5538 50.2935L86.3687 50.6183C86.8338 50.6497 87.1532 51.1682 87.0443 51.7002C86.9083 52.3649 86.8439 53.3608 87.1217 54.6999C87.2351 55.2468 86.8861 55.7754 86.4069 55.7781C84.6632 55.7883 81.2023 55.7421 80.9282 55.2227C80.5912 54.5842 80.1094 52.6898 80.8449 50.7812C80.9682 50.4614 81.2554 50.2733 81.5538 50.2935Z" fill="white"/>
</g>
<path d="M86.4318 55.7056C91.6977 56.0523 97.0721 56.0115 102.34 55.7315C102.593 55.7258 102.606 56.1608 102.34 56.1718C99.0433 56.7744 95.7214 56.8487 92.3974 56.794C90.3876 56.7165 88.3747 56.5948 86.3814 56.1873C86.1316 56.1339 86.1687 55.6874 86.4318 55.7056Z" fill="#030072"/>
<path d="M96.5242 125.303C94.0393 129.079 91.5544 132.854 89.0695 136.63C88.7412 137.127 88.0046 137.484 87.4299 137.398C80.9293 136.429 75.1009 132.568 71.0452 126.804C68.2253 119.412 69.6075 113.398 69.6519 113.21C69.6541 113.208 69.6541 113.205 69.6541 113.205C71.3447 110.639 73.0331 108.075 74.7215 105.508C75.0476 105.011 75.4692 105.133 75.6844 105.766C79.11 115.819 86.9219 122.911 96.0693 124.274C96.644 124.36 96.8525 124.805 96.5242 125.303Z" fill="#46BC81"/>
<path d="M87.6104 138.063C87.5253 138.063 87.4415 138.057 87.3593 138.045C80.7858 137.065 74.8397 133.22 70.6171 127.219C70.422 126.942 70.4552 126.531 70.6914 126.302C70.9274 126.073 71.2771 126.112 71.4722 126.389C75.5144 132.134 81.2063 135.814 87.4993 136.753C87.8685 136.807 88.4174 136.554 88.6307 136.231L96.0658 124.934C96.0465 124.929 96.0241 124.924 95.9989 124.92C86.6513 123.528 78.6696 116.281 75.1688 106.008C75.1594 105.981 75.15 105.956 75.1409 105.936C73.4636 108.485 71.7869 111.031 70.1083 113.58C70.0892 113.612 70.0674 113.643 70.0435 113.671C69.8271 113.926 69.4755 113.926 69.2592 113.671C69.0812 113.462 69.0495 113.147 69.1637 112.9C69.1784 112.867 69.1955 112.836 69.2148 112.807C70.9054 110.24 72.5936 107.677 74.2822 105.11C74.55 104.701 74.915 104.5 75.2853 104.561C75.6795 104.625 76.0124 104.976 76.199 105.525C79.5499 115.358 87.1903 122.295 96.1387 123.628C96.6377 123.703 97.0108 123.993 97.1628 124.424C97.3051 124.827 97.232 125.293 96.9622 125.702L89.5079 137.029C89.0987 137.649 88.3185 138.063 87.6104 138.063Z" fill="#32356B"/>
<path d="M93.1844 127.602C91.8098 129.69 90.4352 131.779 89.0606 133.867C88.9649 133.831 88.8614 133.803 88.7506 133.781C87.6571 133.57 86.2884 134.08 85.6598 135.036C85.596 135.133 85.5428 135.23 85.5001 135.328C78.5565 133.319 72.6404 127.947 69.2363 120.561C69.3065 120.488 69.3733 120.403 69.4372 120.306C70.0668 119.351 70.1418 117.667 69.6925 116.477C69.6467 116.357 69.5972 116.246 69.5439 116.147C70.9185 114.058 72.2931 111.97 73.6677 109.882C73.6992 110.015 73.7381 110.141 73.7838 110.262C74.2331 111.452 75.1757 111.59 75.8027 110.636C75.8664 110.539 75.9244 110.434 75.9764 110.322C79.3804 117.708 85.2966 123.08 92.2402 125.089C92.1607 125.176 92.0891 125.268 92.0253 125.365C91.3974 126.318 91.7484 127.355 92.8418 127.566C92.9527 127.587 93.0669 127.6 93.1844 127.602Z" fill="#0F6D64"/>
<path d="M82.0639 126.951C81.0334 128.518 78.9399 128.959 77.5412 127.684C76.1382 126.415 75.9744 123.925 77.006 122.359C78.0406 120.786 79.8795 120.732 81.2823 122C82.681 123.276 83.0998 125.379 82.0639 126.951Z" fill="#46BC81"/>
<path d="M84.651 128.65C84.1162 129.462 84.3637 130.483 85.2347 130.854C86.1049 131.227 87.2671 130.807 87.8017 129.995C88.3374 129.181 88.0428 128.283 87.1726 127.91C86.3017 127.539 85.1865 127.836 84.651 128.65Z" fill="#46BC81"/>
<path d="M71.0452 126.804C68.2253 119.412 69.6075 113.398 69.6519 113.21C69.6541 113.208 69.6541 113.205 69.6541 113.205C71.6486 114.63 74.788 113.385 75.3405 114.315C75.8907 115.245 71.0452 126.804 71.0452 126.804Z" fill="#46BC81"/>
<path d="M69.6514 115.723L71.5541 116.053C71.5541 116.053 71.0787 117.919 72.6221 118.384L70.3989 124.121C70.3989 124.121 69.3625 119.422 69.6514 115.723Z" fill="#0F6D64"/>
<path d="M72.4935 124.204C72.3006 124.998 72.112 125.79 71.8528 126.568C71.7617 126.816 71.6874 127.067 71.5077 127.29C71.328 127.518 70.987 127.586 70.7547 127.388C70.5911 127.249 70.5056 127.055 70.4913 126.84L70.539 127.071C69.3098 123.796 68.643 120.224 68.7041 116.638C68.7336 115.414 68.8173 114.22 69.0569 113.017L69.2143 112.699C69.176 112.744 69.1373 112.802 69.1056 112.873C69.0633 112.993 69.041 113.04 69.0366 113.19L69.9751 112.586C70.6934 113.061 71.6294 113.175 72.5984 113.204C73.0873 113.217 73.5864 113.208 74.1236 113.227C74.6302 113.267 75.272 113.286 75.6954 113.797C76.0227 114.173 75.9043 114.715 75.8185 115.135C75.2941 117.332 74.5415 119.433 73.5807 121.42C73.5179 121.544 73.3813 121.585 73.2755 121.511C73.1808 121.446 73.1428 121.31 73.1809 121.193C73.5217 120.087 73.8218 118.954 74.1106 117.823C74.3666 116.714 74.7072 115.592 74.8111 114.455C74.8137 114.453 74.7998 114.444 74.8287 114.559C74.8324 114.583 74.8686 114.661 74.8877 114.695C74.241 114.563 73.3516 114.695 72.589 114.692C71.4865 114.701 70.3154 114.563 69.3332 113.825C69.3324 113.825 70.2717 113.222 70.2715 113.222C70.2687 113.301 70.2647 113.312 70.26 113.346C70.2376 113.486 70.17 113.631 70.0893 113.723L70.2468 113.405C69.565 116.661 69.7958 120.146 70.5581 123.36C70.8201 124.446 71.1535 125.509 71.5513 126.538L71.599 126.769C71.5804 126.36 71.1493 126.085 70.85 126.303L70.8244 126.323L70.8096 126.338C70.7976 126.351 70.7966 126.353 70.7939 126.357C70.792 126.36 70.7873 126.368 70.7886 126.368C70.8791 126.309 70.9667 126.158 71.0482 126.041C71.453 125.409 71.8092 124.719 72.1649 124.037C72.2709 123.826 72.551 123.975 72.4935 124.204Z" fill="#32356B"/>
<path d="M84.4008 106.544C88.6175 107.511 91.7408 110.066 91.3777 112.251L90.8971 115.143C90.7886 115.796 90.3808 116.343 89.7498 116.763C88.6096 117.52 86.7394 117.862 84.5882 117.668C83.9479 117.611 83.2836 117.506 82.6051 117.351C78.3895 116.385 75.2662 113.829 75.6293 111.644L76.1098 108.752C76.4729 106.567 80.1852 105.578 84.4008 106.544Z" fill="#FFA04A"/>
<path d="M76.7549 114.361L77.2596 111.323C77.2596 111.323 77.5659 112.371 79.2913 113.018C81.0167 113.665 81.5875 113.892 81.5875 113.892L81.1156 116.731C81.1156 116.731 78.3867 115.457 78.3345 115.432C78.2824 115.407 76.7549 114.361 76.7549 114.361Z" fill="#FFCD37"/>
<path d="M90.3271 113.511C90.3271 113.511 89.996 115.319 89.7505 116.762C88.6102 117.519 86.7401 117.861 84.5889 117.667C84.8025 116.382 85.1875 114.065 85.1875 114.065L90.3271 113.511Z" fill="#DD6726"/>
<path d="M91.3768 112.246C91.74 110.06 88.6165 107.505 84.4003 106.539C80.1841 105.573 76.4718 106.561 76.1087 108.747C75.7456 110.933 78.8691 113.488 83.0852 114.454C87.3014 115.42 91.0137 114.432 91.3768 112.246Z" fill="#FFCD37"/>
<path d="M85.7466 118.244C84.7215 118.244 83.6276 118.116 82.5201 117.862C77.9953 116.825 74.777 114.05 75.1935 111.544L75.6739 108.653C76.0902 106.146 79.9605 104.996 84.4859 106.033C85.9229 106.362 87.2968 106.889 88.4592 107.556C88.6641 107.674 88.8645 107.797 89.055 107.923C89.1507 107.986 89.2442 108.05 89.3354 108.114C91.1447 109.394 92.0476 110.939 91.8126 112.352L91.3322 115.243C91.1208 116.515 90.0418 117.472 88.294 117.937C87.5265 118.142 86.664 118.244 85.7466 118.244ZM81.2927 106.697C78.6047 106.697 76.7466 107.638 76.5448 108.852L76.0644 111.743C75.7936 113.373 78.4482 115.867 82.6903 116.839C84.6699 117.293 86.5904 117.322 88.0977 116.921C89.4619 116.557 90.3233 115.873 90.4613 115.043L90.9418 112.152C91.0986 111.208 90.3269 110.033 88.8777 109.007C88.794 108.948 88.7084 108.89 88.6206 108.832C88.4446 108.716 88.2591 108.602 88.0693 108.493C86.9757 107.865 85.6778 107.368 84.3158 107.056C83.233 106.808 82.2139 106.697 81.2927 106.697Z" fill="#32356B"/>
<path d="M79.7076 113.339C74.0018 110.626 75.1013 105.988 81.0315 105.818C83.5653 105.762 86.1001 106.377 88.385 107.675C89.5291 108.363 90.6619 109.198 91.3377 110.549C91.9271 111.708 91.6696 113.031 90.7319 113.802C89.3954 114.866 87.7063 114.997 86.1462 114.95C86.0241 114.942 86.0286 114.732 86.1474 114.727C87.3559 114.667 88.6076 114.499 89.7094 113.909C92.8826 112.148 90.1397 109.401 88.1112 108.336C85.9211 107.142 83.4604 106.548 81.0472 106.579C77.6673 106.589 74.2903 108.559 78.2078 112.033C78.7019 112.45 79.2349 112.811 79.7849 113.135C79.8929 113.197 79.8168 113.39 79.7076 113.339Z" fill="#32356B"/>
<path d="M89.8569 111.895C90.1241 110.287 87.6033 108.355 84.2265 107.582C80.8497 106.808 77.8957 107.485 77.6284 109.093C77.3612 110.702 79.882 112.633 83.2588 113.407C86.6356 114.181 89.5896 113.504 89.8569 111.895Z" fill="#FFA04A"/>
<path d="M84.2282 107.586C87.6055 108.36 90.1258 110.292 89.8584 111.901C89.8334 112.051 89.7848 112.194 89.7147 112.328C89.7147 112.328 89.7147 112.328 89.7144 112.33C89.0314 113.623 86.32 114.113 83.2601 113.412C80.5635 112.794 78.4122 111.438 77.7922 110.096C77.6358 109.759 77.5759 109.422 77.6297 109.098C77.8971 107.489 80.852 106.812 84.2282 107.586Z" fill="#DD6726"/>
<path d="M84.2372 108.516C87.215 109.198 89.5054 110.832 89.7145 112.329C89.7145 112.329 89.7145 112.329 89.7143 112.33C89.0312 113.624 86.3198 114.114 83.2599 113.413C80.5633 112.795 78.412 111.438 77.792 110.097C77.7928 110.085 77.7945 110.075 77.7964 110.063C78.0638 108.454 80.9474 107.762 84.2372 108.516Z" fill="#FFA04A"/>
<path d="M86.9371 111.531L86.3764 111.403C86.3718 111.717 86.2341 111.926 85.9567 112.013C85.6701 112.104 85.2308 112.083 84.6462 111.949L84.4165 111.896L84.4682 110.97L84.6263 111.007C85.0129 111.095 85.2038 111.061 85.1992 110.908C85.1972 110.844 85.1644 110.79 85.1012 110.747C85.0384 110.704 84.9653 110.672 84.8816 110.653C84.7335 110.619 84.5808 110.631 84.4211 110.689L83.233 111.127C82.7475 111.307 82.2368 111.343 81.7246 111.226C81.4478 111.162 81.2211 111.066 81.0469 110.938C80.876 110.812 80.7583 110.673 80.693 110.522C80.6296 110.375 80.6157 110.231 80.6487 110.09L80.1934 109.986L80.4144 109.636L80.8378 109.733C81.011 109.529 81.258 109.409 81.579 109.367C81.8906 109.326 82.2573 109.354 82.6858 109.453L82.4686 110.125L82.2349 110.071C82.1319 110.047 82.0468 110.045 81.9792 110.064C81.9111 110.083 81.8662 110.119 81.8447 110.172C81.8206 110.232 81.8284 110.284 81.8686 110.326C81.9091 110.369 81.9734 110.401 82.0613 110.421C82.1869 110.45 82.3964 110.418 82.6819 110.329L83.7824 109.983C83.9314 109.936 84.105 109.908 84.3032 109.897C84.4986 109.886 84.7154 109.909 84.9556 109.964C85.316 110.046 85.6092 110.176 85.8411 110.357C86.0811 110.545 86.2407 110.754 86.3168 110.989L86.8442 111.11L86.9371 111.531Z" fill="#FFCD37"/>
<path d="M108.199 128.503C99.7754 130.211 90.143 126.752 81.7194 128.46C81.1898 128.566 80.6581 128.214 80.5245 127.644C79.5101 123.308 78.4956 118.972 77.4812 114.636C77.3479 114.066 77.6566 113.463 78.1774 113.32C86.4673 111.041 95.966 113.928 104.256 111.648C104.777 111.505 105.315 111.884 105.465 112.526C106.604 117.392 107.742 122.259 108.881 127.126C109.031 127.767 108.729 128.396 108.199 128.503Z" fill="#46BC81"/>
<path d="M102.781 129.64C100.172 129.64 97.5176 129.383 94.914 129.131C90.5105 128.703 85.957 128.262 81.8142 129.102C80.9989 129.265 80.1972 128.701 79.9901 127.817L76.9468 114.808C76.8431 114.365 76.8977 113.9 77.1005 113.499C77.3097 113.086 77.6476 112.797 78.0517 112.686C82.267 111.527 86.8249 111.683 91.2335 111.833C95.5702 111.981 100.055 112.135 104.13 111.014C104.95 110.788 105.772 111.376 106.001 112.353L109.416 126.953C109.534 127.455 109.471 127.983 109.243 128.403C109.028 128.801 108.691 129.065 108.294 129.145C106.504 129.508 104.654 129.64 102.781 129.64ZM87.1382 127.322C89.7469 127.322 92.4018 127.58 95.0054 127.832C99.409 128.259 103.962 128.701 108.105 127.861C108.105 127.861 108.106 127.861 108.106 127.861C108.193 127.843 108.26 127.791 108.307 127.704C108.367 127.594 108.381 127.446 108.347 127.299L104.931 112.698C104.861 112.4 104.62 112.217 104.383 112.283C100.168 113.442 95.6093 113.286 91.2012 113.135C86.8637 112.987 82.3789 112.834 78.3045 113.955C78.1967 113.984 78.1077 114.059 78.0539 114.165C78.0066 114.258 77.9934 114.364 78.0166 114.463L81.0599 127.471C81.1157 127.71 81.3762 127.869 81.6262 127.818C83.4154 127.455 85.265 127.322 87.1382 127.322Z" fill="#32356B"/>
<path d="M104.712 116.192C105.338 118.867 105.964 121.542 106.59 124.218C106.485 124.216 106.382 124.224 106.278 124.242C105.256 124.427 104.64 125.482 104.923 126.694C104.952 126.817 104.989 126.937 105.035 127.053C98.2392 127.671 90.8553 125.774 84.0597 126.392C84.0525 126.282 84.0356 126.171 84.0091 126.058C83.7485 124.943 82.6915 124.114 81.6694 124.298C81.5655 124.317 81.4663 124.345 81.3717 124.383C80.8067 121.969 80.2417 119.554 79.6768 117.139C79.7795 117.135 79.8824 117.123 79.9855 117.101C81.0008 116.887 81.6292 115.885 81.3676 114.767C81.3411 114.654 81.3064 114.545 81.2632 114.439C87.9767 113.47 95.2785 115.016 101.992 114.047C102.002 114.167 102.021 114.289 102.05 114.412C102.333 115.621 103.402 116.503 104.417 116.289C104.52 116.268 104.618 116.235 104.712 116.192Z" fill="#0F6D64"/>
<path d="M96.3049 120.677C96.7597 122.621 95.6848 124.097 93.898 123.947C92.1111 123.796 90.3107 122.171 89.8704 120.289C89.4293 118.403 90.5041 116.928 92.2773 117.02C94.0507 117.112 95.8509 118.738 96.3049 120.677Z" fill="#46BC81"/>
<path d="M86.9353 120.323C87.1619 121.292 86.6062 122.061 85.704 122.083C84.8016 122.104 83.8989 121.39 83.6761 120.438C83.4535 119.486 83.9923 118.645 84.8909 118.608C85.7894 118.57 86.7091 119.357 86.9353 120.323Z" fill="#46BC81"/>
<path d="M99.2989 120.892C99.5359 121.906 100.467 122.743 101.37 122.721C102.272 122.699 102.799 121.808 102.558 120.778C102.317 119.748 101.403 118.983 100.504 119.02C99.6053 119.058 99.0614 119.877 99.2989 120.892Z" fill="#46BC81"/>
<path d="M92.3041 126.58C96.5208 127.547 99.6441 130.103 99.281 132.288L98.8005 135.179C98.692 135.832 98.2841 136.379 97.6531 136.799C96.5129 137.556 94.6428 137.898 92.4915 137.704C91.8512 137.647 91.1869 137.543 90.5084 137.387C86.2928 136.421 83.1696 133.865 83.5326 131.68L84.0132 128.788C84.3762 126.603 88.0885 125.614 92.3041 126.58Z" fill="#FFA04A"/>
<path d="M84.6582 134.397L85.163 131.359C85.163 131.359 85.4692 132.407 87.1946 133.054C88.92 133.701 89.4908 133.928 89.4908 133.928L89.019 136.767C89.019 136.767 86.29 135.493 86.2379 135.468C86.1857 135.443 84.6582 134.397 84.6582 134.397Z" fill="#FFCD37"/>
<path d="M98.2295 133.547C98.2295 133.547 97.8983 135.355 97.6528 136.798C96.5126 137.555 94.6425 137.898 92.4912 137.703C92.7048 136.418 93.0899 134.101 93.0899 134.101L98.2295 133.547Z" fill="#DD6726"/>
<path d="M99.2792 132.281C99.6423 130.095 96.5188 127.54 92.3026 126.574C88.0865 125.608 84.3742 126.597 84.011 128.782C83.6479 130.968 86.7714 133.523 90.9876 134.49C95.2038 135.456 98.916 134.467 99.2792 132.281Z" fill="#FFCD37"/>
<path d="M93.6499 138.28C92.6248 138.28 91.5309 138.152 90.4235 137.899C85.8986 136.862 82.6803 134.086 83.0968 131.58L83.5771 128.689C83.5771 128.689 83.5771 128.689 83.5771 128.689C83.9935 126.183 87.864 125.032 92.3893 126.069C93.8264 126.398 95.2003 126.925 96.3625 127.592C96.5674 127.71 96.7678 127.833 96.9583 127.959C97.054 128.022 97.1475 128.086 97.2387 128.151C99.048 129.43 99.9509 130.975 99.7159 132.388L99.2355 135.279C99.0241 136.551 97.9451 137.508 96.1973 137.973C95.4298 138.178 94.5673 138.28 93.6499 138.28ZM84.4479 128.888L83.9677 131.779C83.6969 133.409 86.3513 135.903 90.5936 136.876C92.5733 137.329 94.4936 137.358 96.001 136.957C97.3652 136.594 98.2267 135.909 98.3646 135.079L98.8451 132.188C99.0019 131.244 98.2303 130.069 96.781 129.043C96.6973 128.984 96.6114 128.926 96.5236 128.868C96.348 128.752 96.1624 128.638 95.9726 128.529C94.8792 127.901 93.5813 127.404 92.2191 127.092C87.977 126.119 84.7192 127.258 84.4479 128.888Z" fill="#32356B"/>
<path d="M87.6099 133.375C81.9042 130.663 83.0035 126.024 88.9338 125.854C91.4675 125.799 94.0025 126.413 96.2873 127.711C97.4315 128.399 98.5642 129.235 99.24 130.586C99.8294 131.744 99.5718 133.067 98.6343 133.838C97.2977 134.902 95.6087 135.033 94.0485 134.986C93.9262 134.978 93.9309 134.768 94.0498 134.763C95.2581 134.703 96.51 134.535 97.6117 133.945C100.785 132.184 98.0419 129.437 96.0136 128.372C93.8233 127.178 91.3628 126.584 88.9495 126.616C85.5696 126.625 82.1927 128.595 86.1101 132.069C86.6041 132.486 87.1372 132.847 87.6873 133.171C87.7951 133.233 87.7191 133.426 87.6099 133.375Z" fill="#32356B"/>
<path d="M97.7602 131.93C98.0274 130.322 95.5066 128.391 92.1298 127.617C88.753 126.843 85.799 127.52 85.5317 129.128C85.2645 130.737 87.7853 132.668 91.1621 133.442C94.5389 134.216 97.4929 133.539 97.7602 131.93Z" fill="#FFA04A"/>
<path d="M92.1305 127.622C95.5078 128.396 98.0281 130.328 97.7607 131.937C97.7357 132.087 97.6871 132.23 97.617 132.364C97.617 132.364 97.617 132.364 97.6168 132.366C96.9338 133.659 94.2223 134.149 91.1624 133.448C88.4658 132.83 86.3145 131.474 85.6945 130.132C85.5382 129.795 85.4782 129.458 85.532 129.134C85.7994 127.525 88.7543 126.848 92.1305 127.622Z" fill="#DD6726"/>
<path d="M92.1405 128.552C95.1183 129.235 97.4087 130.868 97.6178 132.365C97.6178 132.365 97.6178 132.365 97.6176 132.366C96.9345 133.66 94.2231 134.15 91.1632 133.449C88.4666 132.831 86.3153 131.474 85.6953 130.133C85.6962 130.121 85.6979 130.111 85.6998 130.099C85.9671 128.49 88.8507 127.798 92.1405 128.552Z" fill="#FFA04A"/>
<path d="M94.8405 131.567L94.2797 131.438C94.2751 131.752 94.1374 131.961 93.86 132.048C93.5734 132.139 93.1341 132.118 92.5495 131.984L92.3199 131.931L92.3715 131.006L92.5296 131.042C92.9162 131.13 93.1071 131.096 93.1025 130.944C93.1005 130.879 93.0678 130.826 93.0045 130.782C92.9417 130.739 92.8687 130.708 92.785 130.688C92.6368 130.655 92.4842 130.666 92.3244 130.724L91.1363 131.162C90.6508 131.342 90.1401 131.378 89.628 131.261C89.3512 131.198 89.1244 131.101 88.9503 130.973C88.7793 130.848 88.6616 130.708 88.5963 130.557C88.533 130.41 88.519 130.266 88.5521 130.125L88.0967 130.021L88.3177 129.671L88.7411 129.768C88.9144 129.564 89.1613 129.445 89.4823 129.402C89.7939 129.361 90.1606 129.39 90.5891 129.488L90.372 130.16L90.1382 130.106C90.0352 130.083 89.9501 130.08 89.8826 130.099C89.8144 130.118 89.7695 130.154 89.7481 130.207C89.7239 130.267 89.7317 130.319 89.7719 130.361C89.8124 130.404 89.8767 130.436 89.9646 130.456C90.0902 130.485 90.2997 130.454 90.5852 130.364L91.6857 130.018C91.8347 129.972 92.0083 129.943 92.2066 129.932C92.402 129.922 92.6187 129.944 92.8589 129.999C93.2193 130.082 93.5126 130.211 93.7445 130.392C93.9844 130.58 94.144 130.789 94.2201 131.024L94.7475 131.145L94.8405 131.567Z" fill="#FFCD37"/>
<path d="M118.945 117.789C118.954 118.894 118.91 119.925 118.821 120.884C118.77 121.463 118.701 122.018 118.619 122.547C118.444 123.709 118.202 124.756 117.916 125.694C117.033 128.594 115.724 130.483 114.575 131.672C113.789 132.336 112.973 132.94 112.136 133.485C112.134 133.488 112.132 133.488 112.132 133.488C107.932 136.213 103.151 137.396 98.3607 136.755C97.7972 136.68 97.196 136.169 97.014 135.65C95.6362 131.703 94.2562 127.755 92.8785 123.805C92.6965 123.287 92.9872 122.904 93.5285 122.914C102.128 123.104 110.703 116.934 115.493 106.212C115.795 105.537 116.203 105.493 116.427 106.136C117.131 108.151 117.836 110.167 118.539 112.181C118.539 112.181 118.539 112.184 118.542 112.189C118.555 112.257 118.641 112.703 118.679 113.336C118.857 114.941 118.941 116.423 118.945 117.789Z" fill="#46BC81"/>
<path d="M100.932 137.578C100.055 137.578 99.1766 137.52 98.2982 137.402C97.5389 137.3 96.7666 136.654 96.5015 135.898L94.7749 130.954C93.9715 128.654 93.168 126.353 92.3655 124.052C92.216 123.626 92.2439 123.185 92.4425 122.843C92.6617 122.465 93.0623 122.253 93.5379 122.263C102.19 122.451 110.41 116.188 115.002 105.909C115.359 105.112 115.811 105.016 116.053 105.028C116.233 105.038 116.681 105.143 116.941 105.89L119.053 111.934C119.057 111.947 119.062 111.961 119.065 111.974C119.157 112.279 119.043 112.623 118.79 112.772C118.516 112.933 118.183 112.802 118.046 112.48C118.036 112.459 118.028 112.436 118.021 112.412L115.971 106.545C111.18 117.244 102.581 123.764 93.5184 123.565C93.4672 123.564 93.4273 123.57 93.3984 123.577C94.1991 125.872 95.0003 128.166 95.8012 130.459L97.5273 135.403C97.6248 135.68 98.0465 136.057 98.4239 136.108C103.047 136.726 107.694 135.623 111.864 132.917C111.867 132.915 111.871 132.913 111.874 132.911C112.7 132.373 113.5 131.778 114.251 131.143C114.499 130.933 114.846 130.999 115.025 131.291C115.204 131.583 115.148 131.99 114.899 132.2C114.111 132.866 113.273 133.49 112.405 134.055C112.402 134.057 112.399 134.059 112.395 134.061C108.815 136.383 104.898 137.578 100.932 137.578Z" fill="#32356B"/>
<path d="M118.945 117.788C118.954 118.893 118.91 119.925 118.821 120.884C118.684 121.423 118.613 121.999 118.619 122.546C118.444 123.708 118.202 124.756 117.916 125.694C113.368 131.723 107.135 135.183 100.677 135.366C100.661 135.264 100.635 135.162 100.597 135.058C100.238 134.021 99.084 133.242 98.0168 133.185C97.9081 133.18 97.8038 133.182 97.7062 133.193C96.9341 130.978 96.1598 128.766 95.3877 126.551C95.4964 126.572 95.6029 126.582 95.7094 126.582C96.7588 126.587 97.3135 125.652 96.9518 124.62C96.9163 124.516 96.8719 124.414 96.8187 124.315C103.577 123.502 110.071 118.869 114.47 111.303C114.499 111.441 114.535 111.571 114.577 111.691C114.994 112.89 115.897 112.949 116.518 111.727C116.58 111.602 116.638 111.469 116.689 111.329C117.441 113.481 118.193 115.636 118.945 117.788Z" fill="#0F6D64"/>
<path d="M111.339 124.222C111.997 126.104 111.352 128.671 109.78 129.652C108.211 130.641 106.357 129.746 105.736 127.966C105.111 126.178 105.926 124.097 107.459 123.006C108.995 121.922 110.679 122.331 111.339 124.222Z" fill="#46BC81"/>
<path d="M102.987 129.162C103.304 130.071 102.851 131.023 101.96 131.199C101.07 131.377 100.091 130.733 99.7829 129.852C99.4745 128.969 99.9471 128.16 100.828 127.954C101.708 127.751 102.669 128.251 102.987 129.162Z" fill="#46BC81"/>
<path d="M113.726 121.987C114.071 122.978 114.922 123.165 115.582 122.329C116.243 121.495 116.453 119.934 116.098 118.916C115.741 117.896 114.962 117.826 114.311 118.688C113.66 119.551 113.379 120.995 113.726 121.987Z" fill="#46BC81"/>
<path d="M118.679 113.987C118.403 113.987 118.164 113.745 118.129 113.416C118.093 113.073 118.049 112.704 117.994 112.288C117.948 111.942 118.144 111.615 118.437 111.549C118.73 111.483 119.015 111.7 119.082 112.042C119.108 112.172 119.195 112.645 119.233 113.289C119.254 113.642 119.032 113.949 118.733 113.983C118.715 113.985 118.697 113.987 118.679 113.987Z" fill="#32356B"/>
<path d="M114.575 131.672C113.299 132.993 112.218 133.451 112.136 133.485C112.134 133.488 112.132 133.488 112.132 133.488C116.691 127.802 114.311 118.688 114.311 118.688C118.444 118.769 118.788 115.225 118.679 113.336C119.864 124.027 116.895 129.269 114.575 131.672Z" fill="#46BC81"/>
<path d="M112.132 134.139C111.911 134.139 111.71 133.985 111.623 133.746C111.535 133.507 111.576 133.23 111.728 133.041C116.008 127.704 113.803 118.966 113.78 118.878C113.728 118.679 113.761 118.462 113.867 118.296C113.974 118.13 114.143 118.033 114.32 118.036C115.656 118.059 116.659 117.681 117.288 116.903C118.091 115.912 118.187 114.44 118.126 113.38C118.106 113.029 118.326 112.722 118.625 112.687C118.921 112.655 119.191 112.903 119.229 113.252C120.418 123.98 117.554 129.456 114.941 132.16C113.655 133.492 112.539 134.006 112.34 134.091C112.274 134.122 112.203 134.139 112.132 134.139ZM115.024 119.317C115.424 121.333 116.175 126.652 114.163 131.229C114.178 131.213 114.193 131.198 114.208 131.183V131.183C116.282 129.036 118.524 124.954 118.391 117.382C118.301 117.526 118.202 117.666 118.093 117.801C117.368 118.696 116.338 119.204 115.024 119.317Z" fill="#32356B"/>
<path d="M110.443 113.263C112.226 117.692 111.102 122.71 107.932 124.47L105.87 125.615C104.992 126.103 104.05 126.288 103.107 126.209C101.83 126.103 100.552 125.506 99.4394 124.509C98.873 124.001 98.3477 123.389 97.8881 122.685C97.8622 122.645 97.8368 122.605 97.8114 122.566C97.7907 122.532 97.7705 122.5 97.7503 122.468C97.43 121.952 97.1442 121.388 96.9003 120.782C95.1174 116.353 96.2424 111.333 99.4125 109.573L101.474 108.429C104.644 106.668 108.66 108.834 110.443 113.263Z" fill="#FFA04A"/>
<path d="M105.194 125.066C105.056 125.11 103.947 125.733 103.107 126.209C101.829 126.102 100.552 125.506 99.4391 124.509C98.8688 123.949 98.3128 123.324 97.8879 122.685C97.862 122.644 97.8365 122.605 97.8111 122.566C97.7904 122.532 97.7702 122.5 97.75 122.467L99.7913 121.334C99.7913 121.334 101.386 123.528 102.749 124.111C104.112 124.693 105.419 124.994 105.194 125.066Z" fill="#DD6726"/>
<path d="M96.6029 112.622L99.0116 111.284C99.0116 111.284 98.2592 112.427 98.1448 113.914C98.0304 115.4 98.6011 118.605 98.6011 118.605L96.5563 119.74C96.5563 119.74 96.0788 116.522 96.0657 115.924C96.0525 115.327 96.6029 112.622 96.6029 112.622Z" fill="#FFCD37"/>
<path d="M107.934 124.473C111.105 122.713 112.23 117.695 110.447 113.265C108.664 108.836 104.648 106.672 101.477 108.432C98.3066 110.192 97.1818 115.21 98.9649 119.64C100.748 124.07 104.764 126.234 107.934 124.473Z" fill="#FFCD37"/>
<path d="M107.378 123.094C109.9 121.694 110.747 117.586 109.271 113.919C107.795 110.251 104.554 108.413 102.032 109.813C99.5101 111.213 98.6626 115.321 100.139 118.989C101.615 122.656 104.856 124.495 107.378 123.094Z" fill="#FFA04A"/>
<path d="M109.912 118.805C109.957 117.508 109.728 116.12 109.194 114.792C107.719 111.13 104.473 109.289 101.955 110.687C100.558 111.462 99.6751 113.074 99.418 114.979C99.4952 112.698 100.423 110.699 102.029 109.807C104.546 108.41 107.794 110.252 109.268 113.914C109.926 115.549 110.122 117.273 109.912 118.805Z" fill="#DD6726"/>
<path d="M106.276 121.361L105.96 120.574C105.463 120.756 105.036 120.709 104.679 120.433C104.322 120.158 103.995 119.651 103.698 118.912L103.581 118.622L104.875 117.903L104.965 118.125C105.183 118.666 105.412 118.87 105.653 118.737C105.757 118.679 105.815 118.591 105.826 118.473C105.838 118.354 105.819 118.234 105.769 118.11C105.681 117.892 105.514 117.714 105.267 117.576L103.586 116.643C102.97 116.305 102.531 115.811 102.269 115.16C102.128 114.808 102.059 114.466 102.064 114.134C102.068 113.803 102.13 113.499 102.248 113.225C102.367 112.95 102.526 112.723 102.727 112.543L102.47 111.904L103.113 111.547L103.364 112.17C103.819 112.012 104.241 112.081 104.631 112.377C105.02 112.673 105.353 113.166 105.631 113.855L104.303 114.592L104.165 114.249C104.104 114.098 104.029 113.998 103.939 113.949C103.849 113.899 103.757 113.901 103.663 113.953C103.559 114.011 103.496 114.091 103.474 114.194C103.451 114.297 103.465 114.41 103.514 114.533C103.585 114.709 103.813 114.901 104.197 115.109L105.825 115.988C106.065 116.117 106.302 116.304 106.535 116.549C106.769 116.793 106.964 117.109 107.119 117.496C107.353 118.077 107.414 118.61 107.303 119.095C107.192 119.581 106.96 119.958 106.608 120.227L106.92 121.003L106.276 121.361Z" fill="#FFCD37"/>
<path d="M103.549 126.74C100.774 126.741 97.9234 124.543 96.473 120.94C95.5595 118.67 95.3293 116.183 95.8248 113.936C96.3278 111.655 97.5161 109.893 99.1705 108.974L101.232 107.83C103.588 106.522 106.536 107.226 108.741 109.625C108.926 109.826 109.107 110.04 109.278 110.261C109.45 110.484 109.617 110.719 109.775 110.961C109.854 111.083 109.932 111.208 110.008 111.335C110.159 111.589 110.304 111.856 110.438 112.126C110.573 112.4 110.701 112.686 110.818 112.975C111.61 114.944 111.893 117.137 111.614 119.152C111.247 121.802 109.974 123.912 108.12 124.941C108.116 124.943 108.113 124.945 108.109 124.947L106.059 126.086C105.259 126.53 104.407 126.74 103.549 126.74ZM103.74 108.223C103 108.223 102.277 108.402 101.611 108.772L99.5499 109.916C98.1376 110.7 97.1198 112.221 96.6839 114.197C96.2404 116.209 96.4504 118.445 97.2754 120.494C98.9653 124.692 102.735 126.778 105.679 125.143L107.741 123.999C107.743 123.998 107.745 123.997 107.747 123.995C109.329 123.114 110.419 121.288 110.738 118.985C110.988 117.176 110.732 115.2 110.015 113.421C109.91 113.158 109.793 112.898 109.67 112.65C109.67 112.65 109.67 112.65 109.67 112.65C109.549 112.404 109.418 112.163 109.281 111.933C109.212 111.817 109.142 111.705 109.07 111.595C108.928 111.376 108.777 111.163 108.621 110.962C108.467 110.764 108.305 110.571 108.138 110.39C106.836 108.974 105.254 108.223 103.74 108.223Z" fill="#32356B"/>
<path d="M98.1066 116.711C97.5199 113.123 98.9009 109.046 102.008 107.824C104.641 106.764 107.573 108.191 109.329 110.58C111.522 113.481 112.328 117.928 110.85 121.484C110.156 123.133 108.899 124.469 107.397 125.02C104.9 125.985 102.143 124.647 100.462 122.418C100.383 122.308 100.512 122.166 100.6 122.264C101.722 123.56 103.153 124.514 104.692 124.756C105.743 124.923 106.82 124.766 107.775 124.229C108.11 124.033 108.444 123.793 108.74 123.52L108.854 123.421L108.958 123.306C111.935 120.172 111.345 114.369 108.833 111.093C106.167 107.455 101.413 106.881 99.1577 111.362C98.3703 112.95 98.1248 114.856 98.2948 116.679C98.3094 116.82 98.128 116.85 98.1066 116.711Z" fill="#32356B"/>
<g opacity="0.44">
<path d="M77.5531 65.6299C77.6034 65.6065 77.6563 65.5837 77.7117 65.5615C80.5809 64.4112 83.3628 67.6009 82.5439 71.0291C82.1307 72.7592 81.7821 74.9105 81.6541 77.4909V118.469C81.6541 118.469 82.2812 129.121 82.9743 131.912C83.6674 134.703 72.6768 133.772 71.2246 121.756V78.7312C71.2246 78.7312 71.7358 69.7128 77.5531 65.6299Z" fill="white"/>
</g>
<path d="M75.3145 80.6875H113.458V91.5987C100.062 92.7732 87.3477 92.6933 75.3145 91.5987V80.6875Z" fill="white"/>
<path d="M94.2115 93.0674C87.8254 93.0674 81.4989 92.7843 75.2736 92.2181C74.9981 92.193 74.7852 91.923 74.7852 91.5982V80.6871C74.7852 80.3437 75.0222 80.0654 75.3145 80.0654H113.458C113.75 80.0654 113.987 80.3437 113.987 80.6871V91.5982C113.987 91.9236 113.773 92.194 113.497 92.2182C107.041 92.7843 100.596 93.0674 94.2115 93.0674ZM75.8439 91.0223C87.93 92.0922 100.401 92.0915 112.928 91.0207V81.3088H75.8439V91.0223Z" fill="#030072"/>
<g opacity="0.89">
<path d="M99.6045 82.7336C99.1852 82.5524 98.7697 82.3676 98.3544 82.1756C98.1074 82.5346 97.8645 82.9007 97.6254 83.2668C97.206 83.0784 96.7867 82.8865 96.3674 82.6874C96.1244 83.0571 95.8853 83.4338 95.6502 83.8141C95.2269 83.6186 94.8075 83.416 94.3882 83.2099C94.1452 83.5937 93.9101 83.9811 93.6788 84.3721C93.2516 84.1695 92.8284 83.9563 92.4051 83.743C92.1661 84.1375 91.9348 84.5392 91.7075 84.9443C91.1824 83.3414 90.7395 81.7136 90.3711 80.068C89.3874 75.6075 88.9994 71.0119 89.2385 66.3809C89.5638 66.7149 89.893 67.0455 90.23 67.3725C90.5827 67.0491 90.9433 66.7327 91.3039 66.4235C91.6291 66.7505 91.9623 67.0704 92.2954 67.3867C92.6481 67.0775 93.0087 66.7754 93.3653 66.4768C93.6945 66.7932 94.0237 67.1059 94.3607 67.4151C94.7135 67.1166 95.0701 66.8251 95.4306 66.5408C95.7598 66.85 96.093 67.1521 96.4261 67.4542C96.7788 67.1699 97.1394 66.8891 97.496 66.619C97.2491 71.1897 97.7116 75.7141 98.8285 80.068C99.0598 80.9636 99.3184 81.8522 99.6045 82.7336Z" fill="#FFDB45"/>
</g>
<g opacity="0.65">
<path d="M95.8833 71.2979C95.8833 72.8611 94.7885 73.4992 93.3181 73.4992C91.8477 73.4992 90.5586 72.8611 90.5586 71.2979C90.5586 69.7348 91.7506 69.1064 93.221 69.1064C94.6914 69.1064 95.8833 69.7348 95.8833 71.2979Z" fill="#F4C040"/>
</g>
<path d="M99.6045 82.734C99.1852 82.5528 98.7697 82.3679 98.3543 82.176C98.1074 82.535 97.8644 82.9011 97.6254 83.2671C97.206 83.0788 96.7867 82.8869 96.3673 82.6878C96.1243 83.0574 95.8853 83.4342 95.6501 83.8145C95.2269 83.619 94.8075 83.4164 94.3882 83.2103C94.1452 83.5941 93.91 83.9815 93.6788 84.3725C93.2516 84.1699 92.8284 83.9566 92.4051 83.7434C92.166 84.1379 91.9348 84.5395 91.7075 84.9447C91.1824 83.3417 90.7395 81.7139 90.3711 80.0684H98.8285C99.0598 80.964 99.3184 81.8526 99.6045 82.734Z" fill="#F4C040"/>
<path d="M85.9832 86.5824C85.9832 86.6608 86.0294 86.7812 86.1422 86.8172C86.901 87.0882 87.2188 87.6904 87.2188 88.2321C87.2188 89.1896 86.337 90.0085 85.1424 89.5508C84.9066 89.4605 84.7783 89.1054 84.8554 88.8284C84.9322 88.5513 85.2141 88.3525 85.45 88.443C85.6397 88.5152 86.255 88.6477 86.255 88.2321C86.255 88.0516 86.0806 87.9312 85.8858 87.8649C85.2809 87.6602 85.0194 86.9979 85.0194 86.5824C85.0194 85.7456 85.609 84.9387 86.9522 85.3482C87.1932 85.4203 87.3368 85.7516 87.2752 86.0345C87.2137 86.3175 86.947 86.5284 86.7062 86.456C86.5728 86.4198 85.9832 86.2272 85.9832 86.5824Z" fill="#030072"/>
<path d="M88.7618 85.8666C88.731 85.6378 88.8335 85.3849 89.0131 85.2704C89.2335 85.1319 89.5411 85.2163 89.6642 85.4692C90.2742 86.7878 90.6896 87.8295 91.0895 88.9011C91.192 89.1721 91.0638 89.5092 90.8331 89.6238C90.6075 89.7442 90.305 89.6238 90.2076 89.3588C90.146 89.1962 90.0846 89.0396 90.0231 88.877C89.5411 88.883 89.1361 88.9132 88.5619 88.8951C88.5105 89.0456 88.4645 89.1902 88.4234 89.3227C88.3414 89.5997 88.0901 89.756 87.8594 89.6597C87.6237 89.5574 87.521 89.2503 87.6032 88.9735C87.8748 88.0824 88.3722 86.8299 88.7618 85.8666ZM89.6128 87.8474C89.5 87.5824 89.3872 87.3117 89.2592 87.0226C89.1516 87.2996 89.0439 87.5764 88.9362 87.8534C89.1822 87.8594 89.3975 87.8534 89.6128 87.8474Z" fill="#030072"/>
<path d="M92.8689 88.1721C93.279 87.4315 93.6328 86.3899 93.7404 85.6672C93.7815 85.3844 94.0326 85.1795 94.2787 85.2278C94.5249 85.2818 94.7094 85.5709 94.6634 85.8599C94.5043 86.9617 93.8173 88.6959 93.1662 89.4907C93.0996 89.5689 93.0176 89.6171 92.9303 89.635C92.7304 89.7376 92.4536 89.6893 92.3306 89.4847C91.9459 88.8405 91.3719 87.1965 91.1206 85.8961C91.0641 85.6071 91.2488 85.3059 91.4898 85.2398C91.7358 85.1795 92.0076 85.3602 92.0639 85.6433C92.228 86.4922 92.5664 87.4856 92.8689 88.1721Z" fill="#030072"/>
<path d="M96.0532 89.1782C96.0326 89.4672 95.7916 89.696 95.5455 89.6779C95.2944 89.6538 95.0842 89.3889 95.0994 89.0939C95.161 88.0882 95.1354 87.1971 95.2071 85.7462C95.2225 85.4511 95.4634 85.2163 95.7096 85.2344C95.9609 85.2524 96.1762 85.5174 96.1608 85.8063C96.0889 87.2695 96.1146 88.1606 96.0532 89.1782Z" fill="#030072"/>
<path d="M96.8528 86.0829C96.8273 86.0588 96.8068 86.0289 96.7811 86.0048C96.6017 85.806 96.612 85.4266 96.7811 85.216C96.9504 84.9993 97.2734 84.9631 97.4579 85.1617C98.0525 85.818 98.7138 86.679 99.242 87.4678C99.2676 86.7453 99.3035 86.0649 99.3343 85.6675C99.3549 85.3786 99.5957 85.1497 99.8469 85.1738C100.093 85.204 100.303 85.4749 100.278 85.764C100.226 86.4563 100.175 87.9917 100.16 89.1297C100.155 89.3886 99.97 89.6115 99.7598 89.6595C99.5496 89.7319 99.2984 89.6415 99.1958 89.4127C98.9343 88.8408 98.3857 88.0037 97.7808 87.2089C97.7449 87.9376 97.704 88.6118 97.6732 89.184C97.6578 89.4791 97.4168 89.7078 97.1656 89.6897C96.9195 89.6716 96.7042 89.4007 96.7196 89.1118C96.7657 88.2686 96.8273 87.2269 96.8528 86.0829Z" fill="#030072"/>
<path d="M103.656 87.0527C103.938 87.0346 104.164 87.2875 104.159 87.6125C104.149 88.3171 104.072 88.7205 104.133 89.3467C104.164 89.6356 103.949 89.9186 103.703 89.9488C103.482 89.9789 103.236 89.8103 103.174 89.5634C101.847 89.9307 100.801 89.0697 100.801 87.4982C100.801 85.5955 102.252 84.7766 103.872 85.5113C104.103 85.6136 104.21 85.9808 104.123 86.2518C104.036 86.5288 103.744 86.7154 103.513 86.607C102.785 86.282 101.765 86.3541 101.765 87.4982C101.765 88.4194 102.477 88.6904 103.154 88.4435C103.159 88.3412 103.169 88.2387 103.175 88.1304C103.046 88.1183 102.918 88.1123 102.795 88.1243C102.549 88.1424 102.324 87.9076 102.303 87.6125C102.288 87.3235 102.482 87.0527 102.734 87.0286C103.021 87.0044 103.328 87.0705 103.656 87.0527Z" fill="#030072"/>
</svg>
