<svg width="133" height="133" viewBox="0 0 133 133" fill="none" xmlns="http://www.w3.org/2000/svg">
<circle opacity="0.25" cx="66.5" cy="66.5" r="66" fill="#C3DBEC"/>
<rect x="32.5" y="32.5" width="68" height="68" rx="30" fill="#4D94C5"/>
<path d="M66.5 52.2812C63.6878 52.2812 60.9388 53.1152 58.6005 54.6775C56.2622 56.2399 54.4398 58.4606 53.3636 61.0587C52.2874 63.6569 52.0058 66.5158 52.5545 69.2739C53.1031 72.0321 54.4573 74.5656 56.4458 76.5542C58.4344 78.5427 60.9679 79.8969 63.7261 80.4455C66.4842 80.9942 69.3431 80.7126 71.9413 79.6364C74.5394 78.5602 76.7601 76.7378 78.3225 74.3995C79.8848 72.0613 80.7188 69.3122 80.7188 66.5C80.7148 62.7302 79.2155 59.1159 76.5498 56.4502C73.8841 53.7846 70.2698 52.2852 66.5 52.2812ZM65.4063 59.9375C65.4063 59.6474 65.5215 59.3692 65.7266 59.1641C65.9317 58.959 66.2099 58.8438 66.5 58.8438C66.7901 58.8438 67.0683 58.959 67.2734 59.1641C67.4785 59.3692 67.5938 59.6474 67.5938 59.9375V67.5938C67.5938 67.8838 67.4785 68.162 67.2734 68.3671C67.0683 68.5723 66.7901 68.6875 66.5 68.6875C66.2099 68.6875 65.9317 68.5723 65.7266 68.3671C65.5215 68.162 65.4063 67.8838 65.4063 67.5938V59.9375ZM66.5 74.1562C66.1755 74.1562 65.8583 74.06 65.5885 73.8798C65.3187 73.6995 65.1084 73.4432 64.9843 73.1435C64.8601 72.8437 64.8276 72.5138 64.8909 72.1956C64.9542 71.8773 65.1105 71.585 65.3399 71.3555C65.5694 71.1261 65.8617 70.9698 66.1799 70.9065C66.4982 70.8432 66.8281 70.8757 67.1278 70.9999C67.4276 71.1241 67.6839 71.3343 67.8641 71.6041C68.0444 71.8739 68.1406 72.1911 68.1406 72.5156C68.1406 72.9507 67.9678 73.368 67.6601 73.6757C67.3524 73.9834 66.9351 74.1562 66.5 74.1562Z" fill="white"/>
</svg>
