<svg width="16" height="14" viewBox="0 0 16 14" fill="none" xmlns="http://www.w3.org/2000/svg">
<path d="M5.55346 9.06108H4.57485V10.0916H5.55346V9.06108Z" fill="#616061"/>
<path d="M3.59624 11.1221H4.57485V12.1526H3.59624V11.1221Z" fill="#616061"/>
<path d="M6.5321 11.1221H5.55346V12.1526H6.5321V11.1221Z" fill="#616061"/>
<path d="M7.5107 11.1221H8.4893V12.1526H7.5107V11.1221Z" fill="#616061"/>
<path d="M10.4465 11.1221H9.4679V12.1526H10.4465V11.1221Z" fill="#616061"/>
<path d="M11.4252 11.1221H12.4038V12.1526H11.4252V11.1221Z" fill="#616061"/>
<path d="M7.5107 9.06108H6.5321V10.0916H7.5107V9.06108Z" fill="#616061"/>
<path d="M8.4893 9.06108H9.4679V10.0916H8.4893V9.06108Z" fill="#616061"/>
<path d="M11.4252 9.06108H10.4465V10.0916H11.4252V9.06108Z" fill="#616061"/>
<path fill-rule="evenodd" clip-rule="evenodd" d="M2.07957 1.84736C2.07957 0.965282 2.75811 0.25 3.59624 0.25H12.4038C13.2419 0.25 13.9204 0.965282 13.9204 1.84736V6.9079L15.4208 11.6474C15.7486 12.6817 15.0175 13.75 13.9816 13.75H2.01841C0.982459 13.75 0.251367 12.6817 0.579162 11.6474L2.07957 6.9079V1.84736ZM3.59624 1.38368C3.3535 1.38368 3.15567 1.59125 3.15567 1.84736V6.9484H12.8443V1.84736C12.8443 1.64609 12.723 1.47476 12.5529 1.4106C12.5261 1.40054 12.4984 1.39324 12.4687 1.38871C12.4477 1.38544 12.4258 1.38368 12.4038 1.38368H3.59624ZM1.60078 12.006L2.8422 8.0821H13.1578L14.3992 12.006C14.4948 12.3063 14.2826 12.6163 13.9816 12.6163H2.01841C1.87888 12.6163 1.75847 12.5494 1.67819 12.4475C1.58645 12.3302 1.54917 12.1668 1.60078 12.006Z" fill="#616061"/>
</svg>
