<svg width="24" height="24" viewBox="0 0 24 24" fill="none" xmlns="http://www.w3.org/2000/svg">
<path d="M20.4615 2H3.53846C3.13044 2 2.73912 2.16209 2.4506 2.4506C2.16209 2.73912 2 3.13044 2 3.53846V20.4615C2 20.8696 2.16209 21.2609 2.4506 21.5494C2.73912 21.8379 3.13044 22 3.53846 22H20.4615C20.8696 22 21.2609 21.8379 21.5494 21.5494C21.8379 21.2609 22 20.8696 22 20.4615V3.53846C22 3.13044 21.8379 2.73912 21.5494 2.4506C21.2609 2.16209 20.8696 2 20.4615 2ZM8.92308 16.6154C8.92308 16.8194 8.84203 17.0151 8.69777 17.1593C8.55352 17.3036 8.35786 17.3846 8.15385 17.3846C7.94983 17.3846 7.75418 17.3036 7.60992 17.1593C7.46566 17.0151 7.38462 16.8194 7.38462 16.6154V10.4615C7.38462 10.2575 7.46566 10.0619 7.60992 9.91761C7.75418 9.77335 7.94983 9.69231 8.15385 9.69231C8.35786 9.69231 8.55352 9.77335 8.69777 9.91761C8.84203 10.0619 8.92308 10.2575 8.92308 10.4615V16.6154ZM8.15385 8.92308C7.92564 8.92308 7.70255 8.85541 7.5128 8.72862C7.32305 8.60183 7.17516 8.42163 7.08783 8.21079C7.0005 7.99995 6.97765 7.76795 7.02217 7.54413C7.06669 7.3203 7.17659 7.11471 7.33795 6.95334C7.49932 6.79197 7.70492 6.68208 7.92874 6.63756C8.15257 6.59303 8.38457 6.61588 8.5954 6.70322C8.80624 6.79055 8.98645 6.93844 9.11323 7.12819C9.24002 7.31794 9.30769 7.54102 9.30769 7.76923C9.30769 8.07525 9.18613 8.36874 8.96974 8.58512C8.75335 8.80151 8.45987 8.92308 8.15385 8.92308ZM17.3846 16.6154C17.3846 16.8194 17.3036 17.0151 17.1593 17.1593C17.0151 17.3036 16.8194 17.3846 16.6154 17.3846C16.4114 17.3846 16.2157 17.3036 16.0715 17.1593C15.9272 17.0151 15.8462 16.8194 15.8462 16.6154V13.1538C15.8462 12.6438 15.6435 12.1547 15.2829 11.794C14.9223 11.4334 14.4331 11.2308 13.9231 11.2308C13.413 11.2308 12.9239 11.4334 12.5633 11.794C12.2026 12.1547 12 12.6438 12 13.1538V16.6154C12 16.8194 11.919 17.0151 11.7747 17.1593C11.6304 17.3036 11.4348 17.3846 11.2308 17.3846C11.0268 17.3846 10.8311 17.3036 10.6868 17.1593C10.5426 17.0151 10.4615 16.8194 10.4615 16.6154V10.4615C10.4625 10.2731 10.5326 10.0916 10.6585 9.95143C10.7844 9.81125 10.9574 9.72215 11.1446 9.70105C11.3318 9.67994 11.5203 9.72829 11.6742 9.83692C11.8282 9.94555 11.9369 10.1069 11.9798 10.2904C12.5002 9.93738 13.1069 9.73279 13.7348 9.69858C14.3626 9.66437 14.988 9.80183 15.5436 10.0962C16.0993 10.3906 16.5642 10.8308 16.8886 11.3695C17.2129 11.9082 17.3844 12.525 17.3846 13.1538V16.6154Z" fill="#4D94C5"/>
</svg>
