<svg width="128" height="118" viewBox="0 0 128 118" fill="none" xmlns="http://www.w3.org/2000/svg">
<g clip-path="url(#clip0_12_8396)">
<rect width="128" height="118" rx="8" fill="#F9DFC9"/>
<path d="M137.697 98.0201L130.045 103.959L127.804 105.698L96.9269 129.664C95.3222 130.909 93.013 130.618 91.7675 129.014L75.2274 107.704C73.9826 106.1 74.2728 103.79 75.8775 102.544L89.5048 91.9667L93.8797 88.5705L116.648 70.9004C118.252 69.6549 120.562 69.9468 121.807 71.5505L138.347 92.8607C139.593 94.4654 139.301 96.7753 137.697 98.0201Z" fill="#FF8F65"/>
<g opacity="0.45">
<path d="M137.697 98.0204L130.045 103.959C118.973 100.301 101.205 91.9997 93.8793 88.5708L116.647 70.9007C118.252 69.6552 120.562 69.9471 121.807 71.5508L138.347 92.861C139.592 94.4657 139.3 96.7756 137.697 98.0204Z" fill="#FFB39B"/>
</g>
<path d="M91.9876 106.621L85.2922 111.818C84.7957 112.203 84.0808 112.113 83.6954 111.617L79.119 105.72C78.7336 105.224 78.8237 104.509 79.3202 104.123L86.0155 98.9268C86.512 98.5414 87.227 98.6315 87.6124 99.1281L92.1888 105.024C92.5742 105.521 92.4841 106.236 91.9876 106.621Z" fill="#FFB39B"/>
<path d="M129.187 81.1984L82.6045 117.354L86.8381 122.808L133.42 86.6529L129.187 81.1984Z" fill="#384955"/>
<path d="M92.4889 123.475C94.7532 121.633 97.0721 119.861 99.4436 118.161C99.8782 117.849 99.4177 117.155 98.981 117.468C96.6095 119.169 94.2906 120.941 92.0264 122.782C91.6141 123.117 92.0726 123.813 92.4889 123.475Z" fill="#384955"/>
<path d="M102.81 115.647C105.324 113.685 107.821 111.699 110.298 109.69C110.711 109.356 110.253 108.66 109.836 108.998C107.358 111.007 104.862 112.992 102.347 114.954C101.927 115.282 102.386 115.977 102.81 115.647Z" fill="#384955"/>
<path d="M94.0351 125.468C97.7342 122.584 101.526 119.822 105.405 117.186C105.848 116.884 105.387 116.191 104.943 116.493C101.063 119.129 97.2717 121.891 93.5726 124.775C93.1523 125.103 93.6115 125.798 94.0351 125.468Z" fill="#384955"/>
<path d="M81.0725 108.429C81.6288 107.925 82.1851 107.422 82.7413 106.918C83.1178 106.577 83.6427 106.245 83.6425 105.68C83.6422 105.172 83.2347 104.722 82.9472 104.343C82.4954 103.747 82.0121 103.178 81.509 102.625C81.2276 102.315 80.8027 102.81 81.0824 103.118C81.47 103.544 81.8429 103.982 82.1977 104.435C82.4597 104.77 83.0552 105.321 82.9205 105.766C82.7907 106.194 82.1578 106.573 81.8309 106.869C81.4137 107.247 80.9965 107.624 80.5793 108.002C80.2694 108.283 80.7645 108.708 81.0725 108.429Z" fill="#FF8F65"/>
<path d="M82.2704 101.695C82.8089 102.435 83.3475 103.175 83.886 103.915C84.1552 104.285 84.4245 104.655 84.6937 105.025C84.9645 105.397 85.5126 105.914 85.4788 106.367C85.4441 106.833 84.9036 107.154 84.5599 107.428C84.2054 107.711 83.8505 107.993 83.4959 108.275C82.7569 108.863 82.018 109.451 81.279 110.038C80.9531 110.298 81.3122 110.842 81.6411 110.581C82.5278 109.875 83.4144 109.17 84.3012 108.464C84.9148 107.976 85.9831 107.36 86.2246 106.549C86.3384 106.167 86.1191 105.883 85.9092 105.589C85.5547 105.092 85.1911 104.602 84.8321 104.108C84.1589 103.183 83.4858 102.258 82.8126 101.333C82.5664 100.994 82.023 101.355 82.2704 101.695Z" fill="#FF8F65"/>
<path d="M85.0262 99.6428C85.3796 100.158 85.7411 100.667 86.1147 101.168C86.3557 101.491 86.6035 101.936 87.0427 101.993C87.4403 102.045 87.8748 101.8 88.2193 101.636C88.7312 101.392 89.2042 101.094 89.6513 100.746C89.9803 100.49 89.6209 99.9457 89.2892 100.204C88.7996 100.585 87.7611 101.443 87.1316 101.243C86.7648 101.126 86.5322 100.641 86.3099 100.334C86.0576 99.9867 85.8113 99.635 85.5683 99.2809C85.3311 98.9352 84.7883 99.2962 85.0262 99.6428Z" fill="#FF8F65"/>
<path d="M83.8482 100.605C84.4233 101.457 84.9983 102.308 85.5735 103.159C85.8831 103.618 86.1928 104.076 86.5025 104.535C86.7163 104.851 86.9164 105.232 87.2367 105.454C87.7826 105.832 88.3683 105.552 88.8868 105.275C89.7886 104.795 90.6865 104.307 91.5863 103.823C91.9555 103.624 91.5911 103.083 91.2242 103.28C90.5577 103.639 89.8911 103.998 89.2245 104.357C88.8954 104.534 88.5671 104.75 88.2198 104.889C87.667 105.111 87.3914 104.686 87.1109 104.271C86.204 102.928 85.2971 101.586 84.3903 100.243C84.1557 99.8956 83.613 100.257 83.8482 100.605Z" fill="#FF8F65"/>
<path d="M92.1877 108.035C91.7765 107.387 91.0326 106.202 90.1786 106.125C89.8686 106.097 89.6161 106.245 89.3637 106.402C88.8417 106.726 88.3429 107.099 87.8485 107.464C87.3521 107.83 86.8644 108.208 86.3863 108.598C86.0642 108.861 85.6191 109.127 85.4011 109.485C84.9807 110.177 85.6944 111.111 86.1675 111.576C86.4666 111.87 86.8929 111.376 86.5941 111.083C86.3466 110.84 86.103 110.537 86.0024 110.197C85.8644 109.731 86.2559 109.546 86.5696 109.287C87.1346 108.821 87.7132 108.371 88.304 107.938C88.7745 107.593 89.5209 106.839 90.109 106.873C90.7601 106.911 91.3223 107.887 91.6457 108.397C91.8704 108.752 92.4125 108.389 92.1877 108.035Z" fill="#FF8F65"/>
<path d="M104.48 83.5153C105.66 85.1558 106.885 86.7617 108.156 88.3324C108.508 88.7674 109.24 88.2848 108.885 87.8455C107.614 86.2748 106.389 84.6689 105.209 83.0285C104.88 82.5715 104.15 83.0562 104.48 83.5153Z" fill="#FFB39B"/>
<path d="M105.349 83.5066C105.865 82.9397 106.719 82.1289 107.37 83.0048C107.936 83.767 107.111 84.4298 106.541 84.8566C106.091 85.1933 106.575 85.9246 107.027 85.5857C108.072 84.8036 109.014 83.6064 107.988 82.3832C106.935 81.1268 105.569 81.9637 104.686 82.9329C104.306 83.3498 104.968 83.9243 105.349 83.5066Z" fill="#FFB39B"/>
<path d="M106.778 85.876C107.274 85.5694 107.682 85.1337 108.189 84.8467C108.792 84.5053 109.335 84.6716 109.834 85.1015C110.058 85.2934 110.315 85.5197 110.239 85.8357C110.177 86.0908 109.862 86.2915 109.67 86.4474C109.158 86.8635 108.645 87.2777 108.133 87.6928C108.353 87.7684 108.572 87.844 108.792 87.9196C108.769 87.8562 108.747 87.7929 108.724 87.7295C108.634 87.1768 107.758 87.2252 107.849 87.7819C107.875 87.9442 107.893 88.0447 107.96 88.1952C108.064 88.4302 108.378 88.6173 108.619 88.4219C109.668 87.5724 112.149 86.2177 110.66 84.6755C110.156 84.1532 109.487 83.729 108.736 83.7699C107.743 83.8241 107.08 84.6593 106.291 85.1467C105.811 85.4438 106.298 86.1725 106.778 85.876Z" fill="#FFB39B"/>
<path d="M112.145 81.4325C111.566 81.5683 111.004 82.1343 110.845 82.7109C110.691 83.2667 110.966 83.8748 111.366 84.261C111.809 84.6874 112.405 84.8858 112.973 84.6037C113.504 84.3399 114.049 83.901 113.932 83.2392C113.835 82.6888 112.959 82.7367 113.057 83.2916C113.104 83.5559 112.776 83.7811 112.536 83.8427C112.269 83.9113 112.003 83.699 111.849 83.4864C111.717 83.3037 111.633 83.0865 111.72 82.8714C111.837 82.5866 112.131 82.3331 112.42 82.2651C112.97 82.1358 112.69 81.3045 112.145 81.4325Z" fill="#FFB39B"/>
<path d="M111.754 81.4826C112.206 81.9409 113.789 84.3333 114.61 83.4496C114.994 83.0366 114.331 82.4624 113.947 82.876C113.933 82.8906 113.92 82.9053 113.906 82.92C114.045 82.8722 114.184 82.8246 114.323 82.7769C113.934 82.723 113.484 82.1424 113.243 81.8615C112.942 81.5095 112.654 81.1498 112.328 80.8194C111.932 80.4181 111.359 81.0823 111.754 81.4826Z" fill="#FFB39B"/>
<path d="M113.695 79.9259C114.308 80.6571 114.868 81.4237 115.379 82.2293C115.681 82.7061 116.41 82.2191 116.108 81.7425C115.598 80.9368 115.037 80.1702 114.425 79.4391C114.066 79.0113 113.333 79.4934 113.695 79.9259Z" fill="#FFB39B"/>
<path d="M115.302 80.0796C115.27 79.6226 115.679 79.2602 116.121 79.4915C116.538 79.7097 116.901 80.2405 117.189 80.5987C117.54 81.0346 118.273 80.5519 117.918 80.1119C117.39 79.4561 116.738 78.5087 115.796 78.5444C114.954 78.5763 114.369 79.3135 114.427 80.1321C114.468 80.6956 115.343 80.643 115.302 80.0796Z" fill="#FFB39B"/>
<path d="M116.945 77.3364C117.593 78.0086 118.176 78.7429 118.746 79.4818C119.088 79.9262 119.82 79.4428 119.475 78.9949C118.857 78.1941 118.221 77.4017 117.519 76.6732C117.128 76.2677 116.556 76.9323 116.945 77.3364Z" fill="#FFB39B"/>
<path d="M118.925 78.1634C119.294 77.4578 119.342 76.5023 119.198 75.7306C119.154 75.4962 118.991 75.3065 118.734 75.3191C118.52 75.3295 118.279 75.5506 118.322 75.7828C118.44 76.4141 118.44 77.1985 118.136 77.7795C117.875 78.2797 118.663 78.6641 118.925 78.1634Z" fill="#FFB39B"/>
<path d="M118.99 77.5468C119.493 77.7103 119.997 77.8739 120.5 78.0375C120.726 78.1107 120.973 77.9062 121.016 77.6933C121.067 77.4385 120.898 77.2511 120.672 77.1777C120.168 77.0141 119.665 76.8505 119.161 76.687C118.936 76.6138 118.688 76.8183 118.646 77.0312C118.595 77.286 118.764 77.4734 118.99 77.5468Z" fill="#FFB39B"/>
</g>
<defs>
<clipPath id="clip0_12_8396">
<rect width="128" height="118" rx="8" fill="white"/>
</clipPath>
</defs>
</svg>
