<svg width="27" height="28" viewBox="0 0 27 28" fill="none" xmlns="http://www.w3.org/2000/svg">
<path d="M23.8235 0.5H16.6765C17.1529 0.5 17.4706 0.817647 17.4706 1.29412C17.4706 1.77059 17.1529 2.08824 16.6765 2.08824H15.0882C14.6118 2.08824 14.2941 1.77059 14.2941 1.29412C14.2941 0.817647 14.6118 0.5 15.0882 0.5H3.17647C1.42941 0.5 0 1.92941 0 3.67647V24.3235C0 26.0706 1.42941 27.5 3.17647 27.5H23.8235C25.5706 27.5 27 26.0706 27 24.3235V3.67647C27 1.92941 25.5706 0.5 23.8235 0.5ZM10.3235 2.08824H11.9118C12.3882 2.08824 12.7059 2.40588 12.7059 2.88235C12.7059 3.35882 12.3882 3.67647 11.9118 3.67647H10.3235C9.84706 3.67647 9.52941 3.35882 9.52941 2.88235C9.52941 2.40588 9.84706 2.08824 10.3235 2.08824V2.08824ZM10.3235 5.26471H11.9118C12.3882 5.26471 12.7059 5.58235 12.7059 6.05882C12.7059 6.53529 12.3882 6.85294 11.9118 6.85294H10.3235C9.84706 6.85294 9.52941 6.53529 9.52941 6.05882C9.52941 5.58235 9.84706 5.26471 10.3235 5.26471ZM10.3235 8.44118H11.9118C12.3882 8.44118 12.7059 8.75882 12.7059 9.23529C12.7059 9.71176 12.3882 10.0294 11.9118 10.0294H10.3235C9.84706 10.0294 9.52941 9.71176 9.52941 9.23529C9.52941 8.75882 9.84706 8.44118 10.3235 8.44118ZM17.4706 16.3824C17.4706 18.1294 16.0412 19.5588 14.2941 19.5588H12.7059C10.9588 19.5588 9.52941 18.1294 9.52941 16.3824V11.6176H17.4706V16.3824ZM16.6765 8.44118H15.0882C14.6118 8.44118 14.2941 8.12353 14.2941 7.64706C14.2941 7.17059 14.6118 6.85294 15.0882 6.85294H16.6765C17.1529 6.85294 17.4706 7.17059 17.4706 7.64706C17.4706 8.12353 17.1529 8.44118 16.6765 8.44118ZM16.6765 5.26471H15.0882C14.6118 5.26471 14.2941 4.94706 14.2941 4.47059C14.2941 3.99412 14.6118 3.67647 15.0882 3.67647H16.6765C17.1529 3.67647 17.4706 3.99412 17.4706 4.47059C17.4706 4.94706 17.1529 5.26471 16.6765 5.26471Z" fill="#FF650F"/>
</svg>
