<svg width="20" height="20" viewBox="0 0 20 20" fill="none" xmlns="http://www.w3.org/2000/svg">
<path fill-rule="evenodd" clip-rule="evenodd" d="M5 6.66699C5 5.34091 5.52678 4.06914 6.46447 3.13146C7.40215 2.19378 8.67392 1.66699 10 1.66699C11.3261 1.66699 12.5979 2.19378 13.5355 3.13146C14.4732 4.06914 15 5.34091 15 6.66699H15.8333C16.2754 6.66699 16.6993 6.84259 17.0118 7.15515C17.3244 7.46771 17.5 7.89163 17.5 8.33366V16.667C17.5 17.109 17.3244 17.5329 17.0118 17.8455C16.6993 18.1581 16.2754 18.3337 15.8333 18.3337H4.16667C3.72464 18.3337 3.30072 18.1581 2.98816 17.8455C2.67559 17.5329 2.5 17.109 2.5 16.667V8.33366C2.5 7.89163 2.67559 7.46771 2.98816 7.15515C3.30072 6.84259 3.72464 6.66699 4.16667 6.66699H5ZM10 3.33366C10.8841 3.33366 11.7319 3.68485 12.357 4.30997C12.9821 4.93509 13.3333 5.78294 13.3333 6.66699H6.66667C6.66667 5.78294 7.01786 4.93509 7.64298 4.30997C8.2681 3.68485 9.11594 3.33366 10 3.33366ZM11.6667 11.667C11.6667 11.9595 11.5896 12.2469 11.4434 12.5003C11.2971 12.7537 11.0867 12.964 10.8333 13.1103V14.167C10.8333 14.388 10.7455 14.6 10.5893 14.7562C10.433 14.9125 10.221 15.0003 10 15.0003C9.77899 15.0003 9.56702 14.9125 9.41074 14.7562C9.25446 14.6 9.16667 14.388 9.16667 14.167V13.1103C8.84895 12.9269 8.60065 12.6437 8.46026 12.3048C8.31987 11.9658 8.29524 11.59 8.3902 11.2356C8.48515 10.8812 8.69439 10.5681 8.98544 10.3448C9.2765 10.1214 9.63312 10.0003 10 10.0003C10.442 10.0003 10.866 10.1759 11.1785 10.4885C11.4911 10.801 11.6667 11.225 11.6667 11.667Z" fill="#5A5A5A"/>
</svg>
