<svg width="27" height="28" viewBox="0 0 27 28" fill="none" xmlns="http://www.w3.org/2000/svg">
<path fill-rule="evenodd" clip-rule="evenodd" d="M3.24 0.5C1.4506 0.5 0 1.9506 0 3.74V24.26C0 26.0494 1.4506 27.5 3.24 27.5H23.76C25.5494 27.5 27 26.0494 27 24.26V3.74C27 1.9506 25.5494 0.5 23.76 0.5H3.24ZM4.96137 17.5324C5.07099 17.6075 5.25255 17.645 5.50605 17.645C5.75954 17.645 5.9411 17.6075 6.05072 17.5324C6.16034 17.4574 6.22885 17.3618 6.25626 17.2458C6.28366 17.123 6.29737 16.9968 6.29737 16.8672V15.5264H7.61281C7.90056 15.5264 8.19174 15.4752 8.48634 15.3729C8.78095 15.2637 9.05158 15.1068 9.29822 14.9021C9.55172 14.6905 9.75383 14.4278 9.90456 14.114C10.0621 13.8001 10.1409 13.4351 10.1409 13.0189C10.1409 12.5958 10.0621 12.2274 9.90456 11.9135C9.75383 11.5996 9.55172 11.3369 9.29822 11.1254C9.05158 10.9071 8.78095 10.7467 8.48634 10.6444C8.1986 10.542 7.91084 10.4909 7.62308 10.4909H5.51632C5.26282 10.4909 5.08126 10.5284 4.97165 10.6034C4.86203 10.6785 4.79351 10.7774 4.76611 10.9002C4.7387 11.0162 4.725 11.1391 4.725 11.2687V16.8569C4.725 16.9866 4.7387 17.1128 4.76611 17.2356C4.79351 17.3584 4.8586 17.4574 4.96137 17.5324ZM7.62308 13.9707H6.29737V12.0465H7.61281C7.80465 12.0465 7.9725 12.0875 8.11638 12.1694C8.2671 12.2512 8.38358 12.3638 8.4658 12.5071C8.54801 12.6504 8.58912 12.8176 8.58912 13.0086C8.58912 13.2338 8.53773 13.418 8.43496 13.5613C8.33904 13.7046 8.21572 13.8104 8.065 13.8786C7.92111 13.94 7.77381 13.9707 7.62308 13.9707ZM11.0523 17.5324C11.1619 17.6075 11.3366 17.645 11.5764 17.645H13.4057C13.9127 17.645 14.3786 17.5529 14.8034 17.3687C15.235 17.1844 15.6118 16.932 15.9338 16.6113C16.2558 16.2838 16.5059 15.9017 16.684 15.465C16.8622 15.0215 16.9512 14.5438 16.9512 14.0321C16.9512 13.5272 16.8622 13.0598 16.684 12.6299C16.5059 12.2001 16.2558 11.8248 15.9338 11.5041C15.6118 11.1834 15.2384 10.9344 14.8136 10.757C14.3889 10.5796 13.9298 10.4909 13.4365 10.4909H11.5867C11.3332 10.484 11.1516 10.5181 11.042 10.5932C10.9324 10.6683 10.8639 10.7672 10.8365 10.89C10.8091 11.006 10.7954 11.1288 10.7954 11.2585V16.8569C10.7954 16.9934 10.8125 17.123 10.8468 17.2458C10.881 17.3618 10.9495 17.4574 11.0523 17.5324ZM13.4365 16.0791H12.3575V12.0465H13.4263C13.8031 12.0465 14.1388 12.1352 14.4334 12.3127C14.728 12.4832 14.9609 12.722 15.1322 13.0291C15.3035 13.3361 15.3891 13.6841 15.3891 14.073C15.3891 14.462 15.3035 14.8065 15.1322 15.1068C14.9609 15.407 14.728 15.6458 14.4334 15.8232C14.1388 15.9938 13.8065 16.0791 13.4365 16.0791ZM17.9993 17.5427C18.109 17.6109 18.2871 17.645 18.5337 17.645C18.7941 17.645 18.9756 17.6109 19.0784 17.5427C19.188 17.4676 19.2565 17.3721 19.2839 17.2561C19.3114 17.1333 19.3251 17.007 19.3251 16.8774V14.7178H21.4215C21.5654 14.7178 21.6887 14.7076 21.7915 14.6871C21.9011 14.6667 21.9868 14.6121 22.0484 14.5234C22.1101 14.4278 22.1409 14.2709 22.1409 14.0526C22.1409 13.8274 22.1101 13.6671 22.0484 13.5715C21.9868 13.476 21.9011 13.418 21.7915 13.3975C21.6887 13.3771 21.5688 13.3668 21.4318 13.3668H19.3251V12.0465H21.3487C21.4857 12.0465 21.6124 12.0363 21.7289 12.0158C21.8523 11.9885 21.9516 11.9203 22.0269 11.8111C22.1023 11.702 22.14 11.5246 22.14 11.2789C22.14 11.0197 22.1023 10.8354 22.0269 10.7263C21.9584 10.6171 21.866 10.5523 21.7495 10.5318C21.633 10.5045 21.5063 10.4909 21.3692 10.4909H18.5646C18.2631 10.4909 18.0541 10.5454 17.9377 10.6546C17.8212 10.7638 17.763 10.9685 17.763 11.2687V16.8672C17.763 16.9968 17.7732 17.123 17.7938 17.2458C17.8212 17.3687 17.8897 17.4676 17.9993 17.5427Z" fill="#EA3434"/>
</svg>
