<svg width="13" height="13" viewBox="0 0 13 13" fill="none" xmlns="http://www.w3.org/2000/svg">
<path d="M12.3195 3.29913L9.70098 0.681157C9.61392 0.59408 9.51056 0.525005 9.39681 0.477878C9.28305 0.43075 9.16112 0.406494 9.03799 0.406494C8.91486 0.406494 8.79293 0.43075 8.67918 0.477878C8.56542 0.525005 8.46206 0.59408 8.375 0.681157L1.14981 7.90635C1.06238 7.99309 0.993056 8.09635 0.945879 8.21011C0.898703 8.32388 0.874611 8.44589 0.875005 8.56905V11.1876C0.875005 11.4362 0.973777 11.6747 1.14959 11.8505C1.32541 12.0263 1.56386 12.1251 1.8125 12.1251H11.6563C11.7806 12.1251 11.8998 12.0757 11.9877 11.9878C12.0756 11.8999 12.125 11.7807 12.125 11.6564C12.125 11.532 12.0756 11.4128 11.9877 11.3249C11.8998 11.237 11.7806 11.1876 11.6563 11.1876H5.75704L12.3195 4.6251C12.4066 4.53804 12.4757 4.43469 12.5228 4.32093C12.5699 4.20717 12.5942 4.08525 12.5942 3.96211C12.5942 3.83898 12.5699 3.71706 12.5228 3.6033C12.4757 3.48954 12.4066 3.38618 12.3195 3.29913ZM4.43106 11.1876H1.8125V8.56905L6.96875 3.4128L9.58731 6.03135L4.43106 11.1876ZM10.25 5.36866L7.63204 2.7501L9.03829 1.34385L11.6563 3.96241L10.25 5.36866Z" fill="#616061"/>
</svg>
