<svg width="24" height="24" viewBox="0 0 24 24" fill="none" xmlns="http://www.w3.org/2000/svg">
<path d="M10 15.2H14C14.3333 15.2 14.6167 15.0833 14.85 14.85C15.0833 14.6167 15.2 14.3333 15.2 14V11.6C15.2 11.2667 15.0833 10.9833 14.85 10.75C14.6167 10.5167 14.3333 10.4 14 10.4V9.2C14 8.64 13.8067 8.16667 13.42 7.78C13.0333 7.39333 12.56 7.2 12 7.2C11.44 7.2 10.9667 7.39333 10.58 7.78C10.1933 8.16667 10 8.64 10 9.2H11.2C11.2 8.97333 11.2767 8.78333 11.43 8.63C11.5833 8.47667 11.7733 8.4 12 8.4C12.2267 8.4 12.4167 8.47667 12.57 8.63C12.7233 8.78333 12.8 8.97333 12.8 9.2V10.4H10C9.66667 10.4 9.38333 10.5167 9.15 10.75C8.91667 10.9833 8.8 11.2667 8.8 11.6V14C8.8 14.3333 8.91667 14.6167 9.15 14.85C9.38333 15.0833 9.66667 15.2 10 15.2ZM12 20C10.8933 20 9.85333 19.79 8.88 19.37C7.90667 18.95 7.06 18.38 6.34 17.66C5.62 16.94 5.05 16.0933 4.63 15.12C4.21 14.1467 4 13.1067 4 12C4 10.8933 4.21 9.85333 4.63 8.88C5.05 7.90667 5.62 7.06 6.34 6.34C7.06 5.62 7.90667 5.05 8.88 4.63C9.85333 4.21 10.8933 4 12 4C13.1067 4 14.1467 4.21 15.12 4.63C16.0933 5.05 16.94 5.62 17.66 6.34C18.38 7.06 18.95 7.90667 19.37 8.88C19.79 9.85333 20 10.8933 20 12C20 13.1067 19.79 14.1467 19.37 15.12C18.95 16.0933 18.38 16.94 17.66 17.66C16.94 18.38 16.0933 18.95 15.12 19.37C14.1467 19.79 13.1067 20 12 20ZM12 18.4C13.7867 18.4 15.3 17.78 16.54 16.54C17.78 15.3 18.4 13.7867 18.4 12C18.4 10.2133 17.78 8.7 16.54 7.46C15.3 6.22 13.7867 5.6 12 5.6C10.2133 5.6 8.7 6.22 7.46 7.46C6.22 8.7 5.6 10.2133 5.6 12C5.6 13.7867 6.22 15.3 7.46 16.54C8.7 17.78 10.2133 18.4 12 18.4Z" fill="black"/>
</svg>
