<svg width="782" height="732" viewBox="0 0 782 732" fill="none" xmlns="http://www.w3.org/2000/svg">
<path d="M412.191 297.236C408.807 297.654 405.586 298.9 402.856 300.851L398.283 304.108C397.291 304.817 395.96 304.927 394.851 304.394L389.756 301.941C386.709 300.474 383.314 299.78 379.903 299.931C369.612 300.378 361.391 308.26 361 318.061C360.725 325.013 363.344 331.794 368.329 336.876C378.124 346.864 388.33 355.273 399.022 361.782C400.791 362.853 403.104 362.662 404.651 361.315C413.997 353.137 422.503 343.164 430.329 331.714C434.31 325.883 435.661 318.775 434.114 311.979C431.939 302.379 422.408 295.975 412.191 297.236Z" fill="#4D94C5"/>
<mask id="mask0_10510_28520" style="mask-type:luminance" maskUnits="userSpaceOnUse" x="289" y="261" width="202" height="172">
<path d="M289.18 261.622H490.586V432.806H289.18V261.622Z" fill="white"/>
</mask>
<g mask="url(#mask0_10510_28520)">
<path d="M489.246 391.186C482.92 385.38 477.672 378.665 473.648 371.215C473.284 370.542 472.413 370.275 471.7 370.622C470.992 370.969 470.712 371.803 471.077 372.477C475.248 380.188 480.687 387.149 487.239 393.166C487.799 393.684 487.567 394.277 487.477 394.443C487.392 394.614 487.049 395.162 486.278 395.066C473.5 393.503 461.636 388.391 451.968 380.283C451.456 379.856 450.701 379.826 450.151 380.213C437.315 389.281 421.707 394.81 405.011 396.197C360.964 399.867 322.419 373.377 319.093 337.155C317.482 319.643 324.246 302.482 338.154 288.825C352.104 275.117 371.562 266.587 392.936 264.808C414.315 263.029 435.029 268.211 451.276 279.41C467.454 290.559 477.249 306.342 478.86 323.855C479.968 335.959 476.964 348.229 470.364 358.91C469.461 360.443 468.833 361.283 468.078 362.333C465.453 365.766 462.734 367.822 461.488 368.657C460.838 369.099 460.685 369.954 461.145 370.577C461.425 370.959 461.868 371.16 462.322 371.16C462.613 371.16 462.903 371.074 463.156 370.909C464.682 369.878 467.592 367.611 470.248 364.193C471.093 363.097 471.932 361.876 472.724 360.519C479.726 349.299 482.91 336.376 481.743 323.619C480.058 305.302 469.841 288.81 452.976 277.183C436.17 265.602 414.759 260.234 392.693 262.073C370.627 263.908 350.52 272.735 336.084 286.92C330.049 292.846 325.307 299.416 321.949 306.388C311.368 312.827 302.788 321.392 297.122 331.179C291.187 341.423 288.6 352.793 289.635 364.062C290.849 377.262 297.032 389.824 307.075 399.5C307.059 407.044 299.181 422.034 294.36 426.799C294.318 426.844 294.276 426.894 294.234 426.945C293.236 428.252 293.225 429.945 294.218 431.262C294.962 432.258 296.113 432.806 297.328 432.806C297.724 432.806 298.12 432.75 298.516 432.635C310.095 429.191 320.265 422.702 328 413.835C341.481 420.028 356.814 422.607 372.433 421.31C388.96 419.933 404.32 414.348 416.855 405.17C417.483 404.707 417.605 403.843 417.119 403.239C416.633 402.641 415.725 402.526 415.091 402.988C402.994 411.85 388.162 417.233 372.179 418.565C356.698 419.852 341.502 417.198 328.248 410.885C327.636 410.598 326.902 410.754 326.474 411.257C319.019 420.139 309.05 426.618 297.65 430.006C297.043 430.187 296.689 429.825 296.568 429.659C296.446 429.503 296.214 429.096 296.525 428.629C301.906 423.235 310.349 406.929 309.947 398.861C309.932 398.514 309.778 398.193 309.525 397.946C299.725 388.677 293.679 376.563 292.512 363.831C291.525 353.11 293.996 342.277 299.646 332.516C304.435 324.247 311.399 316.883 319.943 311.012C316.685 319.457 315.386 328.384 316.215 337.407C319.473 372.814 354.834 399.304 396.88 399.304C399.647 399.304 402.45 399.188 405.265 398.952C422.093 397.554 437.859 392.07 450.938 383.088C460.881 391.135 472.946 396.217 485.909 397.806C487.677 398.022 489.314 397.177 490.085 395.649C490.861 394.111 490.529 392.362 489.246 391.186Z" fill="#1170B2"/>
</g>
<path d="M296.709 281.442L306.266 286.137C306.477 286.237 306.704 286.287 306.926 286.287C307.449 286.287 307.955 286.016 308.209 285.544C308.578 284.865 308.299 284.036 307.591 283.684L298.034 278.994C297.326 278.647 296.455 278.914 296.086 279.587C295.721 280.261 296.001 281.09 296.709 281.442Z" fill="#4D94C5"/>
<mask id="mask1_10510_28520" style="mask-type:luminance" maskUnits="userSpaceOnUse" x="325" y="256" width="7" height="14">
<path d="M325.695 256.193H331.102V269.343H325.695V256.193Z" fill="white"/>
</mask>
<g mask="url(#mask1_10510_28520)">
<path d="M327.755 268.016C327.887 268.68 328.489 269.147 329.176 269.147C329.265 269.147 329.35 269.137 329.44 269.122C330.221 268.986 330.744 268.272 330.601 267.524L328.69 257.45C328.547 256.706 327.797 256.204 327.011 256.344C326.224 256.475 325.701 257.194 325.844 257.943L327.755 268.016Z" fill="#4D94C5"/>
</g>
<path d="M434.744 416.897C433.952 416.816 433.234 417.349 433.144 418.103L431.898 428.272C431.808 429.026 432.373 429.709 433.165 429.795C433.223 429.805 433.276 429.805 433.334 429.805C434.058 429.805 434.681 429.287 434.765 428.588L436.017 418.425C436.106 417.666 435.541 416.982 434.744 416.897Z" fill="#4D94C5"/>
<path d="M462.539 402.501C461.969 401.968 461.056 401.978 460.496 402.526C459.942 403.074 459.952 403.944 460.528 404.472L468.237 411.609C468.516 411.866 468.881 411.996 469.24 411.996C469.62 411.996 469.995 411.861 470.28 411.579C470.834 411.031 470.824 410.167 470.248 409.634L462.539 402.501Z" fill="#4D94C5"/>
<path d="M326.574 503.276C326.499 502.603 326.186 502.082 325.637 501.713C325.088 501.339 324.396 501.152 323.563 501.152C322.966 501.152 322.45 501.247 322.015 501.436C321.579 501.621 321.241 501.876 320.999 502.203C320.762 502.525 320.644 502.892 320.644 503.304C320.644 503.65 320.724 503.948 320.885 504.199C321.051 504.45 321.267 504.661 321.532 504.831C321.802 504.997 322.09 505.136 322.398 505.25C322.706 505.359 323.002 505.449 323.286 505.52L324.706 505.889C325.171 506.003 325.646 506.157 326.134 506.351C326.622 506.545 327.074 506.801 327.491 507.118C327.907 507.435 328.243 507.828 328.499 508.297C328.76 508.766 328.89 509.327 328.89 509.98C328.89 510.804 328.677 511.536 328.251 512.175C327.829 512.814 327.216 513.318 326.411 513.688C325.611 514.057 324.643 514.241 323.506 514.241C322.417 514.241 321.475 514.069 320.68 513.723C319.884 513.377 319.261 512.887 318.812 512.253C318.362 511.614 318.113 510.856 318.066 509.98H320.268C320.31 510.506 320.481 510.944 320.779 511.294C321.082 511.64 321.468 511.898 321.937 512.068C322.41 512.234 322.929 512.317 323.492 512.317C324.112 512.317 324.664 512.22 325.147 512.026C325.635 511.827 326.018 511.552 326.297 511.202C326.577 510.847 326.716 510.432 326.716 509.959C326.716 509.528 326.593 509.175 326.347 508.901C326.106 508.626 325.777 508.399 325.36 508.219C324.948 508.039 324.482 507.88 323.961 507.743L322.242 507.274C321.077 506.957 320.154 506.491 319.472 505.875C318.795 505.259 318.456 504.445 318.456 503.432C318.456 502.594 318.684 501.862 319.138 501.237C319.593 500.612 320.208 500.127 320.985 499.781C321.761 499.431 322.637 499.256 323.613 499.256C324.598 499.256 325.466 499.429 326.219 499.774C326.977 500.12 327.573 500.596 328.009 501.202C328.445 501.803 328.672 502.494 328.691 503.276H326.574ZM336.406 503.091V504.795H330.447V503.091H336.406ZM332.045 500.477H334.168V510.797C334.168 511.209 334.23 511.519 334.353 511.727C334.476 511.931 334.635 512.071 334.829 512.146C335.028 512.217 335.243 512.253 335.475 512.253C335.646 512.253 335.795 512.241 335.923 512.217C336.05 512.194 336.15 512.175 336.221 512.161L336.604 513.915C336.481 513.962 336.306 514.009 336.079 514.057C335.852 514.109 335.567 514.137 335.227 514.142C334.668 514.152 334.147 514.052 333.664 513.844C333.181 513.635 332.79 513.313 332.492 512.878C332.194 512.442 332.045 511.895 332.045 511.237V500.477ZM341.901 514.241C341.209 514.241 340.584 514.114 340.026 513.858C339.467 513.598 339.024 513.221 338.698 512.729C338.376 512.236 338.215 511.633 338.215 510.918C338.215 510.302 338.333 509.795 338.57 509.398C338.807 509 339.126 508.685 339.529 508.453C339.931 508.221 340.381 508.046 340.878 507.928C341.375 507.809 341.882 507.719 342.398 507.658C343.051 507.582 343.582 507.52 343.989 507.473C344.396 507.421 344.692 507.338 344.877 507.224C345.061 507.111 345.154 506.926 345.154 506.67V506.621C345.154 506 344.978 505.52 344.628 505.179C344.282 504.838 343.766 504.668 343.08 504.668C342.365 504.668 341.801 504.826 341.389 505.143C340.982 505.456 340.7 505.804 340.544 506.188L338.548 505.733C338.785 505.07 339.131 504.535 339.585 504.128C340.045 503.716 340.573 503.418 341.169 503.233C341.766 503.044 342.393 502.949 343.051 502.949C343.487 502.949 343.949 503.001 344.436 503.105C344.929 503.205 345.388 503.389 345.814 503.659C346.245 503.929 346.598 504.315 346.872 504.817C347.147 505.314 347.284 505.96 347.284 506.756V514H345.21V512.509H345.125C344.988 512.783 344.782 513.053 344.507 513.318C344.233 513.583 343.88 513.804 343.449 513.979C343.018 514.154 342.502 514.241 341.901 514.241ZM342.362 512.537C342.95 512.537 343.451 512.421 343.868 512.189C344.289 511.957 344.609 511.654 344.827 511.28C345.049 510.901 345.161 510.496 345.161 510.065V508.659C345.085 508.735 344.938 508.806 344.72 508.872C344.507 508.934 344.263 508.988 343.989 509.036C343.714 509.078 343.447 509.118 343.186 509.156C342.926 509.189 342.708 509.218 342.533 509.241C342.121 509.294 341.745 509.381 341.404 509.504C341.067 509.627 340.798 509.805 340.594 510.037C340.395 510.264 340.296 510.567 340.296 510.946C340.296 511.472 340.49 511.869 340.878 512.139C341.266 512.404 341.761 512.537 342.362 512.537ZM350.084 514V503.091H352.137V504.824H352.25C352.449 504.237 352.8 503.775 353.302 503.439C353.808 503.098 354.381 502.928 355.02 502.928C355.153 502.928 355.309 502.932 355.489 502.942C355.674 502.951 355.818 502.963 355.922 502.977V505.009C355.837 504.985 355.686 504.959 355.468 504.93C355.25 504.897 355.032 504.881 354.814 504.881C354.312 504.881 353.865 504.987 353.472 505.2C353.084 505.409 352.776 505.7 352.549 506.074C352.321 506.443 352.208 506.865 352.208 507.338V514H350.084ZM363.468 503.091V504.795H357.509V503.091H363.468ZM359.107 500.477H361.231V510.797C361.231 511.209 361.293 511.519 361.416 511.727C361.539 511.931 361.697 512.071 361.892 512.146C362.09 512.217 362.306 512.253 362.538 512.253C362.708 512.253 362.857 512.241 362.985 512.217C363.113 512.194 363.213 512.175 363.284 512.161L363.667 513.915C363.544 513.962 363.369 514.009 363.142 514.057C362.914 514.109 362.63 514.137 362.289 514.142C361.731 514.152 361.21 514.052 360.727 513.844C360.244 513.635 359.853 513.313 359.555 512.878C359.257 512.442 359.107 511.895 359.107 511.237V500.477ZM374.228 514.241C373.537 514.241 372.912 514.114 372.353 513.858C371.794 513.598 371.351 513.221 371.025 512.729C370.703 512.236 370.542 511.633 370.542 510.918C370.542 510.302 370.66 509.795 370.897 509.398C371.134 509 371.453 508.685 371.856 508.453C372.258 508.221 372.708 508.046 373.205 507.928C373.702 507.809 374.209 507.719 374.725 507.658C375.378 507.582 375.909 507.52 376.316 507.473C376.723 507.421 377.019 507.338 377.204 507.224C377.388 507.111 377.481 506.926 377.481 506.67V506.621C377.481 506 377.306 505.52 376.955 505.179C376.61 504.838 376.093 504.668 375.407 504.668C374.692 504.668 374.128 504.826 373.717 505.143C373.309 505.456 373.028 505.804 372.871 506.188L370.876 505.733C371.112 505.07 371.458 504.535 371.913 504.128C372.372 503.716 372.9 503.418 373.496 503.233C374.093 503.044 374.72 502.949 375.378 502.949C375.814 502.949 376.276 503.001 376.763 503.105C377.256 503.205 377.715 503.389 378.141 503.659C378.572 503.929 378.925 504.315 379.199 504.817C379.474 505.314 379.611 505.96 379.611 506.756V514H377.538V512.509H377.452C377.315 512.783 377.109 513.053 376.834 513.318C376.56 513.583 376.207 513.804 375.776 513.979C375.345 514.154 374.829 514.241 374.228 514.241ZM374.69 512.537C375.277 512.537 375.779 512.421 376.195 512.189C376.617 511.957 376.936 511.654 377.154 511.28C377.377 510.901 377.488 510.496 377.488 510.065V508.659C377.412 508.735 377.265 508.806 377.047 508.872C376.834 508.934 376.591 508.988 376.316 509.036C376.041 509.078 375.774 509.118 375.513 509.156C375.253 509.189 375.035 509.218 374.86 509.241C374.448 509.294 374.072 509.381 373.731 509.504C373.395 509.627 373.125 509.805 372.921 510.037C372.722 510.264 372.623 510.567 372.623 510.946C372.623 511.472 372.817 511.869 373.205 512.139C373.593 512.404 374.088 512.537 374.69 512.537ZM389.799 507.523V514H387.676V503.091H389.714V504.866H389.849C390.1 504.289 390.493 503.825 391.028 503.474C391.568 503.124 392.247 502.949 393.066 502.949C393.81 502.949 394.461 503.105 395.019 503.418C395.578 503.725 396.011 504.185 396.319 504.795C396.627 505.406 396.781 506.161 396.781 507.061V514H394.657V507.317C394.657 506.526 394.451 505.908 394.039 505.463C393.627 505.013 393.062 504.788 392.342 504.788C391.849 504.788 391.412 504.895 391.028 505.108C390.649 505.321 390.349 505.634 390.126 506.045C389.908 506.453 389.799 506.945 389.799 507.523ZM404.302 514.22C403.227 514.22 402.302 513.991 401.525 513.531C400.753 513.067 400.157 512.416 399.735 511.578C399.319 510.735 399.11 509.748 399.11 508.616C399.11 507.499 399.319 506.514 399.735 505.662C400.157 504.81 400.744 504.144 401.497 503.666C402.254 503.188 403.14 502.949 404.153 502.949C404.768 502.949 405.365 503.051 405.943 503.254C406.52 503.458 407.039 503.777 407.498 504.213C407.957 504.649 408.319 505.214 408.585 505.911C408.85 506.602 408.982 507.442 408.982 508.432V509.185H400.31V507.594H406.901C406.901 507.035 406.788 506.54 406.56 506.109C406.333 505.674 406.014 505.33 405.602 505.08C405.194 504.829 404.716 504.703 404.167 504.703C403.57 504.703 403.05 504.85 402.605 505.143C402.164 505.432 401.823 505.811 401.582 506.28C401.345 506.744 401.227 507.248 401.227 507.793V509.036C401.227 509.765 401.355 510.385 401.61 510.896C401.871 511.408 402.233 511.798 402.697 512.068C403.161 512.333 403.703 512.466 404.323 512.466C404.726 512.466 405.093 512.409 405.424 512.295C405.756 512.177 406.042 512.002 406.284 511.77C406.525 511.538 406.71 511.251 406.837 510.911L408.847 511.273C408.686 511.865 408.398 512.383 407.981 512.828C407.569 513.268 407.051 513.612 406.426 513.858C405.805 514.099 405.097 514.22 404.302 514.22ZM413.655 514L410.445 503.091H412.64L414.778 511.102H414.884L417.029 503.091H419.224L421.354 511.067H421.461L423.584 503.091H425.779L422.576 514H420.41L418.194 506.124H418.03L415.815 514H413.655ZM437.909 514H433.201V499.455H438.059C439.484 499.455 440.708 499.746 441.73 500.328C442.753 500.906 443.537 501.737 444.081 502.821C444.631 503.901 444.905 505.196 444.905 506.706C444.905 508.221 444.628 509.523 444.074 510.612C443.525 511.701 442.73 512.539 441.688 513.126C440.646 513.709 439.387 514 437.909 514ZM435.395 512.082H437.789C438.897 512.082 439.818 511.874 440.551 511.457C441.285 511.036 441.835 510.428 442.199 509.632C442.564 508.832 442.746 507.857 442.746 506.706C442.746 505.565 442.564 504.597 442.199 503.801C441.839 503.006 441.302 502.402 440.587 501.99C439.872 501.578 438.984 501.372 437.924 501.372H435.395V512.082ZM447.606 499.455H450.269L454.9 510.761H455.07L459.701 499.455H462.364V514H460.276V503.474H460.141L455.851 513.979H454.118L449.829 503.467H449.694V514H447.606V499.455Z" fill="#969696"/>
</svg>
