<svg width="27" height="28" viewBox="0 0 27 28" fill="none" xmlns="http://www.w3.org/2000/svg">
<path fill-rule="evenodd" clip-rule="evenodd" d="M3.24 0.5C1.4506 0.5 0 1.9506 0 3.74V24.26C0 26.0494 1.4506 27.5 3.24 27.5H23.76C25.5494 27.5 27 26.0494 27 24.26V3.74C27 1.9506 25.5494 0.5 23.76 0.5H3.24ZM9.92655 19.0868C10.085 19.1957 10.3473 19.2502 10.7136 19.2502C11.0799 19.2502 11.3423 19.1957 11.5007 19.0868C11.659 18.9779 11.7581 18.8393 11.7977 18.671C11.8372 18.4928 11.857 18.3096 11.857 18.1216V16.1762H13.7579C14.1736 16.1762 14.5944 16.102 15.0201 15.9535C15.4458 15.7951 15.8369 15.5673 16.1933 15.2704C16.5595 14.9635 16.8516 14.5823 17.0694 14.1269C17.2971 13.6715 17.411 13.1418 17.411 12.5379C17.411 11.9241 17.2971 11.3896 17.0694 10.9341C16.8516 10.4788 16.5595 10.0976 16.1933 9.7907C15.8369 9.4739 15.4458 9.24125 15.0201 9.09275C14.6043 8.94425 14.1885 8.87 13.7727 8.87H10.7285C10.3622 8.87 10.0998 8.92445 9.9414 9.03335C9.783 9.14225 9.684 9.2858 9.6444 9.464C9.6048 9.6323 9.585 9.8105 9.585 9.9986V18.1067C9.585 18.2948 9.6048 18.4779 9.6444 18.6561C9.684 18.8344 9.77805 18.9779 9.92655 19.0868ZM13.7727 13.919H11.857V11.1272H13.7579C14.035 11.1272 14.2776 11.1866 14.4855 11.3054C14.7033 11.4242 14.8716 11.5876 14.9904 11.7954C15.1092 12.0034 15.1686 12.2459 15.1686 12.5231C15.1686 12.8498 15.0943 13.1171 14.9458 13.325C14.8072 13.5329 14.629 13.6864 14.4113 13.7854C14.2033 13.8745 13.9905 13.919 13.7727 13.919Z" fill="#FFB900"/>
</svg>
