<svg width="15" height="14" viewBox="0 0 15 14" fill="none" xmlns="http://www.w3.org/2000/svg">
<path d="M8.66536 7.00065L13.9154 1.75065C14.2487 1.41732 14.2487 0.917318 13.9154 0.583984C13.582 0.250651 13.082 0.250651 12.7487 0.583984L7.4987 5.83398L2.2487 0.583984C1.91536 0.250651 1.41536 0.250651 1.08203 0.583984C0.748698 0.917318 0.748698 1.41732 1.08203 1.75065L6.33203 7.00065L1.08203 12.2507C0.915365 12.4173 0.832031 12.584 0.832031 12.834C0.832031 13.334 1.16536 13.6673 1.66536 13.6673C1.91536 13.6673 2.08203 13.584 2.2487 13.4173L7.4987 8.16732L12.7487 13.4173C12.9154 13.584 13.082 13.6673 13.332 13.6673C13.582 13.6673 13.7487 13.584 13.9154 13.4173C14.2487 13.084 14.2487 12.584 13.9154 12.2507L8.66536 7.00065Z" fill="#EB1212"/>
</svg>
