<svg width="24" height="24" viewBox="0 0 24 24" fill="none" xmlns="http://www.w3.org/2000/svg">
<path d="M4.00875 4.68738C3.92806 4.75732 3.86324 4.84368 3.81862 4.94069C3.774 5.03769 3.7506 5.14311 3.75 5.24988V20.9999C3.75 21.1988 3.82902 21.3896 3.96967 21.5302C4.11032 21.6709 4.30109 21.7499 4.5 21.7499C4.69891 21.7499 4.88968 21.6709 5.03033 21.5302C5.17098 21.3896 5.25 21.1988 5.25 20.9999V16.8533C7.76156 14.8696 9.92531 15.9393 12.4172 17.173C13.9547 17.9333 15.6103 18.7527 17.3859 18.7527C18.6919 18.7527 20.0616 18.3074 21.4941 17.0652C21.5747 16.9953 21.6396 16.9089 21.6842 16.8119C21.7288 16.7149 21.7522 16.6095 21.7528 16.5027V5.24988C21.7525 5.10593 21.7107 4.96511 21.6325 4.84424C21.5543 4.72338 21.443 4.62757 21.3118 4.56826C21.1806 4.50895 21.0352 4.48865 20.8928 4.50977C20.7504 4.53089 20.6171 4.59255 20.5087 4.68738C17.8837 6.95895 15.66 5.85832 13.0828 4.58238C10.4128 3.25863 7.38562 1.76145 4.00875 4.68738ZM20.25 16.1483C17.7384 18.1321 15.5747 17.0614 13.0828 15.8286C10.7391 14.6708 8.13187 13.3789 5.25 15.0411V5.6052C7.76156 3.62145 9.92531 4.69113 12.4172 5.92395C14.7609 7.08176 17.3691 8.37363 20.25 6.71145V16.1483Z" fill="#FF0000"/>
</svg>
