<svg width="31" height="32" viewBox="0 0 31 32" fill="none" xmlns="http://www.w3.org/2000/svg">
<path fill-rule="evenodd" clip-rule="evenodd" d="M15.5002 3.39983C13.577 3.40025 11.6795 3.8409 9.95289 4.68802C8.22633 5.53515 6.7166 6.76626 5.53937 8.28703C4.36214 9.80781 3.54866 11.5779 3.16124 13.4616C2.77383 15.3454 2.82277 17.2928 3.30432 19.1548C3.78587 21.0167 4.68724 22.7436 5.93938 24.2034C7.19151 25.6631 8.76118 26.8168 10.5281 27.5761C12.295 28.3355 14.2123 28.6802 16.1331 28.5841C18.0539 28.4879 19.9272 27.9533 21.6094 27.0212C21.9065 26.8562 22.2548 26.8093 22.585 26.8898L27.6142 28.1138L26.3902 23.0846C26.3096 22.7545 26.3566 22.4061 26.5216 22.109C27.585 20.1908 28.1293 18.0281 28.1006 15.835C28.072 13.6419 27.4713 11.4943 26.358 9.60448C25.2448 7.7147 23.6575 6.14825 21.7532 5.06004C19.8489 3.97183 17.6935 3.39956 15.5002 3.39983ZM0.200196 15.9998C0.200989 13.6873 0.725993 11.405 1.73574 9.32453C2.74549 7.24407 4.21371 5.41957 6.03003 3.98818C7.84635 2.55679 9.96351 1.55575 12.2224 1.06032C14.4812 0.564883 16.823 0.587943 19.0717 1.12776C21.3203 1.66758 23.4174 2.71012 25.2052 4.177C26.9929 5.64387 28.4249 7.49693 29.3935 9.59687C30.3621 11.6968 30.8421 13.989 30.7973 16.3011C30.7526 18.6132 30.1843 20.8851 29.1352 22.946L30.7624 29.6312C30.8171 29.8563 30.813 30.0917 30.7505 30.3148C30.6879 30.5378 30.569 30.741 30.4052 30.9049C30.2414 31.0687 30.0382 31.1876 29.8152 31.2501C29.5921 31.3127 29.3567 31.3168 29.1316 31.262L22.4464 29.6348C20.1137 30.8234 17.515 31.3936 14.899 31.2907C12.2829 31.1878 9.73705 30.4154 7.5049 29.0472C5.27274 27.6791 3.42899 25.7611 2.15005 23.4767C0.871098 21.1923 0.199738 18.6179 0.200196 15.9998ZM8.30019 12.8498C8.30019 12.4918 8.44243 12.1484 8.6956 11.8952C8.94878 11.6421 9.29215 11.4998 9.6502 11.4998H21.3502C21.7082 11.4998 22.0516 11.6421 22.3048 11.8952C22.558 12.1484 22.7002 12.4918 22.7002 12.8498C22.7002 13.2079 22.558 13.5512 22.3048 13.8044C22.0516 14.0576 21.7082 14.1998 21.3502 14.1998H9.6502C9.29215 14.1998 8.94878 14.0576 8.6956 13.8044C8.44243 13.5512 8.30019 13.2079 8.30019 12.8498ZM9.6502 17.7998C9.29215 17.7998 8.94878 17.9421 8.6956 18.1952C8.44243 18.4484 8.30019 18.7918 8.30019 19.1498C8.30019 19.5079 8.44243 19.8512 8.6956 20.1044C8.94878 20.3576 9.29215 20.4998 9.6502 20.4998H17.7502C18.1082 20.4998 18.4516 20.3576 18.7048 20.1044C18.958 19.8512 19.1002 19.5079 19.1002 19.1498C19.1002 18.7918 18.958 18.4484 18.7048 18.1952C18.4516 17.9421 18.1082 17.7998 17.7502 17.7998H9.6502Z" fill="#1D1C1D" fill-opacity="0.7"/>
</svg>
