<svg width="20" height="22" viewBox="0 0 20 22" fill="none" xmlns="http://www.w3.org/2000/svg">
<path d="M18.9229 9.35772L3.16729 0.367098C2.83509 0.181014 2.45412 0.100478 2.07503 0.136202C1.69595 0.171926 1.33673 0.322218 1.04514 0.567086C0.75356 0.811955 0.543438 1.13979 0.442727 1.507C0.342016 1.8742 0.355488 2.26336 0.481352 2.62272L3.31073 11.0002L0.481352 19.3777C0.381879 19.6603 0.351584 19.9627 0.393003 20.2594C0.434423 20.5562 0.546351 20.8387 0.719412 21.0832C0.892473 21.3278 1.12163 21.5274 1.38768 21.6652C1.65373 21.803 1.94892 21.875 2.24854 21.8752C2.57074 21.8746 2.88738 21.7913 3.16823 21.6333L3.17666 21.6277L18.9267 12.6212C19.2154 12.4577 19.4557 12.2205 19.6228 11.9338C19.79 11.6472 19.878 11.3213 19.878 10.9894C19.878 10.6576 19.79 10.3317 19.6228 10.045C19.4557 9.75837 19.2154 9.52119 18.9267 9.35772H18.9229ZM2.9226 19.1808L5.30573 12.1252H10.4985C10.7969 12.1252 11.0831 12.0067 11.294 11.7957C11.505 11.5847 11.6235 11.2986 11.6235 11.0002C11.6235 10.7019 11.505 10.4157 11.294 10.2047C11.0831 9.99375 10.7969 9.87522 10.4985 9.87522H5.30573L2.92166 2.81772L17.2429 10.9899L2.9226 19.1808Z" fill="#EEA05C"/>
</svg>
