<svg width="15" height="23" viewBox="0 0 15 23" fill="none" xmlns="http://www.w3.org/2000/svg">
<path fill-rule="evenodd" clip-rule="evenodd" d="M0.0253906 4.5252C0.0253906 3.57705 0.402041 2.66773 1.07248 1.99729C1.74293 1.32685 2.65224 0.950195 3.60039 0.950195H11.4004C12.3485 0.950195 13.2579 1.32685 13.9283 1.99729C14.5987 2.66773 14.9754 3.57705 14.9754 4.5252V21.1561C14.9754 22.6043 13.2256 23.3284 12.2012 22.3053L7.50039 17.6032L2.79959 22.304C1.77519 23.3271 0.0253906 22.603 0.0253906 21.1548V4.5252ZM3.60039 2.9002C2.70339 2.9002 1.97539 3.6282 1.97539 4.5252V20.3722L6.71909 15.6272C6.92631 15.42 7.20735 15.3036 7.50039 15.3036C7.79343 15.3036 8.07447 15.42 8.28169 15.6272L13.0254 20.3722V4.5252C13.0254 3.6282 12.2974 2.9002 11.4004 2.9002H3.60039Z" fill="#1D1C1D" fill-opacity="0.7"/>
</svg>
