<svg width="20" height="20" viewBox="0 0 20 20" fill="none" xmlns="http://www.w3.org/2000/svg">
<path d="M6.2 19.5C4.59907 19.5 3.24884 18.9502 2.14931 17.8507C1.04977 16.7512 0.5 15.4009 0.5 13.8C0.5 13.1315 0.614352 12.4806 0.843056 11.8472C1.07176 11.2139 1.39722 10.6421 1.81944 10.1319L5.56667 5.61944L3.00694 0.5H16.9931L14.4333 5.61944L18.1806 10.1319C18.6028 10.6421 18.9282 11.2139 19.1569 11.8472C19.3856 12.4806 19.5 13.1315 19.5 13.8C19.5 15.4009 18.9458 16.7512 17.8375 17.8507C16.7292 18.9502 15.3833 19.5 13.8 19.5H6.2ZM10 14.2222C9.41944 14.2222 8.92245 14.0155 8.50903 13.6021C8.0956 13.1887 7.88889 12.6917 7.88889 12.1111C7.88889 11.5306 8.0956 11.0336 8.50903 10.6201C8.92245 10.2067 9.41944 10 10 10C10.5806 10 11.0775 10.2067 11.491 10.6201C11.9044 11.0336 12.1111 11.5306 12.1111 12.1111C12.1111 12.6917 11.9044 13.1887 11.491 13.6021C11.0775 14.0155 10.5806 14.2222 10 14.2222ZM7.49306 4.72222H12.5069L13.5625 2.61111H6.4375L7.49306 4.72222ZM6.2 17.3889H13.8C14.8028 17.3889 15.6516 17.0414 16.3465 16.3465C17.0414 15.6516 17.3889 14.8028 17.3889 13.8C17.3889 13.3778 17.3141 12.9688 17.1646 12.5729C17.015 12.1771 16.8083 11.8208 16.5444 11.5042L12.6653 6.83333H7.36111L3.45556 11.4778C3.19167 11.7944 2.98495 12.1551 2.83542 12.5597C2.68588 12.9644 2.61111 13.3778 2.61111 13.8C2.61111 14.8028 2.95856 15.6516 3.65347 16.3465C4.34838 17.0414 5.19722 17.3889 6.2 17.3889Z" fill="white"/>
</svg>
