<svg width="30" height="30" viewBox="0 0 30 30" fill="none" xmlns="http://www.w3.org/2000/svg">
<rect width="30" height="30" rx="4" fill="#1170B2"/>
<path d="M11.2 24.5C9.59907 24.5 8.24884 23.9502 7.14931 22.8507C6.04977 21.7512 5.5 20.4009 5.5 18.8C5.5 18.1315 5.61435 17.4806 5.84306 16.8472C6.07176 16.2139 6.39722 15.6421 6.81944 15.1319L10.5667 10.6194L8.00694 5.5H21.9931L19.4333 10.6194L23.1806 15.1319C23.6028 15.6421 23.9282 16.2139 24.1569 16.8472C24.3856 17.4806 24.5 18.1315 24.5 18.8C24.5 20.4009 23.9458 21.7512 22.8375 22.8507C21.7292 23.9502 20.3833 24.5 18.8 24.5H11.2ZM15 19.2222C14.4194 19.2222 13.9225 19.0155 13.509 18.6021C13.0956 18.1887 12.8889 17.6917 12.8889 17.1111C12.8889 16.5306 13.0956 16.0336 13.509 15.6201C13.9225 15.2067 14.4194 15 15 15C15.5806 15 16.0775 15.2067 16.491 15.6201C16.9044 16.0336 17.1111 16.5306 17.1111 17.1111C17.1111 17.6917 16.9044 18.1887 16.491 18.6021C16.0775 19.0155 15.5806 19.2222 15 19.2222ZM12.4931 9.72222H17.5069L18.5625 7.61111H11.4375L12.4931 9.72222ZM11.2 22.3889H18.8C19.8028 22.3889 20.6516 22.0414 21.3465 21.3465C22.0414 20.6516 22.3889 19.8028 22.3889 18.8C22.3889 18.3778 22.3141 17.9688 22.1646 17.5729C22.015 17.1771 21.8083 16.8208 21.5444 16.5042L17.6653 11.8333H12.3611L8.45556 16.4778C8.19167 16.7944 7.98495 17.1551 7.83542 17.5597C7.68588 17.9644 7.61111 18.3778 7.61111 18.8C7.61111 19.8028 7.95856 20.6516 8.65347 21.3465C9.34838 22.0414 10.1972 22.3889 11.2 22.3889Z" fill="white"/>
</svg>
