<svg width="14" height="14" viewBox="0 0 14 14" fill="none" xmlns="http://www.w3.org/2000/svg">
<path d="M13.4739 13.0274L9.8786 9.43203C10.6046 8.50136 11.0026 7.3647 11.0026 6.16536C11.0026 4.7407 10.4473 3.40136 9.43994 2.3947C8.43327 1.3867 7.09394 0.832031 5.66927 0.832031C4.2446 0.832031 2.90527 1.3867 1.8986 2.3947C0.891271 3.40136 0.335938 4.7407 0.335938 6.16536C0.335938 7.59003 0.891271 8.92937 1.8986 9.93603C2.90527 10.944 4.2446 11.4987 5.66927 11.4987C6.8686 11.4987 8.00527 11.1014 8.93594 10.3747L12.5313 13.9694L13.4739 13.0274ZM5.66927 10.1654C4.6006 10.1654 3.5966 9.74936 2.84127 8.99403C2.08527 8.2387 1.66927 7.23403 1.66927 6.16536C1.66927 5.09736 2.08527 4.0927 2.84127 3.33736C3.5966 2.58136 4.6006 2.16536 5.66927 2.16536C6.73794 2.16536 7.74194 2.58136 8.49727 3.33736C9.25327 4.0927 9.66927 5.09736 9.66927 6.16536C9.66927 7.23403 9.25327 8.2387 8.49727 8.99403C7.74194 9.74936 6.73794 10.1654 5.66927 10.1654Z" fill="white"/>
</svg>
