<svg width="60" height="60" viewBox="0 0 60 60" fill="none" xmlns="http://www.w3.org/2000/svg">
<circle cx="30" cy="30" r="30" fill="#F2F2F2"/>
<circle cx="30" cy="30" r="20" fill="#E88026"/>
<path d="M32.2618 21.5994C31.1956 20.5331 30.6625 20 30 20C29.3375 20 28.8044 20.5331 27.7381 21.5994C27.0983 22.2392 26.4643 22.5363 25.5521 22.5363C24.7556 22.5363 23.6224 22.3818 23 23.0094C22.3825 23.6321 22.5363 24.7607 22.5363 25.5521C22.5363 26.4643 22.2392 27.0983 21.5993 27.7382C20.5331 28.8044 20 29.3375 20 30C20 30.6624 20.5331 31.1956 21.5994 32.2618C22.3162 32.9786 22.5363 33.4414 22.5363 34.4479C22.5363 35.2444 22.3818 36.3776 23.0095 37C23.6322 37.6175 24.7607 37.4637 25.5521 37.4637C26.5235 37.4637 26.9913 37.6537 27.6846 38.347C28.2749 38.9374 29.0663 40 30 40C30.9337 40 31.7251 38.9374 32.3154 38.347C33.0087 37.6537 33.4765 37.4637 34.4479 37.4637C35.2393 37.4637 36.3678 37.6175 36.9905 37M36.9905 37C37.6182 36.3776 37.4637 35.2444 37.4637 34.4479C37.4637 33.4414 37.6838 32.9786 38.4006 32.2618C39.4669 31.1956 40 30.6624 40 30C40 29.3375 39.4669 28.8044 38.4006 27.7382M36.9905 37H37" stroke="white" stroke-width="1.5" stroke-linecap="round" stroke-linejoin="round"/>
<path d="M26 28.3077C26 28.3077 28.25 28 30 32C30 32 35.0588 22 40 20" stroke="white" stroke-width="1.5" stroke-linecap="round" stroke-linejoin="round"/>
</svg>
