<svg width="20" height="20" viewBox="0 0 20 20" fill="none" xmlns="http://www.w3.org/2000/svg">
<path fill-rule="evenodd" clip-rule="evenodd" d="M10.0005 8.545C9.61461 8.545 9.24453 8.69829 8.97166 8.97116C8.6988 9.24403 8.5455 9.61411 8.5455 10C8.5455 10.3859 8.6988 10.756 8.97166 11.0288C9.24453 11.3017 9.61461 11.455 10.0005 11.455C10.3864 11.455 10.7565 11.3017 11.0293 11.0288C11.3022 10.756 11.4555 10.3859 11.4555 10C11.4555 9.61411 11.3022 9.24403 11.0293 8.97116C10.7565 8.69829 10.3864 8.545 10.0005 8.545ZM6.5465 10C6.5387 9.5414 6.62228 9.08584 6.79239 8.65989C6.96249 8.23393 7.2157 7.84611 7.53725 7.51904C7.85881 7.19197 8.24226 6.9322 8.66526 6.75487C9.08826 6.57755 9.54234 6.48622 10.001 6.48622C10.4597 6.48622 10.9137 6.57755 11.3367 6.75487C11.7597 6.9322 12.1432 7.19197 12.4647 7.51904C12.7863 7.84611 13.0395 8.23393 13.2096 8.65989C13.3797 9.08584 13.4633 9.5414 13.4555 10C13.4555 10.9163 13.0915 11.7951 12.4436 12.4431C11.7956 13.091 10.9168 13.455 10.0005 13.455C9.08418 13.455 8.20538 13.091 7.55745 12.4431C6.90951 11.7951 6.5465 10.9163 6.5465 10Z" fill="#212121" fill-opacity="0.5"/>
<path fill-rule="evenodd" clip-rule="evenodd" d="M10.0005 2C9.83182 2 9.67005 2.06701 9.55078 2.18628C9.43151 2.30555 9.3645 2.46732 9.3645 2.636V2.779C9.36269 3.23745 9.22681 3.68537 8.97361 4.06756C8.72041 4.44976 8.36095 4.74955 7.9395 4.93C7.86115 4.96368 7.77882 4.98721 7.6945 5C7.28299 5.14041 6.84059 5.16391 6.41653 5.06786C5.99246 4.97182 5.60336 4.76001 5.2925 4.456L5.2345 4.398C5.11469 4.27953 4.95299 4.21308 4.7845 4.21308C4.61601 4.21308 4.45431 4.27953 4.3345 4.398V4.4C4.27536 4.45907 4.22844 4.52922 4.19643 4.60643C4.16442 4.68365 4.14794 4.76641 4.14794 4.85C4.14794 4.93359 4.16442 5.01636 4.19643 5.09357C4.22844 5.17078 4.27536 5.24093 4.3345 5.3L4.3905 5.358C4.71512 5.68976 4.93423 6.11022 5.02019 6.56635C5.10615 7.02247 5.05511 7.49384 4.8735 7.921C4.70675 8.35646 4.41423 8.73247 4.03315 9.00118C3.65207 9.26989 3.19967 9.41917 2.7335 9.43H2.6365C2.46769 9.43 2.30579 9.49706 2.18643 9.61643C2.06706 9.73579 2 9.89769 2 10.0665C2 10.2353 2.06706 10.3972 2.18643 10.5166C2.30579 10.6359 2.46769 10.703 2.6365 10.703H2.7795C3.23705 10.7048 3.68413 10.8401 4.06588 11.0923C4.44762 11.3446 4.74743 11.7028 4.9285 12.123C5.1165 12.552 5.172 13.0274 5.0879 13.4882C5.0038 13.9489 4.78393 14.3741 4.4565 14.709L4.3985 14.767C4.30981 14.8563 4.24941 14.9698 4.22487 15.0932C4.20032 15.2166 4.21272 15.3446 4.2605 15.461C4.30049 15.558 4.36382 15.6436 4.44487 15.7103C4.52592 15.7769 4.62217 15.8225 4.72507 15.843C4.82798 15.8635 4.93435 15.8582 5.03474 15.8277C5.13512 15.7971 5.22641 15.7423 5.3005 15.668L5.3575 15.611C5.68926 15.2864 6.10971 15.0673 6.56584 14.9813C7.02197 14.8954 7.49334 14.9464 7.9205 15.128C8.35596 15.2947 8.73197 15.5873 9.00068 15.9683C9.26939 16.3494 9.41866 16.8018 9.4295 17.268V17.365C9.4295 17.5338 9.49656 17.6957 9.61593 17.8151C9.73529 17.9344 9.89719 18.0015 10.066 18.0015C10.2348 18.0015 10.3967 17.9344 10.5161 17.8151C10.6354 17.6957 10.7025 17.5338 10.7025 17.365V17.22C10.7044 16.7625 10.8398 16.3155 11.092 15.9337C11.3442 15.552 11.7024 15.2522 12.1225 15.071C12.5515 14.8829 13.0269 14.8273 13.4877 14.9114C13.9485 14.9955 14.3736 15.2155 14.7085 15.543L14.7665 15.601C14.8558 15.6897 14.9693 15.7501 15.0927 15.7746C15.2161 15.7992 15.3441 15.7868 15.4605 15.739C15.5376 15.707 15.6076 15.6601 15.6665 15.601C15.7857 15.4816 15.8526 15.3187 15.8526 15.15C15.8526 14.9813 15.7857 14.8194 15.6665 14.7L15.6105 14.642C15.2827 14.3071 15.0625 13.8818 14.9782 13.4209C14.8939 12.9599 14.9494 12.4842 15.1375 12.055C15.3186 11.6348 15.6184 11.2766 16.0001 11.0243C16.3819 10.7721 16.8289 10.6368 17.2865 10.635H17.3645C17.5332 10.635 17.6949 10.568 17.8142 10.4487C17.9335 10.3294 18.0005 10.1677 18.0005 9.999C18.0005 9.83032 17.9335 9.66855 17.8142 9.54928C17.6949 9.43001 17.5332 9.363 17.3645 9.363H17.2205C16.762 9.36119 16.3141 9.22531 15.9319 8.97211C15.5497 8.71891 15.25 8.35945 15.0695 7.938C15.0358 7.85965 15.0123 7.77732 14.9995 7.693C14.8591 7.28149 14.8356 6.83909 14.9316 6.41503C15.0277 5.99096 15.2395 5.60186 15.5435 5.291L15.6015 5.233C15.6902 5.14371 15.7506 5.03024 15.7751 4.90681C15.7997 4.78337 15.7873 4.65543 15.7395 4.539C15.7074 4.46196 15.6605 4.39196 15.6015 4.333C15.5424 4.27386 15.4713 4.22694 15.3941 4.19493C15.3169 4.16292 15.2341 4.14644 15.1505 4.14644C15.0669 4.14644 14.9841 4.16292 14.9069 4.19493C14.8297 4.22694 14.7596 4.27386 14.7005 4.333L14.6425 4.389C14.3075 4.71663 13.8822 4.93663 13.4212 5.02073C12.9602 5.10484 12.4846 5.04921 12.0555 4.861C11.6355 4.68 11.2774 4.38035 11.0251 3.9988C10.7729 3.61725 10.6375 3.17038 10.6355 2.713V2.635C10.635 2.46675 10.5679 2.30554 10.4489 2.18657C10.33 2.0676 10.1687 2.00053 10.0005 2ZM16.0555 12.454L16.9695 12.858C16.9415 12.9215 16.933 12.992 16.9451 13.0603C16.9572 13.1287 16.9893 13.192 17.0375 13.242L17.0805 13.285C17.3255 13.5299 17.5198 13.8206 17.6524 14.1406C17.785 14.4606 17.8532 14.8036 17.8532 15.15C17.8532 15.4964 17.785 15.8394 17.6524 16.1594C17.5198 16.4794 17.3255 16.7701 17.0805 17.015C16.8358 17.2602 16.5461 17.4548 16.226 17.5875C15.906 17.7202 15.563 17.7885 15.2165 17.7885C14.87 17.7885 14.527 17.7202 14.207 17.5875C13.887 17.4548 13.5962 17.2602 13.3515 17.015L13.3075 16.971C13.2574 16.9232 13.1943 16.8913 13.1262 16.8794C13.058 16.8675 12.9878 16.8761 12.9245 16.904L12.9145 16.908C12.8518 16.9349 12.7984 16.9795 12.7607 17.0363C12.7231 17.0932 12.7028 17.1598 12.7025 17.228V17.364C12.7025 18.0632 12.4247 18.7338 11.9303 19.2283C11.4358 19.7227 10.7652 20.0005 10.066 20.0005C9.36676 20.0005 8.69615 19.7227 8.20171 19.2283C7.70727 18.7338 7.4295 18.0632 7.4295 17.364V17.305C7.42624 17.2362 7.40278 17.17 7.36205 17.1145C7.32132 17.059 7.26512 17.0167 7.2005 16.993C7.18093 16.9856 7.16158 16.9776 7.1425 16.969C7.07897 16.941 7.00853 16.9325 6.94015 16.9446C6.87177 16.9567 6.80854 16.9888 6.7585 17.037L6.7155 17.08C6.34654 17.4489 5.87654 17.7002 5.36484 17.8022C4.85315 17.9042 4.3227 17.8523 3.8405 17.653C3.43969 17.4871 3.08601 17.2248 2.8108 16.8895C2.5356 16.5541 2.34737 16.1561 2.26281 15.7306C2.17825 15.3051 2.19996 14.8653 2.32602 14.4503C2.45208 14.0352 2.6786 13.6576 2.9855 13.351L3.0295 13.307C3.07728 13.2569 3.10915 13.1938 3.12108 13.1257C3.133 13.0575 3.12445 12.9873 3.0965 12.924L3.0925 12.914C3.06561 12.8513 3.021 12.7979 2.96415 12.7602C2.90731 12.7226 2.84069 12.7023 2.7725 12.702H2.6365C1.93726 12.702 1.26665 12.4242 0.772213 11.9298C0.277773 11.4353 0 10.7647 0 10.0655C0 9.36626 0.277773 8.69565 0.772213 8.20121C1.26665 7.70677 1.93726 7.429 2.6365 7.429H2.6945C2.76344 7.42593 2.82993 7.40256 2.88562 7.36182C2.94131 7.32107 2.98371 7.26477 3.0075 7.2C3.0145 7.18 3.0225 7.161 3.0315 7.142C3.05954 7.07847 3.06805 7.00803 3.05594 6.93965C3.04383 6.87127 3.01165 6.80804 2.9635 6.758L2.9205 6.715C2.42587 6.22037 2.14799 5.54951 2.14799 4.85C2.14799 4.15049 2.42587 3.47963 2.9205 2.985C3.41513 2.49037 4.08599 2.21249 4.7855 2.21249C5.48501 2.21249 6.15587 2.49037 6.6505 2.985L6.6935 3.029C6.74356 3.07678 6.80667 3.10865 6.87484 3.12058C6.94301 3.1325 7.01319 3.12395 7.0765 3.096C7.12786 3.07323 7.18105 3.05483 7.2355 3.041C7.27536 3.00854 7.30759 2.9677 7.32988 2.92138C7.35218 2.87507 7.364 2.8244 7.3645 2.773V2.636C7.3645 1.93689 7.64222 1.26641 8.13657 0.772067C8.63091 0.277721 9.30139 0 10.0005 0C10.6996 0 11.3701 0.277721 11.8644 0.772067C12.3588 1.26641 12.6365 1.93689 12.6365 2.636V2.707C12.6369 2.7753 12.6573 2.842 12.6951 2.89886C12.733 2.95572 12.7866 3.00026 12.8495 3.027L12.8595 3.031C12.9229 3.05882 12.9931 3.06721 13.0613 3.05511C13.1295 3.043 13.1925 3.01095 13.2425 2.963L13.2855 2.92C13.7803 2.42585 14.451 2.14821 15.1503 2.14802C15.8496 2.14783 16.5204 2.42511 17.0155 2.919C17.2607 3.16375 17.4553 3.45445 17.588 3.77447C17.7207 4.09449 17.789 4.43754 17.789 4.784C17.789 5.13046 17.7207 5.47351 17.588 5.79353C17.4553 6.11355 17.2607 6.40425 17.0155 6.649L16.9715 6.693C16.9237 6.74306 16.8918 6.80617 16.8799 6.87434C16.868 6.94251 16.8766 7.01269 16.9045 7.076C16.9275 7.128 16.9445 7.181 16.9595 7.235C16.9919 7.27492 17.0327 7.30718 17.0791 7.32948C17.1254 7.35178 17.1761 7.36357 17.2275 7.364H17.3645C18.0636 7.364 18.7341 7.64172 19.2284 8.13607C19.7228 8.63041 20.0005 9.30089 20.0005 10C20.0005 10.6991 19.7228 11.3696 19.2284 11.8639C18.7341 12.3583 18.0636 12.636 17.3645 12.636H17.2935C17.2252 12.6364 17.1585 12.6568 17.1016 12.6946C17.0448 12.7325 17.0002 12.7861 16.9735 12.849L16.0555 12.454Z" fill="#212121" fill-opacity="0.5"/>
</svg>
