<svg width="76" height="80" viewBox="0 0 76 80" fill="none" xmlns="http://www.w3.org/2000/svg">
<path fill-rule="evenodd" clip-rule="evenodd" d="M18.942 56.1925L20.432 56.1409V77.1395C20.432 77.6148 20.8188 78 21.296 78H73.136C73.6132 78 74 77.6148 74 77.1395V5.15504C74 3.41256 72.5816 2 70.832 2H23.6C21.8504 2 20.432 3.41256 20.432 5.15504V20.1227L18.942 20.0711C18.767 20.065 18.5917 20.062 18.416 20.062C9.3809 20.062 2 28.1241 2 38.1318C2 48.1395 9.3809 56.2015 18.416 56.2015C18.5917 56.2015 18.767 56.1985 18.942 56.1925ZM19.1072 49.2903C18.8778 49.3086 18.6473 49.3178 18.416 49.3178C12.9625 49.3178 8.6432 44.263 8.6432 38.1318C8.6432 32.0006 12.9625 26.9457 18.416 26.9457C18.6473 26.9457 18.8778 26.9549 19.1072 26.9733L20.432 27.0791V49.1844L19.1072 49.2903Z" fill="white" stroke="#1170B2" stroke-width="2.5" stroke-linejoin="round"/>
</svg>
