<svg width="14" height="14" viewBox="0 0 14 14" fill="none" xmlns="http://www.w3.org/2000/svg">
<path d="M14 7C14 10.8659 10.8659 14 7 14C3.13444 14 0 10.8659 0 7C0 3.13444 3.13444 0 7 0C10.8659 0 14 3.13444 14 7Z" fill="#FFCC4D"/>
<path d="M11.2778 10.5C12.3517 10.5 13.2222 9.62945 13.2222 8.55556C13.2222 7.48167 12.3517 6.61111 11.2778 6.61111C10.2039 6.61111 9.33334 7.48167 9.33334 8.55556C9.33334 9.62945 10.2039 10.5 11.2778 10.5Z" fill="#FF7892"/>
<path d="M2.72222 10.5C3.7961 10.5 4.66666 9.62945 4.66666 8.55556C4.66666 7.48167 3.7961 6.61111 2.72222 6.61111C1.64833 6.61111 0.777771 7.48167 0.777771 8.55556C0.777771 9.62945 1.64833 10.5 2.72222 10.5Z" fill="#FF7892"/>
<path d="M11.2778 5.44444C11.1782 5.44444 11.0787 5.40633 11.0028 5.33049C10.0007 4.32911 8.25924 4.65538 8.24213 4.65927C8.02902 4.70166 7.82718 4.56322 7.78557 4.35322C7.74396 4.14283 7.87968 3.93866 8.09007 3.89666C8.17835 3.87877 10.2535 3.48249 11.5523 4.78061C11.7044 4.93266 11.7044 5.17844 11.5523 5.33049C11.4769 5.40633 11.3773 5.44444 11.2778 5.44444ZM2.72224 5.44444C2.62268 5.44444 2.52313 5.40633 2.44729 5.33049C2.29524 5.17844 2.29524 4.93266 2.44729 4.78061C3.74618 3.48133 5.82207 3.87916 5.90957 3.89666C6.12035 3.93866 6.25685 4.14361 6.21446 4.35438C6.17246 4.56438 5.96829 4.70127 5.75752 4.65966C5.73068 4.65383 3.99624 4.33183 2.99718 5.33088C2.92135 5.40633 2.82179 5.44444 2.72224 5.44444ZM10.1111 7.38888C10.0116 7.38888 9.91202 7.35077 9.83618 7.27494C9.32907 6.76744 8.24563 6.89616 7.87152 6.98872C7.66152 7.04005 7.45268 6.91288 7.40057 6.70483C7.34885 6.49638 7.47524 6.28599 7.68368 6.23388C7.75602 6.21599 9.46285 5.80183 10.3861 6.72505C10.5381 6.87711 10.5381 7.12288 10.3861 7.27494C10.3102 7.35077 10.2107 7.38888 10.1111 7.38888ZM3.8889 7.38888C3.78935 7.38888 3.68979 7.35077 3.61396 7.27494C3.4619 7.12288 3.4619 6.87711 3.61396 6.72505C4.53679 5.80222 6.2444 6.21599 6.31674 6.23388C6.52479 6.28599 6.65118 6.49638 6.59946 6.70483C6.54813 6.91327 6.33774 7.04044 6.1289 6.98872C5.75402 6.89655 4.67096 6.76822 4.16424 7.27494C4.08802 7.35077 3.98846 7.38888 3.8889 7.38888Z" fill="#664500"/>
<path d="M5.05554 9.72222C5.05554 9.72222 5.44443 11.2778 6.99999 11.2778C8.55554 11.2778 8.94443 9.72222 8.94443 9.72222C8.94443 9.72222 8.55554 10.1111 6.99999 10.1111C5.44443 10.1111 5.05554 9.72222 5.05554 9.72222Z" fill="#664500"/>
<path d="M7.00001 11.4722C5.31223 11.4722 4.87123 9.78639 4.86695 9.76928C4.84556 9.6845 4.88368 9.59622 4.95951 9.55267C5.03379 9.51145 5.12673 9.52195 5.18934 9.58067C5.20451 9.59389 5.6039 9.91667 7.00001 9.91667C8.41712 9.91667 8.80718 9.58417 8.81106 9.58106C8.87523 9.52428 8.97012 9.51456 9.04323 9.55772C9.11634 9.60167 9.15368 9.68645 9.13306 9.76928C9.12879 9.78639 8.68779 11.4722 7.00001 11.4722ZM5.42462 10.1142C5.64901 10.528 6.1149 11.0833 7.00001 11.0833C7.88512 11.0833 8.3514 10.528 8.5754 10.1142C8.25651 10.2146 7.75834 10.3056 7.00001 10.3056C6.24168 10.3056 5.74351 10.2146 5.42462 10.1142Z" fill="#664500"/>
</svg>
