<svg width="18" height="18" viewBox="0 0 18 18" fill="none" xmlns="http://www.w3.org/2000/svg">
<path fill-rule="evenodd" clip-rule="evenodd" d="M14.5 0C14.6989 0 14.8896 0.0790177 15.0303 0.21967C15.1709 0.360322 15.25 0.551088 15.25 0.75V2.75H17.25C17.4489 2.75 17.6396 2.82902 17.7803 2.96967C17.9209 3.11032 18 3.30109 18 3.5C18 3.69891 17.9209 3.88968 17.7803 4.03033C17.6396 4.17098 17.4489 4.25 17.25 4.25H15.25V6.25C15.25 6.44891 15.1709 6.63968 15.0303 6.78033C14.8896 6.92098 14.6989 7 14.5 7C14.3011 7 14.1103 6.92098 13.9696 6.78033C13.829 6.63968 13.75 6.44891 13.75 6.25V4.25H11.75C11.5511 4.25 11.3603 4.17098 11.2196 4.03033C11.079 3.88968 11 3.69891 11 3.5C11 3.30109 11.079 3.11032 11.2196 2.96967C11.3603 2.82902 11.5511 2.75 11.75 2.75H13.75V0.75C13.75 0.551088 13.829 0.360322 13.9696 0.21967C14.1103 0.0790177 14.3011 0 14.5 0ZM1.49997 10C1.49994 9.09022 1.69089 8.19056 2.06048 7.35923C2.43007 6.5279 2.97006 5.78342 3.64552 5.17394C4.32098 4.56446 5.11686 4.10357 5.98167 3.82108C6.84649 3.53858 7.76097 3.44078 8.66597 3.534C8.86395 3.55416 9.06183 3.49484 9.21608 3.3691C9.37033 3.24335 9.46831 3.06148 9.48847 2.8635C9.50862 2.66552 9.4493 2.46763 9.32356 2.31339C9.19782 2.15914 9.01595 2.06116 8.81797 2.041C7.17447 1.87208 5.51899 2.21613 4.0789 3.02592C2.63881 3.8357 1.48476 5.07148 0.775255 6.56353C0.0657507 8.05558 -0.164402 9.7307 0.116409 11.3588C0.39722 12.9869 1.17522 14.4882 2.34355 15.6563C3.51188 16.8245 5.01322 17.6023 6.64138 17.8829C8.26953 18.1634 9.94461 17.9331 11.4366 17.2233C12.9285 16.5136 14.1641 15.3594 14.9737 13.9192C15.7833 12.479 16.1271 10.8235 15.958 9.18C15.9343 8.98502 15.8351 8.80709 15.6817 8.68447C15.5282 8.56184 15.3328 8.5043 15.1374 8.52421C14.942 8.54412 14.7622 8.63988 14.6367 8.79093C14.5111 8.94198 14.4498 9.13625 14.466 9.332C14.4887 9.55394 14.5001 9.7769 14.5 10C14.5 11.7239 13.8151 13.3772 12.5962 14.5962C11.3772 15.8152 9.72387 16.5 7.99997 16.5C6.27606 16.5 4.62276 15.8152 3.40377 14.5962C2.18479 13.3772 1.49997 11.7239 1.49997 10ZM5.74997 9.5C6.08149 9.5 6.39943 9.3683 6.63385 9.13388C6.86827 8.89946 6.99997 8.58152 6.99997 8.25C6.99997 7.91848 6.86827 7.60054 6.63385 7.36612C6.39943 7.1317 6.08149 7 5.74997 7C5.41845 7 5.1005 7.1317 4.86608 7.36612C4.63166 7.60054 4.49997 7.91848 4.49997 8.25C4.49997 8.58152 4.63166 8.89946 4.86608 9.13388C5.1005 9.3683 5.41845 9.5 5.74997 9.5ZM10.25 9.5C10.5815 9.5 10.8994 9.3683 11.1338 9.13388C11.3683 8.89946 11.5 8.58152 11.5 8.25C11.5 7.91848 11.3683 7.60054 11.1338 7.36612C10.8994 7.1317 10.5815 7 10.25 7C9.91844 7 9.6005 7.1317 9.36608 7.36612C9.13166 7.60054 8.99997 7.91848 8.99997 8.25C8.99997 8.58152 9.13166 8.89946 9.36608 9.13388C9.6005 9.3683 9.91844 9.5 10.25 9.5ZM7.99997 14C9.27697 14 10.553 13.276 11.06 11.827C11.208 11.401 10.851 11 10.4 11H5.59997C5.14797 11 4.79197 11.4 4.93997 11.827C5.44797 13.276 6.72397 14 7.99997 14Z" fill="#1D1C1D" fill-opacity="0.7"/>
</svg>
