<svg width="27" height="28" viewBox="0 0 27 28" fill="none" xmlns="http://www.w3.org/2000/svg">
<path fill-rule="evenodd" clip-rule="evenodd" d="M3.24 0.5C1.4506 0.5 0 1.9506 0 3.74V24.26C0 26.0494 1.4506 27.5 3.24 27.5H23.76C25.5494 27.5 27 26.0494 27 24.26V3.74C27 1.9506 25.5494 0.5 23.76 0.5H3.24ZM17.1801 19.2559C17.3484 19.1965 17.5464 19.0678 17.7741 18.8698C18.1107 18.5827 18.274 18.3253 18.2642 18.0976C18.2642 17.8699 18.1255 17.6026 17.8483 17.2957L14.9908 13.9589L17.8483 10.6281C18.1255 10.3311 18.2642 10.0638 18.2642 9.82619C18.274 9.58859 18.1107 9.32623 17.7741 9.03914C17.5563 8.83124 17.3633 8.69758 17.195 8.63818C17.0266 8.57878 16.8633 8.58869 16.7049 8.66789C16.5465 8.74709 16.3732 8.90054 16.1852 9.12823L13.5196 12.2409L10.854 9.12823C10.6659 8.90054 10.4926 8.74709 10.3343 8.66789C10.1759 8.58869 10.0125 8.57878 9.8442 8.63818C9.6759 8.69758 9.48285 8.83124 9.26505 9.03914C8.93835 9.32623 8.775 9.58859 8.775 9.82619C8.775 10.0638 8.9136 10.3311 9.1908 10.6281L12.0484 13.9589L9.1908 17.2957C8.9136 17.6026 8.775 17.8699 8.775 18.0976C8.775 18.3253 8.93835 18.5827 9.26505 18.8698C9.49275 19.0678 9.69075 19.1965 9.85905 19.2559C10.0274 19.3153 10.1907 19.3054 10.3491 19.2262C10.5075 19.147 10.6758 18.9985 10.854 18.7807L13.5196 15.6737L16.1852 18.7807C16.3732 18.9985 16.5415 19.147 16.6901 19.2262C16.8484 19.3054 17.0118 19.3153 17.1801 19.2559Z" fill="#01AC49"/>
</svg>
