<svg width="24" height="24" viewBox="0 0 24 24" fill="none" xmlns="http://www.w3.org/2000/svg">
<path d="M7.08 16.08C7.76 15.56 8.52 15.15 9.36 14.85C10.2 14.55 11.08 14.4 12 14.4C12.92 14.4 13.8 14.55 14.64 14.85C15.48 15.15 16.24 15.56 16.92 16.08C17.3867 15.5333 17.75 14.9133 18.01 14.22C18.27 13.5267 18.4 12.7867 18.4 12C18.4 10.2267 17.7767 8.71667 16.53 7.47C15.2833 6.22333 13.7733 5.6 12 5.6C10.2267 5.6 8.71667 6.22333 7.47 7.47C6.22333 8.71667 5.6 10.2267 5.6 12C5.6 12.7867 5.73 13.5267 5.99 14.22C6.25 14.9133 6.61333 15.5333 7.08 16.08ZM12 12.8C11.2133 12.8 10.55 12.53 10.01 11.99C9.47 11.45 9.2 10.7867 9.2 10C9.2 9.21333 9.47 8.55 10.01 8.01C10.55 7.47 11.2133 7.2 12 7.2C12.7867 7.2 13.45 7.47 13.99 8.01C14.53 8.55 14.8 9.21333 14.8 10C14.8 10.7867 14.53 11.45 13.99 11.99C13.45 12.53 12.7867 12.8 12 12.8ZM12 20C10.8933 20 9.85333 19.79 8.88 19.37C7.90667 18.95 7.06 18.38 6.34 17.66C5.62 16.94 5.05 16.0933 4.63 15.12C4.21 14.1467 4 13.1067 4 12C4 10.8933 4.21 9.85333 4.63 8.88C5.05 7.90667 5.62 7.06 6.34 6.34C7.06 5.62 7.90667 5.05 8.88 4.63C9.85333 4.21 10.8933 4 12 4C13.1067 4 14.1467 4.21 15.12 4.63C16.0933 5.05 16.94 5.62 17.66 6.34C18.38 7.06 18.95 7.90667 19.37 8.88C19.79 9.85333 20 10.8933 20 12C20 13.1067 19.79 14.1467 19.37 15.12C18.95 16.0933 18.38 16.94 17.66 17.66C16.94 18.38 16.0933 18.95 15.12 19.37C14.1467 19.79 13.1067 20 12 20ZM12 18.4C12.7067 18.4 13.3733 18.2967 14 18.09C14.6267 17.8833 15.2 17.5867 15.72 17.2C15.2 16.8133 14.6267 16.5167 14 16.31C13.3733 16.1033 12.7067 16 12 16C11.2933 16 10.6267 16.1033 10 16.31C9.37333 16.5167 8.8 16.8133 8.28 17.2C8.8 17.5867 9.37333 17.8833 10 18.09C10.6267 18.2967 11.2933 18.4 12 18.4ZM12 11.2C12.3467 11.2 12.6333 11.0867 12.86 10.86C13.0867 10.6333 13.2 10.3467 13.2 10C13.2 9.65333 13.0867 9.36667 12.86 9.14C12.6333 8.91333 12.3467 8.8 12 8.8C11.6533 8.8 11.3667 8.91333 11.14 9.14C10.9133 9.36667 10.8 9.65333 10.8 10C10.8 10.3467 10.9133 10.6333 11.14 10.86C11.3667 11.0867 11.6533 11.2 12 11.2Z" fill="black"/>
</svg>
