<svg width="14" height="20" viewBox="0 0 14 20" fill="none" xmlns="http://www.w3.org/2000/svg">
<path d="M13.875 7.50018C13.8757 6.34158 13.5836 5.20161 13.0258 4.18613C12.468 3.17066 11.6626 2.31262 10.6844 1.69171C9.70623 1.07081 8.58701 0.70718 7.43069 0.634599C6.27438 0.562018 5.11847 0.782839 4.07034 1.27655C3.02221 1.77027 2.11584 2.52086 1.43544 3.45861C0.755032 4.39637 0.32265 5.49087 0.178455 6.64045C0.03426 7.79004 0.182928 8.95742 0.61065 10.0342C1.03837 11.1109 1.73128 12.0621 2.625 12.7994V18.7502C2.62492 18.8568 2.65211 18.9616 2.70397 19.0547C2.75584 19.1479 2.83065 19.2262 2.92131 19.2822C3.01197 19.3383 3.11546 19.3702 3.22195 19.375C3.32843 19.3798 3.43437 19.3573 3.52969 19.3096L7 17.5783L10.4711 19.3135C10.5581 19.3551 10.6535 19.3762 10.75 19.3752C10.9158 19.3752 11.0747 19.3093 11.1919 19.1921C11.3092 19.0749 11.375 18.9159 11.375 18.7502V12.7994C12.157 12.1554 12.7867 11.3462 13.2189 10.43C13.6512 9.51377 13.8752 8.51323 13.875 7.50018ZM1.375 7.50018C1.375 6.38766 1.7049 5.30012 2.32298 4.37509C2.94107 3.45007 3.81957 2.7291 4.84741 2.30335C5.87524 1.87761 7.00624 1.76622 8.09738 1.98326C9.18853 2.2003 10.1908 2.73603 10.9775 3.5227C11.7641 4.30937 12.2999 5.31165 12.5169 6.40279C12.734 7.49394 12.6226 8.62494 12.1968 9.65277C11.7711 10.6806 11.0501 11.5591 10.1251 12.1772C9.20006 12.7953 8.11252 13.1252 7 13.1252C5.50867 13.1235 4.07889 12.5304 3.02435 11.4758C1.96982 10.4213 1.37666 8.99151 1.375 7.50018ZM10.125 17.7392L7.27891 16.3166C7.19208 16.2731 7.09631 16.2505 6.99922 16.2505C6.90212 16.2505 6.80636 16.2731 6.71953 16.3166L3.875 17.7392V13.6228C4.84247 14.1173 5.91348 14.3752 7 14.3752C8.08652 14.3752 9.15753 14.1173 10.125 13.6228V17.7392ZM7 11.8752C7.86529 11.8752 8.71116 11.6186 9.43062 11.1379C10.1501 10.6571 10.7108 9.97384 11.042 9.17442C11.3731 8.37499 11.4597 7.49532 11.2909 6.64666C11.1221 5.79799 10.7054 5.01844 10.0936 4.40658C9.48174 3.79473 8.70219 3.37805 7.85352 3.20924C7.00485 3.04043 6.12519 3.12707 5.32576 3.4582C4.52633 3.78934 3.84305 4.35009 3.36232 5.06956C2.88159 5.78902 2.625 6.63488 2.625 7.50018C2.62624 8.66012 3.08758 9.7722 3.90778 10.5924C4.72798 11.4126 5.84006 11.8739 7 11.8752ZM7 4.37518C7.61807 4.37518 8.22225 4.55845 8.73616 4.90183C9.25006 5.24521 9.6506 5.73327 9.88712 6.30429C10.1236 6.87531 10.1855 7.50364 10.065 8.10983C9.94438 8.71602 9.64675 9.27285 9.20971 9.70988C8.77267 10.1469 8.21585 10.4446 7.60966 10.5651C7.00347 10.6857 6.37513 10.6238 5.80412 10.3873C5.2331 10.1508 4.74504 9.75024 4.40166 9.23633C4.05828 8.72243 3.875 8.11824 3.875 7.50018C3.875 6.67137 4.20424 5.87652 4.79029 5.29047C5.37634 4.70442 6.1712 4.37518 7 4.37518Z" fill="#616061"/>
</svg>
