<svg width="135" height="183" viewBox="0 0 135 183" fill="none" xmlns="http://www.w3.org/2000/svg">
<g opacity="0.5">
<path d="M-85.1131 129.12L-83.5029 151.054C-83.4489 151.784 -83.2508 152.503 -82.8907 153.148C-79.6548 158.94 -59.5839 185.456 35.7089 182.816C41.787 182.648 51.6694 181.739 57.6833 180.853C70.5752 178.951 88.1588 176.541 113.732 157.754C115.095 156.753 115.887 155.168 115.887 153.506L117.984 126.81C117.984 123.842 115.494 121.444 112.443 121.474L-79.696 123.404C-82.8598 123.434 -85.3394 126.052 -85.1131 129.12Z" fill="#05A25E"/>
<path d="M16.3787 160.294C72.5703 159.961 118.019 143.242 117.892 122.952C117.765 102.663 72.1097 86.485 15.9181 86.8185C-40.2734 87.152 -85.7226 103.871 -85.5954 124.16C-85.4682 144.45 -39.8128 160.628 16.3787 160.294Z" fill="#C3DBEC"/>
<path d="M16.1616 154.677C63.8382 154.394 102.4 140.209 102.292 122.994C102.184 105.778 63.4474 92.0515 15.7708 92.3345C-31.9057 92.6175 -70.4677 106.803 -70.3598 124.018C-70.2518 141.234 -31.5149 154.96 16.1616 154.677Z" fill="#4D94C5"/>
<path d="M12.5016 154.099C57.4847 153.832 93.8681 140.441 93.7662 124.188C93.6644 107.936 57.1158 94.9779 12.1327 95.245C-32.8504 95.512 -69.2338 108.903 -69.1319 125.155C-69.0301 141.407 -32.4814 154.366 12.5016 154.099Z" fill="#05A25E"/>
<path d="M26.4242 146.727C12.5806 140.715 12.5781 124.741 12.5832 124.065L18.8774 124.115C18.8748 124.631 18.9468 136.773 28.9887 141.135L26.4242 146.727Z" fill="#0E513C"/>
<path d="M14.4468 125.507C14.4468 125.507 16.1032 110.472 51.1831 109.937C51.1831 109.937 54.5013 121.335 14.4468 125.507Z" fill="#657A44"/>
<path d="M-33.5659 107.376C-33.5659 107.376 23.6941 109.866 17.1349 125.459C17.1349 125.459 -27.39 125.599 -33.5659 107.376Z" fill="#657A44"/>
<path d="M-110.29 86.2498L-108.68 108.183C-108.626 108.914 -108.428 109.632 -108.067 110.278C-104.832 116.07 -84.7606 142.586 10.5321 139.945C16.6102 139.777 26.4927 138.869 32.5065 137.983C45.3984 136.081 62.982 133.67 88.5549 114.883C89.9182 113.882 90.7105 112.298 90.7105 110.636L92.8068 83.9397C92.8068 80.9712 90.3169 78.5734 87.2663 78.6034L-104.873 80.5332C-108.037 80.5657 -110.516 83.1838 -110.29 86.2498Z" fill="#05A25E"/>
<path d="M-8.7956 117.419C47.396 117.086 92.8451 100.367 92.7179 80.0774C92.5907 59.7876 46.9353 43.6099 -9.25621 43.9434C-65.4478 44.277 -110.897 60.9954 -110.77 81.2853C-110.643 101.575 -64.9872 117.753 -8.7956 117.419Z" fill="#C3DBEC"/>
<path d="M-9.01611 111.806C38.6604 111.523 77.2223 97.338 77.1144 80.1224C77.0065 62.9069 38.2696 49.1803 -9.40693 49.4633C-57.0834 49.7463 -95.6454 63.9317 -95.5375 81.1473C-95.4296 98.3628 -56.6926 112.089 -9.01611 111.806Z" fill="#4D94C5"/>
<path d="M-12.6761 111.228C32.307 110.961 68.6903 97.5697 68.5884 81.3177C68.4865 65.0656 31.938 52.1073 -13.0451 52.3743C-58.0281 52.6413 -94.4115 66.0325 -94.3097 82.2846C-94.2078 98.5366 -57.6592 111.495 -12.6761 111.228Z" fill="#05A25E"/>
<path d="M1.25096 103.855C-12.5927 97.8433 -12.5953 81.8696 -12.5901 81.1938L-6.29589 81.2439C-6.29846 81.7595 -6.22644 93.9012 3.81548 98.2638L1.25096 103.855Z" fill="#0E513C"/>
<path d="M-10.7324 82.6372C-10.7324 82.6372 -9.07596 67.6021 26.0039 67.0665C26.0039 67.0665 29.3246 78.4623 -10.7324 82.6372Z" fill="#657A44"/>
<path d="M134.35 27.0397L132.74 48.9729C132.686 49.7037 132.487 50.4222 132.127 51.0679C128.891 56.8597 108.821 83.3782 13.5278 80.7401C7.44968 80.5724 -2.43276 79.6638 -8.44659 78.7778C-21.3385 76.8756 -38.9222 74.4677 -64.4951 55.6807C-65.8584 54.6795 -66.6506 53.0953 -66.6506 51.4333L-68.7495 24.7371C-68.7495 21.7686 -66.2596 19.3707 -63.209 19.4008L128.93 21.3256C132.096 21.3557 134.576 23.9736 134.35 27.0397Z" fill="#05A25E"/>
<path d="M134.776 21.979C134.9 1.68911 89.448 -15.0368 33.2565 -15.3795C-22.935 -15.7221 -68.5875 0.448303 -68.7114 20.7381C-68.8352 41.028 -23.3834 57.7539 32.8081 58.0965C88.9996 58.4391 134.652 42.2688 134.776 21.979Z" fill="#C3DBEC"/>
<path d="M118.523 26.5001C111.293 43.48 67.2285 54.9308 20.103 52.0775C-27.0225 49.2242 -59.3629 33.1479 -52.1324 16.168C-44.9019 -0.811818 -0.837395 -12.2628 46.2881 -9.41196C93.4136 -6.55612 125.754 9.52024 118.523 26.5001Z" fill="#4D94C5"/>
<path d="M118.507 23.0123C118.607 6.76024 82.2222 -6.62751 37.2392 -6.89014C-7.74392 -7.15277 -44.2911 5.80918 -44.3913 22.0612C-44.4915 38.3133 -8.10681 51.7011 36.8763 51.9637C81.8594 52.2263 118.407 39.2643 118.507 23.0123Z" fill="#05A25E"/>
<path d="M22.811 44.6501L20.2466 39.0586C30.3631 34.6634 30.3605 22.1739 30.3579 22.0488L36.6521 21.9912C36.6573 22.6645 36.6572 38.6381 22.811 44.6501Z" fill="#0E513C"/>
<path d="M34.7907 23.4298C34.7907 23.4298 33.1341 8.39478 -1.9457 7.86166C-1.9457 7.86166 -5.26639 19.2574 34.7907 23.4298Z" fill="#657A44"/>
<path d="M82.8014 5.2994C82.8014 5.2994 25.5414 7.78985 32.1005 23.3856C32.1005 23.3856 76.628 23.5207 82.8014 5.2994Z" fill="#657A44"/>
</g>
</svg>
