<svg width="21" height="19" viewBox="0 0 21 19" fill="none" xmlns="http://www.w3.org/2000/svg">
<path d="M3.98877 19C3.66149 19 3.41367 18.7033 3.47087 18.38L4.10811 14.7778H0.526147C0.199374 14.7778 -0.048309 14.482 0.00801517 14.159L0.192116 13.1035C0.236163 12.851 0.454727 12.6667 0.710247 12.6667H4.47631L5.59143 6.33333H2.00947C1.6827 6.33333 1.43501 6.03754 1.49134 5.71458L1.67544 4.65902C1.71949 4.40648 1.93805 4.22222 2.19357 4.22222H5.95963L6.62951 0.435543C6.67408 0.183572 6.89237 0 7.14741 0H8.18297C8.5102 0 8.75805 0.296685 8.70082 0.620012L8.06364 4.22222H14.3756L15.0456 0.435543C15.0901 0.183572 15.3083 0 15.5635 0H16.5989C16.9262 0 17.1741 0.296685 17.1168 0.620012L16.4796 4.22222H20.0616C20.3884 4.22222 20.6361 4.51802 20.5797 4.84098L20.3956 5.89653C20.3516 6.14908 20.133 6.33333 19.8775 6.33333H16.1114L14.9963 12.6667H18.5783C18.905 12.6667 19.1528 12.9624 19.0964 13.2854L18.9123 14.341C18.8683 14.5935 18.6497 14.7778 18.3942 14.7778H14.6281L13.9582 18.5645C13.9137 18.8164 13.6954 19 13.4403 19H12.4048C12.0775 19 11.8297 18.7033 11.8869 18.38L12.5241 14.7778H6.21211L5.54224 18.5645C5.49767 18.8164 5.27937 19 5.02433 19H3.98877ZM7.6959 6.33333L6.58078 12.6667H12.8927L14.0079 6.33333H7.6959Z" fill="white"/>
</svg>
