<svg width="36" height="36" viewBox="0 0 36 36" fill="none" xmlns="http://www.w3.org/2000/svg">
<rect x="2" y="2" width="32" height="32" rx="16" fill="#88B7D8"/>
<rect x="2" y="2" width="32" height="32" rx="16" stroke="#C3DBEC" stroke-width="4"/>
<g clip-path="url(#clip0_5080_14493)">
<path d="M17.9997 11.3333L24.6663 15.6666M17.9997 11.3333L11.333 15.6666M17.9997 11.3333V15.6666M24.6663 15.6666V20.3333M24.6663 15.6666L17.9997 20.3333M24.6663 20.3333L17.9997 24.6666M24.6663 20.3333L17.9997 15.6666M17.9997 24.6666L11.333 20.3333M17.9997 24.6666V20.3333M11.333 20.3333V15.6666M11.333 20.3333L17.9997 15.6666M11.333 15.6666L17.9997 20.3333" stroke="#E6F4F1" stroke-width="1.33333" stroke-linecap="round" stroke-linejoin="round"/>
</g>
<defs>
<clipPath id="clip0_5080_14493">
<rect width="16" height="16" fill="white" transform="translate(10 10)"/>
</clipPath>
</defs>
</svg>
