<svg width="27" height="28" viewBox="0 0 27 28" fill="none" xmlns="http://www.w3.org/2000/svg">
<path fill-rule="evenodd" clip-rule="evenodd" d="M3.24 0.5C1.45059 0.5 0 1.9506 0 3.74V24.26C0 26.0494 1.45059 27.5 3.24 27.5H23.76C25.5494 27.5 27 26.0494 27 24.26V3.74C27 1.9506 25.5494 0.5 23.76 0.5H3.24ZM12.8012 15.863C12.9497 15.9521 13.1923 15.9966 13.5289 15.9966C13.8654 15.9966 14.108 15.9571 14.2565 15.8778C14.405 15.7986 14.4991 15.6898 14.5387 15.5511C14.5783 15.4125 14.5981 15.264 14.5981 15.1056V14.6737C14.6896 14.6445 14.7985 14.6053 14.9248 14.5562C15.103 14.477 15.296 14.373 15.5039 14.2443C15.7217 14.1057 15.9247 13.9325 16.1128 13.7246C16.3009 13.5068 16.4543 13.2444 16.5731 12.9376C16.6919 12.6307 16.7513 12.2743 16.7513 11.8684C16.7513 11.2645 16.6078 10.7299 16.3207 10.2646C16.0434 9.79925 15.6574 9.428 15.1624 9.1508C14.6673 8.8736 14.0981 8.735 13.4546 8.735C12.9992 8.735 12.6032 8.7944 12.2666 8.9132C11.93 9.032 11.6429 9.18545 11.4053 9.37355C11.1677 9.55175 10.9746 9.73985 10.8262 9.93785C10.6875 10.1259 10.5786 10.3041 10.4994 10.4724C10.4202 10.6308 10.3707 10.7496 10.351 10.8289C10.2817 11.0665 10.252 11.2595 10.2618 11.408C10.2718 11.5565 10.341 11.6852 10.4698 11.7941C10.5985 11.8931 10.8014 11.997 11.0786 12.106C11.336 12.2049 11.5439 12.2446 11.7023 12.2247C11.8607 12.1951 11.9894 12.1109 12.0884 11.9723C12.1973 11.8337 12.2914 11.6456 12.3706 11.408C12.4201 11.2991 12.4893 11.2001 12.5785 11.111C12.6676 11.0219 12.7864 10.9477 12.9349 10.8883C13.0834 10.8289 13.2566 10.7991 13.4546 10.7991C13.8803 10.7991 14.1971 10.8932 14.405 11.0813C14.6129 11.2595 14.7168 11.5367 14.7168 11.9129C14.7168 12.1703 14.6624 12.3733 14.5535 12.5217C14.4446 12.6703 14.306 12.794 14.1377 12.893C13.9694 12.9821 13.7912 13.0662 13.6031 13.1454C13.415 13.2247 13.2368 13.3187 13.0685 13.4276C12.9002 13.5266 12.7616 13.6602 12.6527 13.8285C12.5438 13.9869 12.4893 14.2048 12.4893 14.482V15.0166C12.4893 15.1849 12.5042 15.3433 12.5339 15.4917C12.5735 15.6403 12.6626 15.764 12.8012 15.863ZM12.5339 19.1003C12.6923 19.2884 13.0141 19.3824 13.4991 19.3824C13.9051 19.3824 14.1921 19.323 14.3605 19.2042C14.5387 19.0756 14.6426 18.9221 14.6723 18.7439C14.7119 18.5558 14.7317 18.3677 14.7317 18.1796C14.7317 17.7341 14.6525 17.4222 14.4941 17.2441C14.3456 17.056 14.0189 16.9619 13.514 16.9619C13.1081 16.9619 12.821 17.0213 12.6527 17.1401C12.4844 17.2589 12.3804 17.4124 12.3409 17.6004C12.3112 17.7885 12.2963 17.9767 12.2963 18.1647C12.2963 18.6004 12.3755 18.9122 12.5339 19.1003Z" fill="#BCC0D1"/>
</svg>
