<svg width="43" height="13" viewBox="0 0 43 13" fill="none" xmlns="http://www.w3.org/2000/svg">
<path d="M1 11.7475L1.48855 11.9564C1.9771 12.1652 2.95421 12.5829 3.93131 12.4855C4.90841 12.3881 5.88551 11.7756 6.86262 9.64265C7.83972 7.50967 8.81682 3.85617 9.79393 2.9233C10.771 1.99043 11.7481 3.77818 12.7252 4.12018C13.7023 4.46217 14.6794 3.35841 15.6565 3.59618C16.6336 3.83395 17.6107 5.41326 18.5879 6.01443C19.565 6.61559 20.5421 6.2386 21.5192 6.12016C22.4963 6.00172 23.4734 6.14183 24.4505 5.16322C25.4276 4.18461 26.4047 2.08727 27.3818 1.12195C28.3589 0.156623 29.336 0.32331 30.3131 1.56414C31.2902 2.80496 32.2673 5.11993 33.2444 7.30195C34.2215 9.48397 35.1986 11.533 36.1757 10.8956C37.1528 10.2582 38.1299 6.93419 39.107 4.79577C40.0841 2.65735 41.0612 1.70446 41.5498 1.22802L42.0383 0.751582" stroke="#06C270"/>
</svg>
