<svg width="14" height="12" viewBox="0 0 14 12" fill="none" xmlns="http://www.w3.org/2000/svg">
<path fill-rule="evenodd" clip-rule="evenodd" d="M3.75269 3.50475C3.75269 2.724 4.01669 2.13675 4.40819 1.746C4.80119 1.35375 5.35694 1.125 6.00269 1.125C6.64769 1.125 7.20419 1.35375 7.59719 1.746C7.98869 2.13675 8.25269 2.724 8.25269 3.50475C8.25006 4.24193 7.96874 4.95085 7.46519 5.48925C6.99344 5.99775 6.43019 6.24975 6.00269 6.24975C5.57519 6.24975 5.01194 5.99775 4.54019 5.48925C4.03663 4.95085 3.75532 4.24193 3.75269 3.50475ZM6.00269 0C5.08619 0 4.23569 0.3285 3.61319 0.95025C2.98769 1.575 2.62769 2.45775 2.62769 3.50475C2.62903 4.09793 2.76081 4.68355 3.01368 5.22013C3.26654 5.75672 3.63432 6.23112 4.09094 6.60975C3.60732 6.72672 3.1367 6.89206 2.68619 7.10325C1.58819 7.623 0.577938 8.47425 0.100188 9.771C-0.124812 10.3792 0.0499383 10.9635 0.417438 11.37C0.773688 11.7645 1.31219 12 1.87769 12H8.44019C8.58937 12 8.73245 11.9407 8.83794 11.8352C8.94342 11.7298 9.00269 11.5867 9.00269 11.4375C9.00269 11.2883 8.94342 11.1452 8.83794 11.0398C8.73245 10.9343 8.58937 10.875 8.44019 10.875H1.87769C1.61519 10.875 1.38494 10.7625 1.25219 10.6155C1.12994 10.4805 1.09319 10.329 1.15544 10.1602C1.50269 9.21825 2.24969 8.55525 3.16769 8.12025C4.08944 7.6845 5.14244 7.5 6.00269 7.5C6.68294 7.5 7.48844 7.6155 8.25569 7.8825C8.39564 7.92819 8.54794 7.9172 8.67988 7.85186C8.81181 7.78653 8.91288 7.67208 8.96138 7.53307C9.00987 7.39405 9.00194 7.24157 8.93927 7.10835C8.8766 6.97512 8.7642 6.87178 8.62619 6.8205C8.38994 6.738 8.15219 6.66825 7.91369 6.6105C8.37031 6.23187 8.73808 5.75746 8.99095 5.22088C9.24382 4.6843 9.37559 4.09868 9.37694 3.5055C9.37769 2.45775 9.01694 1.57425 8.39219 0.95025C7.76969 0.3285 6.91994 0 6.00269 0ZM10.8777 6.75C11.0269 6.75 11.1699 6.80926 11.2754 6.91475C11.3809 7.02024 11.4402 7.16332 11.4402 7.3125V8.8125H12.9402C13.0894 8.8125 13.2324 8.87176 13.3379 8.97725C13.4434 9.08274 13.5027 9.22582 13.5027 9.375C13.5027 9.52418 13.4434 9.66726 13.3379 9.77275C13.2324 9.87824 13.0894 9.9375 12.9402 9.9375H11.4402V11.4375C11.4402 11.5867 11.3809 11.7298 11.2754 11.8352C11.1699 11.9407 11.0269 12 10.8777 12C10.7285 12 10.5854 11.9407 10.4799 11.8352C10.3745 11.7298 10.3152 11.5867 10.3152 11.4375V9.9375H8.81519C8.666 9.9375 8.52293 9.87824 8.41744 9.77275C8.31195 9.66726 8.25269 9.52418 8.25269 9.375C8.25269 9.22582 8.31195 9.08274 8.41744 8.97725C8.52293 8.87176 8.666 8.8125 8.81519 8.8125H10.3152V7.3125C10.3152 7.16332 10.3745 7.02024 10.4799 6.91475C10.5854 6.80926 10.7285 6.75 10.8777 6.75Z" fill="#1170B2"/>
</svg>
