<svg width="27" height="27" viewBox="0 0 27 27" fill="none" xmlns="http://www.w3.org/2000/svg">
<g opacity="0.2">
<path d="M13.2493 1.01953C10.7752 1.01955 8.35928 1.76991 6.32049 3.17152C4.28169 4.57314 2.7159 6.56011 1.82983 8.87012C0.943767 11.1801 0.779096 13.7045 1.35756 16.1101C1.93602 18.5156 3.23041 20.6892 5.06985 22.3438V22.3436C5.83725 20.8339 7.00765 19.566 8.45136 18.6806C9.89508 17.7952 11.5557 17.3268 13.2493 17.3272C12.2414 17.3272 11.2561 17.0283 10.4181 16.4684C9.58 15.9084 8.92681 15.1125 8.5411 14.1813C8.15538 13.2501 8.05446 12.2254 8.2511 11.2369C8.44773 10.2483 8.93309 9.34026 9.6458 8.62755C10.3585 7.91484 11.2666 7.42947 12.2551 7.23284C13.2437 7.0362 14.2683 7.13712 15.1995 7.52284C16.1307 7.90856 16.9267 8.56174 17.4866 9.3998C18.0466 10.2379 18.3455 11.2231 18.3455 12.2311C18.3455 13.5827 17.8086 14.8789 16.8529 15.8346C15.8971 16.7903 14.6009 17.3272 13.2493 17.3272C14.9429 17.3268 16.6036 17.7952 18.0473 18.6806C19.491 19.566 20.6614 20.8339 21.4288 22.3436C23.2682 20.689 24.5626 18.5155 25.1411 16.11C25.7196 13.7044 25.5549 11.18 24.6688 8.87004C23.7828 6.56004 22.217 4.57308 20.1782 3.17148C18.1394 1.76987 15.7234 1.01954 13.2493 1.01953Z" fill="#88B7D8"/>
</g>
<path d="M25.7458 8.83342C26.6106 11.2861 26.7347 13.939 26.1025 16.4616C25.4703 18.9843 24.1098 21.2652 22.1906 23.0201C22.1404 23.0763 22.0841 23.1268 22.0228 23.1706C19.604 25.3155 16.4832 26.4999 13.2503 26.5C10.0175 26.5001 6.8966 25.3158 4.47769 23.171C4.41586 23.1269 4.35918 23.0761 4.30871 23.0194C2.3375 21.2177 0.957033 18.8621 0.348462 16.2618C-0.260108 13.6615 -0.0683468 10.938 0.898582 8.44862C1.86551 5.95926 3.56243 3.82037 5.76666 2.31263C7.97089 0.804891 10.5794 -0.00124742 13.25 1.44886e-06C13.9493 -2.18413e-05 14.6476 0.0547443 15.3384 0.163797C15.6052 0.206209 15.8444 0.352873 16.0031 0.571543C16.1619 0.790213 16.2273 1.06299 16.1851 1.32989C16.1428 1.5968 15.9962 1.83598 15.7776 1.99486C15.559 2.15373 15.2863 2.2193 15.0194 2.17713C14.4341 2.08477 13.8425 2.03841 13.25 2.03846C11.0889 2.03723 8.97355 2.66097 7.15885 3.83452C5.34415 5.00807 3.90752 6.68135 3.0221 8.65274C2.13667 10.6241 1.84022 12.8095 2.16847 14.9455C2.49671 17.0816 3.43565 19.0771 4.87213 20.6917C6.00827 19.0442 7.60664 17.7699 9.46582 17.0293C8.4673 16.2427 7.73869 15.1646 7.38133 13.9447C7.02397 12.7248 7.05561 11.4239 7.47186 10.2229C7.8881 9.02186 8.66826 7.98038 9.70384 7.24327C10.7394 6.50617 11.979 6.11008 13.2501 6.11009C14.5212 6.1101 15.7607 6.50621 16.7963 7.24333C17.8319 7.98045 18.612 9.02195 19.0283 10.223C19.4445 11.424 19.4761 12.7249 19.1187 13.9448C18.7613 15.1646 18.0327 16.2428 17.0342 17.0294C18.8934 17.7699 20.4917 19.0442 21.6279 20.6917C22.9592 19.1944 23.8651 17.3678 24.2513 15.4019C24.6375 13.4359 24.4899 11.4023 23.8238 9.51274C23.7338 9.25787 23.7486 8.97766 23.8651 8.73374C23.9816 8.48983 24.1903 8.30219 24.4452 8.21211C24.7 8.12202 24.9802 8.13688 25.2241 8.25339C25.4681 8.36991 25.6557 8.57856 25.7458 8.83342ZM13.25 16.3077C14.0563 16.3077 14.8446 16.0686 15.515 15.6206C16.1855 15.1726 16.708 14.5359 17.0166 13.7909C17.3252 13.046 17.4059 12.2262 17.2486 11.4354C17.0913 10.6446 16.703 9.91812 16.1328 9.34795C15.5627 8.77778 14.8362 8.38949 14.0454 8.23219C13.2545 8.07488 12.4348 8.15561 11.6898 8.46419C10.9449 8.77276 10.3081 9.29531 9.86017 9.96576C9.41219 10.6362 9.17308 11.4244 9.17308 12.2308C9.1743 13.3117 9.60423 14.3479 10.3685 15.1122C11.1328 15.8765 12.1691 16.3065 13.25 16.3077ZM13.25 24.4615C15.7385 24.464 18.1565 23.6343 20.1192 22.1044C19.3813 20.9521 18.3654 20.0039 17.165 19.3472C15.9647 18.6904 14.6183 18.3462 13.25 18.3462C11.8817 18.3462 10.5354 18.6904 9.33495 19.3471C8.13455 20.0039 7.11866 20.9521 6.38079 22.1044C8.3435 23.6343 10.7614 24.464 13.25 24.4615Z" fill="#88B7D8"/>
</svg>
