<svg width="24" height="24" viewBox="0 0 24 24" fill="none" xmlns="http://www.w3.org/2000/svg">
<path fill-rule="evenodd" clip-rule="evenodd" d="M8.75269 9.50475C8.75269 8.724 9.01669 8.13675 9.40819 7.746C9.80119 7.35375 10.3569 7.125 11.0027 7.125C11.6477 7.125 12.2042 7.35375 12.5972 7.746C12.9887 8.13675 13.2527 8.724 13.2527 9.50475C13.2501 10.2419 12.9687 10.9508 12.4652 11.4893C11.9934 11.9978 11.4302 12.2498 11.0027 12.2498C10.5752 12.2498 10.0119 11.9978 9.54019 11.4893C9.03663 10.9508 8.75532 10.2419 8.75269 9.50475ZM11.0027 6C10.0862 6 9.23569 6.3285 8.61319 6.95025C7.98769 7.575 7.62769 8.45775 7.62769 9.50475C7.62903 10.0979 7.76081 10.6836 8.01368 11.2201C8.26654 11.7567 8.63432 12.2311 9.09094 12.6097C8.60732 12.7267 8.1367 12.8921 7.68619 13.1032C6.58819 13.623 5.57794 14.4742 5.10019 15.771C4.87519 16.3792 5.04994 16.9635 5.41744 17.37C5.77369 17.7645 6.31219 18 6.87769 18H13.4402C13.5894 18 13.7324 17.9407 13.8379 17.8352C13.9434 17.7298 14.0027 17.5867 14.0027 17.4375C14.0027 17.2883 13.9434 17.1452 13.8379 17.0398C13.7324 16.9343 13.5894 16.875 13.4402 16.875H6.87769C6.61519 16.875 6.38494 16.7625 6.25219 16.6155C6.12994 16.4805 6.09319 16.329 6.15544 16.1602C6.50269 15.2183 7.24969 14.5553 8.16769 14.1202C9.08944 13.6845 10.1424 13.5 11.0027 13.5C11.6829 13.5 12.4884 13.6155 13.2557 13.8825C13.3956 13.9282 13.5479 13.9172 13.6799 13.8519C13.8118 13.7865 13.9129 13.6721 13.9614 13.5331C14.0099 13.3941 14.0019 13.2416 13.9393 13.1083C13.8766 12.9751 13.7642 12.8718 13.6262 12.8205C13.3899 12.738 13.1522 12.6683 12.9137 12.6105C13.3703 12.2319 13.7381 11.7575 13.991 11.2209C14.2438 10.6843 14.3756 10.0987 14.3769 9.5055C14.3777 8.45775 14.0169 7.57425 13.3922 6.95025C12.7697 6.3285 11.9199 6 11.0027 6ZM15.8777 12.75C16.0269 12.75 16.1699 12.8093 16.2754 12.9148C16.3809 13.0202 16.4402 13.1633 16.4402 13.3125V14.8125H17.9402C18.0894 14.8125 18.2324 14.8718 18.3379 14.9773C18.4434 15.0827 18.5027 15.2258 18.5027 15.375C18.5027 15.5242 18.4434 15.6673 18.3379 15.7727C18.2324 15.8782 18.0894 15.9375 17.9402 15.9375H16.4402V17.4375C16.4402 17.5867 16.3809 17.7298 16.2754 17.8352C16.1699 17.9407 16.0269 18 15.8777 18C15.7285 18 15.5854 17.9407 15.4799 17.8352C15.3745 17.7298 15.3152 17.5867 15.3152 17.4375V15.9375H13.8152C13.666 15.9375 13.5229 15.8782 13.4174 15.7727C13.312 15.6673 13.2527 15.5242 13.2527 15.375C13.2527 15.2258 13.312 15.0827 13.4174 14.9773C13.5229 14.8718 13.666 14.8125 13.8152 14.8125H15.3152V13.3125C15.3152 13.1633 15.3745 13.0202 15.4799 12.9148C15.5854 12.8093 15.7285 12.75 15.8777 12.75Z" fill="white"/>
</svg>
