<svg width="27" height="28" viewBox="0 0 27 28" fill="none" xmlns="http://www.w3.org/2000/svg">
<path fill-rule="evenodd" clip-rule="evenodd" d="M3.24 0.5C1.4506 0.5 0 1.9506 0 3.74V24.26C0 26.0494 1.4506 27.5 3.24 27.5H23.76C25.5494 27.5 27 26.0494 27 24.26V3.74C27 1.9506 25.5494 0.5 23.76 0.5H3.24ZM10.1014 19.1512C10.2499 19.2501 10.4528 19.2996 10.7102 19.2996C10.9874 19.2996 11.2003 19.2452 11.3488 19.1363C11.5072 19.0175 11.621 18.8888 11.6903 18.7502C11.7596 18.6116 11.7992 18.5176 11.8091 18.4681L13.5169 12.929L15.2246 18.4681C15.2444 18.5176 15.284 18.6116 15.3434 18.7502C15.4127 18.8789 15.5266 19.0026 15.685 19.1214C15.8434 19.2402 16.0562 19.2996 16.3235 19.2996C16.6007 19.2996 16.8086 19.2501 16.9472 19.1512C17.0957 19.0522 17.1997 18.9433 17.2591 18.8245C17.3284 18.6958 17.3729 18.6017 17.3927 18.5423L20.1845 10.449C20.2638 10.1719 20.2983 9.9491 20.2885 9.7808C20.2885 9.6026 20.2291 9.4541 20.1103 9.3353C19.9915 9.2165 19.7836 9.10265 19.4866 8.99375C19.2094 8.89475 18.9767 8.85515 18.7886 8.87495C18.6104 8.89475 18.4619 8.97395 18.3431 9.11255C18.2342 9.24125 18.1352 9.4442 18.0461 9.72141L16.2047 15.2456L14.6306 9.76595C14.6009 9.69665 14.5564 9.59765 14.497 9.46895C14.4376 9.34025 14.3287 9.22145 14.1703 9.11255C14.0218 9.00365 13.7941 8.9492 13.4872 8.9492C13.2199 8.9492 13.012 8.9987 12.8635 9.0977C12.715 9.1967 12.6061 9.31055 12.5368 9.43925C12.4774 9.56795 12.4328 9.6818 12.4031 9.7808L10.8439 15.2159L8.98763 9.70655C8.89853 9.42935 8.79457 9.2264 8.67578 9.0977C8.56687 8.969 8.42332 8.8997 8.24513 8.8898C8.07682 8.8799 7.85407 8.9195 7.57688 9.0086C7.15118 9.1472 6.89378 9.32045 6.80468 9.52835C6.71557 9.72635 6.73537 10.0333 6.86408 10.449L9.65587 18.5423C9.67568 18.5918 9.71527 18.6809 9.77468 18.8096C9.84397 18.9383 9.95288 19.0522 10.1014 19.1512Z" fill="#2684FF"/>
</svg>
