<svg width="24" height="24" viewBox="0 0 24 24" fill="none" xmlns="http://www.w3.org/2000/svg">
<g clip-path="url(#clip0_3376_4762)">
<path fill-rule="evenodd" clip-rule="evenodd" d="M21.3766 2.59709C22.4093 2.92564 23.2225 3.8937 23.4985 5.12305C24 7.35111 24 12 24 12C24 12 24 16.6487 23.4985 18.8771C23.2225 20.1062 22.4093 21.0743 21.3766 21.403C19.505 22 12 22 12 22C12 22 4.49496 22 2.62336 21.403C1.59082 21.0743 0.777545 20.1062 0.501545 18.8771C0 16.6487 0 12 0 12C0 12 0 7.35111 0.501545 5.12305C0.777545 3.8937 1.59082 2.92564 2.62336 2.59709C4.49496 2 12 2 12 2C12 2 19.505 2 21.3766 2.59709ZM15.8182 12.0001L9.54551 16.2208V7.77911L15.8182 12.0001Z" fill="#4D94C5"/>
</g>
<defs>
<clipPath id="clip0_3376_4762">
<rect width="24" height="24" fill="white"/>
</clipPath>
</defs>
</svg>
