<svg width="26" height="21" viewBox="0 0 26 21" fill="none" xmlns="http://www.w3.org/2000/svg">
<path d="M4.75 5.125C4.75 4.22989 5.10558 3.37145 5.73851 2.73851C6.37145 2.10558 7.22989 1.75 8.125 1.75C9.02011 1.75 9.87855 2.10558 10.5115 2.73851C11.1444 3.37145 11.5 4.22989 11.5 5.125C11.5 6.02011 11.1444 6.87855 10.5115 7.51149C9.87855 8.14442 9.02011 8.5 8.125 8.5C7.22989 8.5 6.37145 8.14442 5.73851 7.51149C5.10558 6.87855 4.75 6.02011 4.75 5.125ZM8.125 0.25C6.83207 0.25 5.59209 0.763614 4.67785 1.67785C3.76361 2.59209 3.25 3.83207 3.25 5.125C3.25 6.41793 3.76361 7.65791 4.67785 8.57215C5.59209 9.48639 6.83207 10 8.125 10C9.41793 10 10.6579 9.48639 11.5721 8.57215C12.4864 7.65791 13 6.41793 13 5.125C13 3.83207 12.4864 2.59209 11.5721 1.67785C10.6579 0.763614 9.41793 0.25 8.125 0.25ZM16.6555 17.7175C17.4625 18.0475 18.478 18.25 19.75 18.25C22.5715 18.25 24.1315 17.248 24.9535 16.099C25.3833 15.4965 25.6523 14.7944 25.735 14.059C25.7424 13.9907 25.7474 13.9222 25.75 13.8535V13.75C25.75 13.4545 25.6918 13.1619 25.5787 12.889C25.4657 12.616 25.2999 12.3679 25.091 12.159C24.8821 11.9501 24.634 11.7843 24.361 11.6713C24.0881 11.5582 23.7955 11.5 23.5 11.5H16.555C16.915 11.935 17.185 12.4435 17.3425 13H23.5C23.6989 13 23.8897 13.079 24.0303 13.2197C24.171 13.3603 24.25 13.5511 24.25 13.75V13.831L24.2425 13.906C24.1862 14.3819 24.0108 14.8359 23.7325 15.226C23.242 15.9145 22.177 16.75 19.75 16.75C18.652 16.75 17.833 16.579 17.2195 16.3285C17.0965 16.7485 16.918 17.2225 16.6555 17.7175ZM0.25 14.5C0.25 13.7044 0.56607 12.9413 1.12868 12.3787C1.69129 11.8161 2.45435 11.5 3.25 11.5H13C13.7956 11.5 14.5587 11.8161 15.1213 12.3787C15.6839 12.9413 16 13.7044 16 14.5V14.626L15.997 14.686L15.982 14.8885C15.8757 15.8606 15.5304 16.7913 14.977 17.5975C13.9255 19.12 11.8945 20.5 8.125 20.5C4.3555 20.5 2.3245 19.12 1.273 17.599C0.719348 16.7923 0.374071 15.8611 0.268 14.8885C0.259443 14.8012 0.25344 14.7137 0.25 14.626V14.5ZM1.75 14.59V14.617L1.7605 14.7415C1.8419 15.4605 2.09839 16.1486 2.5075 16.7455C3.238 17.8015 4.7695 19 8.125 19C11.4805 19 13.012 17.8015 13.7425 16.7455C14.1516 16.1486 14.4081 15.4605 14.4895 14.7415C14.4955 14.6845 14.4985 14.643 14.4985 14.617L14.5 14.5915V14.5C14.5 14.1022 14.342 13.7206 14.0607 13.4393C13.7794 13.158 13.3978 13 13 13H3.25C2.85218 13 2.47064 13.158 2.18934 13.4393C1.90804 13.7206 1.75 14.1022 1.75 14.5V14.59ZM17.5 6.25C17.5 5.65326 17.7371 5.08097 18.159 4.65901C18.581 4.23705 19.1533 4 19.75 4C20.3467 4 20.919 4.23705 21.341 4.65901C21.7629 5.08097 22 5.65326 22 6.25C22 6.84674 21.7629 7.41903 21.341 7.84099C20.919 8.26295 20.3467 8.5 19.75 8.5C19.1533 8.5 18.581 8.26295 18.159 7.84099C17.7371 7.41903 17.5 6.84674 17.5 6.25ZM19.75 2.5C18.7554 2.5 17.8016 2.89509 17.0984 3.59835C16.3951 4.30161 16 5.25544 16 6.25C16 7.24456 16.3951 8.19839 17.0984 8.90165C17.8016 9.60491 18.7554 10 19.75 10C20.7446 10 21.6984 9.60491 22.4016 8.90165C23.1049 8.19839 23.5 7.24456 23.5 6.25C23.5 5.25544 23.1049 4.30161 22.4016 3.59835C21.6984 2.89509 20.7446 2.5 19.75 2.5Z" fill="black"/>
</svg>
